<svg width="155" height="155" viewBox="0 0 155 155" fill="none" xmlns="http://www.w3.org/2000/svg">
<path d="M88.0658 19.7C87.9981 19.3153 86.7663 11.6565 86.4654 11.6565C85.9992 11.7034 58.0686 14.561 58.1879 14.9188C58.4672 17.3733 59.1704 22.3968 59.2551 22.7376C90.3171 19.733 88.1335 20.0824 88.0658 19.7Z" fill="#FCCAC2"/>
<path d="M77.6419 12.5798C77.4926 12.5798 68.7498 13.5408 68.5713 13.5854C66.2492 5.03334 68.1673 4.51321 72.5938 4.22776C75.3137 4.05233 76.0007 4.64171 76.5947 6.73144C77.1319 8.64246 77.4826 10.6011 77.6419 12.5798Z" fill="white"/>
<path d="M132.904 137.591C132.388 137.834 39.86 146.681 39.7815 146.681L26.3813 25.8976C27.2554 25.8976 90.5975 19.7115 119.381 16.9724C119.524 17.8302 132.74 136.729 132.904 137.591Z" fill="white"/>
<path d="M117.377 71.3639C116.824 67.5506 116.727 67.0367 116.405 67.1436C115.619 67.5368 42.0794 74.8378 42.5518 75.7826C43.1235 79.7251 43.2274 79.8805 43.5159 79.7836C44.0076 79.5374 117.606 71.9378 117.377 71.3639ZM43.6798 79.2296C43.4544 78.0801 43.4205 77.2137 43.2358 76.0642L116.282 67.7176C116.487 68.8048 116.672 69.8927 116.836 71.0007C43.7621 79.2404 43.7575 79.2204 43.6798 79.2296Z" fill="#242BA8"/>
<path d="M54.5148 38.2505C103.477 32.8223 111.705 31.9529 112.903 31.6251C113.229 31.5359 112.376 27.3087 112.056 27.4156C111.258 27.815 37.71 35.0698 38.2024 36.0554C38.8026 40.1848 38.7956 40.0364 39.3311 40.0364C39.4066 40.0364 50.6739 38.6768 54.5148 38.2505Z" fill="#242BA8"/>
<path d="M118.735 78.3547C118.181 74.5408 118.102 74.0753 117.78 74.1822C116.994 74.5754 43.4208 81.6886 43.8917 82.6304C44.4641 86.5721 44.6026 86.9191 44.8919 86.8229C45.3843 86.5767 118.965 78.9295 118.735 78.3547ZM45.0558 86.269C44.8375 85.1232 44.6389 83.9738 44.4603 82.8212L117.657 74.757C117.862 75.8441 118.047 76.9321 118.211 78.0401C45.1358 86.279 45.1327 86.259 45.055 86.269H45.0558Z" fill="#242BA8"/>
<path d="M120.119 85.5712C119.566 81.758 119.497 81.4833 119.176 81.5902C118.382 81.9865 44.7856 89.0536 45.2672 90.0176C45.8674 94.1479 45.9151 94.2102 46.4506 94.2102C46.7099 94.2102 48.2441 93.9309 120.017 85.879C120.094 85.879 120.139 85.6681 120.119 85.5712ZM46.4298 93.6947C46.2044 92.5452 46.0197 91.3957 45.8351 90.2469L119.032 82.1827C119.237 83.2699 119.422 84.3578 119.586 85.4658C118.786 85.4412 47.2746 93.5685 46.4298 93.6947Z" fill="#242BA8"/>
<path d="M67.6911 10.8355C67.8527 11.7796 68.0604 12.7029 68.3066 13.6262C68.3943 13.6077 68.4836 13.6008 68.5728 13.6054C69.2115 13.6054 68.3636 13.5354 67.9165 8.72194C67.7626 7.03768 67.7726 5.69044 69.3938 5.02874C70.8905 4.58692 72.4523 4.40655 74.0103 4.49554C75.803 4.67404 76.0977 5.88048 76.5347 7.61475C77.6558 12.065 77.1072 12.7567 77.6512 12.6929C77.7157 12.685 77.7745 12.6521 77.815 12.6013C77.8556 12.5506 77.8747 12.4859 77.8681 12.4213C77.7071 10.8941 77.4535 9.37815 77.1087 7.88173C76.7048 6.14209 76.3863 4.59864 74.6874 4.12699C73.0089 3.89416 71.3011 3.99165 69.66 4.41398C66.7147 5.28265 67.1725 7.80171 67.6911 10.8355Z" fill="#3C58D3"/>
<path d="M72.183 6.36597C71.4267 6.36597 71.0289 7.9048 72.0399 8.04868C73.3125 8.22026 73.2309 6.36597 72.183 6.36597Z" fill="#3C58D3"/>
<path d="M119.586 16.9501C119.519 16.6177 119.559 16.7193 94.7336 19.126C25.9548 25.7845 26.0348 25.3198 25.9602 25.9915C25.9602 26.5532 38.3247 138.705 39.5665 146.616C39.585 146.734 39.6482 146.841 39.7431 146.915C39.8379 146.988 39.9573 147.022 40.0767 147.011C122.74 139.035 131.53 138.253 132.537 137.999C132.618 137.979 132.991 137.761 132.985 137.478C132.927 134.474 130.762 116.42 119.586 16.9501ZM132.553 137.509C40.009 146.438 40.0836 146.415 40.0067 146.435L26.5042 26.1846L119.155 17.2379C130.899 121.798 132.585 137.509 132.553 137.509Z" fill="#3C58D3"/>
<path d="M73.5579 114.238C72.9054 109.418 73.0393 108.914 72.5322 108.985C56.9677 111.135 46.2359 111.654 46.633 112.581C46.4975 112.852 47.4893 117.843 48.9543 131.762C49.5344 137.279 49.3975 137.148 49.6721 137.262C49.9268 137.347 75.7553 134.228 75.7553 133.67C75.8592 133.249 74.0995 118.239 73.5579 114.238ZM50.37 136.728C49.3398 136.9 50.6724 137.698 47.1685 112.883C54.2594 111.98 65.3267 110.766 72.4299 109.498C72.8046 110.997 74.6197 126.94 75.2406 133.383C67.8757 134.681 51.0202 136.664 50.37 136.729V136.728Z" fill="#3C58D3"/>
<path d="M76.7594 105.518C76.6842 105.477 76.5983 105.461 76.5137 105.472C76.4291 105.483 76.35 105.521 76.2877 105.579C75.0705 106.948 62.2551 124.263 61.8997 124.745C58.7389 123.657 55.5843 122.591 52.4359 121.461C51.9742 121.296 51.8019 122.013 52.1481 122.221C56.126 124.968 60.3039 128.329 62.7576 130.367C63.4647 130.956 63.737 130.213 76.8756 106.072C76.9127 106.031 76.9397 105.982 76.9542 105.928C76.9687 105.875 76.9703 105.819 76.959 105.765C76.9476 105.711 76.9236 105.66 76.8889 105.617C76.8542 105.574 76.8098 105.54 76.7594 105.518Z" fill="#242BA8"/>
<path d="M28.6817 19.8845C26.7926 18.4395 25.3084 16.5313 24.3729 14.3447C25.821 10.3614 25.594 5.99654 25.1931 4.86473C24.7853 3.71061 23.4119 3.97605 23.018 5.54181C22.4651 7.95017 22.5499 10.4611 23.2642 12.8266C23.8551 14.7379 23.9436 14.0885 23.5104 15.1041C21.8793 18.9289 19.3694 19.1766 18.0322 17.9156C17.4355 17.2756 16.9499 16.5405 16.5957 15.7404C17.2466 13.6245 18.8578 6.30277 17.2928 4.88473C14.6229 2.46415 13.6888 10.7323 16.0409 15.7612C15.5193 17.377 14.8522 19.4544 13.538 20.3161C11.1451 21.8919 8.6907 17.4485 8.73687 14.4062C8.73687 14.3381 8.70979 14.2727 8.6616 14.2245C8.61341 14.1763 8.54804 14.1493 8.47988 14.1493C8.41173 14.1493 8.34636 14.1763 8.29817 14.2245C8.24998 14.2727 8.2229 14.3381 8.2229 14.4062C8.2229 19.3951 13.3641 25.7274 16.3695 16.3767C17.0619 17.5308 17.7952 18.8558 19.3656 19.0235C21.6838 19.2713 23.2434 17.1 24.1059 14.9194C25.086 17.0168 26.5655 18.8418 28.4147 20.2346C28.7001 20.5231 28.9479 20.0876 28.6817 19.8845ZM16.4287 5.04862C17.4043 5.15403 17.3728 6.42818 17.3728 7.30531C17.3805 9.9244 17.0073 12.5296 16.2648 15.0418C14.7806 12.0741 14.9268 4.8855 16.4287 5.04862ZM24.7807 5.21173C25.2524 8.03549 25.02 10.9331 24.1036 13.6461C21.9431 7.90469 24.1737 2.77577 24.7807 5.21173Z" fill="#EE4532"/>
<path d="M28.2694 101.27C25.6965 100.36 24.0599 97.5402 22.6673 94.9696C22.904 93.1049 23.0138 91.2263 22.9958 89.3467C22.7873 82.2719 18.0846 82.4366 19.1995 87.8494C19.8971 90.3583 20.8889 92.7759 22.1541 95.0519C21.8344 97.5239 21.3478 99.9713 20.6976 102.378C20.6785 102.443 20.6861 102.513 20.7188 102.573C20.7515 102.632 20.8066 102.677 20.8719 102.696C20.9372 102.715 21.0074 102.707 21.067 102.674C21.1267 102.642 21.1709 102.587 21.19 102.521C21.7947 100.323 22.254 98.0866 22.5649 95.8275C23.8983 98.1873 25.4826 100.819 28.1463 101.758C28.451 101.87 28.5756 101.377 28.2694 101.27ZM19.6096 85.325C19.7112 84.8326 20.0205 84.297 20.5945 84.4632C23.2366 85.2257 22.3226 92.7829 22.2364 94.1694C21.1046 91.962 19.1095 87.7548 19.6096 85.325Z" fill="#EE4532"/>
<path d="M127.692 29.7347C127.634 29.4054 127.141 29.5493 127.199 29.8786C127.673 32.5727 128.437 35.2079 129.477 37.7382C129.603 38.0459 130.055 37.7774 129.928 37.4712C128.901 34.9822 128.151 32.3878 127.692 29.7347Z" fill="#242BA8"/>
<path d="M136.659 29.7347C135.989 32.3838 135.367 35.0345 134.73 37.6766C134.716 37.7402 134.727 37.8066 134.76 37.8625C134.794 37.9184 134.847 37.9597 134.909 37.9782C134.972 37.9964 135.039 37.9902 135.097 37.9608C135.155 37.9314 135.2 37.8809 135.222 37.8197C135.88 35.183 136.481 32.5277 137.151 29.8786C137.234 29.5501 136.741 29.407 136.659 29.7347Z" fill="#242BA8"/>
<path d="M144.805 34.6389C143.133 36.2984 141.444 37.9399 139.736 39.5632C139.494 39.794 139.863 40.1625 140.106 39.9325C141.814 38.3167 143.502 36.6594 145.175 35.0082C145.199 34.9841 145.218 34.9554 145.231 34.9236C145.245 34.8919 145.251 34.8579 145.251 34.8236C145.251 34.7543 145.223 34.6879 145.175 34.6389C145.125 34.5903 145.059 34.5627 144.99 34.562C144.956 34.562 144.922 34.5688 144.89 34.582C144.858 34.5952 144.829 34.6145 144.805 34.6389Z" fill="#242BA8"/>
<path d="M139.717 64.5169C136.807 57.8622 142.151 49.0247 137.685 45.8201C137.151 45.4363 136.542 45.1718 135.898 45.0443C135.253 44.9169 134.589 44.9295 133.95 45.0814C132.054 42.1315 127.794 41.2728 124.367 43.6449C120.996 45.9763 120.205 50.1711 119.299 53.8843C117.746 60.242 116.067 59.9942 116.876 60.5944C119.286 62.3756 122.312 62.9303 125.186 63.4266C126.444 63.6436 127.621 61.9439 130.09 64.5753C131.295 65.8603 136.081 66.0888 139.51 65.1093C139.611 65.0534 139.688 64.962 139.726 64.8527C139.765 64.7434 139.761 64.6238 139.717 64.5169Z" fill="#242BA8"/>
<path d="M137.169 54.8522C136.902 53.9289 135.836 53.6812 134.994 53.7851C134.83 53.8051 134.44 53.949 134.317 53.8258C133.505 52.1215 133.213 50.2161 133.476 48.3468C133.661 47.0627 123.52 47.8082 123.277 48.7777C123.277 49.5187 120.211 58.2323 124.549 60.639C125.3 61.0553 125.411 60.7344 125.411 61.0283C125.384 61.7669 125.232 62.4954 124.96 63.1827C125.037 63.1827 124.718 63.242 124.878 63.5313C126.778 66.9782 131.264 65.4779 131.362 64.373C131.425 63.9675 131.198 63.7382 131.198 62.4848C131.196 61.6622 131.292 60.8423 131.485 60.0427C131.647 59.6665 133.454 59.421 134.461 57.0058C135.967 57.5437 137.561 56.1964 137.169 54.8522Z" fill="white"/>
<path d="M124.736 53.128C124.604 51.4107 126.106 51.3238 125.639 53.1896C125.622 53.2557 125.63 53.3261 125.664 53.3858C125.69 53.4298 125.728 53.4649 125.775 53.4867C125.821 53.5085 125.872 53.516 125.923 53.5081C125.973 53.5002 126.02 53.4774 126.057 53.4425C126.095 53.4077 126.121 53.3625 126.132 53.3127C126.523 52.3525 125.986 51.0045 125.024 51.4045C124.323 51.6946 124.051 53.4989 124.551 53.4158C124.603 53.3856 124.646 53.3439 124.678 53.2939C124.71 53.2439 124.73 53.1871 124.736 53.128Z" fill="#3C58D3"/>
<path d="M129.475 53.3127C129.345 52.4663 130.054 51.543 130.337 52.8002C130.49 53.485 130.023 53.9413 130.44 54.0105C130.941 54.1537 131.064 52.6302 130.521 51.9585C129.381 50.5489 128.385 53.732 129.29 53.6004C129.552 53.5627 129.446 53.3127 129.475 53.3127Z" fill="#3C58D3"/>
<path d="M126.583 53.9928C127.241 53.9928 127.62 54.3383 127.671 53.8697C127.767 52.9887 127.808 52.1047 127.855 51.2437C127.874 50.9152 127.357 50.9144 127.342 51.2437C127.308 52.0224 127.261 52.7825 127.199 53.5419C126.718 53.4519 125.791 53.3488 125.968 53.8082C126.272 54.5949 126.686 55.3343 127.199 56.0041C127.403 56.2718 127.835 56.0041 127.65 55.7371C127.209 55.2121 126.85 54.6242 126.583 53.9928Z" fill="#3C58D3"/>
<path d="M126.891 58.8332C127.492 59.2987 128.456 58.6863 128.369 57.3759C128.369 57.3272 128.354 57.2795 128.327 57.239C128.3 57.1985 128.261 57.1669 128.216 57.1482C128.187 57.1357 128.155 57.1292 128.123 57.1292C128.09 57.1292 128.058 57.1357 128.029 57.1482C127.983 57.1664 127.945 57.1979 127.917 57.2386C127.89 57.2792 127.876 57.3271 127.876 57.3759C127.936 58.2223 127.43 58.5201 127.507 58.4431C127.289 58.6609 126.85 57.8838 126.85 57.6222C126.85 57.6991 126.916 57.2067 126.665 57.1705C125.859 56.9012 126.421 58.4693 126.891 58.8332Z" fill="#3C58D3"/>
<path d="M125.397 61.213C126.108 61.3877 128.759 61.7709 128.639 61.0491C128.62 60.9856 128.578 60.9315 128.521 60.8974C128.464 60.8632 128.397 60.8515 128.332 60.8645C127.401 61.0051 126.452 60.9561 125.541 60.7206C125.171 60.6344 125.116 61.213 125.397 61.213Z" fill="#3C58D3"/>
<path d="M134.648 55.8571C135.648 55.7571 136.063 56.2264 136.125 55.7956C136.253 55.3485 135.057 55.2777 134.627 55.3447C134.22 55.4078 134.386 55.8571 134.648 55.8571Z" fill="#3C58D3"/>
<path d="M125.166 49.968C124.738 49.968 125.782 50.1388 125.782 49.5779C125.782 48.7123 123.434 49.4571 123.894 50.0703C124.23 50.5728 124.44 50.0588 125.166 49.968Z" fill="#242BA8"/>
<path d="M131.508 50.7482C131.606 50.7708 131.708 50.756 131.796 50.7065C131.883 50.6571 131.949 50.5767 131.98 50.4812C132.092 49.9211 130.315 48.7308 130.154 49.5371C129.961 49.9695 130.395 49.9003 130.865 50.1919C131.249 50.4304 131.274 50.6543 131.508 50.7482Z" fill="#242BA8"/>
<path d="M146.139 79.6613C145.13 74.4246 143.787 68.0477 139.84 64.9477C138.89 64.1811 137.787 63.6269 136.604 63.3226C135.422 63.0183 134.188 62.9708 132.986 63.1835C132.441 63.3096 131.907 63.4743 131.385 63.6759C131.159 63.8172 130.927 63.9471 130.688 64.0652C129.371 64.5753 127.09 64.8793 125.66 64.0452C124.846 63.5705 124.913 63.2158 124.654 63.1627C116.824 61.5408 113.382 67.6591 109.859 74.203C100.681 65.7302 101.081 66.5689 98.347 64.1237C97.6276 63.4812 93.6666 65.2386 94.2637 65.4371C96.1311 69.8081 97.5668 74.4869 100.564 78.2625C103.169 81.5463 107.231 84.1216 111.582 83.4945C117.638 82.6235 117.067 77.5608 116.651 83.3514C114.994 106.464 114.862 105.616 115.133 105.616C122.416 105.616 140.677 104.75 140.6 104.508C140.502 102.775 140.332 100.584 140.282 98.8143C142.14 97.7379 143.714 96.2327 144.873 94.4244C146.031 92.616 146.741 90.5569 146.942 88.4187C147.093 85.4763 146.822 82.5273 146.139 79.6613Z" fill="#EE4532"/>
<path d="M112.28 144.917C110.503 145.361 105.859 146.896 104.811 148.221C109.366 148.775 113.928 149.336 118.498 149.904C118.609 149.931 118.726 149.916 118.826 149.862C119.182 149.578 119.062 144.091 119.032 143.337L112.28 144.917Z" fill="white"/>
<path d="M138.939 145.45C140.901 146.199 145.059 148.251 145.937 149.677C141.339 149.657 136.743 149.606 132.146 149.596C131.311 149.596 132.333 143.831 132.475 143.008L138.939 145.45Z" fill="white"/>
<path d="M123.567 63.3066C124.759 66.9597 130.067 67.9654 133.294 63.7167C133.497 63.4489 133.048 63.2035 132.842 63.4497C130.03 67.266 125.154 66.5089 124.038 63.1627C124.017 63.1034 123.973 63.0546 123.917 63.0266C123.86 62.9985 123.795 62.9932 123.735 63.0119C123.674 63.0306 123.624 63.0715 123.593 63.1262C123.561 63.1809 123.552 63.2453 123.567 63.3066Z" fill="white"/>
<path d="M139.819 98.6836C134.702 100.453 129.201 101.037 123.792 101.249C123.733 99.6478 123.583 98.0515 123.341 96.4677C125.872 96.0853 128.347 95.389 130.706 94.3949C133.22 93.4147 135.875 92.4583 137.581 90.127C139.479 87.5309 140.153 82.3451 138.032 77.8163C137.888 77.5085 137.457 77.7748 137.581 78.0825C138.416 79.868 138.843 81.8167 138.832 83.7877C138.796 90.4986 135.24 92.4306 128.445 94.7042C123.917 96.2207 122.675 95.6698 122.782 96.3254C123.513 100.823 123.026 101.522 123.418 101.62C123.621 102.026 134.077 101.253 139.937 99.1784C140.247 99.0683 140.125 98.5782 139.819 98.6836Z" fill="white"/>
<path d="M146.16 149.554C145.502 148.506 142.912 147.035 142.712 146.969C142.843 146.855 142.988 146.759 143.143 146.681C143.201 146.648 143.243 146.593 143.261 146.528C143.279 146.464 143.271 146.395 143.238 146.337C143.206 146.278 143.152 146.235 143.089 146.215C143.025 146.195 142.956 146.201 142.897 146.23C141.917 146.742 142.725 146.901 141.091 146.127C141.174 146.006 141.263 145.89 141.358 145.779C141.391 145.741 141.412 145.696 141.42 145.647C141.428 145.597 141.421 145.547 141.402 145.502C141.382 145.456 141.35 145.417 141.309 145.389C141.268 145.361 141.22 145.345 141.17 145.343C141.103 145.341 141.038 145.365 140.988 145.409C140.398 146 140.954 145.997 139.265 145.306C139.485 144.999 140.352 112.515 140.352 104.635C135.32 104.773 121.738 105.745 115.461 105.62L111.849 144.773C109.629 145.312 110.396 145.516 109.633 144.752C109.399 144.518 109.029 144.887 109.264 145.122C109.366 145.245 109.469 145.348 109.572 145.471C109.189 145.596 108.812 145.74 108.443 145.902C108.135 145.549 107.874 145.158 107.622 145.409C107.41 145.675 107.679 145.806 107.93 146.107C108.15 146.107 105.585 146.889 104.564 148.056C104.531 148.093 104.508 148.138 104.499 148.187C104.491 148.236 104.497 148.286 104.516 148.332C104.536 148.377 104.568 148.416 104.61 148.444C104.651 148.472 104.699 148.487 104.749 148.487C119 150.019 118.752 150.317 119.011 149.944C119.159 149.728 119.12 149.609 119.196 148.098C119.417 143.683 118.304 147.833 127.855 114.403C129.745 122.605 130.561 130.487 131.221 138.822C132.039 149.144 131.52 145.57 131.467 149.164C131.452 150.158 131.439 149.857 145.914 149.924C145.959 149.929 146.005 149.921 146.047 149.902C146.088 149.882 146.124 149.852 146.149 149.814C146.174 149.776 146.189 149.731 146.191 149.686C146.193 149.64 146.182 149.594 146.16 149.554ZM118.621 149.637C118.519 149.687 105.472 148.046 105.387 148.036C106.306 147.406 107.299 146.89 108.342 146.497C108.682 146.983 108.772 147.473 109.081 147.278C109.364 147.098 109.019 146.598 108.814 146.333C109.183 146.19 109.573 146.046 109.943 145.903C110.133 146.192 110.305 146.494 110.456 146.805C110.585 147.082 111.023 146.887 110.907 146.539C110.773 146.263 110.623 145.995 110.456 145.738C113.095 144.892 111.155 145.337 118.828 146.19C118.749 146.812 118.738 149.578 118.621 149.637ZM132.965 149.349C132.65 149.36 132.335 149.353 132.021 149.329C131.944 149.252 132.269 146.241 132.288 146.107C139.73 145.856 137.622 145.091 140.332 146.333C140.25 146.477 140.148 146.62 140.086 146.743C140.066 146.771 140.052 146.803 140.045 146.837C140.038 146.871 140.038 146.906 140.045 146.94C140.051 146.974 140.065 147.006 140.085 147.034C140.105 147.063 140.13 147.087 140.16 147.105C140.189 147.123 140.222 147.135 140.256 147.141C140.29 147.146 140.325 147.144 140.359 147.135C140.392 147.126 140.424 147.11 140.451 147.089C140.478 147.067 140.5 147.04 140.517 147.01C140.598 146.846 140.702 146.702 140.804 146.538C141.173 146.702 141.522 146.887 141.892 147.092C141.717 147.31 141.436 147.631 141.748 147.79C142.102 147.967 142.175 147.441 142.261 147.441C142.261 147.077 144.87 148.826 145.442 149.431C140.497 149.391 135.949 149.349 132.965 149.349Z" fill="#3C58D3"/>
<path d="M123.095 91.0502C121.992 70.6607 121.96 69.8366 121.187 68.2516C120.125 66.0742 117.76 64.7408 115.38 64.3122C112.978 63.879 103.478 64.62 101.076 64.9478C97.6293 65.0509 91.6417 65.521 88.2925 66.3435C84.1238 67.3668 83.2966 69.0688 83.5929 73.1759C83.9853 78.6149 83.9083 87.9494 84.5777 93.3692C85.184 98.2735 86.5867 99.2683 90.4253 99.8946C98.4064 101.196 104.279 100.099 114.578 98.8682C122.32 97.9441 123.36 95.9491 123.095 91.0502Z" fill="white"/>
<path d="M123.383 91.5018C123.298 89.606 122.363 71.6132 121.946 69.7274C120.099 61.3838 108.607 64.3415 100.071 64.7408C96.9046 64.887 88.6111 65.4548 85.7681 66.9567C84.9609 67.3665 84.296 68.01 83.8599 68.8033C80.7623 70.8484 81.9233 74.2585 82.1565 81.7295C82.565 94.7949 82.4889 99.4368 86.1374 101.042C92.2804 103.739 108.103 101.427 114.559 100.569C117.072 100.237 119.962 99.6292 121.228 97.3271C123.215 95.926 123.494 94.0024 123.383 91.5018ZM122.418 95.1135C121.003 98.1911 116.601 98.3527 112.815 98.8067C105.795 99.6492 100.762 100.345 95.9875 100.162C83.1221 99.6699 84.9294 98.522 84.0038 75.9881C83.7507 69.8328 82.8613 67.62 89.3797 66.3227C94.2101 65.3617 110.154 64.4961 110.659 64.4761C114.084 64.3422 117.408 64.1807 119.976 66.9382C121.677 68.7664 121.994 69.3134 122.869 91.3987C123.011 92.6553 122.856 93.9275 122.418 95.1135Z" fill="#3C58D3"/>
<path d="M111.706 82.2465C111.97 82.1054 112.192 81.8983 112.35 81.6455C112.509 81.3927 112.6 81.1029 112.613 80.8046C112.625 80.5062 112.559 80.2097 112.422 79.9445C112.284 79.6793 112.08 79.4544 111.83 79.292C110.253 78.0247 107.251 78.3487 104.545 78.7172C104.469 76.6329 104.032 74.5777 103.251 72.6434C102.2 70.5099 100.685 70.5368 100.214 71.6586C99.7943 72.6588 100.336 74.0884 100.071 75.4549C99.6151 77.7993 98.0239 80.086 95.6795 79.9691C95.351 79.9529 95.351 80.4661 95.6795 80.4823C98.4686 80.6207 100.332 77.7124 100.604 75.2287C100.788 73.5414 100.208 72.2495 100.809 71.597C101.359 70.9984 102.165 71.9048 102.45 72.3357C102.862 72.9926 103.16 73.7137 103.333 74.4693C104.414 78.6241 103.651 79.3412 104.318 79.2512C105.929 79.0327 108.392 78.7272 109.981 79.0665C112 79.4966 112.335 80.6646 111.91 81.344C111.666 81.6548 111.349 81.9011 110.987 82.0619C110.946 82.0894 110.913 82.1279 110.893 82.1731C110.872 82.2182 110.865 82.2682 110.872 82.3173C110.878 82.3663 110.898 82.4126 110.929 82.4509C110.961 82.4893 111.002 82.5181 111.049 82.5343C111.372 82.6161 111.655 82.809 111.851 83.0791C112.046 83.3491 112.14 83.6792 112.116 84.0116C112.06 84.8125 111.232 85.2819 110.597 85.6327C110.565 85.6524 110.537 85.6788 110.516 85.7101C110.495 85.7414 110.482 85.7769 110.476 85.8141C110.47 85.8512 110.472 85.8893 110.482 85.9256C110.492 85.9619 110.51 85.9956 110.534 86.0243C110.567 86.0628 110.61 86.0913 110.658 86.1051C111.782 86.3106 111.776 88.1826 110.002 88.4442C109.735 88.4834 109.776 88.875 110.002 88.9366C110.656 89.1543 110.662 90.2446 109.551 90.6809C108.369 91.1425 101.706 91.7696 96.1712 91.4603C95.8426 91.4426 95.8426 91.955 96.1712 91.9735C100.465 92.1896 104.771 91.9697 109.02 91.3172C110.905 90.9509 111.339 89.5144 110.662 88.7519C112.17 88.1487 112.293 86.5275 111.277 85.7766C113.154 84.7025 112.921 82.9413 111.706 82.2465Z" fill="#3C58D3"/>
<path d="M96.7678 91.8711C96.1169 78.3294 96.3831 78.3687 95.5775 78.3687C94.8042 78.3279 91.6335 78.4279 91.1657 78.7788C91.0592 78.8704 90.9813 78.9906 90.9412 79.1253C90.9011 79.2599 90.9005 79.4032 90.9395 79.5382C90.9395 79.6151 91.8158 92.7159 91.822 92.7944C91.9089 93.8431 93.0607 93.57 94.7565 93.4715C96.3438 93.3792 96.8524 93.6369 96.7678 91.8711Z" fill="#EE4532"/>
<path d="M106.514 58.5255C106.309 58.5663 106.084 58.6278 105.878 58.6686C105.833 58.1098 105.75 57.5546 105.632 57.0066C105.563 56.6796 105.062 56.8212 105.139 57.1505C105.265 57.6968 105.347 58.2531 105.386 58.8125C104.996 58.9148 104.606 58.9971 104.195 59.0995C103.867 59.1818 104.01 59.6719 104.339 59.5919C104.688 59.508 105.057 59.428 105.406 59.3257C105.426 59.7973 105.411 60.2697 105.386 60.7414C105.368 61.0699 105.875 61.0692 105.899 60.7414C106.029 58.911 105.58 59.2957 106.658 59.0179C106.966 58.9379 106.822 58.4431 106.514 58.5255Z" fill="#EE4532"/>
<path d="M85.4808 58.874C85.0746 58.874 85.2146 58.9832 85.1523 58.0945C85.1292 57.766 84.6137 57.766 84.6391 58.0945C84.6583 58.3608 84.6599 58.607 84.6807 58.874C84.2036 58.874 83.6804 58.797 83.7366 59.1202C83.7366 59.4641 84.1721 59.3664 84.7007 59.3664C84.7214 59.7765 84.7391 60.1874 84.7622 60.5975C84.7807 60.926 85.2939 60.926 85.2754 60.5975C85.2523 60.1874 85.2346 59.7765 85.2139 59.3664H85.4601C85.5254 59.3691 85.5891 59.3458 85.6372 59.3016C85.6853 59.2574 85.7139 59.1959 85.7167 59.1306C85.7194 59.0653 85.6961 59.0015 85.6519 58.9534C85.6077 58.9053 85.5461 58.8767 85.4808 58.874Z" fill="#EE4532"/>
<path d="M90.8568 105.271C89.9489 105.348 90.1644 105.648 90.0774 104.143C90.0582 103.814 89.5465 103.814 89.5642 104.143C89.5881 104.573 89.6058 104.983 89.6258 105.414C88.9941 105.512 88.5586 105.45 88.5586 105.764C88.5586 105.887 88.6817 106.029 88.8048 106.01C89.0918 105.965 89.3796 105.948 89.6465 105.907C89.6673 106.338 89.6835 106.769 89.7081 107.22C89.7258 107.549 90.239 107.549 90.2213 107.22C90.1967 106.769 90.1798 106.318 90.1597 105.866C90.3852 105.845 90.6322 105.811 90.8568 105.784C91.2462 105.738 91.1238 105.236 90.8568 105.271Z" fill="#EE4532"/>
<path d="M80.658 94.0254C80.5295 94.0254 80.608 94.0354 80.4118 92.9583C80.3526 92.6297 79.8578 92.7736 79.9194 93.1021C79.9809 93.4307 80.0225 93.7592 80.0633 94.067C79.6016 94.097 78.8668 94.067 78.9138 94.3948C78.9138 94.761 79.3039 94.6102 80.1248 94.5594C80.1648 94.9957 80.1779 95.4342 80.1656 95.8728C80.1692 95.9384 80.1978 96.0002 80.2455 96.0454C80.2933 96.0906 80.3565 96.1157 80.4222 96.1157C80.4879 96.1157 80.5512 96.0906 80.5989 96.0454C80.6466 96.0002 80.6752 95.9384 80.6788 95.8728C80.6788 94.4702 80.5603 94.5179 80.638 94.5179C81.0058 94.4571 80.9519 94.0254 80.658 94.0254Z" fill="#EE4532"/>
<path d="M99.5781 65.3802C99.2186 64.5649 98.8172 63.7688 98.3755 62.995C98.3178 62.8465 98.2094 62.7233 98.0696 62.6473C97.9297 62.5712 97.7673 62.5472 97.6114 62.5795C97.4555 62.6118 97.3161 62.6983 97.2179 62.8237C97.1197 62.949 97.0692 63.1051 97.0752 63.2643C96.8851 62.8218 96.1781 62.8988 95.9211 63.432C94.7546 62.8934 94.3261 63.432 94.2484 63.6959C94.0051 63.728 93.775 63.825 93.5821 63.9766C93.3892 64.1282 93.2406 64.3289 93.1519 64.5576C92.9104 65.3344 92.861 66.1582 93.0081 66.9582C93.0919 68.0762 94.0206 68.5071 94.1568 67.7992C94.3222 66.899 94.3907 65.9849 94.3622 65.0708C94.5846 65.9588 95.5471 67.7384 96.1273 67.7384C96.799 67.7384 96.6097 66.3042 96.4966 65.8503C96.749 66.2804 97.8661 67.7861 98.2609 67.5537C98.5832 67.3629 98.4463 66.2604 98.4463 66.2604C98.6363 66.455 98.8418 66.6335 99.0618 66.7943C99.5327 67.2621 100.473 67.3299 99.5781 65.3802Z" fill="white"/>
<path d="M122.869 96.3445C119.902 95.8059 118.136 93.9254 118.026 94.5794C117.914 95.592 119.475 96.2337 119.73 97.1654C114.641 96.3099 114.493 96.2075 114.559 96.4676C114.559 97.2947 117.405 98.3019 118.498 98.4988C115.658 98.6727 114.689 97.8764 113.717 98.335C113.398 98.485 113.471 98.7258 113.758 98.9297C114.886 99.7322 116.528 99.5868 117.903 99.7307C116.794 99.7122 115.485 99.7184 114.322 99.7122C113.879 99.7122 113.49 99.6991 114.312 100.308C114.557 100.471 114.839 100.569 115.133 100.592C118.852 101.126 119.874 100.413 115.236 101.741C113.945 102.111 114.534 103.528 123.526 101.331L122.869 96.3445Z" fill="white"/>
<path d="M96.9106 62.7934C96.7111 62.7122 96.4897 62.7026 96.284 62.7661C96.0782 62.8296 95.9008 62.9624 95.7818 63.1419C94.8293 62.7387 94.3969 62.998 94.0791 63.4704C92.7819 63.6782 92.578 65.0531 92.6626 66.3642C92.6057 67.012 92.7965 67.6573 93.1966 68.17C93.3 68.2716 93.4295 68.3425 93.5707 68.3751C93.7119 68.4077 93.8594 68.4006 93.9968 68.3547C94.4415 68.157 94.5069 66.8705 94.53 66.3842C95.8765 68.7409 96.859 68.1677 96.8082 66.8359C97.0899 67.1975 97.4299 67.5091 97.8139 67.7592C98.3317 67.9954 98.6287 67.5137 98.7164 66.8974C99.395 67.5761 100.053 67.2752 100.112 66.692C100.195 65.8718 98.898 63.3312 98.5002 62.6664C97.9847 61.8062 97.046 62.5225 96.9106 62.7934ZM93.956 67.2667C93.6483 69.5881 92.3041 64.8 93.9353 64.066C93.886 64.8038 94.2784 64.86 93.956 67.2667ZM96.1719 67.4722C95.4587 67.9338 93.0597 62.3663 95.5972 63.6351C95.5138 64.4762 95.7482 65.318 96.2543 65.9949C96.2989 66.7566 96.4566 67.2883 96.1719 67.4722ZM96.2127 63.4712C96.3766 63.2566 96.8283 63.1319 96.8283 63.5943C97.1737 65.4725 98.1678 65.9572 98.2517 66.6774C98.4994 68.811 95.3902 64.5522 96.2127 63.4704V63.4712ZM97.3622 63.1019C97.4523 62.8549 97.9147 62.711 97.9985 62.7941C102.36 70.9199 96.6913 64.443 97.3622 63.1011V63.1019Z" fill="#3C58D3"/>
<path d="M123.423 101.064C120.904 101.813 118.294 102.207 115.666 102.234C113.777 102.234 116.323 101.673 118.334 101.085C118.393 101.067 118.444 101.029 118.478 100.977C118.512 100.926 118.526 100.864 118.519 100.802C118.511 100.741 118.483 100.684 118.438 100.642C118.393 100.6 118.334 100.575 118.272 100.572C117.417 100.532 114.802 100.487 114.251 99.9353H117.862C117.896 99.9353 117.929 99.9287 117.96 99.9158C117.991 99.9028 118.02 99.8838 118.043 99.8599C118.067 99.8363 118.086 99.8081 118.099 99.777C118.112 99.7459 118.119 99.7125 118.119 99.6787C118.119 99.645 118.112 99.6116 118.099 99.5805C118.086 99.5493 118.067 99.5211 118.043 99.4975C117.995 99.4497 117.93 99.4229 117.862 99.4229C117.164 99.3382 116.467 99.3459 115.79 99.279C114.358 99.142 113.635 98.6496 113.84 98.5196C114.36 98.191 115.985 98.9312 118.456 98.745C118.723 98.725 118.826 98.2911 118.518 98.2326C117.164 98.02 115.89 97.4536 114.825 96.5907C114.902 96.606 119.518 97.3793 119.607 97.3909C119.649 97.404 119.695 97.4053 119.738 97.3945C119.782 97.3837 119.821 97.3613 119.853 97.3296C119.885 97.298 119.907 97.2583 119.918 97.2149C119.929 97.1714 119.928 97.1259 119.914 97.0831C119.703 96.5802 119.371 96.1365 118.95 95.7905C118.097 94.938 118.264 94.8179 118.211 94.7641C119.615 95.6027 121.137 96.2252 122.726 96.6107C123.054 96.6715 123.177 96.1752 122.869 96.1182C120.805 95.7335 118.478 94.2455 118.232 94.1893C117.674 94.0608 117.423 94.9403 118.272 95.8305C118.562 96.1336 118.803 96.3406 119.217 96.8361C118.04 96.6353 115.621 96.2475 115.009 96.1382C114.04 95.8959 113.497 96.9484 116.364 98.1903C117.006 98.5111 114.908 97.8333 113.922 98.0056C113.573 98.0672 113.08 98.2726 113.204 98.7242C113.318 99.1382 114.029 99.4629 114.107 99.4629C113.845 99.4629 113.491 99.4675 113.491 99.8322C113.491 100.074 113.994 100.536 114.209 100.653C115.002 100.89 115.823 101.021 116.651 101.042C114.917 101.538 114.582 101.62 114.435 101.946C113.555 103.892 121.785 101.996 123.484 101.576C123.876 101.48 123.732 100.986 123.423 101.064Z" fill="#3C58D3"/>
</svg>
