<svg width="155" height="155" viewBox="0 0 155 155" fill="none" xmlns="http://www.w3.org/2000/svg">
<path d="M28.1182 25.4351C51.4854 21.1187 114.685 9.32351 116.663 8.8157C118.124 8.44638 125.303 6.39974 125.126 16.7253C124.98 25.2889 124.903 27.3432 124.903 27.3432C124.903 27.3432 140.722 24.7041 142.476 24.5579C147.608 24.1963 149.947 26.9739 150.024 33.0215C150.171 41.2235 150.024 79.3788 150.024 82.1641C150.024 85.6034 147.532 89.7813 141.892 90.8046C138.16 91.4663 123.803 94.2439 123.803 94.2439C123.803 94.2439 123.733 108.67 123.733 110.286C123.657 112.594 123.218 116.442 116.555 117.826C109.23 119.365 57.3868 128.883 54.3091 129.691C51.3777 130.46 44.5683 130.937 44.3067 122.951C44.0144 115.78 44.2298 98.6373 44.2298 98.6373C44.2298 98.6373 32.1038 100.792 27.0949 101.376C23.5094 101.823 19.4777 101.53 19.4777 94.7132C19.4777 86.0727 19.0391 39.0614 19.0391 37.3764C18.8929 35.6914 18.0851 27.2663 28.1182 25.4351Z" fill="white"/>
<path d="M124.572 46.0166C124.467 46.0139 124.366 45.976 124.285 45.909C124.204 45.8421 124.148 45.7499 124.126 45.6473C124.057 45.4319 124.272 45.2088 124.495 45.1395L143.1 42.1311C143.315 42.0619 143.538 42.2773 143.608 42.5004C143.677 42.7236 143.461 42.939 143.246 43.0159L124.572 46.0166Z" fill="#3C58D3"/>
<path d="M121.272 46.5322C121.168 46.5265 121.07 46.4874 120.991 46.4208C120.912 46.3542 120.856 46.2636 120.833 46.1629C120.764 45.9397 120.979 45.7243 121.202 45.6474L122.887 45.355C123.103 45.2857 123.326 45.5012 123.395 45.7243C123.464 45.9474 123.249 46.1629 123.034 46.2321L121.272 46.5322Z" fill="#3C58D3"/>
<path d="M118.202 47.04C118.098 47.0377 117.997 47.0009 117.917 46.9354C117.836 46.87 117.779 46.7796 117.755 46.6784C117.686 46.4553 117.902 46.2321 118.125 46.1629L119.81 45.8705C120.025 45.7936 120.248 46.0167 120.325 46.2321C120.402 46.4476 120.171 46.6784 119.956 46.7476L118.202 47.04Z" fill="#3C58D3"/>
<path d="M107.43 48.7253C107.326 48.7208 107.227 48.6822 107.148 48.6154C107.068 48.5486 107.013 48.4573 106.991 48.356C106.922 48.1405 107.137 47.9174 107.361 47.8482L116.594 46.3786C116.817 46.3093 117.032 46.5325 117.109 46.7479C117.186 46.9633 116.963 47.1865 116.74 47.2634L107.43 48.7253Z" fill="#3C58D3"/>
<path d="M104.721 49.1637C104.619 49.1597 104.52 49.1222 104.441 49.0569C104.362 48.9916 104.306 48.9021 104.283 48.8021C104.213 48.579 104.429 48.3559 104.652 48.2866L106.045 48.0635C106.26 47.9942 106.483 48.2097 106.552 48.4328C106.622 48.6559 106.406 48.8714 106.191 48.9483C106.114 48.9483 104.721 49.1637 104.721 49.1637Z" fill="#3C58D3"/>
<path d="M102.013 49.6022C101.91 49.6009 101.81 49.5643 101.73 49.4986C101.651 49.4328 101.596 49.3418 101.575 49.2406C101.498 49.0175 101.721 48.802 101.944 48.7251L103.183 48.5097C103.406 48.4327 103.621 48.6558 103.698 48.8713C103.775 49.0867 103.552 49.3099 103.329 49.3868C102.896 49.4922 102.457 49.5643 102.013 49.6022Z" fill="#3C58D3"/>
<path d="M95.7115 50.6331C95.6079 50.6287 95.5086 50.5901 95.4293 50.5232C95.3499 50.4564 95.295 50.3652 95.2729 50.2638C95.2037 50.0407 95.4191 49.8253 95.6423 49.7483L100.405 48.9789C100.62 48.902 100.844 49.1251 100.913 49.3405C100.982 49.556 100.767 49.7791 100.551 49.856C100.582 49.8945 95.7115 50.6331 95.7115 50.6331Z" fill="#3C58D3"/>
<path d="M128.965 52.5183C128.861 52.5166 128.76 52.479 128.68 52.4117C128.601 52.3444 128.546 52.2516 128.527 52.149C128.528 52.0376 128.563 51.9292 128.628 51.8385C128.693 51.7477 128.784 51.6789 128.888 51.6412L143.461 49.4407C143.575 49.4421 143.685 49.4782 143.777 49.5443C143.869 49.6103 143.939 49.7031 143.977 49.81C143.975 49.9223 143.938 50.0314 143.872 50.1223C143.806 50.2131 143.714 50.2814 143.607 50.3178C143.607 50.4101 128.965 52.5183 128.965 52.5183Z" fill="#3C58D3"/>
<path d="M119.879 53.9264C119.775 53.922 119.676 53.8833 119.597 53.8165C119.517 53.7497 119.462 53.6585 119.44 53.5571C119.442 53.4447 119.479 53.3357 119.545 53.2448C119.611 53.1539 119.703 53.0857 119.81 53.0493L125.811 52.1644C125.929 52.1451 126.049 52.1731 126.145 52.2423C126.242 52.3116 126.307 52.4164 126.327 52.5338C126.346 52.6511 126.318 52.7713 126.249 52.868C126.18 52.9647 126.075 53.0299 125.957 53.0493L119.879 53.9264Z" fill="#3C58D3"/>
<path d="M111.238 55.242C111.136 55.238 111.037 55.2005 110.958 55.1351C110.879 55.0698 110.823 54.9803 110.8 54.8804C110.8 54.7667 110.836 54.656 110.902 54.5635C110.968 54.4711 111.062 54.4017 111.169 54.3649L114.755 53.8494C114.868 53.8508 114.978 53.8869 115.07 53.953C115.163 54.019 115.232 54.1118 115.27 54.2187C115.268 54.3318 115.231 54.4416 115.165 54.5335C115.099 54.6255 115.007 54.6955 114.901 54.7342C114.901 54.6572 111.238 55.242 111.238 55.242Z" fill="#3C58D3"/>
<path d="M102.305 56.5577C102.203 56.5537 102.104 56.5161 102.025 56.4508C101.946 56.3855 101.89 56.296 101.867 56.196C101.868 56.0826 101.904 55.9724 101.97 55.8802C102.036 55.788 102.129 55.7183 102.236 55.6805L108.314 54.8034C108.426 54.7946 108.536 54.8278 108.624 54.8966C108.713 54.9654 108.772 55.0647 108.79 55.1749C108.808 55.2851 108.785 55.3982 108.724 55.4918C108.663 55.5854 108.569 55.6528 108.461 55.6805C108.461 55.5959 102.382 56.5577 102.305 56.5577Z" fill="#3C58D3"/>
<path d="M95.7115 57.512C95.6089 57.508 95.5105 57.4704 95.4313 57.4051C95.352 57.3398 95.2964 57.2503 95.2729 57.1503C95.2743 57.037 95.3105 56.9267 95.3766 56.8345C95.4426 56.7423 95.5353 56.6726 95.6423 56.6348L99.9664 55.9731C100.079 55.975 100.188 56.0115 100.279 56.0776C100.37 56.1436 100.438 56.2362 100.474 56.3425C100.472 56.4547 100.437 56.5638 100.372 56.6557C100.308 56.7475 100.217 56.818 100.113 56.858C100.113 56.858 95.7885 57.512 95.7115 57.512Z" fill="#3C58D3"/>
<path d="M114.247 77.8015C114.142 77.7987 114.041 77.7608 113.96 77.6939C113.879 77.6269 113.823 77.5348 113.801 77.4321C113.732 77.2167 113.947 76.9936 114.17 76.9166L117.025 76.4088C117.248 76.3319 117.463 76.555 117.54 76.7704C117.617 76.9859 117.394 77.2167 117.171 77.286C117.248 77.286 114.316 77.8015 114.247 77.8015Z" fill="#EE4532"/>
<path d="M102.675 79.7018C102.571 79.7005 102.472 79.6639 102.392 79.5981C102.312 79.5324 102.257 79.4414 102.236 79.3402C102.159 79.117 102.382 78.8939 102.598 78.8247L112.708 77.1396C112.923 77.0704 113.147 77.2858 113.216 77.509C113.285 77.7321 113.07 77.9475 112.854 78.0168L102.675 79.7018Z" fill="#EE4532"/>
<path d="M99.0816 80.2866C98.979 80.2826 98.8806 80.245 98.8014 80.1797C98.7222 80.1144 98.6666 80.0249 98.6431 79.9249C98.5738 79.7018 98.7893 79.4864 99.0124 79.4094L100.844 79.1171C101.059 79.0401 101.282 79.2633 101.351 79.4864C101.421 79.7095 101.205 79.9249 100.99 79.9942L99.0816 80.2866Z" fill="#EE4532"/>
<path d="M96.0117 80.8022C95.9067 80.7995 95.8057 80.7616 95.7248 80.6946C95.6439 80.6277 95.5878 80.5355 95.5654 80.4329C95.4962 80.2175 95.7116 79.9943 95.9347 79.9251L97.5428 79.6327C97.766 79.5558 97.9891 79.7789 98.0583 79.9943C98.1276 80.2098 97.9121 80.4329 97.689 80.5098C97.689 80.5098 96.0809 80.8022 96.0117 80.8022Z" fill="#EE4532"/>
<path d="M82.1699 83.1487C82.0659 83.1455 81.966 83.1074 81.8863 83.0403C81.8067 82.9733 81.7521 82.8813 81.7313 82.7793C81.6544 82.5562 81.8775 82.3408 82.093 82.2638L94.2497 80.2172C94.4729 80.1402 94.6883 80.3634 94.7652 80.5788C94.8422 80.7942 94.619 81.0174 94.3959 81.0943L82.1699 83.1487Z" fill="#EE4532"/>
<path d="M78.7225 83.6566C78.6172 83.656 78.5153 83.62 78.4329 83.5544C78.3506 83.4888 78.2927 83.3974 78.2686 83.295C78.1993 83.0719 78.4147 82.8487 78.6379 82.7795L80.9461 82.4102C81.1616 82.3409 81.3847 82.5563 81.4539 82.7795C81.5232 83.0026 81.3077 83.218 81.0923 83.295C81.1385 83.295 78.7994 83.6566 78.7225 83.6566Z" fill="#EE4532"/>
<path d="M75.3608 84.2415C75.2569 84.2391 75.1567 84.2024 75.0759 84.1369C74.9951 84.0715 74.9384 83.981 74.9145 83.8799C74.8453 83.6567 75.0607 83.4413 75.2839 83.3643L77.4844 82.995C77.6998 82.9258 77.923 83.1489 77.9922 83.3643C78.0615 83.5798 77.846 83.8029 77.6306 83.8799C77.6306 83.8799 75.4301 84.2415 75.3608 84.2415Z" fill="#EE4532"/>
<path d="M101.428 86.3726C101.325 86.3713 101.225 86.3347 101.145 86.2689C101.066 86.2032 101.011 86.1122 100.99 86.011C100.913 85.7879 101.136 85.5724 101.351 85.4955L110.361 84.0336C110.584 83.9566 110.8 84.1798 110.877 84.3952C110.954 84.6106 110.73 84.8338 110.507 84.9107C110.438 84.903 101.428 86.3726 101.428 86.3726Z" fill="#EE4532"/>
<path d="M90.9565 88.1267C90.8521 88.125 90.7515 88.0874 90.6716 88.0201C90.5917 87.9528 90.5374 87.86 90.518 87.7574C90.441 87.542 90.6642 87.3189 90.8796 87.2496L99.5201 85.78C99.7432 85.7108 99.9664 85.9262 100.036 86.1493C100.105 86.3725 99.8894 86.5879 99.6663 86.6572L90.9565 88.1267Z" fill="#EE4532"/>
<path d="M87.2944 88.6808C87.19 88.6791 87.0893 88.6414 87.0094 88.5741C86.9296 88.5068 86.8753 88.4141 86.8559 88.3115C86.7789 88.096 87.002 87.8729 87.2175 87.8036L89.418 87.4343C89.6411 87.3651 89.8566 87.5805 89.9335 87.8036C90.0105 88.0268 89.7873 88.2422 89.5642 88.3115C89.6411 88.3422 87.3637 88.6808 87.2944 88.6808Z" fill="#EE4532"/>
<path d="M83.2628 89.3734C83.1595 89.3677 83.0609 89.3286 82.9818 89.262C82.9027 89.1954 82.8474 89.1049 82.8242 89.0041C82.755 88.781 82.9704 88.5656 83.1935 88.4886L85.7557 88.05C85.9788 87.9808 86.1943 88.1962 86.2712 88.4194C86.3481 88.6425 86.125 88.8579 85.9019 88.9272C85.9019 89.0041 83.2628 89.3734 83.2628 89.3734Z" fill="#EE4532"/>
<path d="M79.9693 89.9582C79.8657 89.9538 79.7664 89.9151 79.6871 89.8483C79.6077 89.7815 79.5528 89.6903 79.5308 89.5889C79.4615 89.3735 79.677 89.1503 79.9001 89.0734L81.7313 88.781C81.9467 88.7118 82.1699 88.9272 82.2391 89.1503C82.3084 89.3735 82.0929 89.5889 81.8775 89.6658C81.8005 89.6658 79.9693 89.9582 79.9693 89.9582Z" fill="#EE4532"/>
<path d="M112.777 91.1968C112.674 91.1928 112.576 91.1553 112.497 91.0899C112.417 91.0246 112.362 90.9351 112.338 90.8352C112.269 90.612 112.485 90.3966 112.708 90.3197L116.809 89.6657C117.024 89.5887 117.247 89.8119 117.316 90.0273C117.386 90.2427 117.17 90.4659 116.955 90.5428C117.024 90.4659 112.892 91.1968 112.777 91.1968Z" fill="#EE4532"/>
<path d="M98.6427 93.5435C98.539 93.5391 98.4398 93.5004 98.3604 93.4336C98.2811 93.3668 98.2261 93.2756 98.2041 93.1742C98.1349 92.9588 98.3503 92.7356 98.5734 92.6664L110.799 90.6121C111.023 90.5428 111.238 90.7582 111.315 90.9814C111.392 91.2045 111.169 91.4199 110.946 91.4969L98.6427 93.5435Z" fill="#EE4532"/>
<path d="M95.565 94.0667C95.4614 94.0623 95.3621 94.0236 95.2828 93.9568C95.2034 93.89 95.1485 93.7988 95.1265 93.6974C95.0572 93.482 95.2726 93.2588 95.4958 93.1819L96.8884 92.9664C97.1039 92.8895 97.327 93.1126 97.3962 93.3281C97.4655 93.5435 97.25 93.7743 97.0346 93.8436L95.565 94.0667Z" fill="#EE4532"/>
<path d="M92.2725 94.5668C92.17 94.5628 92.0715 94.5253 91.9923 94.46C91.9131 94.3947 91.8575 94.3052 91.834 94.2052C91.7647 93.9821 91.9802 93.7667 92.2033 93.6897L93.8883 93.3973C94.1038 93.3204 94.3269 93.5435 94.3961 93.7667C94.4654 93.9898 94.2499 94.2052 94.0345 94.2745L92.2725 94.5668Z" fill="#EE4532"/>
<path d="M82.8238 96.1827C82.7202 96.1783 82.6209 96.1396 82.5416 96.0728C82.4622 96.006 82.4073 95.9148 82.3853 95.8134C82.316 95.5979 82.5314 95.3748 82.7546 95.2979L90.6642 93.9822C90.8796 93.9129 91.1027 94.1284 91.172 94.3515C91.2412 94.5746 91.0258 94.7901 90.8104 94.8593L82.8238 96.1827Z" fill="#EE4532"/>
<path d="M104.067 98.3755C103.963 98.3732 103.863 98.3364 103.782 98.271C103.702 98.2055 103.645 98.1151 103.621 98.0139C103.552 97.7908 103.767 97.5753 103.99 97.4984L112.923 96.0365C113.146 95.9596 113.362 96.1827 113.439 96.3981C113.516 96.6136 113.293 96.8367 113.07 96.9136L104.067 98.3755Z" fill="#EE4532"/>
<path d="M101.059 98.891C100.955 98.8866 100.856 98.8479 100.776 98.7811C100.697 98.7143 100.642 98.6231 100.62 98.5217C100.551 98.3063 100.766 98.0831 100.989 98.0139L102.528 97.7908C102.744 97.7215 102.967 97.937 103.036 98.1601C103.105 98.3832 102.89 98.5987 102.674 98.6679C102.674 98.6833 101.136 98.891 101.059 98.891Z" fill="#EE4532"/>
<path d="M87.0019 101.23C86.8986 101.229 86.7988 101.192 86.719 101.126C86.6393 101.061 86.5844 100.97 86.5634 100.868C86.4864 100.645 86.7096 100.43 86.925 100.353L99.5973 98.2292C99.8204 98.16 100.036 98.3754 100.113 98.5986C100.19 98.8217 99.9666 99.0371 99.7435 99.1064C99.7435 99.1064 87.0712 101.23 87.0019 101.23Z" fill="#EE4532"/>
<path d="M81.6543 102.115C81.5498 102.113 81.4492 102.075 81.3693 102.008C81.2894 101.941 81.2352 101.848 81.2157 101.746C81.1388 101.53 81.3619 101.307 81.585 101.23L85.2397 100.645C85.4629 100.576 85.686 100.791 85.7552 101.015C85.8245 101.238 85.6091 101.453 85.3859 101.53L81.6543 102.115Z" fill="#EE4532"/>
<path d="M101.944 105.262C101.839 105.259 101.738 105.221 101.657 105.154C101.576 105.087 101.52 104.995 101.498 104.893C101.428 104.677 101.644 104.454 101.867 104.385L108.792 103.208C109.007 103.138 109.23 103.354 109.299 103.577C109.369 103.8 109.153 104.015 108.938 104.092C108.969 104.015 102.013 105.262 101.944 105.262Z" fill="#EE4532"/>
<path d="M94.1035 106.654C93.9998 106.65 93.9006 106.611 93.8212 106.545C93.7419 106.478 93.6869 106.387 93.6649 106.285C93.588 106.07 93.8111 105.847 94.0342 105.777L99.8202 104.746C100.036 104.677 100.259 104.893 100.328 105.116C100.397 105.339 100.182 105.554 99.9664 105.631L94.1035 106.654Z" fill="#EE4532"/>
<path d="M84.6554 108.263C84.5528 108.259 84.4543 108.221 84.3751 108.156C84.2959 108.09 84.2403 108.001 84.2168 107.901C84.1475 107.678 84.363 107.455 84.5861 107.385L92.2803 106.07C92.5034 105.993 92.7188 106.216 92.7958 106.431C92.8727 106.647 92.6496 106.87 92.4265 106.947C92.3495 106.947 84.6554 108.263 84.6554 108.263Z" fill="#EE4532"/>
<path d="M79.3077 109.216C79.2041 109.212 79.1048 109.173 79.0255 109.107C78.9461 109.04 78.8912 108.948 78.8691 108.847C78.7999 108.632 79.0153 108.409 79.2385 108.339L82.9701 107.678C83.1933 107.601 83.4087 107.824 83.4856 108.047C83.5626 108.27 83.3394 108.485 83.1163 108.555C83.0471 108.555 79.3077 109.216 79.3077 109.216Z" fill="#EE4532"/>
<path d="M110.292 110.386C110.188 110.384 110.088 110.347 110.007 110.281C109.926 110.216 109.87 110.126 109.846 110.024C109.776 109.801 109.992 109.578 110.215 109.509L115.124 108.632C115.339 108.555 115.562 108.778 115.632 108.993C115.701 109.209 115.486 109.432 115.27 109.509C115.339 109.509 110.361 110.386 110.292 110.386Z" fill="#EE4532"/>
<path d="M106.406 111.048C106.303 111.043 106.203 111.005 106.124 110.938C106.045 110.871 105.99 110.78 105.968 110.678C105.891 110.463 106.114 110.24 106.337 110.171L108.168 109.801C108.384 109.732 108.607 109.947 108.676 110.171C108.745 110.394 108.53 110.609 108.314 110.678C107.686 110.838 107.049 110.962 106.406 111.048Z" fill="#EE4532"/>
<path d="M102.159 111.856C102.056 111.851 101.956 111.813 101.877 111.746C101.798 111.679 101.743 111.588 101.721 111.486C101.644 111.263 101.867 111.048 102.09 110.971L104.575 110.532C104.798 110.463 105.014 110.678 105.091 110.902C105.168 111.125 104.944 111.34 104.721 111.409L102.159 111.856Z" fill="#EE4532"/>
<path d="M97.9121 112.587C97.8076 112.585 97.707 112.547 97.6271 112.48C97.5472 112.413 97.493 112.32 97.4735 112.217C97.3966 112.002 97.6197 111.779 97.8428 111.702L100.259 111.263C100.474 111.194 100.697 111.409 100.767 111.632C100.836 111.856 100.62 112.071 100.405 112.148C100.474 112.148 97.9121 112.587 97.9121 112.587Z" fill="#EE4532"/>
<path d="M86.3404 114.633C86.2378 114.629 86.1394 114.592 86.0602 114.526C85.981 114.461 85.9253 114.372 85.9019 114.272C85.8326 114.048 86.048 113.833 86.2712 113.756L96.012 112.002C96.2274 111.925 96.4505 112.148 96.5198 112.363C96.589 112.579 96.3736 112.802 96.1582 112.879C96.1582 112.948 86.3404 114.633 86.3404 114.633Z" fill="#EE4532"/>
<path d="M80.3389 115.733C80.2344 115.732 80.1338 115.694 80.0539 115.627C79.974 115.56 79.9197 115.467 79.9003 115.364C79.8233 115.149 80.0465 114.926 80.2619 114.856L84.7322 114.072C84.9476 114.002 85.1708 114.218 85.24 114.441C85.3093 114.664 85.0938 114.879 84.8784 114.949L80.3389 115.733Z" fill="#EE4532"/>
<path d="M76.0913 116.464C75.9879 116.463 75.8881 116.426 75.8084 116.361C75.7287 116.295 75.6737 116.204 75.6527 116.103C75.5758 115.88 75.7989 115.656 76.0144 115.587L78.5073 115.149C78.7227 115.072 78.9458 115.295 79.0151 115.51C79.0843 115.726 78.8689 115.956 78.6534 116.026C78.6534 116.026 76.1605 116.464 76.0913 116.464Z" fill="#EE4532"/>
<path d="M48.8465 63.8133C48.7421 63.8116 48.6415 63.7739 48.5616 63.7066C48.4817 63.6393 48.4274 63.5466 48.408 63.444C48.331 63.2285 48.4772 63.0054 48.7773 62.9361L55.802 61.5435C56.0252 61.4666 56.2406 61.6127 56.3176 61.9051C56.3945 62.1975 56.2406 62.3437 55.9482 62.4206L48.8465 63.8133Z" fill="#242BA8"/>
<path d="M43.645 64.7674C43.5418 64.7617 43.4432 64.7226 43.3641 64.656C43.285 64.5894 43.2296 64.4989 43.2064 64.3981C43.1372 64.175 43.2834 63.9595 43.5758 63.8826L47.3074 63.1132C47.5306 63.0439 47.746 63.1901 47.8229 63.4825C47.8999 63.7749 47.746 63.9211 47.4536 63.9903C47.4921 64.1057 43.722 64.7674 43.645 64.7674Z" fill="#242BA8"/>
<path d="M38.4438 65.791C38.3402 65.7865 38.241 65.7479 38.1616 65.6811C38.0823 65.6143 38.0273 65.523 38.0053 65.4217C37.936 65.2062 38.0822 64.9831 38.3746 64.9138L42.2217 64.1444C42.4448 64.0752 42.6679 64.2214 42.7372 64.5138C42.8064 64.8061 42.6679 64.9523 42.3679 65.0293L38.4438 65.791Z" fill="#242BA8"/>
<path d="M33.7583 66.737C33.6557 66.733 33.5573 66.6954 33.478 66.6301C33.3988 66.5648 33.3432 66.4753 33.3197 66.3754C33.2505 66.1522 33.3967 65.9368 33.689 65.8599L36.9821 65.2059C37.2053 65.1289 37.4207 65.2751 37.4976 65.5675C37.5746 65.8599 37.4207 66.0061 37.1283 66.083L33.7583 66.737Z" fill="#242BA8"/>
<path d="M43.4991 69.9611C43.3965 69.9571 43.2981 69.9196 43.2189 69.8543C43.1396 69.7889 43.084 69.6995 43.0605 69.5995C42.9913 69.3764 43.2067 69.1609 43.4299 69.084L55.7405 66.7758C55.9559 66.6988 56.1791 66.9219 56.2483 67.1451C56.3176 67.3682 56.1021 67.5836 55.8867 67.6529C55.9559 67.6221 43.5761 69.9611 43.4991 69.9611Z" fill="#242BA8"/>
<path d="M39.7983 70.6227C39.6939 70.621 39.5932 70.5833 39.5134 70.516C39.4335 70.4487 39.3792 70.356 39.3598 70.2534C39.2828 70.0379 39.5059 69.8148 39.7214 69.7455L41.6988 69.3762C41.9219 69.307 42.1373 69.5224 42.2143 69.7455C42.2912 69.9687 42.0681 70.1841 41.845 70.2534L39.7983 70.6227Z" fill="#242BA8"/>
<path d="M33.7579 71.7537C33.6543 71.7493 33.555 71.7107 33.4757 71.6438C33.3963 71.577 33.3413 71.4858 33.3193 71.3844C33.2501 71.169 33.4655 70.9459 33.6887 70.8689L38.082 70.0995C38.2975 70.0226 38.5206 70.2457 38.5975 70.4611C38.6745 70.6766 38.4436 70.8997 38.2282 70.9766L33.7579 71.7537Z" fill="#242BA8"/>
<path d="M39.0288 77.2165C38.9244 77.2148 38.8237 77.1772 38.7438 77.1099C38.6639 77.0426 38.6097 76.9499 38.5902 76.8472C38.5133 76.6241 38.7364 76.4087 38.9519 76.3317L44.3378 75.4546C44.5532 75.3853 44.7763 75.6008 44.8533 75.8239C44.9302 76.047 44.6994 76.2625 44.4839 76.3317C44.4532 76.2625 39.0288 77.2165 39.0288 77.2165Z" fill="#242BA8"/>
<path d="M33.9814 78.0167C33.8781 78.0153 33.7783 77.9787 33.6985 77.913C33.6188 77.8472 33.5639 77.7562 33.5429 77.655C33.4659 77.4319 33.6891 77.2165 33.9045 77.1395L37.2053 76.624C37.4207 76.5548 37.6438 76.7702 37.7131 76.9933C37.7823 77.2165 37.5669 77.4319 37.3515 77.5089C37.2745 77.5089 33.9814 78.0167 33.9814 78.0167Z" fill="#242BA8"/>
<path d="M34.2734 84.2414C34.1701 84.24 34.0703 84.2034 33.9905 84.1377C33.9108 84.0719 33.8559 83.9809 33.8349 83.8797C33.7579 83.6566 33.981 83.4412 34.1965 83.3642L44.0142 81.6792C44.2297 81.6099 44.4528 81.8254 44.522 82.0485C44.5913 82.2716 44.3758 82.4871 44.1604 82.5563C44.2297 82.5256 34.3427 84.2414 34.2734 84.2414Z" fill="#242BA8"/>
<path d="M39.7983 89.2195C39.695 89.2182 39.5952 89.1816 39.5154 89.1159C39.4357 89.0501 39.3808 88.9591 39.3598 88.8579C39.2828 88.6348 39.5059 88.4194 39.7214 88.3424L44.0455 87.573C44.2609 87.5037 44.4841 87.7192 44.5533 87.9423C44.6226 88.1654 44.4071 88.3809 44.1917 88.4501C44.2302 88.4886 39.8368 89.2195 39.7983 89.2195Z" fill="#242BA8"/>
<path d="M34.643 90.0275C34.5391 90.0251 34.4389 89.9883 34.3581 89.9229C34.2774 89.8574 34.2206 89.767 34.1968 89.6658C34.1275 89.4427 34.343 89.2196 34.5661 89.1503L38.2978 88.5656C38.5209 88.4886 38.744 88.7118 38.8133 88.9272C38.8825 89.1426 38.6671 89.3735 38.4439 89.4427C38.4439 89.4504 34.7123 90.0275 34.643 90.0275Z" fill="#242BA8"/>
<path d="M51.4856 75.2391C51.4856 75.4432 51.4045 75.6389 51.2603 75.7832C51.116 75.9275 50.9203 76.0086 50.7162 76.0086C50.5195 75.987 50.3361 75.899 50.1962 75.7591C50.0564 75.6192 49.9684 75.4358 49.9468 75.2391C49.9468 75.0351 50.0278 74.8394 50.1721 74.6951C50.3164 74.5508 50.5121 74.4697 50.7162 74.4697C50.9134 74.4899 51.0975 74.5775 51.2377 74.7176C51.3778 74.8578 51.4654 75.042 51.4856 75.2391Z" fill="#3C58D3"/>
<path d="M57.1946 74.5006C57.1946 74.7047 57.1135 74.9004 56.9692 75.0447C56.8249 75.189 56.6292 75.27 56.4252 75.27C56.2247 75.259 56.0354 75.1744 55.8934 75.0324C55.7514 74.8904 55.6668 74.7011 55.6558 74.5006C55.6558 74.2966 55.7368 74.1009 55.8811 73.9566C56.0254 73.8123 56.2211 73.7312 56.4252 73.7312C56.6262 73.7406 56.8165 73.8246 56.9588 73.967C57.1012 74.1093 57.1852 74.2996 57.1946 74.5006Z" fill="#3C58D3"/>
<path d="M62.3186 73.8466C62.3186 73.9987 62.2735 74.1475 62.1889 74.274C62.1044 74.4006 61.9842 74.4992 61.8436 74.5574C61.7031 74.6156 61.5483 74.6309 61.3991 74.6012C61.2498 74.5715 61.1127 74.4982 61.0051 74.3906C60.8975 74.283 60.8243 74.1459 60.7946 73.9967C60.7649 73.8474 60.7801 73.6927 60.8384 73.5521C60.8966 73.4115 60.9952 73.2914 61.1217 73.2068C61.2483 73.1223 61.397 73.0771 61.5492 73.0771C61.7533 73.0771 61.949 73.1582 62.0933 73.3025C62.2376 73.4468 62.3186 73.6425 62.3186 73.8466Z" fill="#3C58D3"/>
<path d="M65.1892 42.9391C65.1892 43.0913 65.1441 43.24 65.0595 43.3666C64.975 43.4931 64.8548 43.5917 64.7142 43.6499C64.5737 43.7082 64.419 43.7234 64.2697 43.6937C64.1204 43.664 63.9833 43.5908 63.8757 43.4832C63.7681 43.3755 63.6949 43.2385 63.6652 43.0892C63.6355 42.9399 63.6507 42.7852 63.709 42.6447C63.7672 42.5041 63.8658 42.3839 63.9923 42.2993C64.1189 42.2148 64.2676 42.1697 64.4198 42.1697C64.6208 42.179 64.8112 42.2631 64.9535 42.4054C65.0958 42.5477 65.1799 42.738 65.1892 42.9391Z" fill="#3C58D3"/>
<path d="M70.8132 41.9852C70.8132 42.1893 70.7322 42.385 70.5879 42.5293C70.4436 42.6736 70.2479 42.7547 70.0438 42.7547C69.8398 42.7547 69.6441 42.6736 69.4998 42.5293C69.3555 42.385 69.2744 42.1893 69.2744 41.9852C69.2744 41.7812 69.3555 41.5855 69.4998 41.4412C69.6441 41.2969 69.8398 41.2158 70.0438 41.2158C70.241 41.236 70.4252 41.3236 70.5653 41.4637C70.7055 41.6039 70.793 41.7881 70.8132 41.9852Z" fill="#3C58D3"/>
<path d="M76.0149 41.254C76.0298 41.4427 75.9693 41.6296 75.8468 41.7738C75.7242 41.918 75.5495 42.0078 75.3609 42.0234C75.1568 42.0234 74.9611 41.9424 74.8168 41.7981C74.6725 41.6538 74.5915 41.4581 74.5915 41.254C74.5787 41.0646 74.6409 40.8777 74.7647 40.7338C74.8885 40.5898 75.064 40.5003 75.2532 40.4846C75.4506 40.5022 75.6354 40.5891 75.7748 40.7299C75.9143 40.8708 75.9993 41.0565 76.0149 41.254Z" fill="#3C58D3"/>
<path d="M27.9029 30.8592C27.9031 31.0568 27.8274 31.2469 27.6913 31.3901C27.5552 31.5334 27.3693 31.6188 27.1719 31.6287C26.9594 31.6185 26.7565 31.5371 26.596 31.3975C26.4355 31.2579 26.3266 31.0683 26.2871 30.8592C26.2871 30.6552 26.3682 30.4595 26.5125 30.3152C26.6568 30.1709 26.8525 30.0898 27.0565 30.0898C27.1626 30.0847 27.2687 30.1005 27.3688 30.1363C27.4688 30.1722 27.5607 30.2275 27.6393 30.299C27.7179 30.3704 27.7817 30.4567 27.8269 30.5529C27.8721 30.649 27.898 30.7531 27.9029 30.8592Z" fill="#3C58D3"/>
<path d="M33.5425 29.8284C33.5477 29.9294 33.5329 30.0305 33.4989 30.1259C33.465 30.2212 33.4126 30.3089 33.3447 30.384C33.2768 30.459 33.1947 30.5199 33.1033 30.5632C33.0118 30.6065 32.9127 30.6313 32.8116 30.6363C32.5987 30.6275 32.3951 30.5465 32.2343 30.4067C32.0734 30.2669 31.965 30.0765 31.9268 29.8669C31.9268 29.6628 32.0078 29.4671 32.1521 29.3228C32.2964 29.1785 32.4921 29.0974 32.6962 29.0974C32.9038 29.0885 33.1071 29.1592 33.2644 29.295C33.4217 29.4309 33.5212 29.6216 33.5425 29.8284Z" fill="#3C58D3"/>
<path d="M38.6675 28.9512C38.6749 29.0452 38.6636 29.1397 38.6342 29.2294C38.6049 29.319 38.5582 29.402 38.4967 29.4735C38.4352 29.545 38.3602 29.6036 38.2759 29.646C38.1917 29.6884 38.0999 29.7138 38.0058 29.7206C37.8018 29.7206 37.6061 29.6395 37.4618 29.4952C37.3175 29.3509 37.2364 29.1552 37.2364 28.9512C37.2336 28.7694 37.2994 28.5933 37.4206 28.4579C37.5418 28.3224 37.7095 28.2376 37.8904 28.2202C38.0792 28.2477 38.2551 28.3326 38.3941 28.4633C38.5331 28.5941 38.6285 28.7644 38.6675 28.9512Z" fill="#3C58D3"/>
<path d="M150.348 33.052C150.204 29.3178 149.325 26.7531 147.709 25.3579C145.662 23.6036 142.9 23.896 139.822 24.4115C136.899 24.8501 131.697 25.7272 125.327 26.8275C125.327 25.9503 125.396 23.3112 125.619 16.8712C125.688 13.278 124.888 10.7159 123.311 9.32325C121.264 7.56898 118.409 8.15374 117.378 8.37687C104.052 11.0852 78.4229 15.771 57.7718 19.5796C44.0762 21.9955 32.3811 24.196 28.1801 24.9655C18.2547 27.0506 18.3855 33.7137 18.4547 36.9376C18.4547 37.153 18.7471 87.4651 18.824 94.2744C18.824 95.667 18.824 98.8909 20.9476 100.791C22.0507 101.717 23.4641 102.19 24.9024 102.115C25.264 102.115 41.4525 99.768 43.6454 99.3295C43.5761 107.755 43.5761 116.464 43.7223 121.881C43.7916 125.328 44.8226 127.813 46.6461 129.283C47.903 130.194 49.4175 130.682 50.9702 130.675C51.8473 130.675 104.283 120.788 114.393 118.811C123.326 117.049 124.126 113.756 124.126 110.532C124.126 106.508 124.203 100.791 124.203 94.6437C125.957 94.3513 133.944 92.8125 139.945 91.7122C148.409 90.1042 150.271 86.7341 150.494 81.3174C150.786 72.7462 150.348 33.052 150.348 33.052ZM139.945 25.2886C142.877 24.8501 145.439 24.5577 147.201 26.058C148.586 27.2275 149.325 29.4204 149.471 32.7212L56.3176 48.802V48.1403C56.3176 48.0633 55.6559 40.0075 62.1729 38.6918C64.8812 38.1763 131.674 26.612 139.945 25.2886ZM115.97 60.6586C117.509 60.4432 119.633 60.4432 121.241 61.8358C122.418 62.8592 123.149 64.5442 123.295 66.814L44.6687 80.3634C44.6687 80.2172 43.7223 71.8998 50.824 71.0611C55.2943 70.2917 66.1277 68.422 66.1277 68.422C84.2166 65.4983 105.891 62.1282 115.97 60.6586ZM66.4662 67.5834C66.4662 63.19 66.7586 56.3807 66.8279 54.9881C75.2914 53.0876 88.8716 51.141 91.5107 50.8871C91.6569 53.1953 91.58 61.0664 91.5107 63.6286C83.4088 64.8289 74.5528 66.2292 66.497 67.5449L66.4662 67.5834ZM55.4405 48.2095V53.4877C49.2159 54.8803 35.5203 58.0272 32.6658 58.6889C32.5196 54.0724 32.2965 42.2773 32.2196 40.0845C40.4985 38.5456 80.7774 30.5668 85.8324 29.6127V33.7137C74.1835 35.7604 64.6658 37.4454 62.0267 37.9609C59.026 38.5456 56.9024 40.523 55.9483 43.7469C55.5408 45.1976 55.3694 46.7044 55.4405 48.2095ZM19.3318 36.8606C19.2626 33.6368 19.1164 27.7046 28.2648 25.8041C32.3657 24.9962 44.1609 22.8034 57.7795 20.3105C78.4306 16.5019 104.068 11.8469 117.394 9.10781C118.417 8.88468 120.833 8.37687 122.595 9.9157C123.98 11.0852 124.719 13.278 124.642 16.4326C124.719 16.5019 19.3318 36.9376 19.3318 36.8606ZM43.7223 86.1494C43.7223 89.8118 43.6454 94.059 43.6454 98.46C41.8142 98.7524 31.7117 100.584 25.8488 101.168C23.9483 101.384 22.4865 101.022 21.5324 100.145C19.7704 98.5293 19.7012 95.5285 19.7012 94.2821C19.7012 87.4728 19.3318 41.4079 19.3318 37.9686L124.742 17.3867C124.596 23.9806 124.519 26.3273 124.449 26.9813C113.316 28.8895 98.9586 31.3747 86.6557 33.4983V29.0357C86.656 28.9789 86.6429 28.9228 86.6175 28.872C86.5921 28.8212 86.5551 28.7771 86.5095 28.7433C86.465 28.6941 86.4061 28.6601 86.3411 28.6463C86.2762 28.6325 86.2086 28.6395 86.1479 28.6664C85.7093 28.7433 39.5675 37.8993 31.7348 39.3612C31.6322 39.3807 31.5394 39.4349 31.4722 39.5148C31.4049 39.5947 31.3672 39.6954 31.3655 39.7998C31.3655 39.946 31.7348 54.7418 31.8041 59.2814C31.8065 59.3377 31.8208 59.3928 31.8459 59.4432C31.8711 59.4936 31.9067 59.5381 31.9503 59.5738C32.0272 59.643 32.0964 59.643 32.2426 59.643C32.2426 59.643 48.3542 55.9114 55.3867 54.3725V69.3761C53.6478 69.6685 52.1089 69.9609 50.5701 70.2148C43.7608 71.4612 43.6915 76.9472 43.6915 79.9556C43.7916 80.1402 43.7223 83.9488 43.7223 86.1494ZM123.18 110.463C123.18 113.464 122.41 116.318 114.17 117.934C104.068 119.911 52.8014 129.575 52.2859 129.644C51.4023 129.819 50.4924 129.813 49.6114 129.625C48.7305 129.437 47.897 129.072 47.1616 128.552C45.4766 127.228 44.6687 124.959 44.5994 121.812C44.3763 113.387 44.5994 96.9827 44.6687 86.1494C44.6687 84.3182 44.6687 82.7024 44.7456 81.2405L123.472 67.6911C123.395 67.9065 123.18 106.216 123.18 110.463ZM149.54 81.2251C149.325 86.2802 147.709 89.3578 139.73 90.8197C133.867 91.92 126.181 93.3819 124.126 93.7512C124.203 84.2258 124.203 67.5295 124.203 67.2371V67.1679C124.057 64.4519 123.249 62.4745 121.787 61.1588C119.956 59.6199 117.54 59.5507 115.855 59.7661C110.508 60.5355 101.944 61.8205 92.3494 63.2823C92.4186 60.574 92.5648 53.0337 92.3494 50.6178C92.329 50.3908 92.2248 50.1795 92.057 50.0253C91.8625 49.8897 91.6323 49.8148 91.3953 49.8099C88.7562 50.1715 75.0606 52.1181 66.6432 53.9801C66.4491 54.0208 66.275 54.1273 66.1502 54.2815C66.0255 54.4356 65.9577 54.6281 65.9584 54.8265C65.8892 56.2191 65.5968 63.1746 65.5968 67.6449C62.3729 68.1527 59.226 68.7375 56.2946 69.1838V49.6791L149.54 33.5675V34.0523C149.471 37.2992 149.909 72.7462 149.54 81.2405V81.2251Z" fill="#3C58D3"/>
<path d="M78.9457 98.4524C78.9582 96.3783 78.5565 94.3227 77.7641 92.4059C76.9717 90.4891 75.8046 88.7498 74.3312 87.29C72.8578 85.8302 71.1078 84.6793 69.1837 83.9048C67.2597 83.1302 65.2003 82.7476 63.1265 82.7794C58.8855 82.767 54.8117 84.432 51.7935 87.4113C48.7753 90.3906 47.0576 94.4425 47.0149 98.6832C47.0024 100.757 47.4041 102.813 48.1965 104.73C48.9889 106.647 50.156 108.386 51.6294 109.846C53.1028 111.305 54.8528 112.456 56.7769 113.231C58.7009 114.005 60.7603 114.388 62.8341 114.356C63.8193 114.373 64.8031 114.275 65.7656 114.064L71.6208 139.693C71.6681 139.77 71.7392 139.829 71.8233 139.862C71.9073 139.895 71.9998 139.9 72.0868 139.876C72.1737 139.851 72.2504 139.799 72.3052 139.727C72.3599 139.656 72.3898 139.568 72.3903 139.478L66.5273 113.918C70.0411 113.124 73.1822 111.163 75.4376 108.354C77.6931 105.545 78.9297 102.055 78.9457 98.4524ZM62.8341 113.533C60.8758 113.566 58.9307 113.207 57.1131 112.477C55.2955 111.748 53.6421 110.662 52.25 109.284C50.8579 107.907 49.7553 106.265 49.0069 104.455C48.2585 102.645 47.8795 100.703 47.8921 98.7448C47.9185 94.726 49.5367 90.8814 52.3922 88.0534C55.2476 85.2253 59.1076 83.6442 63.1265 83.6566C65.0854 83.6237 67.0312 83.9828 68.8493 84.7129C70.6674 85.443 72.3212 86.5293 73.7134 87.9078C75.1055 89.2864 76.208 90.9294 76.9559 92.7403C77.7039 94.5511 78.0821 96.4932 78.0685 98.4524C78.0401 102.47 76.421 106.312 73.5657 109.139C70.7105 111.965 66.8517 113.545 62.8341 113.533Z" fill="#3C58D3"/>
<path d="M65.9118 92.0047C65.7861 92.0114 65.6627 91.9696 65.5668 91.888C65.4709 91.8065 65.4099 91.6913 65.3963 91.5662C65.379 91.4982 65.3772 91.4272 65.3909 91.3585C65.4047 91.2897 65.4336 91.2249 65.4757 91.1689C65.5178 91.1128 65.5719 91.0668 65.634 91.0344C65.6962 91.0019 65.7648 90.9838 65.8349 90.9814L72.498 89.9581C72.6337 89.9387 72.7716 89.974 72.8812 90.0563C72.9909 90.1385 73.0634 90.2609 73.0828 90.3966C73.1022 90.5323 73.0669 90.6702 72.9846 90.7798C72.9024 90.8895 72.7799 90.962 72.6442 90.9814L65.9118 92.0047Z" fill="#EE4532"/>
<path d="M59.8025 92.8819C59.6768 92.8885 59.5533 92.8467 59.4574 92.7652C59.3615 92.6836 59.3005 92.5684 59.2869 92.4433C59.2697 92.3753 59.2678 92.3044 59.2816 92.2356C59.2953 92.1669 59.3243 92.1021 59.3663 92.046C59.4084 91.9899 59.4625 91.944 59.5247 91.9115C59.5868 91.8791 59.6554 91.861 59.7255 91.8585L63.0186 91.3507C63.1543 91.3303 63.2926 91.3647 63.4029 91.4462C63.5133 91.5277 63.5868 91.6497 63.6072 91.7854C63.6276 91.9211 63.5933 92.0594 63.5118 92.1698C63.4302 92.2802 63.3082 92.3536 63.1725 92.374C63.2725 92.4433 59.9025 92.8819 59.8025 92.8819Z" fill="#EE4532"/>
<path d="M50.6774 94.3515C50.5517 94.3581 50.4282 94.3163 50.3324 94.2348C50.2365 94.1532 50.1755 94.038 50.1619 93.9129C50.141 93.8454 50.1354 93.7741 50.1455 93.7042C50.1555 93.6342 50.181 93.5674 50.22 93.5085C50.259 93.4496 50.3106 93.4001 50.3711 93.3636C50.4316 93.3271 50.4994 93.3045 50.5697 93.2974L56.7943 92.351C56.93 92.3306 57.0682 92.3649 57.1786 92.4464C57.289 92.528 57.3625 92.65 57.3829 92.7857C57.4033 92.9214 57.3689 93.0596 57.2874 93.17C57.2059 93.2804 57.0839 93.3539 56.9482 93.3743L50.6774 94.3515Z" fill="#EE4532"/>
<path d="M68.9128 100.061C68.7871 100.067 68.6636 100.026 68.5678 99.9439C68.4719 99.8624 68.4109 99.7472 68.3973 99.6221C68.38 99.5541 68.3782 99.4832 68.3919 99.4144C68.4056 99.3456 68.4346 99.2808 68.4767 99.2248C68.5187 99.1687 68.5728 99.1227 68.635 99.0903C68.6972 99.0578 68.7658 99.0397 68.8359 99.0373L75.5759 98.014C75.6431 98.0044 75.7116 98.0081 75.7773 98.025C75.8431 98.0418 75.9049 98.0714 75.9592 98.1122C76.0135 98.1529 76.0592 98.2039 76.0938 98.2623C76.1284 98.3207 76.1511 98.3854 76.1607 98.4525C76.1703 98.5197 76.1666 98.5882 76.1497 98.6539C76.1329 98.7197 76.1032 98.7815 76.0625 98.8358C76.0218 98.8901 75.9708 98.9358 75.9124 98.9704C75.854 99.005 75.7893 99.0277 75.7221 99.0373L68.9128 100.061Z" fill="#EE4532"/>
<path d="M61.0031 101.23C60.8774 101.237 60.754 101.195 60.6581 101.113C60.5622 101.032 60.5012 100.917 60.4876 100.791C60.4703 100.723 60.4685 100.652 60.4822 100.584C60.496 100.515 60.5249 100.45 60.567 100.394C60.6091 100.338 60.6632 100.292 60.7253 100.26C60.7875 100.227 60.8561 100.209 60.9262 100.207L66.0582 99.4757C66.1261 99.4584 66.1971 99.4565 66.2658 99.4703C66.3346 99.484 66.3994 99.513 66.4555 99.5551C66.5116 99.5971 66.5575 99.6512 66.59 99.7134C66.6224 99.7755 66.6405 99.8442 66.6429 99.9142C66.6429 100.207 66.4968 100.499 66.2044 100.499C66.2044 100.43 61.0031 101.23 61.0031 101.23Z" fill="#EE4532"/>
<path d="M50.6775 102.7C50.5518 102.706 50.4283 102.665 50.3324 102.583C50.2365 102.501 50.1755 102.386 50.1619 102.261C50.1447 102.193 50.1428 102.122 50.1566 102.053C50.1703 101.985 50.1993 101.92 50.2413 101.864C50.2834 101.808 50.3375 101.762 50.3997 101.729C50.4618 101.697 50.5304 101.679 50.6005 101.676L56.979 100.722C57.1147 100.703 57.2525 100.738 57.3622 100.82C57.4718 100.903 57.5443 101.025 57.5637 101.161C57.5831 101.297 57.5478 101.434 57.4655 101.544C57.3833 101.654 57.2609 101.726 57.1252 101.746L50.6775 102.7Z" fill="#EE4532"/>
<path d="M58.6561 109.14C58.5312 109.146 58.4087 109.104 58.314 109.022C58.2194 108.941 58.16 108.826 58.1483 108.701C58.131 108.633 58.1292 108.562 58.1429 108.493C58.1566 108.425 58.1856 108.36 58.2277 108.304C58.2697 108.248 58.3238 108.202 58.386 108.169C58.4481 108.137 58.5168 108.119 58.5868 108.116L70.1281 106.577C70.2638 106.558 70.4016 106.593 70.5113 106.676C70.6209 106.758 70.6934 106.88 70.7128 107.016C70.7322 107.152 70.6969 107.29 70.6146 107.399C70.5324 107.509 70.41 107.581 70.2743 107.601L58.6561 109.14Z" fill="#EE4532"/>
<path d="M142.069 67.0373C142.069 67.0373 142.069 58.6891 140.977 54.365C139.884 50.0409 137.237 45.5013 136.36 45.7245C135.483 45.9476 137.091 51.8798 137.091 51.8798C137.091 51.8798 134.013 49.5715 133.867 52.6492C133.867 52.6492 131.559 51.6951 131.597 54.4804C131.597 54.4804 129.62 53.234 129.62 56.0192C129.62 56.0192 127.135 55.4345 128.851 59.3893C130.566 63.3441 131.851 61.3667 131.851 61.3667L133.898 67.5912C133.944 67.622 138.407 68.4992 142.069 67.0373Z" fill="white"/>
<path d="M32.1042 51.6565L31.958 48.2096C31.958 48.2096 27.2723 52.4567 26.6875 57.2964C26.6875 57.2964 28.7418 62.1975 31.5194 64.0287C31.5194 64.0287 37.5978 62.0513 39.506 59.9278C41.4141 57.8042 43.8224 55.1728 39.506 56.2653C39.506 56.2653 41.6988 52.2413 37.744 54.2879C37.744 54.2879 40.9678 49.456 36.059 51.9797C36.059 51.9797 41.6988 46.7861 40.5985 45.9013C39.1059 44.8241 32.1042 51.6565 32.1042 51.6565Z" fill="white"/>
<path d="M61.5184 121.296C61.5184 121.296 57.0481 119.757 64.4422 116.61C71.2592 113.756 72.6442 116.903 71.0361 117.488C71.0361 117.488 75.1371 118.149 72.1363 120.35C72.1363 120.35 76.2373 120.419 73.2289 123.566C73.2289 123.566 77.63 124.012 71.5516 127.375C62.9803 132.137 65.9118 126.428 65.9118 126.428C65.9118 126.428 61.7338 127.667 63.7882 123.789C63.9344 123.712 59.9026 125.105 61.5184 121.296Z" fill="white"/>
<path d="M124.057 108.193C124.057 108.193 148.224 100.353 143.9 67.8375C143.85 67.5945 143.709 67.3797 143.506 67.2368C143.303 67.0939 143.053 67.0336 142.807 67.0681C139.615 67.6213 136.371 67.8174 133.136 67.6528C132.912 67.6486 132.693 67.7234 132.519 67.8641C132.344 68.0048 132.225 68.2024 132.182 68.4222C131.451 71.4999 128.673 82.918 124.272 85.8495L124.057 108.193Z" fill="#242BA8"/>
<path d="M19.1854 97.6447C19.1854 97.6447 -3.89709 87.9039 7.64414 71.5769C14.792 61.3206 22.8709 57.4427 25.4099 56.6348C25.6272 56.5719 25.859 56.5806 26.071 56.6596C26.283 56.7386 26.464 56.8836 26.5872 57.0734C27.9413 59.6638 29.5086 62.137 31.2729 64.4675C31.4142 64.631 31.492 64.8399 31.492 65.0561C31.492 65.2722 31.4142 65.4811 31.2729 65.6447C29.2185 68.2068 20.3626 77.5783 18.7468 79.3403C18.7468 79.3403 18.893 96.4752 19.1854 97.6447Z" fill="#EE4532"/>
<path d="M12.5221 86.1495C12.4658 86.1471 12.4107 86.1328 12.3603 86.1076C12.3099 86.0824 12.2654 86.0469 12.2297 86.0033C12.1593 85.9222 12.1206 85.8183 12.1206 85.7109C12.1206 85.6035 12.1593 85.4997 12.2297 85.4185L18.8929 79.2632C18.9297 79.2184 18.9754 79.1818 19.0272 79.1557C19.079 79.1296 19.1357 79.1147 19.1936 79.1118C19.2516 79.109 19.3095 79.1183 19.3636 79.1392C19.4177 79.16 19.4668 79.192 19.5078 79.233C19.5488 79.274 19.5808 79.3232 19.6017 79.3773C19.6225 79.4314 19.6319 79.4893 19.629 79.5472C19.6262 79.6051 19.6112 79.6618 19.5852 79.7136C19.5591 79.7654 19.5224 79.8112 19.4776 79.848C19.4084 79.848 12.599 86.1495 12.5221 86.1495Z" fill="#3C58D3"/>
<path d="M65.9119 130.306C65.1425 130.237 63.7114 129.868 64.4423 127.998C64.5193 127.852 64.3731 127.706 64.2269 127.706C63.2728 127.706 61.4416 127.267 62.3188 125.397C62.3957 125.251 62.2495 125.105 62.1033 125.105C61.08 125.105 59.1719 124.813 60.2721 122.466C60.3414 122.32 60.2721 122.173 60.1259 122.173C59.8256 122.142 59.5496 121.994 59.358 121.761C59.1664 121.527 59.0747 121.228 59.1026 120.927C59.1026 120.858 59.0257 120.781 58.9487 120.858L46.7997 127.375C44.2659 129.107 41.8212 130.966 39.4748 132.945C39.3979 133.015 39.3286 133.015 39.1824 133.015C39.0487 132.999 38.9213 132.949 38.8131 132.868C38.7738 132.828 38.7441 132.778 38.7264 132.725C38.7087 132.671 38.7033 132.614 38.7107 132.557C38.7181 132.501 38.738 132.447 38.7691 132.4C38.8002 132.353 38.8415 132.313 38.8901 132.284C39.0363 132.137 42.3986 129.498 45.0454 127.598L43.8759 121.812C43.8759 121.812 27.6181 131.991 36.2587 142.586C44.1683 152.327 61.1569 140.024 66.1351 130.722C66.1274 130.529 66.0581 130.306 65.9119 130.306Z" fill="#3C58D3"/>
<path d="M141.484 54.511C140.91 52.4161 140.137 50.3808 139.176 48.4326C137.414 44.9164 136.76 45.0626 136.46 45.1395C136.16 45.2165 135.367 45.355 136.537 50.9948C135.875 50.6332 134.998 50.3331 134.413 50.7024C134.167 50.8384 133.964 51.0412 133.828 51.2877C133.692 51.5341 133.628 51.814 133.644 52.095C133.37 52.0199 133.083 52.0071 132.803 52.0577C132.523 52.1083 132.259 52.221 132.028 52.3874C131.811 52.5464 131.638 52.7572 131.524 53.0005C131.41 53.2437 131.358 53.5118 131.374 53.7801C131.155 53.7146 130.925 53.6938 130.698 53.7189C130.47 53.744 130.25 53.8145 130.051 53.9263C129.799 54.1248 129.601 54.3827 129.473 54.6767C129.346 54.9708 129.293 55.2919 129.32 55.6113C129.111 55.6113 128.904 55.6567 128.714 55.7444C128.524 55.8321 128.355 55.9599 128.22 56.1191C127.635 56.8885 127.858 58.2427 128.989 60.3663C130.12 62.4898 130.966 62.5668 131.482 62.3437C131.628 62.2744 131.697 62.1975 131.844 62.1282C132.554 63.9735 133.163 65.8562 133.667 67.768C133.672 67.8438 133.705 67.9151 133.759 67.9688C133.812 68.0225 133.884 68.055 133.959 68.0604C134.779 68.2099 135.611 68.282 136.445 68.2759C138.435 68.2489 140.41 67.93 142.308 67.3295C142.383 67.2967 142.449 67.2458 142.5 67.1814C142.551 67.117 142.585 67.041 142.6 66.9602C142.585 66.6678 142.731 59.6353 141.484 54.511ZM141.707 66.6678C139.317 67.4213 136.792 67.6471 134.306 67.3295C133.536 64.1749 131.528 59.0506 131.451 58.8659C131.433 58.8086 131.402 58.7561 131.361 58.7124C131.319 58.6687 131.269 58.6349 131.213 58.6134C131.156 58.592 131.096 58.5835 131.036 58.5886C130.976 58.5937 130.918 58.6122 130.866 58.6428C130.811 58.663 130.76 58.6952 130.718 58.737C130.676 58.7789 130.643 58.8294 130.623 58.8851C130.602 58.9408 130.594 59.0003 130.599 59.0594C130.604 59.1186 130.622 59.1759 130.651 59.2275C130.651 59.2275 130.943 59.9585 131.305 60.9895C131.333 61.1078 131.327 61.2314 131.289 61.3467C131.251 61.4621 131.182 61.5648 131.09 61.6435C130.943 61.7204 130.428 61.4973 129.697 60.0354C128.373 57.5425 128.674 56.8116 128.82 56.7423C130.135 55.8575 132.667 58.4966 132.667 58.4966C132.667 58.4966 133.105 58.7197 133.252 58.4966C133.295 58.4612 133.33 58.4167 133.354 58.3661C133.378 58.3155 133.391 58.2602 133.391 58.2042C133.391 58.1482 133.378 58.0929 133.354 58.0423C133.33 57.9918 133.295 57.9472 133.252 57.9118C132.373 56.9959 131.297 56.2932 130.105 55.8575C129.958 54.1032 131.567 54.9804 131.567 54.9804C132.774 55.5587 133.828 56.4126 134.644 57.4733C134.721 57.5425 135.083 57.6887 135.229 57.5425C135.375 57.3963 135.452 57.1039 135.306 56.9578C134.449 55.869 133.374 54.9703 132.151 54.3187C131.79 52.7106 133.252 53.0799 133.544 53.1491C134.892 53.775 136.017 54.7978 136.768 56.0806C136.828 56.1751 136.922 56.2429 137.031 56.2701C137.14 56.2973 137.255 56.2818 137.353 56.2268C137.413 56.2053 137.468 56.1692 137.511 56.1217C137.554 56.0742 137.585 56.0167 137.601 55.9544C137.617 55.8921 137.618 55.8268 137.603 55.7642C137.587 55.7017 137.557 55.6439 137.514 55.5959C136.765 54.3462 135.705 53.3122 134.436 52.5952C134.436 51.9335 134.737 50.6178 136.745 52.2259C137.535 52.9144 138.203 53.7312 138.722 54.6418C138.786 54.7336 138.876 54.8041 138.98 54.8439C139.084 54.8837 139.198 54.891 139.307 54.8649C139.406 54.807 139.482 54.716 139.522 54.6077C139.561 54.4995 139.561 54.3808 139.522 54.2725C139.041 53.3586 138.397 52.5399 137.622 51.8565C137.145 50.0615 136.869 48.219 136.799 46.3629C137.676 47.317 139.876 51.5642 140.684 54.8265C141.707 59.1275 141.707 65.2059 141.707 66.6678Z" fill="#3C58D3"/>
<path d="M26.287 56.8578C27.1316 53.3204 28.9618 50.095 31.5652 47.5555C31.6187 47.4769 31.6972 47.4187 31.7879 47.3901C31.8786 47.3616 31.9763 47.3645 32.0652 47.3982C32.1541 47.432 32.229 47.4948 32.2779 47.5763C32.3268 47.6579 32.3467 47.7536 32.3346 47.8479L32.4038 50.7024C34.8275 48.3942 38.8515 45.3165 40.3134 45.3165C40.463 45.2945 40.6158 45.3171 40.7526 45.3814C40.8895 45.4457 41.0043 45.5489 41.0828 45.6782C41.3752 46.1937 41.3752 47.0708 38.8131 49.7791C38.3668 50.2177 38.0052 50.664 37.6359 51.0256C38.3668 50.8794 38.8131 50.9563 39.1054 51.318C39.2516 51.5411 39.544 52.0874 38.7361 53.4416C39.5055 53.2261 40.0518 53.2954 40.3442 53.6647C40.7905 54.1725 40.4904 54.9804 40.198 55.6421C41.0828 55.4959 41.883 55.419 42.2524 56.0807C42.9141 57.3964 40.1288 59.9277 39.3209 60.6202C35.0045 63.9902 31.4882 64.575 31.342 64.4673C28.1182 61.8359 26.2177 57.2194 26.287 56.8578ZM27.1718 56.927C28.0623 59.4224 29.4823 61.6955 31.3344 63.5901C34.0503 62.9543 36.5831 61.7011 38.7361 59.9277C40.4135 58.612 41.6599 56.8501 41.4445 56.4884C41.4445 56.4884 41.1521 56.1961 39.3901 56.7808C39.3006 56.8103 39.2043 56.8121 39.1137 56.786C39.0231 56.7599 38.9425 56.7072 38.8823 56.6346C38.8481 56.601 38.821 56.5609 38.8024 56.5166C38.7839 56.4724 38.7743 56.4249 38.7743 56.3769C38.7743 56.3289 38.7839 56.2814 38.8024 56.2372C38.821 56.1929 38.8481 56.1528 38.8823 56.1191C39.4671 55.3497 39.8287 54.3649 39.6517 54.2187C39.6517 54.2187 39.3594 53.9955 37.7513 54.6572C37.6605 54.6862 37.5632 54.6878 37.4715 54.6618C37.3798 54.6358 37.2978 54.5834 37.2358 54.511C37.2016 54.4774 37.1744 54.4373 37.1559 54.393C37.1373 54.3488 37.1278 54.3013 37.1278 54.2533C37.1278 54.2053 37.1373 54.1578 37.1559 54.1136C37.1744 54.0693 37.2016 54.0292 37.2358 53.9955C38.0052 53.1184 38.4822 52.0951 38.4053 51.8027C38.336 51.8027 37.8975 51.6565 35.9893 52.5721C35.9011 52.612 35.8016 52.6192 35.7085 52.5924C35.6155 52.5656 35.535 52.5066 35.4815 52.4259C35.4217 52.3361 35.3958 52.228 35.4085 52.1208C35.4211 52.0136 35.4716 51.9145 35.5507 51.8412C38.2591 49.4252 40.4596 46.7861 40.3827 46.1244C38.8438 45.7628 32.3269 52.0566 32.1807 52.1336C31.9378 52.3677 31.7187 52.6255 31.5267 52.903C31.4951 52.9488 31.454 52.9874 31.4063 53.0161C31.3586 53.0449 31.3053 53.0631 31.25 53.0697C31.1947 53.0762 31.1386 53.0709 31.0855 53.0541C31.0324 53.0373 30.9834 53.0094 30.942 52.9722C30.8945 52.942 30.8543 52.9018 30.824 52.8544C30.7938 52.807 30.7743 52.7535 30.767 52.6978C30.7597 52.642 30.7646 52.5854 30.7816 52.5318C30.7985 52.4781 30.827 52.4289 30.865 52.3875C31.0861 52.0316 31.3583 51.7101 31.6729 51.4334L31.4498 48.9482C30.2418 50.3331 27.7566 53.4877 27.1718 56.927Z" fill="#3C58D3"/>
<path d="M75.4297 124.374C75.2835 123.712 74.6602 123.42 74.037 123.205C74.8064 122.181 75.0603 121.443 74.8064 120.858C74.6261 120.603 74.3838 120.399 74.1023 120.264C73.8209 120.13 73.5097 120.069 73.1984 120.088C73.4495 119.893 73.6434 119.633 73.7598 119.336C73.8762 119.04 73.9108 118.718 73.8601 118.403C73.7059 118.063 73.4619 117.77 73.1542 117.557C72.8466 117.344 72.4868 117.219 72.1135 117.195C72.1986 117.035 72.2365 116.854 72.2229 116.673C72.2093 116.492 72.1447 116.318 72.0365 116.172C71.2671 114.926 67.9356 114.71 63.6884 116.541C61.057 117.711 59.8413 118.734 59.8413 119.835C59.9052 120.174 60.0526 120.493 60.2702 120.761C60.4878 121.03 60.7687 121.24 61.0878 121.373C60.5722 122.327 60.503 123.058 60.9416 123.643C61.3801 124.228 62.4804 124.305 63.2498 124.228C62.8113 125.105 62.7343 125.767 63.1036 126.282C63.5422 126.936 64.6425 127.013 65.4119 126.936C65.1964 127.598 64.9733 128.621 65.5581 129.206C65.7232 129.363 65.9196 129.483 66.1344 129.559C66.3492 129.634 66.5776 129.663 66.8045 129.645C68.1554 129.487 69.4623 129.066 70.6516 128.406C74.1832 126.721 75.6528 125.474 75.4297 124.374ZM60.8108 119.835C60.8877 119.611 61.0339 118.734 64.1116 117.342C68.428 115.441 70.9901 116.026 71.3595 116.611C71.4364 116.757 71.2902 116.98 71.1363 117.126C67.8227 117.75 64.6483 118.964 61.7648 120.712C60.9262 120.642 60.6338 120.35 60.78 119.835H60.8108ZM62.1111 121.52C62.7651 121.15 67.0123 118.588 71.2671 118.003C71.9211 117.857 74.2678 118.442 71.7057 120.204C68.7742 120.789 65.3349 122.512 64.0115 123.205C60.8569 124.374 61.3417 122.035 62.1111 121.52ZM64.4193 124.012C65.7427 123.243 69.5513 121.373 72.4059 120.935C73.0599 120.935 75.1142 121.15 72.9137 123.128C70.6693 124.207 68.356 125.138 65.9889 125.913H65.9197C62.9805 126.79 63.6499 124.743 64.4193 124.012ZM70.2823 127.667C65.4503 130.16 65.9582 127.89 66.4352 126.79C67.6817 126.351 71.1209 125.036 73.3599 124.012C73.8908 124.012 76.73 124.374 70.3054 127.667H70.2823Z" fill="#3C58D3"/>
</svg>
