<svg width="155" height="155" viewBox="0 0 155 155" fill="none" xmlns="http://www.w3.org/2000/svg">
<path d="M78.5706 120.83C78.4037 114.396 77.7743 102.012 77.705 101.195C77.6312 100.328 77.4881 99.4051 76.9379 98.7157C76.0908 97.6539 74.6558 97.6731 73.4163 97.6731H21.5131C20.6867 97.6731 19.7996 97.67 19.054 98.0663C17.3236 98.9857 17.4852 101.416 17.3813 103.497C16.9458 112.271 16.438 122.588 16.535 131.278C16.6004 137.146 16.6181 137.523 16.8304 138.381C17.0297 139.187 17.439 139.997 18.2277 140.368C19.0717 140.765 20.0574 140.543 20.943 140.584C25.0055 140.772 41.8634 141.097 45.9305 141.135C51.3933 141.187 73.2986 140.614 74.0857 140.584C75.9223 140.514 78.446 141.321 78.5914 136.669C78.7553 131.416 78.7091 126.123 78.5714 120.83H78.5706Z" fill="#FCCAC2"/>
<path d="M77.902 105.641H17.4206C17.1059 105.641 17.1059 106.133 17.4206 106.133H77.902C78.2167 106.133 78.2167 105.641 77.902 105.641Z" fill="#3C58D3"/>
<path d="M20.7456 102.375C20.7456 103.348 21.6712 103.913 22.5753 103.516C23.8102 102.974 23.2916 101.055 22.0244 101.115C21.3227 101.149 20.7456 101.626 20.7456 102.375Z" fill="#3C58D3"/>
<path d="M24.6416 102.316C24.6416 103.288 25.5672 103.854 26.4713 103.457C27.7062 102.915 27.1876 100.995 25.9204 101.056C25.0379 101.099 24.4908 102.013 24.6416 102.316Z" fill="#3C58D3"/>
<path d="M28.5176 102.453C28.5176 103.426 29.4432 103.992 30.3472 103.594C31.5822 103.053 31.0636 101.133 29.7963 101.194C28.8515 101.239 28.3168 102.253 28.5176 102.453Z" fill="#3C58D3"/>
<path d="M82.2503 118.705C90.2538 126.864 99.0582 135.659 110.838 137.18C115.03 137.72 119.555 137.142 122.859 134.523C126.599 131.56 129.511 125.603 128.526 120.122C127.826 116.224 125.001 112.675 121.207 111.603C119.829 111.212 118.374 111.162 116.937 111.189C112.785 111.267 108.655 112.157 104.817 113.688C100.659 115.347 100.182 116.075 94.0155 117.092C90.0721 117.739 86.1088 118.257 82.1318 118.647L82.2496 118.706L82.2503 118.705Z" fill="white"/>
<path d="M121.403 111.386C119.456 110.815 117.37 110.875 115.363 111.012C111.266 111.293 107.446 112.256 103.677 113.885C99.1416 115.845 98.523 116.154 91.6744 117.21C88.1951 117.746 83.9787 118.243 82.1121 118.41C81.8174 118.436 81.7974 118.902 82.0921 118.902C89.7986 126.77 98.6907 135.838 110.739 137.436C118.625 138.481 124.849 135.582 127.876 127.913C130.922 120.195 127.124 113.065 121.403 111.386V111.386ZM126.223 130.195C123.501 134.85 119.393 137.336 113.022 137.121C100.902 136.713 91.0643 127.453 82.7223 118.823C86.694 118.427 90.6511 117.896 94.5867 117.23C96.5933 116.892 98.5784 116.477 100.489 115.754C103.566 114.591 109.095 111.385 117.685 111.406C119.534 111.411 121.341 111.669 122.977 112.567C128.067 115.363 130.607 122.702 126.223 130.196V130.195Z" fill="#242BA8"/>
<path d="M120.144 118.902C120.459 118.859 120.321 118.371 120.006 118.43C119.548 118.43 105.844 118.577 104.916 118.508C104.601 118.485 104.601 118.985 104.916 119C104.993 119.004 119.408 119.001 120.144 118.901V118.902Z" fill="#242BA8"/>
<path d="M120.143 121.48C120.062 121.48 105.951 121.625 105.053 121.558C104.738 121.535 104.738 122.029 105.053 122.05C105.419 122.074 119.606 122.08 120.262 121.971C120.578 121.918 120.459 121.44 120.144 121.48H120.143Z" fill="#242BA8"/>
<path d="M120.143 124.884C120.062 124.884 105.951 125.029 105.053 124.962C104.738 124.939 104.738 125.433 105.053 125.454C105.419 125.478 119.606 125.484 120.262 125.375C120.578 125.322 120.459 124.844 120.144 124.884H120.143Z" fill="#242BA8"/>
<path d="M120.143 128.405C120.062 128.405 105.951 128.551 105.053 128.484C104.738 128.461 104.738 128.955 105.053 128.975C105.419 128.999 119.606 129.006 120.262 128.897C120.578 128.844 120.459 128.346 120.144 128.405H120.143Z" fill="#242BA8"/>
<path d="M4.53376 94.5246C5.99796 93.4582 6.96511 91.834 7.30827 90.2351C7.42599 89.6842 7.55064 89.0541 7.466 88.4839C7.39291 87.9915 6.89817 87.426 6.34419 87.7561C5.95179 87.99 5.66557 88.7855 5.59632 89.251C5.19084 91.9802 7.89072 94.4161 9.68884 93.8945C10.8076 93.5698 11.5262 92.5187 11.7347 91.4154C11.9032 90.5244 11.8601 88.6086 11.4593 87.8738C10.7276 86.5327 8.79094 87.6399 9.60959 90.3136C10.2613 92.4418 12.2256 93.5921 14.233 93.442C14.5477 93.4182 14.5477 92.9265 14.233 92.9504C12.1848 93.1027 10.3344 91.7509 9.96352 89.7235C9.6119 87.8015 10.9968 87.0097 11.2423 88.8579C11.3131 89.3903 11.3462 89.9204 11.3408 90.4513C11.3192 92.5895 10.0097 93.5628 8.99945 93.4813C7.96227 93.3974 6.32804 92.0025 6.06797 90.3921C5.93102 89.5457 6.16184 88.7201 6.48115 88.3062C6.67889 88.0507 6.89817 88.2662 6.95357 88.5224C7.05898 89.0125 6.93895 89.645 6.83585 90.1359C6.52731 91.597 5.60094 93.1374 4.27831 94.1299C4.02287 94.2876 4.28293 94.7062 4.53376 94.5231V94.5246Z" fill="#242BA8"/>
<path d="M57.6957 120.102C57.6342 119.611 57.558 118.991 56.9286 118.981C56.8752 118.977 56.8217 118.984 56.7709 119.001C56.5755 118.545 56.1977 118.431 55.9053 118.548C55.8234 118.573 55.7442 118.606 55.6691 118.647C55.6491 118.647 55.6491 118.667 55.6491 118.667C55.7345 118.667 55.5014 118.482 55.4329 118.43C55.0659 118.063 54.8527 117.978 54.528 117.978C54.4688 117.978 54.2918 117.978 54.2326 118.017C54.0356 117.781 53.5578 117.798 53.4262 118.096C53.3231 118.33 53.2293 118.548 53.1116 118.784C53.0331 118.942 52.9738 119.177 52.8753 119.315C52.7969 119.414 52.6199 119.473 52.5014 119.531C52.4422 119.551 52.4029 119.591 52.3437 119.63C52.218 119.697 52.1151 119.8 52.0482 119.925L51.989 120.043C51.9297 120.201 51.989 120.378 52.0875 120.496C52.1498 121.37 52.7584 121.67 53.0315 122.187C53.0515 122.207 53.0515 122.247 53.0708 122.266C53.1477 122.421 53.0677 122.421 53.2477 122.601C53.6417 123.29 54.0618 123.225 54.7427 123.132C55.1766 123.072 55.6095 123.007 56.0415 122.935C56.4339 122.869 56.9232 122.85 57.261 122.639C57.6503 122.397 57.6742 121.891 57.6942 121.478C57.7727 121.026 57.7511 120.554 57.6942 120.101L57.6957 120.102ZM56.4954 119.276C56.4954 119.296 56.4754 119.315 56.4754 119.335C56.4754 119.315 56.4754 119.296 56.4954 119.276ZM56.5154 119.237C56.5154 119.237 56.5154 119.257 56.4954 119.257C56.4824 119.257 56.4885 119.25 56.5154 119.237ZM54.2918 118.096C54.2918 118.076 54.2718 118.076 54.2718 118.056C54.2718 118.076 54.2918 118.076 54.2918 118.096Z" fill="white"/>
<path d="M57.833 122.64C57.833 122.581 57.7737 122.521 57.7153 122.522C56.8289 122.542 54.1544 122.66 53.7212 122.66C53.5104 122.66 53.1657 122.606 53.0526 122.719C51.303 120.366 50.3481 120.094 47.7598 119.945C44.6414 119.765 43.0641 120.007 41.4637 121.026C38.059 123.196 36.1178 128.854 35.2268 132.792C34.6305 135.428 34.302 138.124 34.125 140.82C34.125 140.879 34.1842 140.937 34.2427 140.937C46.1048 141.053 42.023 141.226 54.0752 141.075C54.1344 141.075 54.1929 141.016 54.1929 140.957C54.1929 140.544 54.2129 140.111 54.2129 139.698C54.2129 138.893 54.2214 138.963 54.6261 138.616C58.9933 135.257 58.3716 128.26 57.833 122.64Z" fill="#242BA8"/>
<path d="M53.9179 138.675C54.2318 138.592 54.3503 139.067 54.0556 139.148C49.3968 140.418 43.3915 135.21 40.48 131.277C40.2877 131.018 40.7131 130.768 40.8932 131.022C42.569 133.39 44.9534 135.635 47.8387 137.318C49.6514 138.375 51.805 139.236 53.9186 138.675H53.9179Z" fill="#3C58D3"/>
<path d="M52.9148 123.132C53.011 122.837 53.4873 122.955 53.3873 123.27C52.3408 126.561 51.6953 129.999 51.6561 133.462C51.6522 133.776 51.1606 133.776 51.1644 133.462C51.1744 132.557 51.2429 131.651 51.3221 130.746C49.2093 127.653 48.7877 126.929 48.056 126.044C46.9688 124.73 45.5177 123.555 43.7472 123.545C43.4326 123.543 43.4326 123.053 43.7472 123.053C47.2473 123.053 49.2886 126.866 51.3814 129.979C51.6961 127.657 52.1931 125.351 52.9164 123.132L52.9148 123.132Z" fill="#3C58D3"/>
<path d="M52.2265 110.442C52.2265 110.463 52.2047 110.463 52.2265 110.442Z" fill="#3C58D3"/>
<path d="M45.8202 118.576C45.0346 120.451 44.6607 120.894 45.2077 121.553C45.5694 121.988 46.3896 122.517 47.1413 122.79C47.893 123.063 48.8717 123.086 49.2933 123.018C50.2589 122.861 50.1474 122.64 50.5798 119.215C50.5798 119.215 52.024 119.43 52.7872 118.374C54.4138 116.125 53.6151 114.349 53.6405 113.12C53.6521 112.581 54.3368 111.526 54.3815 110.964C54.4261 110.402 54.1229 110.425 53.8313 110.616C53.5397 110.807 53.1573 111.11 52.9103 110.795C52.6634 110.481 51.0353 107.236 51.0353 107.236C51.0353 107.236 48.8809 107.015 47.0112 107.795C45.1416 108.574 44.089 109.431 44.089 109.431C44.089 109.431 44.8076 110.472 44.573 111.483C44.3391 112.494 43.9567 112.925 43.9567 112.925C41.6984 112.661 41.3237 115.082 42.6494 115.428C43.7343 115.712 44.4375 114.923 44.4375 114.923C44.5722 116.405 45.0323 117.51 45.821 118.577L45.8202 118.576Z" fill="white"/>
<path d="M43.5491 114.377C43.3829 114.377 43.4983 114.37 43.2344 114.436C42.8135 114.647 42.7097 114.357 42.762 114.2C42.842 113.961 43.2967 113.846 43.5491 113.846C43.8776 113.846 43.8899 114.377 43.5491 114.377Z" fill="#3C58D3"/>
<path d="M53.5044 116.029C53.7437 114.116 53.3398 113.692 53.4652 112.783C53.5729 112 54.1738 111.361 54.1738 110.697C54.0754 110.717 53.9761 110.814 53.9184 110.855C53.7791 110.951 53.6429 111.052 53.4852 111.13C53.1113 111.288 52.822 111.127 52.6389 110.795C52.5627 110.656 52.4811 110.52 52.4026 110.382C52.0025 110.515 51.8279 110.736 51.7925 110.736C51.891 111.68 51.4386 112.625 50.573 113.038C49.2865 113.652 47.8946 113.045 47.523 111.858C46.4928 111.808 45.5718 112.133 44.6308 112.251C44.5109 112.567 44.3379 112.86 44.1191 113.117C44.0322 113.233 43.8013 113.233 43.7452 113.195C42.9188 112.861 41.9801 113.745 42.0925 114.593C42.1548 115.064 42.6034 115.253 43.0366 115.222C43.4097 115.195 43.7644 115.006 44.0791 114.809C44.1599 114.687 44.6654 114.44 44.7085 114.868C44.8385 116.146 45.3048 117.33 45.9873 118.41C46.0122 118.448 46.0255 118.492 46.0255 118.537C46.0255 118.583 46.0122 118.627 45.9873 118.665V118.685C45.3148 120.367 45.2148 120.493 45.2394 120.771C45.3109 121.556 46.9506 122.871 49.0172 122.778C49.4504 122.758 49.7651 122.561 49.9028 122.148C50.0205 121.795 50.0228 121.66 50.296 119.472C49.5681 119.413 48.841 119.175 48.2501 118.764C47.9947 118.586 48.2301 118.173 48.5056 118.33C49.7759 119.19 51.6725 119.237 52.6573 118.114C53.0343 117.684 53.2867 117.091 53.4244 116.521C52.5896 116.608 51.8587 115.907 52.0079 114.986C52.0402 114.788 52.408 114.658 52.4396 115.128C52.4934 115.919 52.8905 116.029 53.5037 116.029H53.5044ZM58.0101 119.787C58.1707 120.709 58.1305 121.656 57.8924 122.561C57.8147 122.857 57.34 122.738 57.42 122.424C57.7108 121.28 57.6439 120.195 57.4985 119.649C57.4785 119.551 57.26 119.117 57.1245 119.354C57.0245 119.53 56.7152 119.511 56.6721 119.294C56.636 119.117 56.5937 118.861 56.4559 118.744C56.3967 118.684 56.1805 118.606 56.1412 118.724C56.0628 118.92 55.8058 118.98 55.6888 118.783C55.5496 118.547 55.3949 118.25 55.1379 118.133C54.9617 118.053 54.7247 118.074 54.6263 118.251C54.5278 118.428 54.2131 118.409 54.1738 118.192C54.0938 117.753 53.4514 117.752 53.269 118.389C53.0997 118.981 53.4314 119.608 53.5445 120.179C53.6068 120.493 53.1267 120.613 53.072 120.317C53.0289 120.082 52.9543 119.845 52.8951 119.589C51.3001 119.835 52.2603 121.266 53.426 122.383C53.6576 122.604 53.3098 122.951 53.072 122.737C52.5334 122.252 51.7417 121.303 51.5963 120.671C51.5109 120.299 51.5578 119.885 51.8125 119.589C52.0495 119.314 52.4226 119.215 52.7766 119.137C52.7566 118.999 52.7373 118.881 52.7373 118.744C52.0818 119.326 51.4486 119.474 50.7699 119.531C50.7107 120.022 50.6361 120.515 50.573 121.006C50.4753 121.771 50.4768 122.676 49.7666 123.111C49.4504 123.305 49.0388 123.322 48.6648 123.308C47.8552 123.281 47.0621 123.072 46.3435 122.698C45.7118 122.368 44.9562 121.83 44.75 121.105C44.5931 120.555 44.8562 120.057 45.2417 119.157C44.1537 119.701 41.2738 118.559 40.3036 117.956C38.8609 117.062 37.7684 115.536 37.2536 113.942C35.4786 108.447 36.7604 104.182 42.074 101.921C45.204 100.589 50.3252 101.739 51.4593 104.833C51.7186 105.54 51.774 106.348 51.5186 107.057C51.4986 107.135 51.4201 107.215 51.3416 107.293C51.6779 107.949 52.6412 109.774 52.6796 109.851C52.7974 109.871 52.8958 109.968 52.8958 110.087C52.8958 110.126 52.8758 110.165 52.8566 110.205C52.9158 110.322 53.0143 110.638 53.1321 110.696C53.3636 110.762 53.7291 110.167 54.2138 110.205C54.5285 110.228 54.607 110.421 54.607 110.696C54.607 111.326 54.2162 111.838 53.9969 112.408C53.5637 113.535 54.5632 114.907 53.5637 117.406C53.9315 117.344 54.22 117.456 54.4293 117.701C54.6263 117.583 54.8817 117.563 55.1179 117.602C55.4718 117.681 55.7081 117.956 55.905 118.232C56.2328 118.027 56.8029 118.131 57.0268 118.803C57.1778 118.766 57.3369 118.78 57.4792 118.842C57.8532 119.058 57.9524 119.451 58.0101 119.786V119.787ZM51.6548 110.225C51.8125 110.107 51.9895 110.008 52.1664 109.949C51.7333 109.123 51.3201 108.296 50.8877 107.49C49.9444 107.255 46.4612 108.02 44.9262 109.104C44.8277 109.182 44.4931 109.359 44.4738 109.497C44.4738 109.672 45.0324 110.2 44.7493 111.76C45.4025 111.666 46.4097 111.36 47.3661 111.386C47.1622 109.754 48.2093 108.345 49.8251 108.651C50.2414 108.73 50.6297 108.917 50.9508 109.193C51.272 109.469 51.5148 109.825 51.6548 110.225V110.225ZM50.533 112.507C51.911 111.603 51.3178 109.239 49.5296 109.103C48.0478 108.99 47.7692 110.68 47.8554 111.336C48.0362 112.714 49.4704 113.204 50.5337 112.507H50.533Z" fill="#3C58D3"/>
<path d="M50.6516 110.973C50.7554 111.702 49.8775 111.867 49.7267 111.111C49.6875 110.993 49.6875 110.875 49.6675 110.776C49.6675 110.613 49.9014 110.429 50.1514 110.465C50.3823 110.499 50.6108 110.771 50.6516 110.973Z" fill="#3C58D3"/>
<path d="M118.53 101.49C119.416 101.588 143.852 101.065 145.917 100.939C146.823 100.883 147.808 101.118 148.593 100.663C149.776 99.9784 149.951 98.4596 149.991 97.1416C150.341 85.4742 149.731 73.7883 149.144 62.1401C148.982 58.924 147.914 58.2638 145.288 58.2638H92.9923C90.3947 58.2638 89.2991 58.8986 89.136 62.1401C88.5489 73.8083 87.9388 85.4742 88.2896 97.1416C88.3296 98.4596 88.5035 99.9784 89.6869 100.663C90.4724 101.118 91.4573 100.883 92.3629 100.939C94.428 101.065 118.865 101.588 119.75 101.49H118.53Z" fill="white"/>
<path d="M150.306 83.9984C150.193 78.1747 149.932 72.3509 149.637 66.5272C149.716 66.4288 149.716 66.2518 149.617 66.1733C149.57 65.1423 149.43 61.6184 149.243 60.6843C149.019 59.564 148.398 58.5761 147.256 58.2252C146.292 57.9283 145.19 58.0283 144.186 58.0283C90.7498 58.0283 91.8693 57.8629 90.7491 58.3237C89.6642 58.77 89.1718 59.8379 88.9979 60.9397C88.8594 61.82 87.7529 80.129 87.9553 93.9554C87.9961 96.7522 87.7245 99.9476 89.628 100.92C90.4975 101.365 91.5569 101.123 92.481 101.176C92.7565 101.191 119.416 101.746 119.416 101.746L145.82 101.176C146.823 101.12 147.944 101.389 148.83 100.802C149.753 100.189 150.073 99.0904 150.187 98.0471C150.427 95.8612 150.351 86.3728 150.305 83.9991L150.306 83.9984ZM89.3526 62.7494C89.4157 61.6384 89.3941 60.1634 90.1789 59.3063C91.053 58.3514 92.4979 58.5192 94.3307 58.5192C146.74 58.5192 145.951 58.4592 146.745 58.6176C149.454 59.1562 148.731 62.0177 149.106 66.1333C149.106 66.1333 89.9235 66.1133 89.1564 66.1333L89.3533 62.7494H89.3526ZM149.833 93.8361C149.812 95.2526 149.857 96.6891 149.696 98.0856C149.561 99.2466 149.085 100.5 147.767 100.682L119.514 101.293C119.437 101.293 90.4174 100.707 90.1789 100.643C88.2 100.114 88.4731 96.9615 88.4277 93.5014C88.3077 84.2761 88.6085 76.6127 89.1164 66.6257H149.125C149.578 75.7433 149.981 83.856 149.834 93.8361H149.833Z" fill="#3C58D3"/>
<path d="M92.3037 62.848C92.3037 63.8206 93.2293 64.3861 94.1334 63.9891C95.3683 63.4474 94.8497 61.5269 93.5825 61.5885C92.9593 61.6185 92.3037 62.0886 92.3037 62.848Z" fill="#3C58D3"/>
<path d="M96.1797 62.7695C96.1797 63.742 97.1053 64.3075 98.0094 63.9105C99.2443 63.3689 98.7257 61.4492 97.4585 61.51C96.7683 61.543 96.1797 61.9839 96.1797 62.7695Z" fill="#3C58D3"/>
<path d="M100.075 62.9072C100.075 63.8797 101.001 64.4452 101.905 64.0482C103.14 63.5066 102.621 61.5869 101.354 61.6477C100.267 61.7 99.9549 62.7864 100.075 62.9072Z" fill="#3C58D3"/>
<path d="M130.551 88.1894C130.457 88.0563 130.352 87.9312 130.237 87.8155C128.754 86.1012 127.12 85.2195 125.082 84.4901C121.708 83.2829 121.802 83.2913 117.927 83.5191C109.811 83.9969 106.551 84.7163 103.282 92.6551C102.969 89.3922 102.417 86.1568 101.629 82.9751C101.609 82.9159 101.551 82.8766 101.471 82.8966C99.5685 83.1821 97.5219 83.8676 97.2611 83.9984C97.1826 84.0377 97.1626 84.0769 97.1033 84.0377C97.0249 83.9984 96.9456 84.0377 96.9264 84.1162C96.3162 86.0051 96.3262 87.9925 96.3162 89.9399C96.3016 92.9352 96.0639 96.2314 96.9264 98.6758C97.8997 101.434 99.6309 101.987 102.789 102.08C103.604 102.104 108.295 101.673 108.295 101.103L120.293 101.352C120.293 101.391 128.379 106.632 129.862 107.077C130.768 107.349 131.762 107.202 132.321 106.408C132.582 106.038 132.731 105.601 132.833 105.169C134.199 99.3367 134.279 92.8506 130.551 88.1894H130.551Z" fill="#EE4532"/>
<path d="M125.476 77.2699C125.395 76.6405 124.82 76.3805 124.276 76.5028C123.891 76.589 123.557 76.816 123.247 77.0476C121.42 75.4741 120.203 73.2143 119.849 70.8361C118.91 71.5593 117.697 71.5678 113.541 71.8548C113.521 72.2064 112.451 79.0273 114.36 81.9526C114.833 82.6766 115.578 83.2683 116.401 83.4868C116.561 85.445 116.591 85.9228 116.839 86.3405C117.141 86.8484 117.686 87.1246 118.256 87.2654C120.632 87.8532 122.702 86.1921 122.702 84.8456C122.702 84.5901 122.677 84.5555 121.974 82.1896C123.059 81.5063 123.332 80.1606 123.528 78.9034C124.643 79.2596 125.614 78.3317 125.477 77.2699H125.476Z" fill="white"/>
<path d="M121.646 97.5956C120.485 96.553 119.318 95.155 118.551 93.797C118.275 93.9347 118.319 94.3271 118.413 94.6233C118.681 95.4659 118.925 96.3153 119.18 97.1809C117.781 96.4552 116.335 95.8241 114.851 95.292C114.831 95.5474 115.048 95.7644 115.264 95.9021L117.803 97.791C116.602 97.2994 115.421 96.8108 114.222 96.3153C113.895 96.1799 113.388 96.3076 113.769 96.6892C114.715 97.4375 115.745 98.0716 116.839 98.5781L113.238 97.988C113.828 99.2098 115.501 99.046 116.622 99.4437L114.044 99.3845C114.064 99.6599 114.359 99.8177 114.615 99.9354C116.499 100.685 118.458 101.233 120.459 101.568L121.645 97.5948L121.646 97.5956Z" fill="white"/>
<path d="M128.053 80.0636C126.861 75.7618 127.503 69.9712 123.41 67.0974C122.275 66.3011 120.8 65.8702 119.455 66.1726C118.846 66.3096 118.573 66.5442 118.471 66.605C117.374 64.9015 113.382 65.0316 111.093 67.943C109.967 69.3749 109.703 70.8399 109.775 72.6057C109.864 74.7801 110.069 75.6318 109.48 78.4294C108.994 80.7346 107.934 83.7537 107.808 85.9058C110.241 84.2023 113.204 83.9076 116.13 83.7222C116.365 85.2495 116.21 85.8843 116.661 86.5352C117.815 88.2025 121.756 87.934 122.78 85.4926C122.994 84.9802 122.897 84.4893 122.74 83.9776C122.701 83.8799 122.681 83.7814 122.642 83.683C122.878 83.7422 123.113 83.823 123.35 83.8992C126.516 84.9179 128.403 85.6388 130.512 88.1687C130.879 85.3218 128.815 82.8151 128.052 80.0629L128.053 80.0636ZM123.548 78.6471C123.429 78.6094 123.273 78.6864 123.252 78.8241C123.084 79.9467 122.859 81.2632 121.836 81.9325C121.796 81.9518 121.756 81.9918 121.717 82.031C121.7 82.0568 121.689 82.0863 121.686 82.1171C121.682 82.148 121.687 82.1791 121.698 82.208C122.397 84.3977 122.445 84.4862 122.426 84.864C122.378 85.825 121.062 87.0876 119.16 87.0876C118.471 87.0876 117.667 86.9084 117.192 86.399C116.769 85.945 116.794 85.318 116.661 83.723C116.917 83.7622 117.174 83.7684 117.429 83.7422C117.745 83.7099 117.744 83.209 117.429 83.2505C115.696 83.4768 114.445 81.9887 113.967 80.496C113.273 78.334 113.324 74.0437 113.756 72.054C117.652 71.7901 118.708 71.7716 119.653 71.2092C120.08 73.4794 121.241 75.5464 122.958 77.0921C123.024 77.4215 123.524 77.4061 123.568 77.0921C123.863 76.8759 124.178 76.6905 124.532 76.699C125.874 76.7298 125.179 79.165 123.548 78.6464L123.548 78.6471Z" fill="#3C58D3"/>
<path d="M115.205 75.6372C114.769 75.3279 114.261 75.6588 114.261 76.3451C114.261 76.6805 114.293 77.016 114.34 77.3492C114.357 77.4677 114.516 77.5631 114.635 77.5261C114.975 77.4207 114.709 77.0437 114.758 76.2843C114.781 75.935 114.955 76.0135 115.028 76.2643C115.111 76.5482 115.176 77.0722 115.206 77.2899C115.263 77.7039 115.713 77.4992 115.678 77.2899C115.658 76.9925 115.619 76.6967 115.561 76.4043C115.522 76.1089 115.46 75.8173 115.207 75.6372H115.205Z" fill="#3C58D3"/>
<path d="M118.433 77.1121C118.433 77.1121 118.431 76.3581 118.432 76.3327C118.443 75.891 118.886 75.861 118.885 76.3535C118.885 76.9205 118.883 76.9705 118.905 77.1121C118.923 77.2306 119.081 77.326 119.2 77.2891C119.337 77.2467 119.397 77.1313 119.377 76.9936V76.6004C119.377 76.2473 119.367 75.8187 118.984 75.5579C118.596 75.2924 118.082 75.5225 117.961 76.148C117.901 76.4589 117.881 76.7762 117.902 77.0921C118.088 77.526 118.466 77.3083 118.433 77.1121Z" fill="#3C58D3"/>
<path d="M117.114 78.7063C116.54 77.8453 116.563 77.9769 116.563 77.9C116.702 77.9 116.805 77.9177 116.956 77.9392C117.113 77.9623 117.255 77.8807 117.271 77.703C117.346 76.8782 117.349 76.0503 117.349 75.2239C117.349 74.9092 116.858 74.9092 116.858 75.2239C116.858 75.9518 116.838 76.6797 116.799 77.4075C116.425 77.3483 115.902 77.3298 115.933 77.7422C115.948 77.9392 116.149 78.1554 116.268 78.3131C116.405 78.5293 116.543 78.7263 116.701 78.9233C116.878 79.2187 117.311 78.9625 117.114 78.7071V78.7063Z" fill="#3C58D3"/>
<path d="M117.94 81.8348C118.432 82.0179 118.921 81.6425 118.963 81.0677C118.986 80.753 118.846 80.4575 118.727 80.1629C118.668 80.0451 118.491 80.0051 118.392 80.0844C118.171 80.2321 118.345 80.4837 118.431 80.7022C118.577 81.0739 118.397 81.8133 117.803 81.1177C117.667 80.9577 117.59 80.8146 117.488 80.5568C117.448 80.4391 117.311 80.3406 117.192 80.3798C117.074 80.4191 116.976 80.5568 117.015 80.6753C117.133 81.167 117.45 81.654 117.94 81.8363V81.8348Z" fill="#3C58D3"/>
<path d="M123.961 78.057C124.274 77.7439 124.339 77.7539 124.551 77.6831C124.669 77.6438 124.765 77.5061 124.728 77.3876C124.573 76.8852 123.528 77.6092 123.528 77.8793C123.528 78.1224 123.855 78.1886 123.961 78.0563V78.057Z" fill="#3C58D3"/>
<path d="M130.434 98.8928C129.491 98.4064 128.5 98.0194 127.478 97.7379C127.505 96.9939 127.414 95.9521 127.188 95.2727C127.148 95.155 127.011 95.0565 126.893 95.0957C126.775 95.135 126.675 95.2727 126.716 95.3904C127.072 96.4291 126.956 97.2593 126.969 97.5948C125.477 97.2062 123.177 97.1216 121.659 97.1216C121.623 97.1223 121.588 97.1362 121.561 97.1608C120.459 96.1375 119.507 94.9919 118.806 93.6585C118.745 93.5423 118.592 93.5046 118.472 93.58C117.85 93.9701 118.251 94.6749 118.826 96.6892C117.565 96.0619 116.271 95.5035 114.949 95.0165C114.792 94.958 114.635 95.0957 114.635 95.2527C114.635 95.8305 115.23 96.1329 115.874 96.6107C116.314 96.9362 116.187 96.8262 115.5 96.5515C114.844 96.2891 114.028 95.7774 113.553 96.1583C113.317 96.3745 113.433 96.6715 113.631 96.8469C114.037 97.2047 114.959 97.8056 115.461 98.1065C114.752 97.9887 114.044 97.8756 113.336 97.7525C113.119 97.7148 112.96 97.9103 113.06 98.1065C113.664 99.2937 115.049 99.169 114.064 99.169C113.887 99.169 113.806 99.3268 113.828 99.4837C113.899 99.9961 114.497 100.172 114.929 100.33C116.517 100.91 118.256 101.45 120.438 101.825C120.498 101.844 120.556 101.825 120.615 101.806C120.714 101.806 120.829 101.765 120.871 101.648C121.334 100.359 121.658 99.0113 121.894 97.6733C125.023 97.6733 127.425 97.9372 130.236 99.3652C130.472 99.4637 130.729 99.0475 130.432 98.8928H130.434ZM120.419 101.313C116.732 100.655 114.934 99.773 114.595 99.6599C115.284 99.6799 115.953 99.6899 116.642 99.6992C116.937 99.703 116.958 99.3029 116.701 99.2075C115.839 98.8851 114.576 98.9513 113.848 98.3219C114.832 98.4796 115.814 98.6489 116.8 98.8135C117.055 98.8566 117.255 98.495 116.997 98.3611C115.784 97.7318 115.337 97.5794 114.166 96.7492C113.706 96.423 114.435 96.5307 114.716 96.6469C115.051 96.7854 117.095 97.7695 117.744 98.0464C118.019 98.1642 118.141 97.7471 117.94 97.594C117.415 97.1924 115.903 96.1275 115.654 95.9198C115.436 95.8105 115.513 95.742 115.778 95.8444C116.398 96.0837 118.039 96.8492 119.081 97.4171C119.259 97.514 119.509 97.3601 119.435 97.1416C119.305 96.7546 118.663 94.5248 118.629 94.3871C119.716 96.1321 121.286 97.6733 121.364 97.6733C121.128 98.8928 120.852 100.132 120.419 101.313Z" fill="#3C58D3"/>
<path d="M103.361 92.4589C103.243 92.4589 103.106 92.5766 103.125 92.6951C103.164 93.226 103.223 93.7576 103.263 94.2885C103.331 94.7002 103.77 94.4955 103.735 94.2885C103.696 93.7576 103.637 93.226 103.597 92.6951C103.596 92.6327 103.571 92.5731 103.527 92.5289C103.483 92.4848 103.423 92.4597 103.361 92.4589Z" fill="#3C58D3"/>
<path d="M100.272 78.0763C100.134 78.0794 100.016 78.0963 99.8788 78.1155C99.0916 77.0337 98.0837 76.0566 96.908 75.361C96.4672 75.1002 95.4485 74.6785 95.0784 74.9871C94.8422 75.184 94.9014 75.538 95.0191 75.7742C95.1992 76.1951 95.6754 76.432 96.3764 77.2499C95.4892 76.8952 95.0722 77.4407 95.1568 78.1155C94.609 78.3348 94.5113 79.125 94.6844 79.6897C94.409 79.7682 94.2097 80.0829 94.1928 80.3784C94.1689 80.7915 94.4621 81.1501 94.6844 81.4602C95.043 81.9588 95.6108 82.3273 96.2194 82.2665C96.3964 82.8767 96.6788 83.4814 97.0458 84.0177C97.2412 84.3032 97.629 84.0192 97.4589 83.7623C97.1219 83.2521 96.8488 82.7197 96.6918 82.1296C96.6918 82.1096 96.6718 82.1096 96.6718 82.0903C96.6718 82.0903 96.6918 82.0903 96.6918 82.0703C96.9673 81.8733 97.1643 81.5194 97.125 81.1847C97.2871 81.1386 97.4375 81.0586 97.5664 80.9502C97.6953 80.8417 97.7998 80.7071 97.8729 80.5553C98.2268 80.3976 98.6008 80.2206 98.9747 80.1222C98.8194 80.6315 98.7594 81.1652 98.7977 81.6964C98.8193 82.0111 99.3094 82.0111 99.2894 81.6964C99.2463 81.0865 99.3404 80.4747 99.5648 79.9059C99.6264 79.7498 99.4663 79.5913 99.3286 79.5913C98.3138 79.5913 97.0473 80.5915 96.9088 80.2206C96.8696 80.0829 96.9665 79.8852 97.0465 79.7682C97.2212 79.5112 97.5182 79.3535 97.7944 79.2173C98.5207 78.8595 99.3094 78.6703 100.116 78.6072C100.352 78.5887 100.962 78.4695 101.06 78.7841C101.101 78.9465 100.951 82.6705 100.942 82.8374C100.926 83.1521 101.418 83.1521 101.434 82.8374C101.487 81.7756 101.505 80.6923 101.551 79.6305C101.568 79.2366 101.665 78.7095 101.414 78.371C101.153 78.0201 100.667 78.0663 100.273 78.0755L100.272 78.0763ZM94.8222 80.7323C94.6036 80.4045 94.7167 80.1422 94.8814 80.1422H94.9206C95.37 80.7962 96.1309 81.1932 96.6326 81.224C96.7395 81.7595 95.687 82.245 94.8222 80.7323ZM96.6911 80.7323C96.0994 80.7015 95.2638 80.036 95.1168 79.3751C95.0222 78.9503 95.2123 78.6364 95.333 78.5879C95.5923 79.0204 95.907 79.4458 96.4941 79.8275C96.4156 80.1029 96.4102 80.403 96.6118 80.6146C96.6695 80.6754 96.7495 80.7131 96.8088 80.7523C96.7695 80.7323 96.7303 80.7323 96.6911 80.7323ZM96.7303 79.3943C96.2933 79.0919 95.6062 78.4487 95.6285 77.9386C95.6624 77.1714 96.9273 78.1355 97.1435 78.3125C97.1635 78.3325 97.1827 78.3325 97.2027 78.3517C97.3204 78.4895 97.4189 78.6472 97.4782 78.8242C97.572 78.8242 97.0835 78.9357 96.7303 79.3951V79.3943ZM97.9498 78.6072C97.8094 78.3326 97.6377 78.0752 97.4382 77.8401C96.4549 76.3097 95.7947 76.1158 95.51 75.6165C95.49 75.5772 95.3923 75.4003 95.4315 75.361C95.4315 75.341 95.5693 75.361 95.6085 75.381C96.8473 75.5049 98.5715 77.1414 99.3663 78.214C98.8803 78.2886 98.4048 78.4206 97.9498 78.6072Z" fill="#3C58D3"/>
<path d="M111.389 93.5807C110.925 96.1167 110.652 98.6573 110.503 101.234C110.484 101.549 110.975 101.549 110.995 101.234C111.152 98.7158 111.428 96.1975 111.88 93.7185C111.919 93.3838 111.446 93.266 111.389 93.5807Z" fill="#3C58D3"/>
<path d="M146.429 112.941C145.833 112.317 145.268 111.642 144.914 110.855C146.035 110.092 146.498 108.497 146.232 107.923C146.051 107.532 145.603 107.375 145.209 107.451C144.049 107.675 143.989 109.32 144.185 110.225L144.303 110.639C144.283 110.639 144.264 110.659 144.244 110.659C143.496 110.914 142.701 110.682 142.336 109.97C142.114 109.535 141.98 109.06 141.943 108.573C142.651 108.1 143.368 107.515 143.772 106.762C144.933 104.604 142.397 103.004 141.569 106.703C141.455 107.226 141.415 107.762 141.451 108.296C141.412 108.316 141.392 108.336 141.353 108.356C140.487 108.907 139.487 109.379 138.44 109.162C138.126 109.097 138.008 109.572 138.303 109.634C139.447 109.877 140.545 109.438 141.509 108.828C141.806 110.877 143.107 111.593 144.5 111.071C144.874 111.897 145.464 112.645 146.114 113.275C146.291 113.511 146.65 113.172 146.428 112.94L146.429 112.941ZM142.848 105.15C143.584 104.482 144.358 106.291 141.904 107.983C141.904 107.076 142.25 105.693 142.848 105.15ZM144.737 108.475C144.873 108.16 145.15 107.846 145.524 107.944C145.977 108.063 145.781 108.653 145.682 108.967C145.507 109.519 145.19 110.049 144.738 110.404C144.541 109.775 144.478 109.084 144.738 108.476L144.737 108.475Z" fill="#242BA8"/>
<path d="M40.7754 80.6344C41.661 80.7329 66.0976 80.2097 68.1627 80.0835C69.0683 80.0282 70.0532 80.2628 70.8387 79.8081C72.0213 79.1233 72.196 77.6045 72.236 76.2865C72.5868 64.6191 71.9767 52.9332 71.3896 41.2858C71.2273 38.0696 70.1593 37.4087 67.5333 37.4087H15.2369C12.6394 37.4087 11.5437 38.0435 11.3806 41.285C10.7935 52.9532 10.1834 64.6191 10.5343 76.2865C10.662 80.5221 12.5324 79.9566 14.6068 80.0835C16.6719 80.2097 41.1093 80.7329 41.9941 80.6344H40.7746H40.7754Z" fill="white"/>
<path d="M71.4872 39.8292C71.2633 38.7082 70.6416 37.721 69.4998 37.3694C68.5365 37.0724 67.4339 37.1724 66.4306 37.1724C12.994 37.1724 14.1135 37.007 12.9932 37.4679C11.9083 37.9142 11.4159 38.9821 11.242 40.0847C11.1035 40.9641 9.99709 59.2739 10.1994 73.1003C10.2402 75.8963 9.96862 79.0917 11.8722 80.0643C12.7416 80.509 13.8011 80.2674 14.7251 80.3197C15.0006 80.3351 41.6408 80.8906 41.6408 80.8906L68.0449 80.3197C69.0474 80.2643 70.1685 80.5336 71.0548 79.9458C71.9781 79.3333 72.2974 78.2346 72.4121 77.1913C73.0738 71.1744 71.9227 42.0074 71.4872 39.8285V39.8292ZM12.4231 38.4312C13.2971 37.4771 14.7421 37.6441 16.5748 37.6441C68.9843 37.6441 68.1949 37.5841 68.9889 37.7426C71.698 38.2819 70.9756 41.1411 71.3503 45.2582C71.3503 45.2582 12.1676 45.2382 11.4005 45.2582C11.6713 40.6579 11.5675 39.366 12.4238 38.4312H12.4231ZM72.0774 72.961C72.032 75.7602 72.4036 79.4764 70.0115 79.8081C69.9946 79.8104 42.0409 80.3851 42.014 80.3982C39.8073 80.3982 12.6262 79.8227 12.4231 79.7688C10.4441 79.2395 10.7173 76.0872 10.6719 72.6271C10.5518 63.4126 10.8511 55.7677 11.3605 45.7514H71.3695C71.8265 54.9613 72.2359 63.2926 72.0781 72.9618H72.0774V72.961Z" fill="#3C58D3"/>
<path d="M14.5674 41.9729C14.5674 42.9454 15.493 43.5117 16.397 43.1139C17.632 42.5722 17.1134 40.6525 15.8461 40.7133C14.9013 40.7595 14.3666 41.772 14.5674 41.9729Z" fill="#3C58D3"/>
<path d="M18.4436 41.8942C18.4436 42.8668 19.3692 43.4331 20.2733 43.0353C21.5082 42.4936 20.9896 40.5739 19.7224 40.6347C18.6352 40.687 18.3236 41.7734 18.4436 41.8942Z" fill="#3C58D3"/>
<path d="M22.3198 42.0512C22.3198 43.0238 23.2454 43.5893 24.1495 43.1923C25.3844 42.6506 24.8658 40.7309 23.5986 40.7917C22.9854 40.8209 22.3198 41.2772 22.3198 42.0512Z" fill="#3C58D3"/>
<path d="M40.4465 80.3966C41.6861 81.1445 43.0379 83.0542 43.4904 84.4314C43.9428 85.8087 44.0213 87.2644 44.0613 88.7209C43.3913 87.6732 42.8621 86.542 42.487 85.3563C42.7032 86.9105 42.9202 88.4847 42.6048 90.0189L41.4245 86.0249C41.4695 87.1161 41.4167 88.2092 41.2667 89.291C41.2267 89.5665 41.1683 89.8812 40.9128 90.0189C40.5835 89.7889 40.6774 89.5165 40.3027 86.4581C40.0272 87.6776 39.7125 88.9571 38.8077 89.8027C38.67 88.5039 38.9254 87.1467 39.5748 85.9856C38.473 85.3363 37.7059 84.1167 37.5874 82.838L40.4465 80.3966Z" fill="white"/>
<path d="M44.0016 45.6321C43.4923 44.9227 42.5066 44.6481 41.6995 44.9435C41.7926 42.4398 36.4052 42.0213 34.1446 45.7899C33.1606 45.082 31.8048 45.4759 31.0947 46.38C29.6951 48.1635 30.6192 51.135 31.5079 53.2463C31.5432 53.3309 31.7841 53.2855 31.8425 53.2663C32.2557 53.0301 32.7866 53.1878 33.0228 53.601C33.0621 53.6795 33.1998 53.6795 33.239 53.601C33.8447 52.4045 34.2438 51.1142 34.4193 49.7847C35.4619 50.2171 36.5837 50.2748 37.7047 50.2363C39.8991 50.1609 42.5028 50.1263 43.8039 48.3674C44.3655 47.608 44.5933 46.4577 44.0008 45.6329H44.0016V45.6321Z" fill="#EE4532"/>
<path d="M32.9251 54.2895C32.5806 54.2297 32.2321 54.1968 31.8825 54.191C31.5332 54.191 31.6017 54.7035 31.8825 54.6635C32.1303 54.6635 32.5473 54.6819 32.7873 54.7419C33.1397 54.8004 33.1897 54.3303 32.9251 54.2895Z" fill="#3C58D3"/>
<path d="M37.3907 54.4073C37.8716 54.7627 38.3225 53.474 37.6069 52.8531C37.4908 52.753 37.2923 52.7546 37.2138 52.9123C36.9499 53.3524 36.9406 54.0749 37.3907 54.4073Z" fill="#3C58D3"/>
<path d="M41.4633 54.0727C41.9565 54.4251 42.3866 53.1324 41.6795 52.5184C41.214 52.1137 40.7893 53.5187 41.4633 54.0727Z" fill="#3C58D3"/>
<path d="M39.2203 55.4699C39.4758 55.6469 39.9874 55.9223 40.3021 55.7253C40.6168 55.5284 40.5199 55.0167 40.4991 54.702C40.4429 53.8557 40.2598 53.0309 39.9874 52.223C39.8882 51.9283 39.4127 52.0475 39.515 52.3607C39.9405 53.6587 40.0267 54.5304 40.0267 55.2922C39.9497 55.2922 39.7058 55.2145 39.4758 55.056C39.1973 54.8636 38.9641 55.2922 39.2203 55.4691V55.4699Z" fill="#3C58D3"/>
<path d="M39.6927 57.1425C39.6927 57.2856 39.4303 57.4964 39.1103 57.4303C38.9194 57.3918 38.8194 56.9548 38.8533 56.7809C38.9748 56.1576 38.5555 56.3315 38.4916 56.4539C38.0531 57.2887 38.9141 58.4097 39.7904 57.7927C40.0089 57.6372 40.1443 57.418 40.1644 57.1425C40.2082 56.8378 39.6927 56.817 39.6927 57.1425Z" fill="#3C58D3"/>
<path d="M67.2379 58.9322C67.2379 58.7552 67.0224 58.6198 66.8639 58.7168C66.5316 58.9181 66.2328 59.1702 65.9783 59.4639C66.3354 58.3944 66.987 57.398 66.3915 56.9263C66.293 56.8478 66.1345 56.8271 66.0376 56.9263C64.1033 58.9022 64.9181 59.4369 65.2705 55.4898C65.2874 55.2929 65.0535 55.2144 64.8965 55.2744C64.2079 55.5883 63.9571 56.3977 63.6963 57.0448C63.5608 57.3803 63.4208 57.7334 63.3031 58.0874C63.3223 57.7527 63.3254 57.4388 63.3423 57.1041C63.3654 56.6516 63.5785 55.5691 62.8507 55.5298C62.733 55.5298 62.6545 55.6091 62.6145 55.7068C62.0853 57.0252 61.6513 58.3797 61.3157 59.7601C60.8217 59.1253 59.6222 57.8766 58.8366 58.0481C58.7389 58.0697 58.6574 58.1866 58.6597 58.2843C58.6697 58.816 59.0813 59.2061 59.2498 59.6808C59.6853 60.9104 59.6045 62.3507 60.0962 63.5179C60.0192 63.5179 56.2368 67.3265 53.4653 69.8925C52.856 68.9092 52.3066 67.8851 51.7149 66.8826C50.6716 65.116 50.1992 64.719 49.5506 63.9118C48.2402 62.2815 47.4324 60.878 44.7694 60.174C43.5283 59.8455 42.1134 59.9378 41.1493 60.8627C41.1293 60.5087 41.0901 59.7609 41.0901 59.7609C41.6602 59.6031 42.188 59.3054 42.5658 58.856C43.1306 58.1828 43.4683 57.2426 43.5299 56.377C43.5945 55.4591 43.266 51.9759 42.7035 49.6677C42.6266 49.3522 42.1557 49.4907 42.2311 49.8062C42.6335 51.485 43.2691 55.606 42.9397 56.9863C42.5912 58.4459 41.8056 59.1638 40.8146 59.3669C39.6374 59.6085 39.1442 59.4423 38.591 59.2692C38.294 59.1769 38.1563 59.6485 38.4533 59.7408C39.4435 60.0517 39.572 60.0101 40.5784 59.8986C40.5784 59.8986 40.6376 60.8034 40.6577 61.2566C40.1037 61.6567 38.5825 61.886 37.8047 61.886C36.9745 61.886 35.8911 61.7552 35.3648 61.512C35.4633 60.9611 35.5526 60.4079 35.6603 59.8593C35.7142 59.5831 35.7926 59.2923 35.6211 59.033C35.4787 58.8191 35.2279 58.659 35.0502 58.4621C34.2846 57.615 33.8006 56.4955 33.7714 55.3344C33.7652 55.0982 33.5136 55.0366 33.3582 55.1574C32.6403 55.716 31.4077 55.4729 31.3516 54.4496C31.3008 53.5271 32.4441 53.2755 32.8265 53.8787C33.002 54.1557 33.4236 53.8948 33.259 53.6225C32.9566 53.1231 32.3349 52.9561 31.784 53.1108C30.5529 53.457 30.5537 55.2898 31.784 55.8268C32.2933 56.0477 32.8465 55.9838 33.319 55.7668C33.6021 58.0812 35.0971 59.1953 35.1879 59.3084C35.2664 59.4262 35.1894 59.6239 35.1679 59.7609C35.0948 60.2351 35.0096 60.7074 34.9124 61.1774C34.8732 61.1573 34.8139 61.1389 34.7747 61.1181C32.9312 59.5277 29.9074 59.223 27.0813 61.0589C24.3999 62.8016 22.7872 65.7584 21.3561 68.5353C20.0781 71.0143 18.4139 75.033 19.3095 77.6844C20.6421 81.6284 29.7243 82.4317 37.6662 84.1967C37.9949 84.9826 38.541 85.6585 39.2404 86.1449C38.6656 87.2949 38.4269 88.5838 38.5518 89.8635C38.5733 90.0797 38.8049 90.1958 38.9649 90.0404C39.5851 89.4403 39.9483 88.6832 40.2045 87.8768C40.4022 89.261 40.2683 89.8973 40.7754 90.2774C40.8346 90.3166 40.9523 90.3166 41.0316 90.2774C41.5579 89.9266 41.524 89.2849 41.641 87.7591C41.8772 88.5455 42.1234 89.3495 42.3496 90.1397C42.4112 90.3551 42.7789 90.3951 42.8212 90.1397C42.9844 89.1733 42.9982 88.2115 42.9197 87.2474C43.176 87.8184 43.4891 88.35 43.8053 88.8802C43.9231 89.0771 44.2716 89.0186 44.2577 88.7624C44.0992 85.9102 43.536 82.4132 40.9423 80.6943C41.0093 80.5989 41.0108 80.5805 41.0108 80.5582C41.6948 80.5128 45.6789 80.6566 46.0282 80.6566C46.3229 80.6759 46.8553 80.7944 46.913 80.3612C46.9315 80.2242 46.9907 78.0237 46.8938 76.3279C48.5334 77.8883 49.8237 79.9418 53.1306 80.4004C54.8349 80.6374 56.0467 80.1357 56.987 79.0232C58.3904 77.3628 60.9025 72.2954 61.8466 70.3465C64.0325 65.8346 64.0587 65.7115 63.8932 65.5461C64.6211 64.6605 65.1928 63.6387 65.8214 62.6739C66.5508 61.5528 67.2379 60.2533 67.2379 58.9353V58.9322ZM43.7068 87.7953C43.2937 87.0082 42.9344 86.2034 42.6643 85.3555C42.5643 85.0415 42.1503 85.1793 42.1919 85.4932C42.3411 86.6158 42.5066 87.756 42.4481 88.8771C42.1726 87.9322 41.8849 86.9858 41.6017 86.0433C41.5248 85.7871 41.1062 85.8271 41.1101 86.1026C41.1301 87.5167 41.1262 88.0676 40.9923 89.1718C40.9731 89.3295 40.9531 89.5457 40.8746 89.7027C40.8485 89.6426 40.5253 86.5919 40.5207 86.535C40.4984 86.2795 40.1021 86.1795 40.029 86.4757C39.7936 87.436 39.5766 88.4631 38.9865 89.2695C38.9865 88.2069 39.2458 87.1574 39.7544 86.2003C39.8159 86.0841 39.7736 85.9256 39.6751 85.8656C39.0074 85.4628 38.4788 84.8654 38.1601 84.1536C38.9984 83.1276 39.8312 82.0971 40.6584 81.0621C42.7458 82.5263 43.5545 85.3847 43.7084 87.793L43.7068 87.7953ZM63.5001 65.2283C62.5777 64.7071 61.6463 64.2021 60.7063 63.7133C60.0862 62.6077 60.2116 61.1689 59.7615 59.6801C59.5545 58.9945 59.3444 58.836 59.2306 58.5783C59.7476 58.7375 61.1087 59.9271 61.7296 61.4897C61.8466 61.7852 62.3182 61.6482 62.2021 61.352C62.0585 60.998 61.8875 60.6559 61.6904 60.3287C61.7766 60.2425 61.932 58.9691 62.8907 56.4524C62.8907 57.3372 62.7722 59.4623 62.753 59.7378C62.733 60.0332 63.1531 60.0548 63.2446 59.797C63.4593 59.1923 64.3395 56.5793 64.7404 56.0784C64.5826 57.3772 64.2587 58.6537 63.9532 59.9347C63.8925 60.1902 64.271 60.3887 64.4057 60.1317C64.8861 59.2129 65.474 58.3544 66.1568 57.5742C66.1122 57.9281 65.7167 58.8283 64.8981 61.0766C64.7981 61.3512 65.212 61.489 65.3505 61.2728C65.7421 60.6618 66.1769 59.974 66.747 59.4823C66.5893 60.5449 66.0168 61.599 65.429 62.453C64.7973 63.3702 64.2287 64.3612 63.5008 65.2268L63.5001 65.2283Z" fill="#3C58D3"/>
<path d="M61.8274 54.0141C60.3886 54.2965 59.1437 55.299 58.502 56.6109C58.3666 56.8878 58.799 57.1433 58.9352 56.8663C59.533 55.6506 60.6456 54.755 61.9651 54.4857C62.2598 54.4257 62.1413 53.9518 61.8274 54.0133V54.0141Z" fill="#3C58D3"/>
<path d="M58.4828 54.6828C59.283 53.6549 60.6633 53.1455 61.9459 53.404C62.2599 53.4671 62.3784 52.9916 62.0837 52.9316C60.6272 52.6392 59.0537 53.1678 58.1489 54.3481C57.9327 54.5843 58.2851 54.9375 58.4836 54.6828H58.4828Z" fill="#3C58D3"/>
<path d="M35.6002 76.9159C32.014 74.8092 30.7814 74.2306 29.0286 73.355C29.061 73.3227 29.8204 71.0776 29.835 71.0337C29.9258 70.7644 29.4718 70.5675 29.3626 70.916C29.0371 71.9524 28.5955 73.1011 28.5955 73.1789C27.9016 72.8656 27.1996 72.5706 26.4903 72.294C26.1949 72.1763 26.0756 72.6518 26.3526 72.7657C30.3751 74.4161 33.879 76.4319 37.6853 78.7471C38.6887 79.3573 39.6743 80.0243 40.5383 80.813C40.7745 81.0292 41.1292 80.6745 40.8923 80.4591C39.305 79.0164 37.433 77.9939 35.5995 76.9174L35.6002 76.9159Z" fill="white"/>
<path d="M53.6231 69.9112C53.5769 69.5257 53.113 69.6811 53.1507 69.9112C53.3623 72.024 52.8375 72.4141 53.2684 72.5479C53.3876 72.5849 53.5438 72.5087 53.5638 72.371C53.6808 71.5639 53.7208 70.736 53.6231 69.9119V69.9112Z" fill="white"/>
<path d="M29.0878 30.9356C27.766 31.1264 26.521 30.4131 25.6647 29.4798C25.4854 29.2852 25.33 29.0874 25.173 28.8897C25.3108 27.6702 25.2077 26.3737 24.7799 25.2304C24.0497 23.2822 22.5193 23.7939 22.7732 25.3881C22.8917 26.136 23.3095 26.8215 23.6781 27.474C23.9715 28.0027 24.2933 28.5151 24.6421 29.009C24.6221 29.1074 24.6229 29.2059 24.6029 29.3244C24.3713 30.6817 23.8312 31.9566 22.9894 33.0422C22.7917 33.2969 23.2318 33.5393 23.4226 33.2977C24.2767 32.2174 24.8199 30.8971 25.0553 29.5591C26.0786 30.7786 27.5474 31.6442 29.1871 31.4088C29.5202 31.3611 29.4025 30.891 29.0886 30.9363H29.0878V30.9356ZM24.5229 27.8856C24.0335 27.08 22.7948 25.2042 23.3818 24.541C23.8281 24.037 24.796 25.6843 24.7391 28.2395C24.6606 28.1218 24.5814 28.0033 24.5229 27.8856Z" fill="#EE4532"/>
<path d="M125.2 25.2888C124.063 16.3098 115.087 12.9951 107.335 15.9035C93.191 21.2109 90.4426 39.9678 76.7409 46.754C76.6224 46.8125 76.6816 46.9702 76.8001 46.9702V46.9902C76.6624 46.9702 76.6224 47.1695 76.7609 47.2264C78.9791 48.1328 84.2219 49.0622 86.5594 49.45C90.8535 50.1625 93.9635 50.6819 98.0691 50.2764C104.329 49.6585 112.804 46.9894 117.488 42.7215C119.104 41.2488 120.475 39.5323 121.679 37.7241C124.092 34.1002 125.764 29.7376 125.201 25.2904L125.2 25.2888Z" fill="#FCCAC2"/>
<path d="M108.299 20.5669C105.553 20.3223 101.404 22.5297 100.764 25.899C100.416 27.7148 100.894 28.9866 102.849 36.897L108.634 37.7434C109.767 35.2674 113.668 31.4911 113.395 26.5484C113.218 23.6954 111.152 20.8031 108.299 20.5677V20.5669Z" fill="white"/>
<path d="M113.572 25.8197C113.201 23.5307 111.624 21.2456 109.381 20.5269C106.307 19.5429 101.078 22.0473 100.488 26.0752C100.249 27.7079 100.729 29.3206 101.117 30.8956C101.515 32.5075 102.495 36.5031 102.593 36.877C101.825 37.1848 101.682 38.4697 102.435 39.1791C101.825 39.5138 101.428 40.1832 101.589 40.9303C101.83 42.0483 103.195 42.2091 104.343 42.2091C104.184 43.6402 105.988 44.1495 106.685 43.0554C106.837 42.8169 106.901 42.5245 106.882 42.2491C107.289 42.2491 108.802 42.8192 109.4 41.7967C109.792 41.1273 109.499 40.4194 108.967 39.967C109.984 39.4923 109.964 38.2173 109.065 37.6849C109.026 37.6649 109.006 37.6464 108.967 37.6464C109.616 36.3469 110.519 35.2043 111.288 33.9863C112.804 31.5873 114.02 28.5989 113.57 25.8213L113.572 25.8197ZM106.213 42.8392C105.721 43.4547 104.697 42.9654 104.836 42.1698C105.348 42.1498 105.859 42.1314 106.371 42.1698C106.43 42.386 106.371 42.6422 106.213 42.8392ZM108.948 41.5597C108.538 42.1321 107.59 41.7959 107.019 41.7174C105.286 41.4766 103.095 41.9775 102.317 41.2258C101.704 40.6341 102.188 39.5338 102.966 39.5338C104.626 39.6492 106.285 39.8 107.944 39.9701C108.654 40.0432 109.424 40.8949 108.948 41.5604V41.5597ZM108.279 39.5138C106.624 39.3422 104.95 39.2083 103.293 39.0752C102.793 39.0352 102.295 38.4066 102.435 37.7634C102.591 37.0455 103.192 37.294 104.166 37.4095C105.645 37.5864 107.118 37.8226 108.613 38.0196C109.621 38.0196 109.365 39.877 108.278 39.5146H108.279V39.5138ZM106.646 28.9882C107.48 29.1959 107.374 29.0467 107.374 29.1252C106.964 31.0295 106.755 35.4844 106.706 37.251C106.43 37.2125 106.135 37.1725 105.859 37.1332C106.365 34.4264 106.646 31.7412 106.646 28.9874V28.9882ZM112.922 29.1652C112.046 32.8607 109.629 35.1612 108.495 37.5264L107.216 37.3494C107.263 35.726 107.492 30.7325 107.905 29.1252C108.397 29.0867 108.881 28.9197 109.262 28.6135C110.777 27.3978 108.428 25.2635 107.492 28.6335C107.227 28.6335 106.933 28.5981 106.626 28.4958C106.626 26.6084 105.569 26.0744 104.914 26.3514C104.096 26.6976 104.563 28.1634 106.134 28.8305C106.134 31.6719 105.852 34.5257 105.386 37.0555V37.114C105.343 37.1078 103.147 36.7993 103.104 36.7993C102.73 35.2643 101.373 29.8538 101.373 29.8538C100.876 27.7541 100.543 25.8221 101.904 23.8924C103.264 21.9634 106.302 20.4769 108.534 20.8032C111.431 21.2271 113.99 24.6618 112.922 29.1652H112.922ZM108.043 28.5735C108.043 28.5535 108.063 28.535 108.063 28.5142C108.201 28.1218 108.355 27.6448 108.712 27.3924C109.318 26.9654 109.823 28.2773 108.044 28.5727L108.043 28.5735ZM106.154 28.2588C105.564 27.9641 104.688 27.0262 105.111 26.8031C105.485 26.6061 105.878 27.1185 105.997 27.3932C106.115 27.6687 106.135 27.9641 106.155 28.2588H106.154Z" fill="#3C58D3"/>
<path d="M85.5353 26.0359C83.047 24.5494 80.5726 23.0344 78.0589 21.6087C77.7827 21.4525 77.5272 21.8849 77.8034 22.0418C80.3171 23.4668 82.7916 24.9818 85.2798 26.4691C85.5522 26.6314 85.8077 26.199 85.5353 26.0359Z" fill="#242BA8"/>
<path d="M85.6144 15.6081C85.4928 15.3141 85.0588 15.5704 85.1812 15.8635C86.1099 18.0825 87.5956 20.0245 88.4666 22.2774C88.5812 22.5736 89.0529 22.4366 88.939 22.1396C88.0603 19.8499 86.5492 17.8625 85.6136 15.6073L85.6144 15.6081Z" fill="#242BA8"/>
<path d="M94.8421 14.2308C94.3074 16.3005 93.7064 18.3587 93.1694 20.4485C93.0886 20.7624 93.5626 20.8816 93.6418 20.587C94.1927 18.5203 94.7167 16.4413 95.3145 14.3685C95.4061 14.0515 94.9237 13.9169 94.8421 14.2308Z" fill="#242BA8"/>
<path d="M132.008 47.7773C130.864 47.3895 130.108 46.2854 129.784 45.1613C129.682 44.8074 129.607 44.4519 129.548 44.098C130.185 43.1837 130.639 42.1548 130.886 41.068C131.021 40.4578 131.144 39.4307 130.532 39.0221C129.905 38.6043 129.317 39.3191 129.135 39.8685C128.886 40.6187 128.915 41.4227 128.938 42.1898C128.955 42.7799 128.977 43.3701 129.055 43.9602C128.207 45.1482 127.016 46.1015 125.691 46.7147C125.395 46.8517 125.654 47.2726 125.946 47.1479C127.218 46.6055 128.307 45.7114 129.173 44.6489C129.173 44.6689 129.173 44.7081 129.193 44.7273C129.508 46.2431 130.401 47.695 131.908 48.2489C132.165 48.3436 132.301 47.8765 132.007 47.7765L132.008 47.7773ZM129.45 43.0746C129.386 41.9305 129.318 40.8049 129.588 40.0054C129.858 39.206 130.493 39.0921 130.493 40.2416C130.493 41.1203 129.954 42.4699 129.469 43.3116C129.449 43.2516 129.449 43.1531 129.449 43.0746H129.45Z" fill="#EE4532"/>
</svg>
