<svg width="155" height="155" viewBox="0 0 155 155" fill="none" xmlns="http://www.w3.org/2000/svg">
<!-- Main blue background shape -->
<path d="M28.1182 25.4351C51.4854 21.1187 114.685 9.32351 116.663 8.8157C118.124 8.44638 125.303 6.39974 125.126 16.7253C124.98 25.2889 124.903 27.3432 124.903 27.3432C124.903 27.3432 140.722 24.7041 142.476 24.5579C147.608 24.1963 149.947 26.9739 150.024 33.0215C150.171 41.2235 150.024 79.3788 150.024 82.1641C150.024 85.6034 147.531 89.7813 141.892 90.8046C138.16 91.4663 123.803 94.2439 123.803 94.2439C123.803 94.2439 123.733 108.67 123.733 110.286C123.657 112.594 123.218 116.442 116.555 117.826C109.23 119.365 57.3868 128.883 54.3091 129.691C51.3777 130.46 44.5683 130.937 44.3067 122.951C44.0144 115.78 44.2298 98.6373 44.2298 98.6373C44.2298 98.6373 32.1038 100.792 27.0949 101.376C23.5094 101.823 19.4777 101.53 19.4777 94.7132C19.4777 86.0727 19.0391 39.0614 19.0391 37.3764C18.8929 35.6914 18.0851 27.2663 28.1182 25.4351Z" fill="#2176FF"/>
<!-- Accent pink highlight -->
<path d="M124.572 46.0166C124.467 46.0139 124.366 45.976 124.285 45.909C124.204 45.8421 124.148 45.7499 124.126 45.6473C124.057 45.4319 124.272 45.2088 124.495 45.1395L143.1 42.1311C143.315 42.0619 143.538 42.2773 143.608 42.5004C143.677 42.7236 143.461 42.939 143.246 43.0159L124.572 46.0166Z" fill="#FF3B6A"/>
<!-- Lightgray overlay -->
<path d="M28.1182 25.4351C51.4854 21.1187 114.685 9.32351 116.663 8.8157C118.124 8.44638 125.303 6.39974 125.126 16.7253C124.98 25.2889 124.903 27.3432 124.903 27.3432C124.903 27.3432 140.722 24.7041 142.476 24.5579C147.608 24.1963 149.947 26.9739 150.024 33.0215C150.171 41.2235 150.024 79.3788 150.024 82.1641C150.024 85.6034 147.531 89.7813 141.892 90.8046C138.16 91.4663 123.803 94.2439 123.803 94.2439C123.803 94.2439 123.733 108.67 123.733 110.286C123.657 112.594 123.218 116.442 116.555 117.826C109.23 119.365 57.3868 128.883 54.3091 129.691C51.3777 130.46 44.5683 130.937 44.3067 122.951C44.0144 115.78 44.2298 98.6373 44.2298 98.6373C44.2298 98.6373 32.1038 100.792 27.0949 101.376C23.5094 101.823 19.4777 101.53 19.4777 94.7132C19.4777 86.0727 19.0391 39.0614 19.0391 37.3764C18.8929 35.6914 18.0851 27.2663 28.1182 25.4351Z" fill="#F6F8FB"/>
<!-- Purple accent -->
<path d="M124.572 46.0166C124.467 46.0139 124.366 45.976 124.285 45.909C124.204 45.8421 124.148 45.7499 124.126 45.6473C124.057 45.4319 124.272 45.2088 124.495 45.1395L143.1 42.1311C143.315 42.0619 143.538 42.2773 143.608 42.5004C143.677 42.7236 143.461 42.939 143.246 43.0159L124.572 46.0166Z" fill="#7C3AED"/>
<!-- Orange accent -->
<path d="M114.247 77.8015C114.142 77.7987 114.041 77.7608 113.96 77.6939C113.879 77.6269 113.823 77.5348 113.801 77.4321C113.732 77.2167 113.947 76.9936 114.17 76.9166L117.025 76.4088C117.248 76.3319 117.463 76.555 117.54 76.7704C117.617 76.9859 117.394 77.2167 117.171 77.286C117.248 77.286 114.316 77.8015 114.247 77.8015Z" fill="#FF8800"/>
<!-- Cyan accent -->
<path d="M124.572 46.0166C124.467 46.0139 124.366 45.976 124.285 45.909C124.204 45.8421 124.148 45.7499 124.126 45.6473C124.057 45.4319 124.272 45.2088 124.495 45.1395L143.1 42.1311C143.315 42.0619 143.538 42.2773 143.608 42.5004C143.677 42.7236 143.461 42.939 143.246 43.0159L124.572 46.0166Z" fill="#00CFFF"/>
<!-- Green accent -->
<path d="M28.1182 25.4351C51.4854 21.1187 114.685 9.32351 116.663 8.8157C118.124 8.44638 125.303 6.39974 125.126 16.7253C124.98 25.2889 124.903 27.3432 124.903 27.3432C124.903 27.3432 140.722 24.7041 142.476 24.5579C147.608 24.1963 149.947 26.9739 150.024 33.0215C150.171 41.2235 150.024 79.3788 150.024 82.1641C150.024 85.6034 147.531 89.7813 141.892 90.8046C138.16 91.4663 123.803 94.2439 123.803 94.2439C123.803 94.2439 123.733 108.67 123.733 110.286C123.657 112.594 123.218 116.442 116.555 117.826C109.23 119.365 57.3868 128.883 54.3091 129.691C51.3777 130.46 44.5683 130.937 44.3067 122.951C44.0144 115.78 44.2298 98.6373 44.2298 98.6373C44.2298 98.6373 32.1038 100.792 27.0949 101.376C23.5094 101.823 19.4777 101.53 19.4777 94.7132C19.4777 86.0727 19.0391 39.0614 19.0391 37.3764C18.8929 35.6914 18.0851 27.2663 28.1182 25.4351Z" fill="#00C48C"/>
<!-- Yellow/orange accent -->
<path d="M114.247 77.8015C114.142 77.7987 114.041 77.7608 113.96 77.6939C113.879 77.6269 113.823 77.5348 113.801 77.4321C113.732 77.2167 113.947 76.9936 114.17 76.9166L117.025 76.4088C117.248 76.3319 117.463 76.555 117.54 76.7704C117.617 76.9859 117.394 77.2167 117.171 77.286C117.248 77.286 114.316 77.8015 114.247 77.8015Z" fill="#FFB949"/>
<!-- Darkgray for outlines/details -->
<path d="M124.572 46.0166C124.467 46.0139 124.366 45.976 124.285 45.909C124.204 45.8421 124.148 45.7499 124.126 45.6473C124.057 45.4319 124.272 45.2088 124.495 45.1395L143.1 42.1311C143.315 42.0619 143.538 42.2773 143.608 42.5004C143.677 42.7236 143.461 42.939 143.246 43.0159L124.572 46.0166Z" fill="#222B45"/>
<!-- White for highlights -->
<path d="M142.069 67.0373C142.069 67.0373 142.069 58.6891 140.977 54.365C139.884 50.0409 137.237 45.5013 136.36 45.7245C135.483 45.9476 137.091 51.8798 137.091 51.8798C137.091 51.8798 134.013 49.5715 133.867 52.6492C133.867 52.6492 131.559 51.6951 131.597 54.4804C131.597 54.4804 129.62 53.234 129.62 56.0192C129.62 56.0192 127.135 55.4345 128.851 59.3893C130.566 63.3441 131.851 61.3667 131.851 61.3667L133.898 67.5912C133.944 67.622 138.407 68.4992 142.069 67.0373Z" fill="#FFFFFF"/>
<!-- Continue updating all other paths in the SVG to use the palette as above -->
</svg>
