<svg viewBox="0 0 400 400" xmlns="http://www.w3.org/2000/svg" id="Designer-Giving-A-Keynote-2--Streamline-Free-Illustrations">
  <desc>
    Designer Giving A Keynote 2 Streamline Illustration: https://streamlinehq.com
  </desc>
  <g>
    <path d="M212.016 249.762c32.726 -1.66 62.708 -2.412 67.542 0.298 2.49 1.4 6.364 19.8 8.144 32.106 10.052 -1.2 22.684 -2.304 35.304 -3.164 -1.874 -9.468 -3.03 -15.4 -7.282 -24.548 -0.644 -1.386 1.12 -1.946 1.838 -0.68a76.096 76.096 0 0 1 8.454 25.072c17.086 -1.122 33.944 -1.8 44.51 -1.8 -1.2 -10.34 -7.846 -34.168 -19.76 -46.386 -9.184 -9.418 -27 -17.8 -42.768 -19.784a11.968 11.968 0 0 1 -7.64 9.85c-8.424 3.31 -23.8 4.18 -37.516 -3.354 -14.47 4.128 -40.988 19.876 -50.826 32.39Z" fill="#e96d64" stroke-width="1"></path>
    <path d="M388.412 323.358c-86.286 1.622 -172.182 1.302 -258.422 1.4 -1.744 0 -2.138 2.726 -0.334 2.758 86.046 1.59 173.118 -0.282 259.15 -1.336 1.838 -0.016 1.434 -2.856 -0.394 -2.822Z" fill="#e96d64" stroke-width="1"></path>
    <path d="M175.958 152.872c8.858 0.166 52.028 -0.638 56.618 -0.836 1.384 -0.06 1.348 -2.448 0 -2.448 -6.162 0 -46.702 0.782 -56.618 1.302a1 1 0 0 0 0 1.982Z" fill="#e96d64" stroke-width="1"></path>
    <path d="M140.6 141.814c-0.644 0.336 -11.782 13.724 -6.65 12.132 0.728 -0.226 8 -9.44 8.358 -11.092a1.064 1.064 0 0 0 -1.708 -1.04Z" fill="#e96d64" stroke-width="1"></path>
    <path d="M116.33 111.4c3.582 0.168 76.52 -0.014 80.868 -0.442a2.514 2.514 0 0 0 -0.154 -5c-20.298 0.252 -62.494 0.356 -80.6 0.752 -2.716 0.062 -2.944 4.562 -0.114 4.69Z" fill="#e96d64" stroke-width="1"></path>
    <path d="M218.428 188.368c-4.694 0 -40.384 -0.4 -42.912 0.322 -0.86 0.248 -1.2 1.64 -0.168 1.934 2.696 0.774 38.2 0.382 43.102 0.382s9.66 0.176 14.46 0c1.468 -0.054 1.36 -2.514 -0.096 -2.578 -4.776 -0.212 -9.6 -0.06 -14.386 -0.06Z" fill="#e96d64" stroke-width="1"></path>
    <path d="M174.954 207.054a1.2 1.2 0 0 0 -0.812 1.48c0.412 1.4 -1.438 0.92 59.388 1.934a1.362 1.362 0 0 0 0 -2.71c-58.352 -0.942 -54.73 -1.002 -58.576 -0.704Z" fill="#e96d64" stroke-width="1"></path>
    <path d="M232.23 172.38a1.314 1.314 0 0 0 0.082 -2.614c-8.68 -0.24 -49.072 -0.576 -56.4 0.884 -1.2 0.238 -0.932 1.986 0.214 2.088 6.198 0.558 15.674 -1.524 56.104 -0.358Z" fill="#e96d64" stroke-width="1"></path>
    <path d="M285.576 136.848c0.108 -17.228 0.908 -38.72 -0.538 -55.436a1.028 1.028 0 0 0 -2.042 0.108c-0.47 8.02 -0.028 45.284 0 55.52 0.004 1.682 2.57 1.492 2.58 -0.192Z" fill="#e96d64" stroke-width="1"></path>
    <path d="M134.646 216.664a94.246 94.246 0 0 0 7.892 7.69c1.2 1.13 3.048 -0.672 1.84 -1.8a106.874 106.874 0 0 0 -8.156 -7.4c-0.866 -0.554 -2.244 0.58 -1.576 1.51Z" fill="#e96d64" stroke-width="1"></path>
    <path d="M23.8 81.412c0 -1.504 -2.368 -1.778 -2.388 -0.238 -0.788 63.712 0.264 137.818 3.308 201.2 0.084 1.756 2.8 1.326 2.71 -0.418 -3.216 -67.046 -3.722 -133.442 -3.63 -200.544Z" fill="#e96d64" stroke-width="1"></path>
    <path d="M53.886 223.578c-0.672 1 0.886 2.272 1.672 1.338 1.014 -1.2 6.894 -8.014 6.6 -9.48 -0.81 -3.884 -7.124 6.444 -8.272 8.142Z" fill="#e96d64" stroke-width="1"></path>
    <path d="M97.884 191.258c-1.026 -0.19 -7.534 5.586 -8.848 6.84 -12.286 -8.034 -11.064 -6.056 -10.912 -1.2a89.566 89.566 0 0 0 0.692 9.934c0.15 1.042 1.734 0.86 1.8 -0.154 0.25 -3.714 -0.228 -7.416 -0.288 -11.128 10.818 6.6 7.474 6.4 17.576 -1.876 1.2 1.326 6.914 6.886 8.644 6.676 1.4 -0.174 6.114 -6.508 7.236 -7.858 0 2.866 0.092 11.046 0.942 13.362 0.44 1.2 1.6 0.776 1.66 -0.418 0.148 -2.544 -0.16 -8.574 -0.154 -11.51 0 -3.344 -0.01 -4.2 -1.41 -6.2 -3.04 -4.344 -10.74 -14.986 -15.438 -20.762 -4.138 -5.09 -4.32 -5.2 -7.224 -0.704 -4.474 6.938 -11.984 20.4 -13.132 22.96 -0.486 1.078 1.176 1.586 1.754 0.788 1.924 -2.658 6.28 -10.472 8.286 -13.91a119.26 119.26 0 0 0 13.528 -0.228c3.714 4.4 7.224 8.944 10.6 13.6l-6.888 8.358c-0.938 -0.744 -7.386 -6.378 -8.424 -6.57Z" fill="#e96d64" stroke-width="1"></path>
    <path d="M132.342 280.8c-10.746 -0.6 -98.252 -0.13 -101.666 0.4a1.2 1.2 0 0 0 0.13 2.318c33.086 0.094 68.2 -0.168 101.344 -0.132 1.612 0 1.888 -2.486 0.192 -2.586Z" fill="#e96d64" stroke-width="1"></path>
    <path d="M58.102 156.966c1.184 1.322 3 -0.334 2.016 -1.456 -2.388 -2.71 -7.504 -8.864 -9.862 -10.936 -0.934 -0.822 -2.2 0.464 -1.54 1.444 1.696 2.53 7.048 8.34 9.386 10.948Z" fill="#e96d64" stroke-width="1"></path>
    <path d="M96.6 145.2a88.498 88.498 0 0 0 -0.918 -15.522 1.1 1.1 0 0 0 -2 0.2 97.664 97.664 0 0 0 0.752 15.52 1.098 1.098 0 0 0 2.166 -0.198Z" fill="#e96d64" stroke-width="1"></path>
    <path d="M98.35 222.634c0 1.66 -0.442 12.68 0.154 14.126a1.2 1.2 0 0 0 2.078 0c0.622 -1.588 -0.084 -11.94 -0.166 -14.126 -0.108 -1.17 -2.066 -1.194 -2.066 0Z" fill="#e96d64" stroke-width="1"></path>
    <path d="M48.31 186.482C72.6 140.8 127.968 145.6 148.33 182.78c-24.056 36.714 -71.184 42.272 -100.13 6.972 -0.904 -1.1 -2.022 0.306 -1.2 1.458 25.448 35.4 79.822 30.78 102.274 -5a5.564 5.564 0 0 0 0.346 -6.494c-24.69 -42.284 -86.526 -34.678 -102.982 5.684 -0.49 1.2 1.086 2.186 1.672 1.082Z" fill="#e96d64" stroke-width="1"></path>
    <path d="M269.708 140.084c-6.256 1.2 -11.774 14.866 -4.872 21.264 4.226 3.918 23.688 4.084 35.486 3.582a13.898 13.898 0 0 0 0.918 4.214c0.47 1.2 1.878 1.58 1.528 -0.584a22.332 22.332 0 0 1 -0.262 -3.726c2.388 -0.118 4.274 -0.262 5.492 -0.4a76.45 76.45 0 0 1 -1.372 7.928c-0.33 1.434 1.28 1.702 1.826 0.334a30.87 30.87 0 0 0 1.982 -13.6c-0.712 -10.194 -29.298 -21.208 -40.726 -19.012Zm1.97 5.384c-2.878 0.658 -3.558 5.03 -3.82 7.368 -0.45 4 -3 1.2 -2.388 -2.318 0.468 -2.652 2.734 -6.972 6.04 -6.542a0.752 0.752 0 0 1 0.168 1.492Z" fill="#043f6d" stroke-width="1"></path>
    <path d="M293.098 181.24a26.176 26.176 0 0 0 3.236 -8.752 20.432 20.432 0 0 1 7.534 3c1.36 0.586 1.876 -1.2 1.2 -1.754a15.764 15.764 0 0 0 -8.61 -3.486c-1.456 -2.758 -12.524 -3.4 -14.232 -0.49a3.4 3.4 0 0 0 -2.77 -0.25c-0.87 -2.388 -10.686 -2.986 -13.132 -0.228 -2.818 -0.31 -3.988 2.292 -0.264 2.268a29.444 29.444 0 0 0 1.422 7.6c0.964 1.972 7.896 1.942 9.276 0.944 1.642 -1.186 2.388 -6.364 2.854 -8.358a2.9 2.9 0 0 1 2.054 0.12 33.638 33.638 0 0 0 0.906 7.94c1.06 2.108 8.988 3.262 10.526 1.446ZM276 177.8c-0.326 0.786 -0.62 0.974 -3.248 0.87 -4.44 -0.174 -3.51 0.788 -4.87 -8.154a15 15 0 0 1 9.646 0A19.742 19.742 0 0 1 276 177.8Zm8.358 0.906a29.2 29.2 0 0 1 -0.526 -7.474 14.458 14.458 0 0 1 10.544 0.322 18.318 18.318 0 0 1 -1.494 5.696c-1.136 2.486 -1.324 2.812 -4.906 2.52 -1.72 -0.14 -3.376 -0.522 -3.618 -1.062Z" fill="#043f6d" stroke-width="1"></path>
    <path d="M286.054 177.108c0.374 1.348 3 1.506 2.388 -2.388 -0.35 -2.216 -3.474 -1.52 -2.388 2.388Z" fill="#043f6d" stroke-width="1"></path>
    <path d="M308.738 175.496c-6.852 0.574 -10.234 13.126 -13.874 14.328 -2.544 0.842 -8.25 -2.818 -14.016 -3.212s-9.05 2.042 -10.126 1.528 -0.334 -5.014 -0.334 -6.064 -0.572 -1.624 -1.588 0.692 -10.924 24.548 -6.614 30.53c6.16 8.548 31.298 10.358 39.102 4.478 9.784 -7.372 1.458 -31.048 3.868 -37.216a4.656 4.656 0 0 1 4.932 -2.46c3.296 1.428 2.39 11.2 -2.878 9.67 -1.324 -0.382 -1.624 1.282 -0.4 1.924 3.578 1.882 7.09 -1.052 7.558 -5.97 0.35 -3.724 -0.914 -8.622 -5.63 -8.228Zm-27.282 22.2c-4.966 0 -5.97 -1.97 -6.388 -5.2a28.664 28.664 0 0 0 13.016 -0.226c-0.454 2.952 -1.084 5.434 -6.628 5.434Z" fill="#043f6d" stroke-width="1"></path>
    <path d="M279.08 176.714a32.21 32.21 0 0 0 -2.054 6.6c-0.494 2.69 3.084 2.698 5.1 2.388 1.2 -0.184 1.42 -1.552 0.106 -1.648 -0.966 -0.072 -2.864 -0.12 -3.044 -0.454a28.336 28.336 0 0 1 1.278 -6.566c0.278 -0.88 -1.006 -1.224 -1.386 -0.32Z" fill="#043f6d" stroke-width="1"></path>
    <path d="M273.4 177.2c1.112 -0.424 1.2 -3.418 0.25 -3.976 -2.398 -1.424 -2.732 4.912 -0.25 3.976Z" fill="#043f6d" stroke-width="1"></path>
    <path d="M292.966 71.86c-92.496 0.072 -190.688 -0.142 -281.776 0.634 -1.552 0.012 -1.588 4 -0.096 4.01 92.21 0.578 189.328 -0.142 281.776 -0.214 1.66 -0.002 1.696 -4.43 0.096 -4.43Z" fill="#043f6d" stroke-width="1"></path>
    <path d="M187.586 284.768c-15.8 -0.94 -40.274 -4.032 -55.018 -10.362 -1.896 -0.816 -11.262 0.714 -21.896 -4.2 -1.112 -0.512 -1.554 1.054 -0.514 1.696 5.434 3.348 12.298 4.24 18.566 4.442a10.24 10.24 0 0 1 4.86 1.086 164.84 164.84 0 0 0 54.122 9.67c1.516 0.022 1.468 -2.236 -0.12 -2.332Z" fill="#043f6d" stroke-width="1"></path>
    <path d="M367.22 280.232c-0.308 -1.684 -2.578 -1.09 -2.294 0.584a40.574 40.574 0 0 1 -1.134 18c-4.082 14.226 -16.094 11.944 -28.118 11.39 -12.62 -0.58 -30 -1.79 -40.904 -2.292a0.932 0.932 0 0 0 -0.294 1.84c10.49 1.666 32.898 2.652 41.628 3.066 11.94 0.568 25.26 2.16 29.706 -11.664a43.052 43.052 0 0 0 1.41 -20.924Z" fill="#043f6d" stroke-width="1"></path>
    <path d="M288.954 287.36a465.98 465.98 0 0 1 46.638 -5.026 0.982 0.982 0 0 0 -0.096 -1.96 390.864 390.864 0 0 0 -46.936 4.776 1.1229536945 1.1229536945 0 0 0 0.4 2.21Z" fill="#043f6d" stroke-width="1"></path>
    <path d="M124.45 270.06a1.238 1.238 0 1 0 -0.108 -2.472c-7.424 0.238 -11.17 -1.87 -16.07 -5.35 -0.776 -0.55 -1.6 0.42 -1 1.2 3.488 4.61 11.626 6.838 17.178 6.622Z" fill="#043f6d" stroke-width="1"></path>
    <path d="M136.8 257.4c0.904 1.568 2.8 1.78 4.488 2.162 9.97 2.266 32.784 1.51 43.366 1.386 1.504 -0.018 1.2 -1.962 -0.346 -1.948 -7.726 0.078 -31.044 0.298 -42.614 -1.838 -2.136 -0.4 -2.026 -0.084 -3.116 -1.8 -2.06 -3.252 -5.132 -7.23 -8.858 -7.296 -1.112 -0.02 -1.2 1.052 -0.252 1.528a15.542 15.542 0 0 1 7.332 7.806Z" fill="#043f6d" stroke-width="1"></path>
    <path d="M130.2 257.844c-5.164 -1.516 -12.462 -3.948 -16.476 -9.134 -1.2 -1.556 -2.22 -0.346 -1.624 0.908 2.5 5.264 11.652 10 16.906 10.2 2.906 0.122 2.098 -1.71 1.194 -1.974Z" fill="#043f6d" stroke-width="1"></path>
    <path d="M109.286 253.762a1.016 1.016 0 0 0 -1.636 1.2 23.104 23.104 0 0 0 16.656 9.778 1.2 1.2 0 0 0 0.704 -2.2c-1.754 -0.756 -9.21 -1.242 -15.724 -8.778Z" fill="#043f6d" stroke-width="1"></path>
    <path d="M339.532 314.952c-3.582 -0.466 -45.132 0.454 -47.056 -0.334S280.6 257.152 278 253.428s-84.498 -1.362 -88.222 0.788 8.574 66.89 11.76 68.2c2.842 1.166 133.724 -0.454 138 -0.68s3.576 -6.318 -0.006 -6.784Zm-103.184 -18.626c-11.174 0.93 -14.676 -17.4 -3.51 -19.222 5.3 -0.866 9.97 3.834 10.96 9.622a8.156 8.156 0 0 1 -7.45 9.6Z" fill="#043f6d" stroke-width="1"></path>
  </g>
</svg>