<svg width="155" height="155" viewBox="0 0 155 155" fill="none" xmlns="http://www.w3.org/2000/svg">
<path d="M145.853 26.6998C145.853 26.6998 138.051 125.639 137.281 130.917C136.512 136.195 135.373 141.843 122.024 141.997C108.674 142.151 77.0668 142.143 73.4736 141.997C69.8804 141.85 61.5861 139.496 62.5402 128.278C63.4943 117.06 70.796 36.8868 71.627 28.0924C72.5503 18.4055 75.2971 14.0198 84.3916 13.4735C89.4544 13.1811 128.471 13.6582 133.019 13.6197C137.566 13.5812 146.807 14.82 145.853 26.6998Z" fill="white"/>
<path d="M112.113 21.5293C112.113 21.5293 107.828 26.0227 106.504 29.7774C105.181 33.5322 106.581 35.3557 108.413 35.5711C110.244 35.7866 112.921 38.3564 112.737 40.4108C112.552 42.4651 113.183 44.1501 114.791 44.2578C114.791 44.2578 119.708 25.4456 126.455 21.5601L112.113 21.5293Z" fill="#3C58D3"/>
<path d="M139.251 32.8628C139.251 32.8628 132.942 112.29 132.211 118.014C131.48 123.738 124.732 125.2 119.3 125.2H107.936C107.936 125.2 113.875 118.276 112.552 109.574C111.167 100.41 109.882 93.4928 113.875 86.9835C118.169 79.9972 124.062 75.8347 126.486 73.6342C131.534 69.0792 131.787 54.2064 132.288 46.9431C132.665 41.2956 134.265 32.9321 139.251 31.0239V32.8628Z" fill="#EE4532"/>
<path d="M125.832 21.4908C125.832 21.4908 113.799 31.7625 113.799 48.7743C113.799 61.9005 112.852 65.2782 104.196 74.9344C90.5545 90.1919 101.549 100.679 94.6555 114.028C89.8159 123.415 88.354 125.1 88.354 125.1H107.789C107.789 125.1 115.484 120.415 111.821 102.51C109.167 89.4302 117.7 81.1051 126.44 73.5418C136.573 64.755 127.463 37.6793 139.205 30.9315C139.205 30.9315 139.374 28.8233 137.804 25.5456C135.435 20.7214 125.832 21.4908 125.832 21.4908Z" fill="#242BA8"/>
<path d="M135.581 13.3503C135.311 13.3503 134.042 13.2042 133.088 13.2042C131.987 13.2042 88.277 12.8271 84.4607 13.058C74.9815 13.635 72.3424 18.4439 71.3806 28.0154C70.6112 36.3097 63.3249 116.837 62.3554 128.201C61.9938 132.456 62.9402 135.895 65.1407 138.396C67.3625 140.751 70.4153 142.148 73.6504 142.289C75.4124 142.374 126.24 142.174 127.71 142.066C139.682 141.219 140.99 136.057 141.713 130.917C142.436 125.777 150.361 26.6997 150.361 26.6997C151.061 14.8199 140.059 13.3503 135.581 13.3503ZM73.6119 141.65C70.5763 141.56 67.7009 140.267 65.6177 138.057C63.5403 135.749 62.7093 132.487 63.0479 128.378C64.0019 116.914 71.2114 36.3789 71.9962 28.1616C72.9733 17.8976 76.1048 14.3121 84.4607 13.8659C85.7841 13.7889 131.918 14.012 133.088 14.012C136.165 14.012 140.42 14.6045 143.136 17.5283C145.114 19.6595 145.929 22.7372 145.629 26.7613C145.629 26.7613 137.773 125.777 137.05 130.909C136.381 135.68 135.65 141.512 122.231 141.581C108.951 141.65 77.1282 141.72 73.6119 141.65Z" fill="#3C58D3"/>
<path d="M118.815 125.493H77.3516C69.7498 125.493 67.3492 122.269 67.8878 115.152C68.2725 109.873 75.2511 33.9629 75.6666 30.5159C76.2129 25.8994 77.4978 21.0598 86.1537 21.0598C86.223 21.0598 125.54 21.0598 130.38 21.2752C136.612 21.5676 139.767 25.1223 139.767 31.8393C139.767 34.7708 133.757 114.167 132.58 118.783C131.326 123.6 127.371 125.493 118.815 125.493ZM86.0768 21.7831C78.0133 21.7831 76.8438 26.1841 76.2513 30.6621C75.8051 34.1014 68.9034 110.012 68.4726 115.298C68.1802 118.96 68.7111 121.222 70.0883 122.63C71.4656 124.038 73.8277 124.831 77.2747 124.831H118.715C127.002 124.831 130.634 123.061 131.695 118.676C132.896 113.713 138.882 34.6939 138.882 31.9163C138.882 25.5301 136.027 22.2909 130.157 22.0139C124.286 21.7369 106.689 21.7831 86.0768 21.7831Z" fill="#3C58D3"/>
<path d="M96.9327 128.57C95.7325 128.606 94.5935 129.109 93.7575 129.971C92.9215 130.833 92.4542 131.986 92.4547 133.187C92.4298 134.356 92.834 135.494 93.5911 136.386C94.3481 137.278 95.4054 137.861 96.5634 138.027C98.9178 138.45 102.242 136.996 102.288 133.479C102.326 130.332 99.8642 128.409 96.9327 128.57ZM93.0856 133.187C93.0702 132.672 93.1583 132.159 93.3447 131.679C93.5311 131.199 93.812 130.761 94.1708 130.392C94.5296 130.022 94.9589 129.728 95.4333 129.528C95.9078 129.327 96.4176 129.224 96.9327 129.224C97.9847 129.242 98.9899 129.663 99.7404 130.4C100.491 131.138 100.929 132.135 100.964 133.187C100.948 134.265 100.523 135.297 99.7739 136.072C99.0252 136.848 98.0095 137.31 96.9327 137.365C95.8789 137.299 94.8918 136.827 94.1798 136.048C93.4677 135.268 93.0864 134.242 93.1164 133.187H93.0856Z" fill="#3C58D3"/>
<path d="M109.913 117.029C109.697 116.883 109.99 116.075 110.059 115.782C110.136 115.629 110.282 115.121 110.644 115.19C110.867 115.267 110.867 115.559 110.867 115.782C110.798 116.175 110.498 117.498 109.913 117.029Z" fill="white"/>
<path d="M119.669 104.811C119.446 104.665 119.739 103.857 119.815 103.564C119.892 103.418 120.039 102.903 120.4 102.972C120.623 103.049 120.623 103.341 120.623 103.564C120.546 103.949 120.354 105.319 119.669 104.811Z" fill="white"/>
<path d="M108.813 104.588C108.597 104.441 108.89 103.633 108.959 103.341C109.036 103.195 109.182 102.679 109.551 102.756C109.767 102.826 109.767 103.118 109.767 103.341C109.698 103.78 109.398 105.103 108.813 104.588Z" fill="white"/>
<path d="M112.844 112.951C112.629 112.805 112.921 111.997 112.998 111.705C113.067 111.558 113.214 111.043 113.583 111.112C113.798 111.189 113.798 111.481 113.798 111.705C113.729 112.066 113.429 113.466 112.844 112.951Z" fill="white"/>
<path d="M114.244 106.719C114.021 106.565 114.314 105.765 114.391 105.464C114.46 105.318 114.606 104.81 114.975 104.88C115.191 104.957 115.191 105.249 115.191 105.464C115.191 105.834 114.899 107.226 114.244 106.719Z" fill="white"/>
<path d="M108.813 110.751C108.597 110.604 108.89 109.797 108.959 109.504C109.036 109.358 109.182 108.842 109.551 108.919C109.767 108.989 109.767 109.281 109.767 109.504C109.698 109.866 109.398 111.189 108.813 110.751Z" fill="white"/>
<path d="M117.03 111.705C116.807 111.558 117.099 110.751 117.176 110.458C117.246 110.312 117.392 109.796 117.761 109.866C117.984 109.943 117.984 110.235 117.984 110.458C117.907 110.82 117.692 112.143 117.03 111.705Z" fill="white"/>
<path d="M123.847 39.4566C123.632 39.3104 123.924 38.5102 123.994 38.2101C124.071 38.0639 124.217 37.5561 124.586 37.6253C124.802 37.7023 124.802 37.9947 124.802 38.2101C124.732 38.5486 124.509 39.9721 123.847 39.4566Z" fill="white"/>
<path d="M126.417 30.0851C126.194 29.9389 126.486 29.131 126.563 28.8386C126.64 28.6924 126.786 28.1769 127.148 28.2539C127.371 28.3308 127.371 28.6232 127.371 28.8386C127.279 29.1926 127.002 30.5852 126.417 30.0851Z" fill="white"/>
<path d="M127.956 34.4017C127.74 34.2555 128.033 33.4476 128.102 33.1552C128.179 33.009 128.325 32.4935 128.687 32.5628C128.91 32.6397 128.91 32.9321 128.91 33.1552C128.818 33.5168 128.618 34.9095 127.956 34.4017Z" fill="white"/>
<path d="M122.162 33.6629C121.939 33.5167 122.239 32.7088 122.308 32.4164C122.385 32.2702 122.532 31.7624 122.893 31.8316C123.116 31.9086 123.116 32.201 123.116 32.4164C123.039 32.8627 122.824 34.1784 122.162 33.6629Z" fill="white"/>
<path d="M120.693 41.8032C120.477 41.657 120.77 40.8569 120.839 40.5568C120.916 40.4106 121.062 39.9028 121.431 39.972C121.647 40.049 121.647 40.3413 121.647 40.5568C121.577 40.9261 121.354 42.3187 120.693 41.8032Z" fill="white"/>
<path d="M128.54 39.9029C128.325 39.7567 128.617 38.9488 128.686 38.6564C128.763 38.5102 128.91 37.9947 129.279 38.064C129.494 38.1409 129.494 38.4333 129.494 38.6564C129.425 39.0181 129.133 40.4107 128.54 39.9029Z" fill="white"/>
<path d="M124.732 44.0807C124.509 43.9345 124.801 43.1266 124.878 42.8342C124.947 42.688 125.093 42.1725 125.463 42.2495C125.686 42.3187 125.686 42.6111 125.686 42.8342C125.609 43.2036 125.317 44.5962 124.732 44.0807Z" fill="white"/>
<path d="M114.829 100.186C114.606 100.04 114.899 99.2323 114.976 98.9399C115.045 98.7938 115.191 98.2783 115.56 98.3552C115.784 98.4244 115.784 98.7245 115.784 98.9399C115.737 99.3323 115.414 100.702 114.829 100.186Z" fill="white"/>
<path d="M109.844 38.9489C109.637 38.7631 109.375 38.6486 109.098 38.6223C108.821 38.596 108.543 38.6592 108.305 38.8027C103.827 40.8416 101.78 41.5033 97.7486 42.1035C92.6894 42.7328 87.9228 44.8207 84.0299 48.1126C82.5138 49.3577 81.2453 50.8767 80.2905 52.5906C74.7892 54.4987 68.7493 56.6993 62.5401 59.1152C61.9085 58.5198 61.1219 58.1144 60.2704 57.9457C60.0472 57.9457 59.6087 57.9457 59.4625 58.2381C57.9236 57.7995 57.9236 58.5305 57.9236 58.6767C56.7464 58.3843 56.8234 59.1152 56.8234 59.3384C56.6896 59.3539 56.5622 59.4043 56.454 59.4846C56.2386 59.6307 56.0001 60.0001 56.454 60.9464C56.5324 61.0838 56.5822 61.2356 56.6002 61.3927C53.0096 62.7879 49.419 64.2549 45.8284 65.7938C43.7048 62.2698 41.2812 59.1922 38.3497 57.2071C38.3497 57.1378 38.2728 57.1378 38.2035 57.1378C36.5223 56.0248 34.5703 55.3892 32.556 55.2989C21.9381 54.8834 9.6736 66.1246 9.6736 77.6735C9.63473 79.1521 9.89649 80.6232 10.443 81.9977C7.07297 83.8289 4.55699 85.4369 4.21075 86.3987C3.31823 88.8839 11.9049 86.3987 14.4055 85.6293C15.3104 85.9393 16.2432 86.1609 17.1908 86.291C17.1215 87.8298 16.8984 95.3085 16.8292 95.9702C16.8292 96.1164 16.8984 96.2626 17.0446 96.2626C17.0446 96.2626 17.337 96.3319 17.814 96.4857C17.1523 101.395 13.413 137.85 13.413 138.211C14.5317 138.546 15.6923 138.719 16.8599 138.727C18.1635 138.757 19.467 138.664 20.7532 138.45C23.4692 130.894 27.4163 112.767 28.5166 106.904C29.0321 114.682 27.4933 138.219 27.4163 138.519C28.6058 138.878 29.8441 139.05 31.0864 139.027C32.342 139.007 33.5903 138.831 34.8027 138.504C37.588 125.077 41.2812 98.4939 41.5736 96.1241C42.3045 95.9779 42.8585 95.8702 42.9277 95.8702C43.0059 95.7506 43.068 95.6213 43.1124 95.4855C43.4048 90.7844 43.3432 84.152 43.3432 81.8822C44.6859 83.1353 46.4326 83.8667 48.2675 83.9443C56.8465 84.1289 60.9013 68.1174 61.0475 68.1174C61.0475 67.9635 60.5012 67.4865 60.278 67.348C60.6925 67.0648 61.0789 66.7428 61.4322 66.3862C61.4322 66.3862 74.5584 60.2309 81.9679 56.5454C91.0316 60.831 104.035 57.8149 108.128 48.228C110.167 43.3114 110.944 40.0876 109.844 38.9489Z" fill="white"/>
<path d="M109.844 38.9489C109.637 38.7631 109.375 38.6486 109.098 38.6223C108.821 38.596 108.543 38.6592 108.305 38.8027C103.827 40.8416 101.78 41.5033 97.7486 42.1035C92.6894 42.7328 87.9228 44.8207 84.0299 48.1126C82.5138 49.3577 81.2453 50.8767 80.2905 52.5906C74.7892 54.4987 68.7493 56.6993 62.5401 59.1152C61.9085 58.5198 61.1219 58.1144 60.2704 57.9457C60.0472 57.9457 59.6087 57.9457 59.4625 58.2381C57.9236 57.7995 57.9236 58.5305 57.9236 58.6767C56.7464 58.3843 56.8234 59.1152 56.8234 59.3384C56.6896 59.3539 56.5622 59.4043 56.454 59.4846C56.2386 59.6307 56.0001 60.0001 56.454 60.9464C56.5324 61.0838 56.5822 61.2356 56.6002 61.3927C53.0096 62.7879 49.419 64.2549 45.8284 65.7938C43.7048 62.2698 41.2812 59.1922 38.3497 57.2071C38.3497 57.1378 38.2728 57.1378 38.2035 57.1378C36.5223 56.0248 34.5703 55.3892 32.556 55.2989C21.9381 54.8834 9.6736 66.1246 9.6736 77.6735C9.63473 79.1521 9.89649 80.6232 10.443 81.9977C7.07297 83.8289 4.55699 85.4369 4.21075 86.3987C3.31823 88.8839 11.9049 86.3987 14.4055 85.6293C15.3104 85.9393 16.2432 86.1609 17.1908 86.291C17.1215 87.8298 16.8984 95.3085 16.8292 95.9702C16.8292 96.1164 16.8984 96.2626 17.0446 96.2626C17.0446 96.2626 17.337 96.3319 17.814 96.4857C17.1523 101.395 13.336 137.919 13.2668 138.288C13.2668 138.357 12.4974 141.073 12.9667 141.658C13.436 142.243 20.5224 142.504 25.5851 142.428C26.1006 142.428 26.1776 142.051 25.6621 141.658C25.1465 141.266 24.4848 140.927 23.7539 140.412L23.1615 141.004C23.1017 141.059 23.0234 141.09 22.9422 141.09C22.8609 141.09 22.7826 141.059 22.7229 141.004C22.5767 140.927 22.6536 140.712 22.7229 140.558L23.2384 140.05C23.0153 139.904 22.7229 139.758 22.469 139.611L21.8765 140.196C21.8168 140.251 21.7385 140.282 21.6572 140.282C21.576 140.282 21.4977 140.251 21.438 140.196C21.2918 140.119 21.2918 139.904 21.438 139.758L21.9535 139.242C21.5815 139.029 21.2377 138.771 20.9301 138.473C23.6385 130.917 27.3778 112.728 28.4781 106.865C28.9936 114.636 27.4548 138.18 27.3778 138.473C27.3778 138.55 26.87 141.404 27.2317 141.997C27.5933 142.589 35.2951 142.62 40.3117 142.504C40.8272 142.504 40.9042 142.135 40.3887 141.735C39.8732 141.335 39.1422 141.004 38.3343 140.489L37.5649 141.296C37.5037 141.349 37.426 141.377 37.3456 141.377C37.2653 141.377 37.1876 141.349 37.1263 141.296C36.9802 141.15 37.0494 141.004 37.1263 140.858L37.7803 140.196C37.5146 140.067 37.2576 139.92 37.0109 139.758L36.2415 140.489C36.1803 140.541 36.1026 140.569 36.0222 140.569C35.9419 140.569 35.8642 140.541 35.8029 140.489C35.768 140.464 35.7395 140.431 35.7199 140.393C35.7002 140.355 35.69 140.312 35.69 140.269C35.69 140.226 35.7002 140.184 35.7199 140.146C35.7395 140.108 35.768 140.075 35.8029 140.05L36.3877 139.458C35.879 139.213 35.3969 138.916 34.9489 138.573C37.7342 125.146 41.4043 98.6709 41.6967 96.3242C42.4276 96.178 42.9431 96.0318 43.0201 96.0318C43.1081 95.9474 43.181 95.8485 43.2355 95.7394C43.5279 91.046 43.4586 84.4444 43.4586 82.1669C44.6822 83.4017 46.3372 84.1133 48.0751 84.152C57.4466 84.3828 61.0628 68.0866 61.209 68.0866C61.2036 67.9505 61.1521 67.8202 61.0629 67.7173C60.9859 67.6481 60.7705 67.5711 60.5473 67.4249C60.8893 67.1598 61.2085 66.8663 61.5014 66.5478C61.5014 66.5478 74.5815 60.3155 81.9602 56.6454C90.9469 60.8849 104.012 58.0534 108.22 48.3588C110.352 43.4807 110.944 40.0876 109.844 38.9489ZM38.4805 58.015C40.9734 59.7769 43.1739 62.5622 45.2975 66.0861C42.9508 67.0171 40.6041 68.0635 38.3343 69.0176C38.4036 63.8856 38.4805 59.5538 38.4805 58.015ZM38.2574 69.6024C38.2574 69.6024 53.2225 63.3701 56.8157 61.9775C57.1081 62.8469 57.5081 64.4858 57.0311 65.2783C56.3386 64.8628 55.8847 64.4319 55.7154 64.7627C49.5601 71.2181 46.6209 72.6108 45.713 72.9801C46.2285 71.8029 44.9436 72.2107 43.9587 72.4646C42.0154 73.1958 39.9977 73.7118 37.9419 74.0034C38.0189 74.0034 39.6269 71.5105 39.3346 71.2181C38.6729 70.5564 36.5493 71.3643 33.764 74.5882L26.2776 75.3576V73.9419L38.2574 69.6024ZM4.81089 86.6911C4.81089 86.4295 5.22638 85.5677 10.7585 82.5132C11.5474 83.5513 12.4861 84.4666 13.5438 85.2292C7.75006 86.8373 5.18021 87.0604 4.81089 86.6911ZM15.4519 85.2984C14.2747 84.9445 9.4043 82.5901 10.4584 75.473C10.8512 72.923 11.6954 70.4635 12.9513 68.2097C16.0112 62.937 20.8094 58.8923 26.5238 56.7685C26.1545 58.969 25.7929 71.5875 25.6467 75.3268C25.6467 75.3268 20.2146 75.5423 18.8219 75.5423L19.1913 71.1412C19.1948 71.1019 19.1897 71.0623 19.1762 71.0253C19.1628 70.9882 19.1414 70.9545 19.1135 70.9266C19.0856 70.8987 19.0519 70.8773 19.0148 70.8639C18.9778 70.8504 18.9382 70.8453 18.8989 70.8488C18.8593 70.8454 18.8194 70.8506 18.782 70.864C18.7446 70.8774 18.7105 70.8987 18.682 70.9264C18.6536 70.9542 18.6314 70.9877 18.617 71.0248C18.6027 71.0618 18.5965 71.1015 18.5988 71.1412L18.2372 75.5423C17.5031 75.5658 16.7683 75.5452 16.0367 75.4807C15.9983 75.4711 15.9584 75.4692 15.9192 75.475C15.8801 75.4808 15.8424 75.4943 15.8085 75.5146C15.7746 75.535 15.745 75.5619 15.7214 75.5937C15.6979 75.6255 15.6808 75.6616 15.6712 75.7C15.6616 75.7384 15.6596 75.7783 15.6655 75.8174C15.6713 75.8566 15.6848 75.8942 15.7051 75.9281C15.7255 75.9621 15.7524 75.9917 15.7842 76.0152C15.816 76.0388 15.8521 76.0559 15.8905 76.0655C16.9138 76.2116 23.223 76.0039 23.7385 75.9962C28.0242 75.8731 32.4637 75.4807 33.6409 75.3961C33.429 77.3934 33.9484 79.3999 35.1028 81.0436C32.0309 82.4868 28.8417 83.6657 25.5697 84.5675C22.6382 85.3985 18.6681 86.2525 15.4519 85.2984ZM17.4986 95.7163C17.5755 94.2467 17.7986 87.7913 17.8679 86.2525C20.3898 86.3168 22.908 86.0214 25.3466 85.3754C25.1312 90.7613 25.2004 94.7623 25.2004 95.7163C22.0458 96.9628 18.3834 95.9318 17.4986 95.7163ZM34.595 138.18C32.4445 138.665 30.2131 138.665 28.0626 138.18C28.2858 135.172 29.8938 109.574 28.8705 104.88L29.386 101.872C30.6007 101.602 31.8001 101.268 32.9792 100.871C33.0458 100.836 33.1012 100.782 33.1392 100.717C33.1772 100.652 33.1964 100.578 33.1946 100.502C33.161 100.436 33.1092 100.38 33.0451 100.342C32.9811 100.304 32.9075 100.285 32.833 100.287C32.833 100.287 30.3401 101.056 29.0936 101.31C29.0357 101.314 28.981 101.338 28.9399 101.379C28.8988 101.42 28.8741 101.475 28.8705 101.533C27.3317 109.827 23.2538 130.001 20.4069 137.98C18.2448 138.371 16.028 138.348 13.8746 137.911C14.2439 134.68 17.7678 101.31 18.3526 96.3626C20.7343 96.9209 23.2253 96.7955 25.5389 96.001C25.6851 95.9241 25.7621 95.8548 25.6851 95.7086C25.6851 95.7086 25.6159 94.4622 25.6159 92.554C29.405 93.4988 33.368 93.4988 37.1571 92.554C37.1571 94.1698 37.0879 95.1931 37.0879 95.2624C37.0879 95.3316 37.1571 95.4855 37.2341 95.4855C38.4407 96.1446 39.8264 96.4007 41.1889 96.2164C40.8272 99.5249 37.3033 124.977 34.595 138.18ZM42.8046 95.4855C42.0352 95.7086 39.5038 96.4396 37.8188 95.2624C37.8188 94.0929 37.965 87.7837 38.1112 80.6435C39.8398 80.459 41.5251 79.9856 43.097 79.2431L43.0278 81.3744C42.9508 81.4129 43.1739 89.7764 42.8046 95.4855ZM35.7183 80.0972C34.7494 78.6815 34.3332 76.9595 34.5488 75.2576C35.7183 73.3417 37.8188 71.2181 38.796 71.5875C39.0114 71.7337 37.2571 74.0034 37.4033 74.442C37.765 75.2114 45.0975 72.757 45.2514 72.6877C44.9225 73.2504 44.4392 73.707 43.8587 74.0034C42.8626 74.4105 41.8328 74.7298 40.7811 74.9575C40.7385 74.9593 40.6971 74.9717 40.6606 74.9937C40.6242 75.0157 40.5938 75.0465 40.5724 75.0832C40.5509 75.12 40.539 75.1616 40.5379 75.2042C40.5367 75.2467 40.5462 75.2889 40.5656 75.3268C40.5656 75.473 40.7118 75.5423 40.9273 75.5423C42.1057 75.3095 43.2597 74.9669 44.3742 74.5189C45.1436 74.2342 45.99 73.9342 46.1362 74.0804C46.1362 74.2958 45.6976 74.8113 44.6666 75.3961C43.4962 75.8673 42.2958 76.2606 41.0734 76.5733C41.0069 76.6069 40.9513 76.6587 40.9131 76.7228C40.875 76.7868 40.8559 76.8604 40.858 76.9349C40.858 77.0811 41.0734 77.158 41.2196 77.158C42.5242 76.8145 43.8085 76.3983 45.0667 75.9116C45.436 75.7577 45.9438 75.5423 46.0208 75.6192C46.167 75.9116 44.9205 76.4963 44.3358 76.7887C43.4268 77.2266 42.472 77.5621 41.4889 77.7889C41.4203 77.8206 41.3626 77.8718 41.3229 77.9362C41.2832 78.0005 41.2634 78.075 41.2658 78.1506C41.2658 78.3045 41.412 78.3737 41.6351 78.3737C42.6733 78.1201 43.6798 77.7511 44.6358 77.2734C44.4204 77.7428 41.335 80.3819 35.7183 80.0972ZM60.555 68.1405C60.0395 70.0409 56.2309 83.5288 48.3059 83.5288C47.3908 83.514 46.4899 83.2999 45.666 82.9012C44.8421 82.5026 44.1151 81.929 43.5356 81.2205L43.6125 78.9123C45.2975 77.9582 45.4437 77.0041 45.3745 76.858C47.2057 75.8269 46.4747 75.0267 46.1824 74.9498C47.1364 73.7033 46.544 73.4802 46.1824 73.4802C51.022 71.5798 54.3228 66.6632 56.1848 65.486C56.5925 65.7168 60.3396 67.9866 60.555 68.1405ZM61.109 66.0092C60.7942 66.3543 60.452 66.6734 60.0857 66.9633C59.1432 66.6788 58.2688 66.2049 57.5158 65.5706C58.0314 64.6166 57.5928 62.6392 56.9311 60.6541C56.708 60.1463 56.6387 59.9924 56.7849 59.8847C57.4466 59.8077 58.7623 62.7469 58.8392 63.0393C58.8539 63.0726 58.875 63.1027 58.9013 63.1279C58.9276 63.1531 58.9586 63.1729 58.9925 63.1861C59.0264 63.1993 59.0626 63.2057 59.0991 63.205C59.1355 63.2042 59.1714 63.1962 59.2047 63.1816C59.2381 63.1669 59.2682 63.1459 59.2934 63.1196C59.3186 63.0933 59.3384 63.0623 59.3516 63.0283C59.3648 62.9944 59.3712 62.9582 59.3704 62.9218C59.3696 62.8854 59.3617 62.8495 59.3471 62.8161C58.9667 61.5677 58.3181 60.4176 57.4466 59.4461C57.0927 59.0999 57.1234 58.8844 57.662 59.0768C58.6084 59.4153 59.2009 60.6156 59.424 60.8387C59.7817 61.3813 60.0541 61.9756 60.2319 62.6007C60.3627 62.87 60.8166 62.9008 60.8166 62.4545C59.8626 59.8077 58.6931 59.1537 58.6161 59.0768C58.5392 58.9998 58.3237 58.492 59.0547 58.7074C59.6906 58.9057 60.253 59.2887 60.6704 59.8077C60.816 59.9623 60.9402 60.1357 61.0398 60.3232C61.3464 60.8146 61.5457 61.3652 61.6245 61.939C61.6245 62.2391 62.2093 62.3699 62.2093 61.939C62.1242 61.2549 61.8899 60.5977 61.5229 60.0141C61.156 59.4304 60.6653 58.9345 60.0857 58.5613C60.1549 58.5613 60.7474 58.3458 61.9938 59.3307C62.14 59.4769 63.2403 60.6541 63.1634 61.8236C62.9208 63.3954 62.204 64.8557 61.109 66.0092ZM62.3555 65.4244C63.1969 64.3897 63.6392 63.0875 63.6019 61.7543C63.5908 60.9568 63.3208 60.1845 62.8325 59.5538C68.7724 57.2456 74.7123 55.0835 80.2136 53.1754L81.46 56.1068C74.5661 59.6307 68.1799 62.7084 62.3862 65.4244H62.3555ZM82.0833 56.0376L80.6906 52.806C81.2831 51.7827 85.8072 44.3425 97.7101 42.6882C98.8796 42.5266 99.9106 42.3189 100.865 42.1035C101.634 42.1727 102.55 42.3189 102.619 42.6882C102.696 43.4192 98.441 45.989 98.5872 47.9664C98.7334 49.9438 104.042 45.8967 104.673 46.9431C105.304 47.9895 101.373 52.5137 106.066 50.7902C101.165 57.9919 89.739 59.6692 82.1141 56.0376H82.0833Z" fill="#3C58D3"/>
<path d="M40.0192 45.4041C39.8653 44.0038 39.7653 40.7107 39.7268 38.8718C39.7128 38.5527 39.5746 38.2518 39.3417 38.0333C39.1088 37.8148 38.7996 37.696 38.4803 37.7023C37.3031 37.7023 35.8412 37.61 33.8638 37.5561C30.8554 37.4638 29.6782 38.2871 29.3166 39.6028C28.955 40.9185 29.7552 44.6655 28.5087 44.7425C27.924 44.8117 27.193 42.3188 25.8004 42.8343C24.4077 43.3498 24.6232 45.1425 25.2849 45.8427C25.6382 46.2744 26.0591 46.646 26.5313 46.943C26.5313 51.7057 29.4628 52.7367 29.4628 52.7367C29.5731 53.7489 29.4735 54.773 29.1704 55.7451C31.0101 56.6606 33.1154 56.8924 35.1103 56.3991C34.8054 55.4957 34.8054 54.5172 35.1103 53.6138C40.1653 52.5135 40.2346 47.3815 40.0192 45.4041Z" fill="white"/>
<path d="M34.949 31.0238C29.74 30.8776 26.4854 33.332 25.2697 35.7172C24.0541 38.1024 21.8228 45.7196 26.9548 50.4592C27.4495 51.4254 28.2139 52.2272 29.1553 52.7675C29.2322 52.8444 29.3015 52.8444 29.3015 52.9906C29.4016 53.8583 29.3016 54.7374 29.0091 55.5605C28.9928 55.5935 28.9838 55.6296 28.9824 55.6664C28.9811 55.7032 28.9875 55.7398 29.0013 55.774C29.0151 55.8081 29.0359 55.8389 29.0625 55.8645C29.089 55.89 29.1206 55.9096 29.1553 55.9221C29.2322 55.999 31.2866 57.0993 35.2414 56.73C35.3337 56.73 35.6184 56.5222 35.4645 56.3607C35.248 55.5245 35.1984 54.6539 35.3183 53.7985C39.9963 53.2753 40.5042 48.0664 40.1579 43.3806C40.1579 43.1652 40.0117 39.7874 39.9348 38.3948C40.277 38.3365 40.6037 38.2088 40.8948 38.0196C41.1859 37.8304 41.4353 37.5836 41.6275 37.2945C42.6816 35.0325 40.0887 31.17 34.949 31.0238ZM38.3267 51.4902C37.0418 53.2984 35.1721 53.4676 33.264 53.3215C33.1864 53.3215 33.1121 53.3523 33.0572 53.4071C33.0024 53.4619 32.9716 53.5363 32.9716 53.6138C32.9716 53.6914 33.0024 53.7657 33.0572 53.8206C33.1121 53.8754 33.1864 53.9062 33.264 53.9062H34.6566C34.5439 54.7158 34.5936 55.5397 34.8028 56.3299C33.029 56.541 31.2309 56.2754 29.5939 55.5605C29.841 54.7277 29.9169 53.8535 29.817 52.9906C29.8184 52.8491 29.7774 52.7104 29.6992 52.5925C29.621 52.4746 29.5093 52.3827 29.3784 52.3289C28.4145 51.7001 27.6509 50.8083 27.1779 49.7591C26.9033 48.6844 26.8045 47.5723 26.8855 46.466C26.3997 46.3924 25.9583 46.142 25.6459 45.7629C25.3334 45.3837 25.1721 44.9025 25.1928 44.4116C25.1928 42.942 26.9548 43.019 27.3241 44.1885C27.6934 45.358 29.0091 45.435 29.3784 44.8502C30.1094 43.8961 29.063 40.7954 30.1094 39.7874C31.1558 38.7795 32.0252 38.5487 33.8564 38.6564C35.648 38.8537 37.4571 38.8278 39.2423 38.5795C39.3577 40.7415 39.4655 41.7648 39.4655 43.496C39.7271 45.4042 39.904 49.2589 38.3344 51.4902H38.3267Z" fill="#3C58D3"/>
<path d="M35.9107 47.3047C35.8539 47.305 35.7978 47.292 35.747 47.2666C35.6962 47.2412 35.6521 47.2042 35.6183 47.1586C35.602 47.1255 35.5929 47.0894 35.5916 47.0526C35.5902 47.0158 35.5967 46.9792 35.6105 46.945C35.6243 46.9109 35.6451 46.8801 35.6717 46.8545C35.6982 46.829 35.7298 46.8094 35.7645 46.7969C36.1917 46.5982 36.5882 46.3391 36.9417 46.0275C36.9417 46.0275 35.7952 45.7813 35.6029 45.6967C35.5015 45.6532 35.4079 45.5934 35.3259 45.5197C34.9566 45.1504 35.1028 43.3884 35.249 42.442C35.2543 42.3663 35.2869 42.295 35.3406 42.2413C35.3943 42.1876 35.4656 42.155 35.5413 42.1497C35.6179 42.1548 35.6902 42.1871 35.7452 42.2406C35.8002 42.2942 35.8343 42.3656 35.8414 42.442C35.7065 43.3151 35.6806 44.2016 35.7645 45.0811C35.9702 45.1821 36.1971 45.2323 36.4262 45.2273C37.0109 45.3043 37.5264 45.4505 37.5264 45.889C37.5264 46.643 36.0338 47.1893 35.9107 47.3047Z" fill="#3C58D3"/>
<path d="M36.3488 44.5963C35.8025 44.3193 37.1182 42.7112 38.9879 43.496C39.0246 43.5077 39.0585 43.527 39.0873 43.5525C39.1162 43.578 39.1394 43.6093 39.1554 43.6443C39.1715 43.6793 39.1801 43.7173 39.1806 43.7558C39.1812 43.7944 39.1737 43.8326 39.1587 43.8681C39.1436 43.9035 39.1213 43.9355 39.0933 43.9618C39.0652 43.9882 39.0319 44.0084 38.9955 44.0212C38.9592 44.034 38.9206 44.039 38.8822 44.036C38.8438 44.033 38.8064 44.0221 38.7725 44.0038C38.6131 43.9018 38.4351 43.8323 38.2488 43.7995C38.0624 43.7667 37.8714 43.7712 37.6868 43.8127C37.5022 43.8542 37.3276 43.9319 37.1733 44.0413C37.0189 44.1507 36.8877 44.2897 36.7874 44.4501C36.6412 44.5963 36.4258 44.704 36.3488 44.5963Z" fill="#3C58D3"/>
<path d="M33.7102 44.5194C33.6409 44.5194 33.4947 44.4502 33.4947 44.3732C33.2737 44.0713 32.9503 43.8602 32.5849 43.7795C32.2195 43.6987 31.8373 43.7539 31.5096 43.9346C31.4413 43.9632 31.3644 43.9635 31.2958 43.9353C31.2273 43.9072 31.1727 43.853 31.1442 43.7846C31.1156 43.7163 31.1153 43.6393 31.1435 43.5708C31.1716 43.5023 31.2258 43.4477 31.2942 43.4191C31.7511 43.1921 32.2736 43.134 32.7693 43.2551C33.2649 43.3762 33.7018 43.6687 34.0025 44.0808C34.0795 44.1501 34.0025 44.5194 33.7102 44.5194Z" fill="#3C58D3"/>
<path d="M32.9026 47.8201C32.8536 47.7517 32.8338 47.6667 32.8475 47.5838C32.8612 47.5008 32.9073 47.4267 32.9757 47.3777C33.044 47.3287 33.1291 47.3089 33.212 47.3226C33.295 47.3363 33.3691 47.3824 33.4181 47.4508C33.6939 47.854 34.1113 48.1387 34.5874 48.2485C35.0635 48.3582 35.5634 48.285 35.9879 48.0432C36.0219 48.025 36.0592 48.014 36.0976 48.011C36.1361 48.008 36.1747 48.0131 36.211 48.0259C36.2474 48.0386 36.2806 48.0588 36.3087 48.0852C36.3368 48.1116 36.3591 48.1435 36.3741 48.179C36.3892 48.2145 36.3967 48.2527 36.3961 48.2912C36.3955 48.3297 36.387 48.3677 36.3709 48.4027C36.3548 48.4377 36.3316 48.469 36.3028 48.4945C36.2739 48.5201 36.2401 48.5393 36.2034 48.551C35.6664 48.8832 35.021 48.9926 34.4045 48.8561C33.788 48.7196 33.2492 48.3479 32.9026 47.8201Z" fill="#3C58D3"/>
<path d="M36.3493 41.1493C36.6768 40.7926 37.1167 40.559 37.5957 40.4876C37.8552 40.4865 38.1123 40.5377 38.3516 40.6381C38.5908 40.7386 38.8074 40.8863 38.9883 41.0723C39.0233 41.0972 39.0518 41.1301 39.0714 41.1683C39.0911 41.2064 39.1013 41.2487 39.1013 41.2916C39.1013 41.3345 39.0911 41.3768 39.0714 41.4149C39.0518 41.4531 39.0233 41.486 38.9883 41.5109C38.9625 41.5444 38.9292 41.5716 38.8912 41.5903C38.8532 41.6089 38.8114 41.6186 38.7691 41.6186C38.7267 41.6186 38.6849 41.6089 38.6469 41.5903C38.6089 41.5716 38.5757 41.5444 38.5498 41.5109C38.4378 41.3705 38.2902 41.2629 38.1223 41.1993C37.9545 41.1357 37.7726 41.1184 37.5957 41.1493C37.4252 41.1666 37.2598 41.2178 37.1092 41.2997C36.9586 41.3816 36.8258 41.4926 36.7186 41.6263C36.5339 41.7494 36.0877 41.6802 36.3493 41.1493Z" fill="#3C58D3"/>
<path d="M33.8565 41.511C33.5537 41.1764 33.1363 40.9677 32.687 40.9262C32.2578 40.9695 31.8627 41.1794 31.5867 41.511C31.5601 41.5446 31.5262 41.5718 31.4875 41.5905C31.4489 41.6091 31.4065 41.6188 31.3636 41.6188C31.3207 41.6188 31.2783 41.6091 31.2397 41.5905C31.201 41.5718 31.1671 41.5446 31.1405 41.511C31.1069 41.4851 31.0798 41.4519 31.0611 41.4138C31.0424 41.3758 31.0327 41.334 31.0327 41.2917C31.0327 41.2493 31.0424 41.2075 31.0611 41.1695C31.0798 41.1315 31.1069 41.0983 31.1405 41.0724C31.3205 40.8344 31.553 40.6411 31.8199 40.5077C32.0868 40.3742 32.3809 40.3042 32.6793 40.303C33.2831 40.3833 33.846 40.6526 34.2874 41.0724C34.5336 41.5417 34.0489 41.7033 33.8565 41.511Z" fill="#3C58D3"/>
<path d="M30.6646 46.9484C30.759 46.972 30.8563 46.9804 30.9508 46.973C31.0454 46.9656 31.1353 46.9426 31.2153 46.9054C31.2953 46.8681 31.3638 46.8174 31.4168 46.7561C31.4698 46.6948 31.5062 46.6242 31.5238 46.5484C31.5415 46.4726 31.5401 46.3932 31.5197 46.3148C31.4993 46.2364 31.4603 46.1606 31.405 46.0918C31.3497 46.023 31.2792 45.9626 31.1976 45.9142C31.1161 45.8657 31.0251 45.8302 30.9301 45.8097C30.8357 45.7861 30.7384 45.7777 30.6439 45.7851C30.5493 45.7925 30.4594 45.8155 30.3794 45.8527C30.2994 45.89 30.2309 45.9407 30.1779 46.002C30.1249 46.0633 30.0885 46.1339 30.0709 46.2097C30.0532 46.2855 30.0546 46.3649 30.075 46.4433C30.0954 46.5217 30.1344 46.5975 30.1897 46.6663C30.245 46.7351 30.3155 46.7955 30.3971 46.8439C30.4786 46.8924 30.5696 46.9279 30.6646 46.9484Z" fill="#FCCAC2"/>
<path d="M38.212 46.7713C38.2465 46.8405 38.2977 46.9004 38.3628 46.9475C38.4278 46.9945 38.5054 47.0279 38.5909 47.0456C38.6765 47.0633 38.7684 47.0651 38.8613 47.0507C38.9542 47.0363 39.0462 47.0061 39.1321 46.9619C39.218 46.9176 39.296 46.8602 39.3617 46.7929C39.4273 46.7256 39.4793 46.6498 39.5146 46.5698C39.5499 46.4899 39.5678 46.4073 39.5672 46.327C39.5667 46.2467 39.5478 46.1702 39.5115 46.102C39.477 46.0328 39.4258 45.9729 39.3607 45.9258C39.2957 45.8788 39.2181 45.8454 39.1326 45.8277C39.047 45.81 38.9551 45.8082 38.8622 45.8226C38.7693 45.837 38.6773 45.8672 38.5914 45.9114C38.5055 45.9557 38.4275 46.0131 38.3618 46.0804C38.2962 46.1477 38.2442 46.2235 38.2089 46.3035C38.1736 46.3834 38.1557 46.466 38.1563 46.5463C38.1568 46.6266 38.1757 46.7031 38.212 46.7713Z" fill="#FCCAC2"/>
</svg>
