<svg width="155" height="155" viewBox="0 0 155 155" fill="none" xmlns="http://www.w3.org/2000/svg">
<path d="M4.904 133.475C4.5193 134.164 5.34411 137.938 12.7397 142.282C20.8324 147.031 25.9737 145.587 26.5123 144.861C29.4999 140.804 33.574 124.536 33.1169 122.72C32.7499 121.262 20.7417 114.882 19.1628 114.752C17.3901 114.607 5.78421 131.903 4.904 133.475Z" fill="#8cd410"/>
<path d="M21.6357 115.643C21.6357 115.643 28.0773 118.934 31.4404 121.178C33.022 120.492 34.483 119.557 35.7676 118.408C35.7676 118.408 45.0544 122.662 45.2029 122.581C47.4988 121.323 53.9589 117.465 62.207 96.9411C65.9463 87.7102 68.5036 78.0436 69.818 68.1711C69.818 68.1711 57.0365 66.6623 50.4442 65.6998C44.9606 64.7872 39.5275 63.5936 34.1664 62.1235L26.2599 82.4315C24.0686 88.0536 15.7866 100.128 12.3796 105.075C12.3796 105.075 15.1495 108.174 21.5211 111.067L21.6357 115.643Z" fill="white"/>
<path d="M25.3464 98.3922L25.4411 93.6272L44.4687 94.4297C42.8987 95.8177 41.4517 97.3389 40.1438 98.9762L25.3464 98.3922Z" fill="#22c6e0"/>
<path d="M47.3617 94.5867L50.3186 94.8067L48.9336 95.897L49.8331 96.9742L48.6997 97.7828L50.1616 99.0254L46.907 99.277C46.907 99.277 48.6674 96.2694 47.3617 94.5867Z" fill="#22c6e0"/>
<path d="M52.58 95.4802C52.3928 95.9245 52.3059 96.4046 52.3255 96.8863C52.345 97.368 52.4705 97.8394 52.6931 98.267C52.6931 98.267 55.5238 97.2314 55.54 96.9706C55.5561 96.7097 52.58 95.4802 52.58 95.4802Z" fill="#22c6e0"/>
<path d="M54.3734 74.0417C54.2964 74.0417 37.2739 69.8215 35.9151 69.546C35.8477 69.5305 35.7891 69.4892 35.7517 69.4311C35.7143 69.3729 35.701 69.3025 35.7148 69.2347C35.7285 69.1669 35.7681 69.1072 35.8252 69.0682C35.8823 69.0292 35.9524 69.014 36.0205 69.0259C37.0038 69.2252 47.9811 71.9258 54.4373 73.5178C54.4978 73.5359 54.55 73.5748 54.5846 73.6277C54.6192 73.6806 54.6339 73.744 54.6263 73.8067C54.6187 73.8694 54.5891 73.9274 54.5428 73.9704C54.4965 74.0134 54.4365 74.0387 54.3734 74.0417Z" fill="#3f89d3"/>
<path d="M65.1077 72.8523C65.0777 72.8285 58.91 71.3412 58.4192 71.6213C58.3869 71.64 58.3589 71.6652 58.3368 71.6953C58.3147 71.7253 58.299 71.7596 58.2907 71.7959C56.9057 78.1752 56.6303 78.1005 56.9057 78.3252C56.9827 78.3898 63.3103 79.9602 63.6766 79.6063C63.9897 79.3047 65.2154 73.5025 65.2154 73.1155C65.2188 73.0663 65.2109 73.017 65.1922 72.9714C65.1735 72.9257 65.1446 72.885 65.1077 72.8523ZM63.3103 79.1616C62.4994 79.1085 58.3738 78.2213 57.3804 77.9405C57.502 77.4404 57.8352 76.06 58.7608 72.1168C59.701 72.1937 63.9851 73.0401 64.6853 73.2317C64.6068 74.088 63.5835 78.3421 63.3103 79.1616Z" fill="#3f89d3"/>
<path d="M62.2868 82.7862C62.2484 82.7485 56.0546 81.0266 55.5983 81.2843C55.5653 81.3022 55.5366 81.3271 55.5142 81.3573C55.4919 81.3875 55.4765 81.4222 55.469 81.459C54.9004 83.8703 54.0364 87.5374 53.9902 87.6913C53.9617 87.7443 53.9522 87.8055 53.9632 87.8647C53.9743 87.9239 54.0053 87.9776 54.051 88.0167C54.1279 88.0937 60.334 89.881 60.838 89.5794C61.2227 89.314 62.3853 83.1863 62.393 83.1256C62.4012 83.0647 62.3959 83.0027 62.3776 82.9441C62.3592 82.8855 62.3283 82.8316 62.2868 82.7862ZM60.5118 89.1031C58.4965 88.7229 56.5021 88.2393 54.5365 87.6543C54.6658 87.1619 54.9982 85.7739 55.9392 81.7852C56.8871 81.8991 61.1566 82.9301 61.8636 83.1579C61.5173 85.1619 61.066 87.1464 60.5118 89.1031Z" fill="#3f89d3"/>
<path d="M60.4155 77.431C60.0023 77.431 59.6461 76.2623 59.5045 75.2159C59.5 75.1479 59.5217 75.0808 59.5651 75.0283C59.6086 74.9758 59.6705 74.942 59.7381 74.9338C59.8058 74.9257 59.874 74.9437 59.9287 74.9843C59.9834 75.0249 60.0205 75.0849 60.0323 75.152C60.117 75.7083 60.2585 76.2546 60.4547 76.7816C60.8702 76.3515 61.9074 75.0989 62.8261 73.9402C62.8698 73.885 62.9337 73.8494 63.0037 73.8414C63.0737 73.8333 63.144 73.8533 63.1992 73.8971C63.2544 73.9409 63.29 74.0048 63.2981 74.0748C63.3061 74.1447 63.2861 74.2151 63.2423 74.2703C60.8125 77.3325 60.5678 77.431 60.4155 77.431Z" fill="#22c6e0"/>
<path d="M57.5119 87.1473C57.0079 87.0326 56.6709 84.9583 56.6655 84.9375C56.6582 84.8683 56.6785 84.799 56.722 84.7446C56.7655 84.6903 56.8287 84.6554 56.8979 84.6474C56.967 84.6391 57.0365 84.6582 57.0917 84.7007C57.1468 84.7431 57.183 84.8055 57.1926 84.8744C57.2811 85.4561 57.4365 86.0255 57.6542 86.5717C58.5193 85.6824 59.2976 84.7127 59.9786 83.6757C60.0195 83.618 60.0814 83.5787 60.151 83.5664C60.2206 83.5552 60.2918 83.5717 60.3493 83.6124C60.4069 83.6532 60.4462 83.7148 60.4588 83.7842C60.4709 83.8539 60.4548 83.9255 60.4141 83.9834C60.0317 84.5328 58.1544 87.2927 57.5119 87.1473Z" fill="#22c6e0"/>
<path d="M52.6215 108.08C50.8884 106.97 49.0946 105.957 47.2486 105.047C46.717 104.816 46.6677 104.844 46.4561 105.266L43.3923 110.438C43.3627 110.488 43.3484 110.546 43.3512 110.603C43.3539 110.661 43.3736 110.717 43.4077 110.764C43.5939 111.001 48.6705 114.033 49.186 114.033C49.7015 114.033 52.6199 108.66 52.6823 108.375C52.7003 108.273 52.6786 108.167 52.6215 108.08ZM49.1252 113.479C48.4428 113.221 44.8034 111.094 43.9617 110.521C44.4541 109.695 46.2215 106.692 46.9493 105.464C47.7757 105.797 51.4235 107.905 52.1283 108.368C51.2211 110.125 50.2185 111.831 49.1252 113.479Z" fill="#3f89d3"/>
<path d="M69.9679 68.1127C69.5878 67.2009 50.1939 66.7354 34.3955 61.9096C33.8646 61.7504 33.5161 62.5313 31.2263 68.9013C29.5197 73.6486 27.1845 80.1471 25.0533 84.075C21.0723 91.3844 14.1868 102.336 12.3441 104.527C12.2502 104.652 12.2007 104.805 12.2035 104.962C12.2063 105.118 12.2612 105.27 12.3595 105.392C13.0796 106.627 16.8105 108.925 21.2539 111.344C21.277 113.005 21.3224 114.431 21.3531 115.227C19.6335 114.433 18.8087 114.15 17.5692 115.492C13.0898 120.981 8.89335 126.695 4.99615 132.611C2.16008 136.865 17.0567 147.799 25.7057 145.722C29.3074 144.823 33.4153 123.901 33.4476 123.686C33.6276 122.466 33.0506 121.923 32.0449 121.192C33.4295 120.563 34.7044 119.717 35.8212 118.685C36.4552 118.986 44.5749 122.847 45.2927 122.847C46.5669 122.613 54.7258 117.062 62.6508 96.3979C68.603 80.8904 70.2641 68.8482 69.9679 68.1127ZM31.9388 121.771C32.9098 122.483 33.0229 122.916 32.9244 123.618C32.5912 125.9 28.4733 144.486 25.5765 145.207C17.1267 147.296 3.03952 136.459 5.43548 132.896C12.0525 123.066 17.5761 116.281 17.9631 115.857C18.1809 115.507 18.5226 115.251 18.9203 115.142C19.318 115.032 19.7424 115.076 20.109 115.266C23.1451 116.272 31.8172 121.68 31.9388 121.771ZM31.5141 120.861C29.4512 119.564 24.5678 116.827 21.891 115.499C21.8279 112.806 21.6117 106.811 21.9679 103.071C22.1064 101.457 22.5919 99.8911 23.3936 98.483C23.7832 98.6501 24.206 98.7253 24.6293 98.7031C25.418 98.6877 30.7077 98.8624 34.9272 98.9986C33.3045 101.805 34.3116 102.51 34.5786 102.669C35.8528 103.412 38.4565 101.505 39.7576 99.9242C43.3684 95.5385 44.2971 94.916 44.6341 94.7067C44.9257 94.5267 46.193 93.6534 47.1663 94.8737C48.6997 96.7973 46.0537 99.8895 44.4518 101.744C43.5946 102.736 40.7686 105.498 40.0761 107.822C39.2059 110.774 39.1528 117.454 31.5141 120.861ZM23.0666 94.9722C23.1728 94.1151 24.0376 93.9635 25.1441 93.9558C25.1441 94.0327 25.1141 97.6775 25.1141 98.1799C24.9317 98.1722 24.6285 98.1722 24.6285 98.1722C23.3544 98.1799 23.1497 97.649 23.0966 97.0804C23.0363 96.3793 23.0263 95.6747 23.0666 94.9722ZM43.7839 94.6537C43.4585 94.9122 43.1468 95.1876 42.8506 95.48L25.6673 94.8814C25.675 94.5475 25.675 94.2366 25.675 93.9581C26.4613 93.9558 38.358 94.3213 43.7839 94.6537ZM27.1384 93.4226C28.8449 92.2623 33.0914 89.7071 35.1311 89.8363C36.2306 89.9041 38.7866 90.7158 44.7088 94.0597C44.6403 94.0905 44.5118 94.1659 44.5118 94.1659C38.5588 93.7888 31.4456 93.4249 27.1384 93.4249V93.4226ZM42.3505 95.994C41.9723 96.3931 41.6082 96.8052 41.2587 97.2297L25.6526 96.5626C25.6603 96.191 25.6603 95.7932 25.6673 95.4085L42.3505 95.994ZM40.834 97.7452C40.6139 98.0183 40.1361 98.6177 40.1138 98.6477C38.6519 98.5946 28.9742 98.263 25.6488 98.186C25.6488 97.9737 25.6488 97.579 25.6565 97.0942L40.834 97.7452ZM34.9649 100.058C35.1418 99.6995 35.3419 99.3525 35.5635 99.0193C37.3685 99.0801 38.9074 99.1409 39.696 99.1632C39.5752 99.3171 38.862 100.119 38.5965 100.361C37.3953 100.169 36.1813 100.069 34.9649 100.06V100.058ZM38.1118 100.801C36.8038 101.901 35.4465 102.494 34.851 102.204C34.3732 101.973 34.6202 101.029 34.7594 100.597C35.8789 100.602 36.9969 100.671 38.1087 100.804L38.1118 100.801ZM55.7799 97.1158C55.8058 97.0648 55.8181 97.0079 55.8155 96.9508C55.8129 96.8936 55.7956 96.8381 55.7653 96.7896C55.4575 96.3048 53.2623 95.4554 51.6627 94.9545C51.8751 94.4698 52.1098 93.9312 52.3752 93.3164C53.2623 93.5365 57.2225 95.0684 57.915 95.4023C57.2105 97.2977 56.3898 99.1478 55.4575 100.942C54.8889 100.775 52.5991 99.7818 51.1357 99.1224C52.5499 98.7108 55.5221 97.6798 55.7799 97.1181V97.1158ZM52.7845 95.8947C53.6239 96.1744 54.4341 96.5352 55.2036 96.9719C54.4596 97.3789 53.6801 97.719 52.8761 97.9883C52.6997 97.6707 52.5997 97.3164 52.5838 96.9535C52.5679 96.5905 52.6366 96.2289 52.7845 95.897V95.8947ZM52.2844 95.7131C52.1129 96.103 52.0301 96.5261 52.0419 96.9519C52.0538 97.3777 52.16 97.7955 52.3529 98.1753C51.5189 98.463 50.2824 98.7908 50.2216 98.797L49.0236 97.849C49.0236 97.849 50.1562 97.3258 50.1778 97.0527C50.1778 96.8111 49.2598 95.9917 49.2598 95.9917C49.6446 95.7331 50.4432 95.1345 50.4432 95.1345C50.5855 95.1769 52.0036 95.617 52.2844 95.7155V95.7131ZM48.5081 97.5405L47.9088 97.5174C48.0541 97.0926 48.1319 96.6476 48.1396 96.1986L48.7313 96.2133L49.4891 96.9719L48.5081 97.5405ZM48.739 95.6824L48.095 95.6601C48.0326 95.4047 47.9463 95.1559 47.8372 94.9168C48.4735 94.9622 49.096 94.9999 49.7023 95.0384C49.3953 95.2761 49.0721 95.4923 48.7351 95.6847L48.739 95.6824ZM48.4358 98.0714L49.4522 98.8678C48.7013 98.9208 47.7687 98.9585 47.2609 98.9739C47.4386 98.6754 47.5933 98.3638 47.7226 98.0414L48.4358 98.0714ZM43.3577 103.781C43.6777 103.397 44.6387 102.329 44.6541 102.31C45.4751 102.437 46.3099 102.448 47.134 102.341C46.6546 104.014 45.0519 104.199 43.3515 103.784L43.3577 103.781ZM44.4725 104.487C44.2994 105.6 43.363 106.452 41.4618 106.179C41.9265 105.499 42.4303 104.845 42.9706 104.223C43.4567 104.371 43.9589 104.461 44.4664 104.489L44.4725 104.487ZM45.0942 101.832C45.7562 101.1 46.3729 100.327 46.9408 99.5194C47.1301 99.5048 48.018 99.474 48.8821 99.4287C48.9633 99.7517 48.9585 100.09 48.8681 100.411C48.7776 100.732 48.6047 101.023 48.3666 101.256C47.7087 101.974 46.0483 101.926 45.0881 101.835L45.0942 101.832ZM62.1637 96.2056C53.5263 118.705 45.2758 122.307 45.2612 122.315C44.8665 122.254 41.1133 120.608 36.2221 118.288C40.467 113.962 39.7406 108.812 41.1733 106.663C43.0845 107.029 44.738 106.371 45.0104 104.494C45.6623 104.501 46.295 104.274 46.7933 103.853C47.2916 103.433 47.6224 102.848 47.7256 102.204C48.3103 102.037 48.8101 101.655 49.1243 101.135C49.4384 100.614 49.5435 99.9936 49.4183 99.3986C49.4953 99.3986 50.327 99.3217 50.404 99.3071C51.9428 100.05 55.0374 101.484 55.6137 101.484C56.1007 101.484 58.3797 95.7939 58.4605 95.4477C58.4846 95.389 58.4924 95.325 58.4831 95.2623C58.4737 95.1996 58.4476 95.1405 58.4074 95.0915C58.3697 95.053 52.6137 92.5739 52.1205 92.7786C51.9797 92.8409 52.0436 92.7494 51.1649 94.7952C49.9314 94.5253 48.6742 94.3781 47.4117 94.3559C47.1474 94.0873 46.8157 93.8949 46.4514 93.7987C46.0871 93.7026 45.7036 93.7064 45.3412 93.8096C40.2908 90.9358 36.8707 89.4193 35.1726 89.3055C34.0517 89.3485 32.9529 89.6302 31.9495 90.1318C31.3656 89.9956 28.8019 88.9446 27.8624 88.5245C27.8305 88.5099 27.796 88.502 27.7609 88.5012C27.7259 88.5004 27.691 88.5067 27.6585 88.5199C27.6261 88.5329 27.5966 88.5522 27.5716 88.5767C27.5467 88.6012 27.5269 88.6304 27.5133 88.6625C27.4997 88.6947 27.4926 88.7293 27.4925 88.7642C27.4923 88.7992 27.499 88.8338 27.5123 88.8661C27.5258 88.8985 27.5456 88.9278 27.5706 88.9523C27.5956 88.9769 27.6252 88.9963 27.6577 89.0092C27.7716 89.0623 30.0237 90.0256 31.2294 90.458C29.4761 91.296 27.8022 92.2908 26.2282 93.4303C24.7524 93.4303 22.7466 93.2564 22.5504 94.9014C22.5011 95.6416 22.5119 96.3848 22.5804 97.1235C22.5896 97.5013 22.7319 97.8644 22.9828 98.1476C22.1089 99.6333 21.5828 101.298 21.4439 103.016C21.247 105.116 21.2239 108.142 21.247 110.728C16.1057 107.915 13.1104 105.905 12.7688 105.01C12.7311 104.904 12.7534 104.881 12.7611 104.874C14.6192 102.659 21.5324 91.6637 25.5234 84.3235C29.205 77.5449 33.3237 63.6562 34.3424 62.4482C48.7843 66.8339 67.6958 67.8518 69.4755 68.3858C69.5209 69.673 67.8982 81.2466 62.1576 96.2079L62.1637 96.2056Z" fill="#3f89d3"/>
<path d="M50.8727 84.1836C50.7957 84.1836 33.7724 79.9633 32.4136 79.6879C32.3463 79.6723 32.2877 79.6311 32.2502 79.5729C32.2128 79.5148 32.1996 79.4443 32.2133 79.3765C32.227 79.3088 32.2667 79.249 32.3238 79.21C32.3809 79.1711 32.4509 79.1559 32.5191 79.1678C33.5024 79.367 44.4796 82.0677 50.9358 83.6596C50.9972 83.6768 51.0504 83.7154 51.0859 83.7684C51.1213 83.8214 51.1366 83.8853 51.129 83.9487C51.1214 84.012 51.0913 84.0705 51.0443 84.1136C50.9973 84.1566 50.9364 84.1815 50.8727 84.1836Z" fill="#3f89d3"/>
<path d="M125.864 103.628C115.044 112.624 102.524 125.633 100.704 126.63C100.704 126.63 75.7287 114.542 68.1646 85.543C82.4464 78.0666 96.1836 66.4415 98.8465 65.749C101.89 71.1825 105.307 76.3977 109.074 81.3566C109.175 81.4843 114.777 80.1694 114.777 80.1694C114.777 80.1694 116.778 75.743 122.948 75.4514C128.269 75.1998 129.495 77.5742 129.495 77.5742C129.495 77.5742 135.522 76.3677 136.262 76.6886C136.895 76.9617 137.213 80.1863 136.981 80.5357C136.525 81.2281 131.754 81.9706 131.754 81.9706C133.72 85.9989 134.659 90.4503 134.489 94.9291C134.489 94.9291 130.648 96.6934 125.171 101.752C124.993 101.917 125.864 103.628 125.864 103.628Z" fill="white"/>
<path d="M109.339 81.3413L114.156 80.311C114.156 80.311 111.079 81.4559 113.624 85.1514C112.538 85.4961 111.404 85.6677 110.265 85.66L111.38 84.2043L109.808 83.3433L110.955 82.2269L109.339 81.3413Z" fill="#8cd410"/>
<path d="M114.156 80.311L134.228 76.7671C134.228 76.7671 134.938 80.845 134.985 81.3305L118.614 84.3812C118.614 84.3812 116.192 80.4811 114.156 80.311Z" fill="#8cd410"/>
<path d="M106.709 82.7454C107.071 83.0549 107.311 83.4838 107.384 83.9546C107.458 84.4254 107.361 84.9069 107.11 85.3121C107.11 85.3121 104.122 84.9367 104.141 84.6535C104.16 84.3704 106.709 82.7454 106.709 82.7454Z" fill="#8cd410"/>
<path d="M83.3159 87.2928C92.4627 82.0062 92.4673 80.7258 92.8882 81.2652C92.9101 81.2926 92.9262 81.324 92.9357 81.3577C92.9453 81.3914 92.9479 81.4267 92.9436 81.4614C92.9395 81.4961 92.9285 81.5295 92.9113 81.5599C92.8941 81.5903 92.8711 81.617 92.8436 81.6384C89.9161 83.9095 86.8197 85.9541 83.5814 87.7545C83.5201 87.7897 83.4474 87.7991 83.3793 87.7807C83.3111 87.7623 83.253 87.7176 83.2178 87.6564C83.1826 87.5951 83.1732 87.5224 83.1916 87.4543C83.21 87.3861 83.2547 87.328 83.3159 87.2928Z" fill="#3f89d3"/>
<path d="M76.7827 91.5906C76.7233 91.5912 76.6655 91.5717 76.6187 91.5352C76.5719 91.4987 76.5388 91.4474 76.5249 91.3898C76.5104 91.3324 76.5156 91.2718 76.5398 91.2178C76.5639 91.1637 76.6056 91.1194 76.658 91.092C76.678 91.0804 78.68 90.0148 81.3707 88.4606C81.4009 88.4429 81.4344 88.4315 81.4692 88.427C81.504 88.4225 81.5393 88.425 81.573 88.4344C81.624 88.4478 81.6697 88.4762 81.7044 88.5158C81.7391 88.5554 81.7611 88.6045 81.7677 88.6568C81.7719 88.6915 81.7696 88.7268 81.7608 88.7607C81.7514 88.7943 81.7357 88.8259 81.7146 88.8538C81.693 88.8813 81.6664 88.9045 81.6361 88.9222C81.4545 89.0246 76.9881 91.5906 76.7827 91.5906Z" fill="#3f89d3"/>
<path d="M82.0778 100.723C82.0197 100.723 81.9633 100.704 81.9171 100.669C81.8709 100.633 81.8375 100.584 81.8221 100.528C81.8066 100.472 81.8099 100.413 81.8315 100.359C81.8531 100.305 81.8918 100.259 81.9416 100.23C82.0501 100.167 92.7642 93.7596 98.911 88.7315C98.9658 88.6907 99.0341 88.6726 99.1019 88.6809C99.1696 88.6892 99.2316 88.7233 99.2748 88.7761C99.3181 88.8289 99.3394 88.8963 99.3342 88.9644C99.3291 89.0324 99.298 89.0959 99.2473 89.1416C93.7713 93.3564 88.0369 97.2243 82.0778 100.723Z" fill="#3f89d3"/>
<path d="M101.997 100.573C102.997 99.774 103.987 98.9877 104.907 98.0959C104.932 98.0715 104.961 98.0523 104.994 98.0395C105.026 98.0267 105.061 98.0205 105.096 98.0213C105.166 98.023 105.232 98.0517 105.282 98.1013C105.306 98.1262 105.325 98.1556 105.338 98.188C105.351 98.2204 105.357 98.255 105.356 98.2898C105.355 98.3599 105.326 98.4266 105.276 98.476C104.342 99.3724 103.337 100.179 102.329 100.988C102.302 101.01 102.27 101.026 102.237 101.036C102.203 101.046 102.168 101.049 102.134 101.045C102.099 101.041 102.065 101.03 102.035 101.013C102.004 100.997 101.977 100.974 101.956 100.947C101.934 100.919 101.918 100.888 101.908 100.855C101.898 100.821 101.895 100.786 101.899 100.751C101.903 100.717 101.914 100.683 101.93 100.653C101.947 100.622 101.97 100.595 101.997 100.573Z" fill="#3f89d3"/>
<path d="M89.0995 110.262C89.0408 110.262 88.9837 110.242 88.9374 110.206C88.8912 110.17 88.8583 110.12 88.844 110.063C88.8287 110.006 88.8329 109.946 88.8559 109.892C88.8789 109.838 88.9195 109.793 88.971 109.765C92.9237 107.483 96.7019 104.911 100.274 102.071C100.302 102.049 100.333 102.033 100.366 102.023C100.4 102.013 100.435 102.01 100.47 102.014C100.504 102.018 100.538 102.029 100.568 102.046C100.599 102.062 100.626 102.085 100.648 102.112C100.669 102.14 100.686 102.171 100.695 102.204C100.705 102.238 100.708 102.273 100.704 102.308C100.7 102.342 100.69 102.376 100.673 102.406C100.656 102.437 100.633 102.464 100.606 102.486C95.7818 106.353 89.4003 110.262 89.0995 110.262Z" fill="#3f89d3"/>
<path d="M97.3583 117.044C97.4399 116.981 105.603 110.734 111.063 104.684C111.099 104.647 111.145 104.621 111.195 104.61C111.245 104.599 111.297 104.602 111.345 104.619C111.393 104.637 111.435 104.668 111.466 104.709C111.497 104.75 111.516 104.799 111.519 104.85C111.524 104.919 111.502 104.987 111.457 105.039C105.963 111.128 97.7615 117.403 97.6799 117.466C97.6522 117.487 97.6205 117.503 97.5868 117.512C97.553 117.521 97.5178 117.523 97.4831 117.518C97.4485 117.514 97.4152 117.502 97.385 117.484C97.3549 117.467 97.3286 117.443 97.3075 117.415C97.2652 117.359 97.2468 117.289 97.2564 117.219C97.2659 117.149 97.3025 117.086 97.3583 117.044Z" fill="#3f89d3"/>
<path d="M97.7545 78.009C97.6918 77.9777 97.6437 77.9231 97.6205 77.8569C97.5974 77.7906 97.601 77.7179 97.6307 77.6543C97.6537 77.6071 97.6901 77.5677 97.7354 77.541C97.7807 77.5143 97.8329 77.5015 97.8853 77.5043C97.9201 77.5064 97.9541 77.5152 97.9854 77.5305C98.3557 77.7109 98.7327 77.8772 99.1156 78.029C99.0687 77.4258 98.841 75.9885 98.7109 75.413C98.6997 75.3459 98.7145 75.2771 98.7525 75.2206C98.7904 75.1641 98.8485 75.1243 98.9149 75.1093C98.9813 75.0943 99.0509 75.1054 99.1094 75.1401C99.1679 75.1748 99.2109 75.2306 99.2295 75.2961C99.2364 75.3268 99.9158 78.3453 99.5065 78.5838C99.2711 78.72 98.7979 78.5115 97.7545 78.009Z" fill="#8cd410"/>
<path d="M99.6183 73.1025C99.5688 73.0546 99.5085 73.0192 99.4425 72.9994C99.3765 72.9796 99.3067 72.9759 99.239 72.9886C99.1859 73.0117 94.4771 75.5977 94.4771 76.3256C95.3995 78.0934 96.5214 79.7497 97.8209 81.2621C98.0071 81.3683 98.2256 81.2621 98.4365 81.156C98.9289 80.9136 102.941 78.4792 102.971 78.0391C103.001 77.6597 100.237 73.6095 99.6183 73.1025ZM98.041 80.7543C96.9318 79.3527 95.9256 77.8726 95.0303 76.3256C96.3813 75.2817 97.8142 74.3485 99.3151 73.5349C100.465 74.9208 101.495 76.4024 102.393 77.9637C101.011 78.9967 99.5567 79.9289 98.041 80.7528V80.7543Z" fill="#3f89d3"/>
<path d="M111.213 89.5501C111.171 89.5019 111.12 89.4626 111.063 89.4347C111.006 89.4076 110.943 89.3926 110.879 89.3909C109.272 90.3807 107.791 91.5611 106.467 92.9063C106.252 93.1656 106.226 93.241 106.424 93.5565C107.428 95.0336 108.584 96.4026 109.871 97.6413C109.916 97.6721 109.969 97.6521 110.015 97.679C110.255 97.826 114.708 94.4113 114.708 93.9635C114.701 93.5696 111.57 89.8764 111.213 89.5501ZM110.053 97.1258C108.893 95.9164 107.824 94.6239 106.852 93.2587C108.105 92.0544 109.449 90.9482 110.872 89.9502C112.029 91.2184 113.115 92.5501 114.125 93.9389C112.845 95.0961 111.484 96.1611 110.053 97.1258Z" fill="#3f89d3"/>
<path d="M116.953 96.4888C116.847 96.398 116.756 96.3073 116.605 96.3219C116.264 96.3565 111.956 99.5226 112.123 100.19C113.116 101.635 114.252 102.978 115.514 104.196C115.771 104.408 115.858 104.402 116.155 104.239C117.232 103.651 120.442 101.104 120.434 100.713C120.426 100.322 117.282 96.7851 116.953 96.4888ZM115.854 103.798C114.703 102.647 113.641 101.409 112.677 100.097C113.905 98.9334 115.215 97.8591 116.597 96.8828C117.751 98.0913 118.834 99.3647 119.842 100.697C118.588 101.825 117.256 102.861 115.854 103.799V103.798Z" fill="#3f89d3"/>
<path d="M150.804 107.682C150.395 105.286 138.656 94.7607 137.686 94.0098C137.018 93.4866 136.548 93.6312 135.418 94.1013C135.206 94.1921 134.978 94.2906 134.751 94.3968C134.584 88.2415 133.557 85.12 132.089 82.1577C133.53 81.8923 135.206 81.536 135.206 81.536C137.917 80.9082 137.527 80.5065 136.95 77.502C136.685 76.1363 135.751 76.2955 134.758 76.4779C134.561 76.5079 131.795 76.9211 129.763 77.2627C128.211 74.9052 119.18 73.0601 114.428 79.9964C114.25 79.9964 109.49 80.989 109.18 81.1259C105.522 76.2478 102.205 71.122 99.255 65.7853C98.2639 63.9264 87.783 74.6259 68.2175 85.1684C68.1547 85.2137 68.1049 85.2746 68.0729 85.345C68.0409 85.4155 68.0279 85.493 68.0352 85.5701C68.0128 87.8783 74.8906 112.269 100.491 126.883C101.739 127.506 116.581 111.22 125.591 104.217C127.9 109.305 135.404 121.006 136.556 120.93C143.85 120.422 151.304 110.616 150.804 107.682ZM118.727 84.0989C118.538 83.8181 118.333 83.5303 118.129 83.2418L134.569 80.2465C134.63 80.6027 134.675 80.9066 134.713 81.1036C132.923 81.5222 118.804 84.0212 118.727 84.0982V84.0989ZM119.941 85.7447C119.636 85.3599 119.34 84.9679 119.054 84.5691C119.63 84.4552 121.465 84.129 123.687 83.7227C124.079 84.1228 124.373 84.6083 124.544 85.1407C122.891 85.2738 120.184 85.7055 119.941 85.744V85.7447ZM124.68 85.6609C124.68 85.6609 125.087 86.9612 124.082 87.4051C122.987 87.8883 121.708 87.559 120.381 86.2148C121.238 86.0848 123.368 85.7586 124.68 85.6601V85.6609ZM134.857 77.0011C135.949 76.8041 136.268 76.781 136.434 77.6005C136.65 78.4111 136.782 79.2418 136.829 80.0795C136.836 80.5727 136.26 80.7474 135.228 80.9897C135.1 80.2011 134.736 77.9644 134.546 77.0542C134.652 77.0303 134.758 77.0157 134.857 77.0003V77.0011ZM134.296 78.6169C134.356 78.9808 134.425 79.3601 134.486 79.7241L117.779 82.7648C117.477 82.347 117.148 81.9494 116.794 81.5745L134.296 78.6169ZM129.131 77.3673C124.922 78.0721 119.058 79.1231 115.236 79.8356C118.461 75.0299 126.421 74.7575 129.131 77.3673ZM134.012 77.1288C134.065 77.3635 134.126 77.7051 134.202 78.0913L116.313 81.1098C115.978 80.798 115.586 80.5535 115.159 80.3896C119.091 79.6471 132.764 77.3035 134.015 77.1296L134.012 77.1288ZM113.181 80.7681C112.846 81.0157 112.599 81.3637 112.476 81.7615C112.476 81.7615 111.096 81.9969 111.081 82.0046L109.981 81.4129C110.606 81.2775 111.736 81.0498 113.184 80.7689L113.181 80.7681ZM113.681 89.6934C113.277 89.3516 113.023 88.8638 112.977 88.3361C113.79 88.5529 114.646 88.5479 115.457 88.3215C115.886 88.8474 116.259 89.4165 116.571 90.0196C116.097 90.1888 115.59 90.2474 115.09 90.191C114.59 90.1346 114.109 89.9647 113.685 89.6941L113.681 89.6934ZM116.821 90.4974C117.011 90.8613 117.185 91.233 117.345 91.6046C116.588 91.8377 115.77 91.7699 115.062 91.4153C114.748 91.2215 114.502 90.9352 114.357 90.5959C115.176 90.7584 116.021 90.7249 116.825 90.4982L116.821 90.4974ZM112.461 87.4644C111.903 87.0081 112.196 86.1371 112.271 85.7501C112.438 85.7201 113.371 85.5454 113.515 85.5193C113.985 86.3002 114.554 87.0889 115.115 87.8545C114.672 87.991 114.204 88.027 113.746 87.9596C113.287 87.8922 112.849 87.7233 112.464 87.4651L112.461 87.4644ZM110.755 85.4247L111.524 84.4006C111.547 84.4159 112.821 84.2036 112.821 84.2036C112.941 84.486 113.075 84.7614 113.223 85.0299C112.432 85.3114 111.597 85.4455 110.758 85.4254L110.755 85.4247ZM110.261 83.3165L111.149 82.5047L112.385 82.3154C112.375 82.7863 112.455 83.2548 112.62 83.6958L111.498 83.9151L110.261 83.3165ZM109.284 81.6407L110.565 82.3231L109.61 83.1872C109.578 83.2165 109.553 83.2532 109.539 83.2942C109.525 83.3351 109.521 83.379 109.527 83.4219C109.534 83.4647 109.552 83.5051 109.578 83.5395C109.604 83.574 109.639 83.6015 109.678 83.6196C109.678 83.6196 110.929 84.2644 110.952 84.2867L110.072 85.447C109.083 85.4154 107.636 85.1669 107.494 85.1669C107.609 84.9345 107.679 84.6822 107.699 84.4236C107.734 83.8245 107.554 83.2324 107.191 82.7548C107.881 82.3673 108.579 81.9961 109.287 81.6414L109.284 81.6407ZM108.025 85.9025C106.688 86.9818 105.294 87.9866 103.847 88.9124C102.773 87.5617 101.795 86.1376 100.919 84.6506C102.196 83.5682 103.549 82.58 104.969 81.6938C105.334 82.0523 105.664 82.4462 105.954 82.8686C105.947 82.8763 103.821 84.2036 103.861 84.6283C103.864 84.6757 103.877 84.7221 103.899 84.764C103.921 84.8059 103.953 84.8423 103.991 84.8707C105.289 85.2461 106.607 85.5424 107.942 85.7578C107.982 85.8194 108.005 85.8648 108.028 85.9032L108.025 85.9025ZM106.721 83.0279C106.959 83.3074 107.108 83.6523 107.147 84.0176C107.186 84.3829 107.114 84.7516 106.941 85.0753C106.109 84.9522 105.286 84.7753 104.479 84.5444C104.745 84.2875 106.716 83.0364 106.724 83.0287L106.721 83.0279ZM125.057 102.879C125.133 103.122 125.238 103.402 125.364 103.714C114.912 112.331 101.322 126.602 100.689 126.379C75.7024 112.085 68.4837 87.4551 68.5591 85.5824C76.9122 80.9745 84.9436 75.8061 92.598 70.1125C95.6841 67.8904 98.3455 65.9723 98.7856 66.0408C101.734 71.3683 105.045 76.4869 108.695 81.3606C108.066 81.6684 107.216 82.13 106.405 82.604C106.07 82.1232 105.694 81.6717 105.283 81.2544C105.207 81.1904 105.115 81.1484 105.017 81.1329C104.704 81.0436 100.369 84.1059 100.369 84.5837C100.215 84.8145 103.349 89.4787 103.797 89.4895C104.206 89.5002 108.059 86.6011 108.407 86.2672C108.548 86.1317 108.638 86.0148 108.561 85.8347C109.618 86.0071 110.695 86.0094 111.753 85.8424C111.162 87.5498 112.322 88.0299 112.436 88.0907C112.422 88.5492 112.534 89.0027 112.76 89.4018C112.986 89.801 113.317 90.1304 113.718 90.3543C114.527 92.8418 117.122 92.2117 117.569 92.0986C118.193 93.7249 118.978 95.2846 119.913 96.7543C121.439 98.6111 123.601 99.8331 125.979 100.182C124.52 101.515 124.723 101.798 125.06 102.881L125.057 102.879ZM126.475 99.7396C122.557 99.0979 120.983 97.2198 120.325 96.4258C118.794 94.583 118.111 91.0598 116.177 88.4108C115.098 87.0702 114.153 85.627 113.356 84.102C113.279 83.9343 112.323 82 113.636 81.0836C115.46 79.8118 117.602 83.4373 118.868 85.2315C120.68 87.7706 122.715 88.667 124.35 87.8552C126.158 86.9566 124.9 84.2005 124.297 83.6011L131.54 82.2593C133.002 85.1584 134.087 88.3615 134.223 94.6422C131.462 96.0517 128.864 97.762 126.478 99.7419L126.475 99.7396Z" fill="#3f89d3"/>
<path d="M25.0286 47.9403C25.0286 47.9403 26.7551 50.3801 29.5889 50.2154C32.4226 50.0508 34.6101 48.8089 35.6103 49.109C36.3136 49.7251 37.2286 50.0442 38.1625 49.9992C39.6936 49.9046 41.0093 49.3606 39.9552 47.2855C40.2785 46.9928 40.5219 46.6225 40.6621 46.2096C40.8024 45.7966 40.8351 45.3547 40.757 44.9257C40.757 44.9257 41.7918 44.0616 41.0701 42.222C41.0701 42.222 42.5143 40.0437 39.7352 38.558C38.1471 37.7117 34.734 38.1487 34.734 38.1487C34.734 38.1487 37.7262 31.2855 34.7024 30.7107C32.1387 30.2229 33.2321 36.7653 30.8653 38.0202C30.3421 38.2979 27.2653 38.8565 25.6049 39.8752L25.0286 47.9403Z" fill="white"/>
<path d="M41.374 42.1742C41.5492 41.8902 41.6667 41.5745 41.7198 41.2451C41.7728 40.9157 41.7605 40.579 41.6834 40.2544C41.6063 39.9298 41.4659 39.6235 41.2704 39.3531C41.0749 39.0828 40.828 38.8536 40.5438 38.6787C39.0119 37.5823 36.3189 37.8024 35.0994 37.8839C36.7652 33.9853 36.9045 30.6637 34.6978 30.396C33.5437 30.2552 32.6973 31.4493 32.4742 33.529C32.2841 35.3033 31.4739 37.8531 30.4414 38.0255C28.8795 38.274 27.3637 38.7564 25.9449 39.4566C26.0172 38.561 25.9541 38.5187 25.7503 38.4625C19.8735 36.8591 10.0096 37.0499 9.90953 37.0553C9.86792 37.0561 9.82709 37.0667 9.79034 37.0862C9.75359 37.1057 9.72193 37.1336 9.69794 37.1676C6.30328 42.0149 6.83417 46.139 7.8775 48.7473C8.83542 51.1417 10.4166 52.6621 10.9629 52.7721C12.4494 53.0691 24.3822 50.7301 25.177 50.0122C25.384 49.8268 25.254 49.826 25.2478 48.4926C25.7913 49.1552 26.4811 49.6826 27.2629 50.0335C28.0447 50.3844 28.8973 50.5491 29.7535 50.5146C32.6396 50.4123 33.7052 49.1889 35.5957 49.4375C37.6439 50.8224 40.0683 50.0661 40.4115 49.3297C40.5295 48.9929 40.5743 48.6347 40.543 48.2791C40.5117 47.9236 40.4049 47.5788 40.2299 47.2677C40.4576 47.1238 40.6561 46.9369 40.8139 46.7183C40.9828 46.4488 41.0943 46.1474 41.1416 45.8329C41.1889 45.5184 41.1708 45.1975 41.0886 44.8902C41.3569 44.4963 41.5234 44.0421 41.5732 43.5681C41.623 43.0942 41.5546 42.6152 41.374 42.1742ZM39.9498 49.0704C39.3281 50.1546 35.7049 49.6921 35.5457 48.4688C35.5049 48.1541 35.8173 47.8802 36.4036 47.7155C37.5206 47.9609 38.6833 47.8971 39.7667 47.5308C39.9099 47.7576 40.0007 48.0136 40.0324 48.2799C40.0641 48.5463 40.0359 48.8164 39.9498 49.0704ZM40.3722 46.4267C39.7667 47.5309 35.8511 47.8202 35.411 46.3913C35.301 46.0328 35.5288 45.6158 36.052 45.2272C37.5055 45.8526 39.1479 45.8756 40.6184 45.2911C40.652 45.6858 40.5662 46.0814 40.3722 46.4267ZM38.8065 45.2126C36.916 45.2195 35.765 44.7179 35.6419 44.1447C35.5928 43.9007 35.6235 43.6474 35.7293 43.4221C35.8351 43.1969 36.0106 43.0116 36.2297 42.8936C39.3735 43.7938 40.4884 43.0998 40.9577 42.6243C41.3702 44.1785 40.7246 45.1864 38.8065 45.2126ZM41.0778 41.6394C40.8585 42.0467 40.5213 42.3781 40.1103 42.5904C39.6994 42.8026 39.2339 42.8858 38.7749 42.829C37.163 42.7228 35.1748 42.3635 35.6088 40.9824C35.8519 40.2091 37.8562 40.3199 38.5325 40.4014C38.6007 40.4082 38.6689 40.3885 38.7228 40.3463C38.7768 40.3042 38.8124 40.2428 38.8224 40.1751C38.8323 40.1073 38.8157 40.0383 38.776 39.9825C38.7364 39.9266 38.6767 39.8882 38.6095 39.8752C38.2963 39.8328 35.5903 39.5051 35.1063 40.8154C34.9876 41.1437 34.9889 41.5034 35.1102 41.8307C35.2315 42.1581 35.4648 42.4319 35.7688 42.6035C34.4362 43.92 35.3741 44.7494 35.5757 44.9233C34.0115 46.2806 35.3179 47.2015 35.7226 47.4185C35.5785 47.4662 35.4466 47.5451 35.3364 47.6496C35.2263 47.7541 35.1405 47.8816 35.0852 48.0231C35.03 48.1645 35.0066 48.3164 35.0168 48.4679C35.0269 48.6194 35.0704 48.7668 35.144 48.8996C34.3194 48.9213 33.505 49.088 32.7381 49.3921C31.7171 49.7406 27.6746 51.2494 25.2563 47.6301C25.5987 42.0295 25.7033 40.8339 25.8864 40.0898C27.3364 39.3179 28.9063 38.7961 30.5299 38.5464C32.1456 38.2771 32.8735 34.7855 33.0028 33.5829C33.0735 32.9273 33.3982 30.7491 34.6455 30.9223C36.2766 31.1485 36.2982 33.8891 34.4377 38.0724C34.4192 38.1148 34.4119 38.1613 34.4167 38.2073C34.4215 38.2533 34.4382 38.2973 34.4651 38.3349C34.4921 38.3725 34.5283 38.4025 34.5703 38.4219C34.6123 38.4413 34.6586 38.4495 34.7047 38.4456C41.5279 37.5515 41.4409 40.7931 41.0778 41.6394Z" fill="#3f89d3"/>
<path d="M27.65 44.2132C28.4024 44.0514 29.0994 43.6958 29.6719 43.1816C30.2444 42.6674 30.6726 42.0124 30.9139 41.2817C30.923 41.2471 30.939 41.2147 30.9609 41.1864C30.9828 41.1582 31.0102 41.1346 31.0414 41.1171C31.0726 41.0997 31.107 41.0887 31.1426 41.0848C31.1781 41.0809 31.2141 41.0843 31.2483 41.0946C31.2826 41.105 31.3144 41.1221 31.3418 41.145C31.3693 41.1679 31.3919 41.1961 31.4082 41.228C31.4245 41.2598 31.4343 41.2946 31.4369 41.3302C31.4394 41.3659 31.4348 41.4017 31.4232 41.4356C31.1597 42.2647 30.6795 43.0085 30.0325 43.5901C29.3854 44.1717 28.5948 44.5701 27.7424 44.7441C27.672 44.7563 27.5996 44.7401 27.5411 44.699C27.4827 44.6578 27.443 44.5952 27.4307 44.5248C27.4185 44.4544 27.4347 44.382 27.4758 44.3236C27.517 44.2651 27.5796 44.2254 27.65 44.2132Z" fill="#3f89d3"/>
<path d="M121.543 54.9641L122.948 50.7292L125.108 54.8595L129.446 55.4727L126.282 57.8579L127.373 61.9466L123.472 59.7237L119.321 62.5336L120.768 57.8787L117.156 55.5881L121.543 54.9641Z" fill="#8cd410"/>
<path d="M119.275 62.833C119.232 62.8339 119.188 62.8244 119.149 62.8053C119.11 62.7861 119.076 62.7579 119.05 62.7229C118.801 62.4028 120.05 59.0097 120.429 58.0133C119.435 57.4555 117.563 56.2175 117.54 56.2006C117.102 55.8636 116.975 55.692 117.016 55.4943C117.076 55.1903 117.268 55.0742 120.627 54.8433C120.935 54.8226 121.243 54.801 121.418 54.7856C121.661 53.8539 122.572 50.4931 122.803 50.3369C122.839 50.31 122.881 50.2932 122.925 50.2882C122.969 50.2832 123.014 50.2902 123.055 50.3084C123.35 50.4777 125.252 54.5887 125.316 54.7187C125.524 54.7449 129.497 55.2011 129.586 55.2688C129.631 55.3032 129.665 55.3508 129.681 55.405C129.698 55.4592 129.698 55.5173 129.68 55.5712C128.699 56.4261 127.662 57.2139 126.575 57.9295C126.97 58.9674 127.669 62.0228 127.669 62.0551C127.669 62.1259 127.641 62.1938 127.591 62.2439C127.541 62.2939 127.473 62.3221 127.402 62.3221C127.311 62.3221 123.761 60.1739 123.508 59.9946C122.175 61.0515 120.759 62.0006 119.275 62.833ZM120.983 58.0287C120.829 58.3757 119.886 61.0648 119.598 62.1251C120.566 61.5457 123.325 59.4937 123.335 59.4837C123.389 59.4343 123.46 59.4081 123.533 59.4108C123.606 59.4136 123.675 59.445 123.726 59.4983C124.013 59.7091 126.052 60.9687 127.012 61.5357C126.122 57.9625 125.837 57.8248 126.113 57.6194C126.196 57.5578 127.786 56.4453 128.818 55.6551C128.187 55.5781 125.118 55.2788 124.954 55.1488C124.834 55.0542 123.399 51.9588 123.001 51.1771C122.66 52.2412 121.924 54.9957 121.784 55.178C121.197 55.4189 119.498 55.3665 117.706 55.6597C118.354 56.2021 120.826 57.6348 120.838 57.6417C120.905 57.6779 120.956 57.737 120.983 57.8081C121.01 57.8792 121.01 57.9575 120.983 58.0287Z" fill="#3f89d3"/>
<path d="M56.0423 132.938L57.9451 130.063L59.2192 133.13L62.1438 134.152L59.6747 135.771L60.6188 139.068L57.3634 137.281L53.9041 138.704L55.209 135.52L52.8977 133.381L56.0423 132.938Z" fill="#8cd410"/>
<path d="M60.7481 139.498C60.5434 139.498 59.9925 139.175 57.3626 137.627C56.1231 138.124 53.9249 139.049 53.8564 139.037C53.796 139.024 53.7416 138.992 53.7024 138.944C53.6632 138.896 53.6415 138.837 53.641 138.775C53.641 138.725 54.4343 136.779 54.9144 135.576C52.6223 133.548 52.623 133.491 52.623 133.344C52.623 133.047 52.623 133.02 55.97 132.687C57.6766 129.805 57.7612 129.805 57.9451 129.805C58.1598 129.805 58.2421 129.805 59.4839 132.96C62.4616 133.874 62.45 133.955 62.4146 134.214C62.3939 134.36 62.3792 134.457 59.971 135.863C60.3057 136.965 60.6376 138.068 60.9666 139.171C60.9775 139.243 60.9611 139.316 60.9207 139.377C60.8803 139.437 60.8187 139.48 60.7481 139.498ZM57.3873 137.068C57.435 137.068 57.4811 137.08 57.5219 137.104C58.3583 137.597 59.584 138.312 60.278 138.704L59.4062 135.815C59.3 135.464 59.6717 135.507 61.6468 134.228C59.4555 133.415 59.14 133.53 59.0415 133.272C58.6276 132.222 58.1582 131.082 57.912 130.548C56.3955 132.829 56.4501 133.171 56.1585 133.202C55.2706 133.291 54.0619 133.421 53.4225 133.51C55.3606 135.33 55.5961 135.304 55.4783 135.599C55.1303 136.487 54.7736 137.372 54.4081 138.253C54.5527 138.192 57.2711 137.068 57.3873 137.068Z" fill="#3f89d3"/>
<path d="M64.896 133.255L68.1198 132.815L69.4779 129.806L70.9028 132.768L74.0636 133.334L71.7838 135.19L73.1157 138.79L69.7233 137.061L66.2009 138.79L67.3804 135.426L64.896 133.255Z" fill="#8cd410"/>
<path d="M73.1942 139.068C72.9803 139.068 72.3848 138.751 69.7172 137.326C68.4515 137.942 66.2202 139.067 66.1525 139.06C66.0941 139.053 66.0398 139.026 65.9981 138.984C65.9564 138.942 65.9296 138.888 65.9217 138.83C65.9148 138.775 66.6534 136.772 67.1066 135.51C64.6137 133.49 64.6068 133.433 64.5906 133.302C64.5824 133.229 64.6034 133.156 64.6491 133.099C64.7322 132.995 64.7891 132.926 67.9576 132.609C69.1517 129.52 69.2386 129.511 69.4264 129.49C69.6572 129.468 69.7342 129.447 71.0629 132.547C74.3768 133.008 74.3753 133.085 74.3714 133.361C74.3668 133.509 74.3637 133.607 72.124 135.285C72.3963 136.017 73.3796 138.662 73.402 138.719C73.4173 138.755 73.4239 138.795 73.4212 138.834C73.4185 138.874 73.4066 138.912 73.3864 138.946C73.3661 138.98 73.3382 139.009 73.3049 139.03C73.2715 139.051 73.2336 139.064 73.1942 139.068ZM69.7226 136.766C69.7665 136.766 69.8096 136.777 69.848 136.797C70.7044 137.255 71.9524 137.916 72.671 138.285L71.5531 135.284C71.4353 134.966 71.73 135 73.5797 133.484C72.9957 133.371 71.8731 133.197 70.8413 133.054C70.5336 133.012 70.649 132.703 69.4687 130.298C68.3738 132.774 68.4931 133.09 68.1722 133.124C67.282 133.211 66.0756 133.343 65.4193 133.431C67.5783 135.273 67.7744 135.224 67.669 135.514C67.3475 136.422 67.0187 137.327 66.6827 138.229C66.8419 138.141 69.5964 136.766 69.7226 136.766Z" fill="#3f89d3"/>
<path d="M80.1358 132.784L81.3599 129.701L82.7126 132.485L86.2819 132.784L83.829 135.206L84.6784 138.791L81.5338 136.825L78.1838 138.712L79.174 135.253L76.7527 133.114L80.1358 132.784Z" fill="#8cd410"/>
<path d="M25.3464 98.3922L25.4411 93.6272L44.4687 94.4297C42.8987 95.8177 41.4517 97.3389 40.1438 98.9762L25.3464 98.3922Z" fill="#FF7449"/>
<path d="M47.3617 94.5867L50.3186 94.8067L48.9336 95.897L49.8331 96.9742L48.6997 97.7828L50.1616 99.0254L46.907 99.277C46.907 99.277 48.6674 96.2694 47.3617 94.5867Z" fill="#FF7449"/>
<path d="M52.58 95.4802C52.3928 95.9245 52.3059 96.4046 52.3255 96.8863C52.345 97.368 52.4705 97.8394 52.6931 98.267C52.6931 98.267 55.5238 97.2314 55.54 96.9706C55.5561 96.7097 52.58 95.4802 52.58 95.4802Z" fill="#FF7449"/>
<path d="M54.3734 74.0417C54.2964 74.0417 37.2739 69.8215 35.9151 69.546C35.8477 69.5305 35.7891 69.4892 35.7517 69.4311C35.7143 69.3729 35.701 69.3025 35.7148 69.2347C35.7285 69.1669 35.7681 69.1072 35.8252 69.0682C35.8823 69.0292 35.9524 69.014 36.0205 69.0259C37.0038 69.2252 47.9811 71.9258 54.4373 73.5178C54.4978 73.5359 54.55 73.5748 54.5846 73.6277C54.6192 73.6806 54.6339 73.744 54.6263 73.8067C54.6187 73.8694 54.5891 73.9274 54.5428 73.9704C54.4965 74.0134 54.4365 74.0387 54.3734 74.0417Z" fill="#501200"/>
<path d="M65.1077 72.8523C65.0777 72.8285 58.91 71.3412 58.4192 71.6213C58.3869 71.64 58.3589 71.6652 58.3368 71.6953C58.3147 71.7253 58.299 71.7596 58.2907 71.7959C56.9057 78.1752 56.6303 78.1005 56.9057 78.3252C56.9827 78.3898 63.3103 79.9602 63.6766 79.6063C63.9897 79.3047 65.2154 73.5025 65.2154 73.1155C65.2188 73.0663 65.2109 73.017 65.1922 72.9714C65.1735 72.9257 65.1446 72.885 65.1077 72.8523ZM63.3103 79.1616C62.4994 79.1085 58.3738 78.2213 57.3804 77.9405C57.502 77.4404 57.8352 76.06 58.7608 72.1168C59.701 72.1937 63.9851 73.0401 64.6853 73.2317C64.6068 74.088 63.5835 78.3421 63.3103 79.1616Z" fill="#501200"/>
<path d="M62.2868 82.7862C62.2484 82.7485 56.0546 81.0266 55.5983 81.2843C55.5653 81.3022 55.5366 81.3271 55.5142 81.3573C55.4919 81.3875 55.4765 81.4222 55.469 81.459C54.9004 83.8703 54.0364 87.5374 53.9902 87.6913C53.9617 87.7443 53.9522 87.8055 53.9632 87.8647C53.9743 87.9239 54.0053 87.9776 54.051 88.0167C54.1279 88.0937 60.334 89.881 60.838 89.5794C61.2227 89.314 62.3853 83.1863 62.393 83.1256C62.4012 83.0647 62.3959 83.0027 62.3776 82.9441C62.3592 82.8855 62.3283 82.8316 62.2868 82.7862ZM60.5118 89.1031C58.4965 88.7229 56.5021 88.2393 54.5365 87.6543C54.6658 87.1619 54.9982 85.7739 55.9392 81.7852C56.8871 81.8991 61.1566 82.9301 61.8636 83.1579C61.5173 85.1619 61.066 87.1464 60.5118 89.1031Z" fill="#501200"/>
<path d="M60.4155 77.431C60.0023 77.431 59.6461 76.2623 59.5045 75.2159C59.5 75.1479 59.5217 75.0808 59.5651 75.0283C59.6086 74.9758 59.6705 74.942 59.7381 74.9338C59.8058 74.9257 59.874 74.9437 59.9287 74.9843C59.9834 75.0249 60.0205 75.0849 60.0323 75.152C60.117 75.7083 60.2585 76.2546 60.4547 76.7816C60.8702 76.3515 61.9074 75.0989 62.8261 73.9402C62.8698 73.885 62.9337 73.8494 63.0037 73.8414C63.0737 73.8333 63.144 73.8533 63.1992 73.8971C63.2544 73.9409 63.29 74.0048 63.2981 74.0748C63.3061 74.1447 63.2861 74.2151 63.2423 74.2703C60.8125 77.3325 60.5678 77.431 60.4155 77.431Z" fill="#FF7449"/>
<path d="M57.5119 87.1473C57.0079 87.0326 56.6709 84.9583 56.6655 84.9375C56.6582 84.8683 56.6785 84.799 56.722 84.7446C56.7655 84.6903 56.8287 84.6554 56.8979 84.6474C56.967 84.6391 57.0365 84.6582 57.0917 84.7007C57.1468 84.7431 57.183 84.8055 57.1926 84.8744C57.2811 85.4561 57.4365 86.0255 57.6542 86.5717C58.5193 85.6824 59.2976 84.7127 59.9786 83.6757C60.0195 83.618 60.0814 83.5787 60.151 83.5664C60.2206 83.5552 60.2918 83.5717 60.3493 83.6124C60.4069 83.6532 60.4462 83.7148 60.4588 83.7842C60.4709 83.8539 60.4548 83.9255 60.4141 83.9834C60.0317 84.5328 58.1544 87.2927 57.5119 87.1473Z" fill="#FF7449"/>
<path d="M52.6215 108.08C50.8884 106.97 49.0946 105.957 47.2486 105.047C46.717 104.816 46.6677 104.844 46.4561 105.266L43.3923 110.438C43.3627 110.488 43.3484 110.546 43.3512 110.603C43.3539 110.661 43.3736 110.717 43.4077 110.764C43.5939 111.001 48.6705 114.033 49.186 114.033C49.7015 114.033 52.6199 108.66 52.6823 108.375C52.7003 108.273 52.6786 108.167 52.6215 108.08ZM49.1252 113.479C48.4428 113.221 44.8034 111.094 43.9617 110.521C44.4541 109.695 46.2215 106.692 46.9493 105.464C47.7757 105.797 51.4235 107.905 52.1283 108.368C51.2211 110.125 50.2185 111.831 49.1252 113.479Z" fill="#501200"/>
<path d="M69.9679 68.1127C69.5878 67.2009 50.1939 66.7354 34.3955 61.9096C33.8646 61.7504 33.5161 62.5313 31.2263 68.9013C29.5197 73.6486 27.1845 80.1471 25.0533 84.075C21.0723 91.3844 14.1868 102.336 12.3441 104.527C12.2502 104.652 12.2007 104.805 12.2035 104.962C12.2063 105.118 12.2612 105.27 12.3595 105.392C13.0796 106.627 16.8105 108.925 21.2539 111.344C21.277 113.005 21.3224 114.431 21.3531 115.227C19.6335 114.433 18.8087 114.15 17.5692 115.492C13.0898 120.981 8.89335 126.695 4.99615 132.611C2.16008 136.865 17.0567 147.799 25.7057 145.722C29.3074 144.823 33.4153 123.901 33.4476 123.686C33.6276 122.466 33.0506 121.923 32.0449 121.192C33.4295 120.563 34.7044 119.717 35.8212 118.685C36.4552 118.986 44.5749 122.847 45.2927 122.847C46.5669 122.613 54.7258 117.062 62.6508 96.3979C68.603 80.8904 70.2641 68.8482 69.9679 68.1127ZM31.9388 121.771C32.9098 122.483 33.0229 122.916 32.9244 123.618C32.5912 125.9 28.4733 144.486 25.5765 145.207C17.1267 147.296 3.03952 136.459 5.43548 132.896C12.0525 123.066 17.5761 116.281 17.9631 115.857C18.1809 115.507 18.5226 115.251 18.9203 115.142C19.318 115.032 19.7424 115.076 20.109 115.266C23.1451 116.272 31.8172 121.68 31.9388 121.771ZM31.5141 120.861C29.4512 119.564 24.5678 116.827 21.891 115.499C21.8279 112.806 21.6117 106.811 21.9679 103.071C22.1064 101.457 22.5919 99.8911 23.3936 98.483C23.7832 98.6501 24.206 98.7253 24.6293 98.7031C25.418 98.6877 30.7077 98.8624 34.9272 98.9986C33.3045 101.805 34.3116 102.51 34.5786 102.669C35.8528 103.412 38.4565 101.505 39.7576 99.9242C43.3684 95.5385 44.2971 94.916 44.6341 94.7067C44.9257 94.5267 46.193 93.6534 47.1663 94.8737C48.6997 96.7973 46.0537 99.8895 44.4518 101.744C43.5946 102.736 40.7686 105.498 40.0761 107.822C39.2059 110.774 39.1528 117.454 31.5141 120.861ZM23.0666 94.9722C23.1728 94.1151 24.0376 93.9635 25.1441 93.9558C25.1441 94.0327 25.1141 97.6775 25.1141 98.1799C24.9317 98.1722 24.6285 98.1722 24.6285 98.1722C23.3544 98.1799 23.1497 97.649 23.0966 97.0804C23.0363 96.3793 23.0263 95.6747 23.0666 94.9722ZM43.7839 94.6537C43.4585 94.9122 43.1468 95.1876 42.8506 95.48L25.6673 94.8814C25.675 94.5475 25.675 94.2366 25.675 93.9581C26.4613 93.9558 38.358 94.3213 43.7839 94.6537ZM27.1384 93.4226C28.8449 92.2623 33.0914 89.7071 35.1311 89.8363C36.2306 89.9041 38.7866 90.7158 44.7088 94.0597C44.6403 94.0905 44.5118 94.1659 44.5118 94.1659C38.5588 93.7888 31.4456 93.4249 27.1384 93.4249V93.4226ZM42.3505 95.994C41.9723 96.3931 41.6082 96.8052 41.2587 97.2297L25.6526 96.5626C25.6603 96.191 25.6603 95.7932 25.6673 95.4085L42.3505 95.994ZM40.834 97.7452C40.6139 98.0183 40.1361 98.6177 40.1138 98.6477C38.6519 98.5946 28.9742 98.263 25.6488 98.186C25.6488 97.9737 25.6488 97.579 25.6565 97.0942L40.834 97.7452ZM34.9649 100.058C35.1418 99.6995 35.3419 99.3525 35.5635 99.0193C37.3685 99.0801 38.9074 99.1409 39.696 99.1632C39.5752 99.3171 38.862 100.119 38.5965 100.361C37.3953 100.169 36.1813 100.069 34.9649 100.06V100.058ZM38.1118 100.801C36.8038 101.901 35.4465 102.494 34.851 102.204C34.3732 101.973 34.6202 101.029 34.7594 100.597C35.8789 100.602 36.9969 100.671 38.1087 100.804L38.1118 100.801ZM55.7799 97.1158C55.8058 97.0648 55.8181 97.0079 55.8155 96.9508C55.8129 96.8936 55.7956 96.8381 55.7653 96.7896C55.4575 96.3048 53.2623 95.4554 51.6627 94.9545C51.8751 94.4698 52.1098 93.9312 52.3752 93.3164C53.2623 93.5365 57.2225 95.0684 57.915 95.4023C57.2105 97.2977 56.3898 99.1478 55.4575 100.942C54.8889 100.775 52.5991 99.7818 51.1357 99.1224C52.5499 98.7108 55.5221 97.6798 55.7799 97.1181V97.1158ZM52.7845 95.8947C53.6239 96.1744 54.4341 96.5352 55.2036 96.9719C54.4596 97.3789 53.6801 97.719 52.8761 97.9883C52.6997 97.6707 52.5997 97.3164 52.5838 96.9535C52.5679 96.5905 52.6366 96.2289 52.7845 95.897V95.8947ZM52.2844 95.7131C52.1129 96.103 52.0301 96.5261 52.0419 96.9519C52.0538 97.3777 52.16 97.7955 52.3529 98.1753C51.5189 98.463 50.2824 98.7908 50.2216 98.797L49.0236 97.849C49.0236 97.849 50.1562 97.3258 50.1778 97.0527C50.1778 96.8111 49.2598 95.9917 49.2598 95.9917C49.6446 95.7331 50.4432 95.1345 50.4432 95.1345C50.5855 95.1769 52.0036 95.617 52.2844 95.7155V95.7131ZM48.5081 97.5405L47.9088 97.5174C48.0541 97.0926 48.1319 96.6476 48.1396 96.1986L48.7313 96.2133L49.4891 96.9719L48.5081 97.5405ZM48.739 95.6824L48.095 95.6601C48.0326 95.4047 47.9463 95.1559 47.8372 94.9168C48.4735 94.9622 49.096 94.9999 49.7023 95.0384C49.3953 95.2761 49.0721 95.4923 48.7351 95.6847L48.739 95.6824ZM48.4358 98.0714L49.4522 98.8678C48.7013 98.9208 47.7687 98.9585 47.2609 98.9739C47.4386 98.6754 47.5933 98.3638 47.7226 98.0414L48.4358 98.0714ZM43.3577 103.781C43.6777 103.397 44.6387 102.329 44.6541 102.31C45.4751 102.437 46.3099 102.448 47.134 102.341C46.6546 104.014 45.0519 104.199 43.3515 103.784L43.3577 103.781ZM44.4725 104.487C44.2994 105.6 43.363 106.452 41.4618 106.179C41.9265 105.499 42.4303 104.845 42.9706 104.223C43.4567 104.371 43.9589 104.461 44.4664 104.489L44.4725 104.487ZM45.0942 101.832C45.7562 101.1 46.3729 100.327 46.9408 99.5194C47.1301 99.5048 48.018 99.474 48.8821 99.4287C48.9633 99.7517 48.9585 100.09 48.8681 100.411C48.7776 100.732 48.6047 101.023 48.3666 101.256C47.7087 101.974 46.0483 101.926 45.0881 101.835L45.0942 101.832ZM62.1637 96.2056C53.5263 118.705 45.2758 122.307 45.2612 122.315C44.8665 122.254 41.1133 120.608 36.2221 118.288C40.467 113.962 39.7406 108.812 41.1733 106.663C43.0845 107.029 44.738 106.371 45.0104 104.494C45.6623 104.501 46.295 104.274 46.7933 103.853C47.2916 103.433 47.6224 102.848 47.7256 102.204C48.3103 102.037 48.8101 101.655 49.1243 101.135C49.4384 100.614 49.5435 99.9936 49.4183 99.3986C49.4953 99.3986 50.327 99.3217 50.404 99.3071C51.9428 100.05 55.0374 101.484 55.6137 101.484C56.1007 101.484 58.3797 95.7939 58.4605 95.4477C58.4846 95.389 58.4924 95.325 58.4831 95.2623C58.4737 95.1996 58.4476 95.1405 58.4074 95.0915C58.3697 95.053 52.6137 92.5739 52.1205 92.7786C51.9797 92.8409 52.0436 92.7494 51.1649 94.7952C49.9314 94.5253 48.6742 94.3781 47.4117 94.3559C47.1474 94.0873 46.8157 93.8949 46.4514 93.7987C46.0871 93.7026 45.7036 93.7064 45.3412 93.8096C40.2908 90.9358 36.8707 89.4193 35.1726 89.3055C34.0517 89.3485 32.9529 89.6302 31.9495 90.1318C31.3656 89.9956 28.8019 88.9446 27.8624 88.5245C27.8305 88.5099 27.796 88.502 27.7609 88.5012C27.7259 88.5004 27.691 88.5067 27.6585 88.5199C27.6261 88.5329 27.5966 88.5522 27.5716 88.5767C27.5467 88.6012 27.5269 88.6304 27.5133 88.6625C27.4997 88.6947 27.4926 88.7293 27.4925 88.7642C27.4923 88.7992 27.499 88.8338 27.5123 88.8661C27.5258 88.8985 27.5456 88.9278 27.5706 88.9523C27.5956 88.9769 27.6252 88.9963 27.6577 89.0092C27.7716 89.0623 30.0237 90.0256 31.2294 90.458C29.4761 91.296 27.8022 92.2908 26.2282 93.4303C24.7524 93.4303 22.7466 93.2564 22.5504 94.9014C22.5011 95.6416 22.5119 96.3848 22.5804 97.1235C22.5896 97.5013 22.7319 97.8644 22.9828 98.1476C22.1089 99.6333 21.5828 101.298 21.4439 103.016C21.247 105.116 21.2239 108.142 21.247 110.728C16.1057 107.915 13.1104 105.905 12.7688 105.01C12.7311 104.904 12.7534 104.881 12.7611 104.874C14.6192 102.659 21.5324 91.6637 25.5234 84.3235C29.205 77.5449 33.3237 63.6562 34.3424 62.4482C48.7843 66.8339 67.6958 67.8518 69.4755 68.3858C69.5209 69.673 67.8982 81.2466 62.1576 96.2079L62.1637 96.2056Z" fill="#501200"/>
<path d="M50.8727 84.1836C50.7957 84.1836 33.7724 79.9633 32.4136 79.6879C32.3463 79.6723 32.2877 79.6311 32.2502 79.5729C32.2128 79.5148 32.1996 79.4443 32.2133 79.3765C32.227 79.3088 32.2667 79.249 32.3238 79.21C32.3809 79.1711 32.4509 79.1559 32.5191 79.1678C33.5024 79.367 44.4796 82.0677 50.9358 83.6596C50.9972 83.6768 51.0504 83.7154 51.0859 83.7684C51.1213 83.8214 51.1366 83.8853 51.129 83.9487C51.1214 84.012 51.0913 84.0705 51.0443 84.1136C50.9973 84.1566 50.9364 84.1815 50.8727 84.1836Z" fill="#501200"/>
<path d="M125.864 103.628C115.044 112.624 102.524 125.633 100.704 126.63C100.704 126.63 75.7287 114.542 68.1646 85.543C82.4464 78.0666 96.1836 66.4415 98.8465 65.749C101.89 71.1825 105.307 76.3977 109.074 81.3566C109.175 81.4843 114.777 80.1694 114.777 80.1694C114.777 80.1694 116.778 75.743 122.948 75.4514C128.269 75.1998 129.495 77.5742 129.495 77.5742C129.495 77.5742 135.522 76.3677 136.262 76.6886C136.895 76.9617 137.213 80.1863 136.981 80.5357C136.525 81.2281 131.754 81.9706 131.754 81.9706C133.72 85.9989 134.659 90.4503 134.489 94.9291C134.489 94.9291 130.648 96.6934 125.171 101.752C124.993 101.917 125.864 103.628 125.864 103.628Z" fill="white"/>
<path d="M109.339 81.3413L114.156 80.311C114.156 80.311 111.079 81.4559 113.624 85.1514C112.538 85.4961 111.404 85.6677 110.265 85.66L111.38 84.2043L109.808 83.3433L110.955 82.2269L109.339 81.3413Z" fill="#FFB949"/>
<path d="M114.156 80.311L134.228 76.7671C134.228 76.7671 134.938 80.845 134.985 81.3305L118.614 84.3812C118.614 84.3812 116.192 80.4811 114.156 80.311Z" fill="#FFB949"/>
<path d="M106.709 82.7454C107.071 83.0549 107.311 83.4838 107.384 83.9546C107.458 84.4254 107.361 84.9069 107.11 85.3121C107.11 85.3121 104.122 84.9367 104.141 84.6535C104.16 84.3704 106.709 82.7454 106.709 82.7454Z" fill="#FFB949"/>
<path d="M83.3159 87.2928C92.4627 82.0062 92.4673 80.7258 92.8882 81.2652C92.9101 81.2926 92.9262 81.324 92.9357 81.3577C92.9453 81.3914 92.9479 81.4267 92.9436 81.4614C92.9395 81.4961 92.9285 81.5295 92.9113 81.5599C92.8941 81.5903 92.8711 81.617 92.8436 81.6384C89.9161 83.9095 86.8197 85.9541 83.5814 87.7545C83.5201 87.7897 83.4474 87.7991 83.3793 87.7807C83.3111 87.7623 83.253 87.7176 83.2178 87.6564C83.1826 87.5951 83.1732 87.5224 83.1916 87.4543C83.21 87.3861 83.2547 87.328 83.3159 87.2928Z" fill="#501200"/>
<path d="M76.7827 91.5906C76.7233 91.5912 76.6655 91.5717 76.6187 91.5352C76.5719 91.4987 76.5388 91.4474 76.5249 91.3898C76.5104 91.3324 76.5156 91.2718 76.5398 91.2178C76.5639 91.1637 76.6056 91.1194 76.658 91.092C76.678 91.0804 78.68 90.0148 81.3707 88.4606C81.4009 88.4429 81.4344 88.4315 81.4692 88.427C81.504 88.4225 81.5393 88.425 81.573 88.4344C81.624 88.4478 81.6697 88.4762 81.7044 88.5158C81.7391 88.5554 81.7611 88.6045 81.7677 88.6568C81.7719 88.6915 81.7696 88.7268 81.7608 88.7607C81.7514 88.7943 81.7357 88.8259 81.7146 88.8538C81.693 88.8813 81.6664 88.9045 81.6361 88.9222C81.4545 89.0246 76.9881 91.5906 76.7827 91.5906Z" fill="#501200"/>
<path d="M82.0778 100.723C82.0197 100.723 81.9633 100.704 81.9171 100.669C81.8709 100.633 81.8375 100.584 81.8221 100.528C81.8066 100.472 81.8099 100.413 81.8315 100.359C81.8531 100.305 81.8918 100.259 81.9416 100.23C82.0501 100.167 92.7642 93.7596 98.911 88.7315C98.9658 88.6907 99.0341 88.6726 99.1019 88.6809C99.1696 88.6892 99.2316 88.7233 99.2748 88.7761C99.3181 88.8289 99.3394 88.8963 99.3342 88.9644C99.3291 89.0324 99.298 89.0959 99.2473 89.1416C93.7713 93.3564 88.0369 97.2243 82.0778 100.723Z" fill="#501200"/>
<path d="M101.997 100.573C102.997 99.774 103.987 98.9877 104.907 98.0959C104.932 98.0715 104.961 98.0523 104.994 98.0395C105.026 98.0267 105.061 98.0205 105.096 98.0213C105.166 98.023 105.232 98.0517 105.282 98.1013C105.306 98.1262 105.325 98.1556 105.338 98.188C105.351 98.2204 105.357 98.255 105.356 98.2898C105.355 98.3599 105.326 98.4266 105.276 98.476C104.342 99.3724 103.337 100.179 102.329 100.988C102.302 101.01 102.27 101.026 102.237 101.036C102.203 101.046 102.168 101.049 102.134 101.045C102.099 101.041 102.065 101.03 102.035 101.013C102.004 100.997 101.977 100.974 101.956 100.947C101.934 100.919 101.918 100.888 101.908 100.855C101.898 100.821 101.895 100.786 101.899 100.751C101.903 100.717 101.914 100.683 101.93 100.653C101.947 100.622 101.97 100.595 101.997 100.573Z" fill="#501200"/>
<path d="M89.0995 110.262C89.0408 110.262 88.9837 110.242 88.9374 110.206C88.8912 110.17 88.8583 110.12 88.844 110.063C88.8287 110.006 88.8329 109.946 88.8559 109.892C88.8789 109.838 88.9195 109.793 88.971 109.765C92.9237 107.483 96.7019 104.911 100.274 102.071C100.302 102.049 100.333 102.033 100.366 102.023C100.4 102.013 100.435 102.01 100.47 102.014C100.504 102.018 100.538 102.029 100.568 102.046C100.599 102.062 100.626 102.085 100.648 102.112C100.669 102.14 100.686 102.171 100.695 102.204C100.705 102.238 100.708 102.273 100.704 102.308C100.7 102.342 100.69 102.376 100.673 102.406C100.656 102.437 100.633 102.464 100.606 102.486C95.7818 106.353 89.4003 110.262 89.0995 110.262Z" fill="#501200"/>
<path d="M97.3583 117.044C97.4399 116.981 105.603 110.734 111.063 104.684C111.099 104.647 111.145 104.621 111.195 104.61C111.245 104.599 111.297 104.602 111.345 104.619C111.393 104.637 111.435 104.668 111.466 104.709C111.497 104.75 111.516 104.799 111.519 104.85C111.524 104.919 111.502 104.987 111.457 105.039C105.963 111.128 97.7615 117.403 97.6799 117.466C97.6522 117.487 97.6205 117.503 97.5868 117.512C97.553 117.521 97.5178 117.523 97.4831 117.518C97.4485 117.514 97.4152 117.502 97.385 117.484C97.3549 117.467 97.3286 117.443 97.3075 117.415C97.2652 117.359 97.2468 117.289 97.2564 117.219C97.2659 117.149 97.3025 117.086 97.3583 117.044Z" fill="#501200"/>
<path d="M97.7545 78.009C97.6918 77.9777 97.6437 77.9231 97.6205 77.8569C97.5974 77.7906 97.601 77.7179 97.6307 77.6543C97.6537 77.6071 97.6901 77.5677 97.7354 77.541C97.7807 77.5143 97.8329 77.5015 97.8853 77.5043C97.9201 77.5064 97.9541 77.5152 97.9854 77.5305C98.3557 77.7109 98.7327 77.8772 99.1156 78.029C99.0687 77.4258 98.841 75.9885 98.7109 75.413C98.6997 75.3459 98.7145 75.2771 98.7525 75.2206C98.7904 75.1641 98.8485 75.1243 98.9149 75.1093C98.9813 75.0943 99.0509 75.1054 99.1094 75.1401C99.1679 75.1748 99.2109 75.2306 99.2295 75.2961C99.2364 75.3268 99.9158 78.3453 99.5065 78.5838C99.2711 78.72 98.7979 78.5115 97.7545 78.009Z" fill="#FFB949"/>
<path d="M99.6183 73.1025C99.5688 73.0546 99.5085 73.0192 99.4425 72.9994C99.3765 72.9796 99.3067 72.9759 99.239 72.9886C99.1859 73.0117 94.4771 75.5977 94.4771 76.3256C95.3995 78.0934 96.5214 79.7497 97.8209 81.2621C98.0071 81.3683 98.2256 81.2621 98.4365 81.156C98.9289 80.9136 102.941 78.4792 102.971 78.0391C103.001 77.6597 100.237 73.6095 99.6183 73.1025ZM98.041 80.7543C96.9318 79.3527 95.9256 77.8726 95.0303 76.3256C96.3813 75.2817 97.8142 74.3485 99.3151 73.5349C100.465 74.9208 101.495 76.4024 102.393 77.9637C101.011 78.9967 99.5567 79.9289 98.041 80.7528V80.7543Z" fill="#501200"/>
<path d="M111.213 89.5501C111.171 89.5019 111.12 89.4626 111.063 89.4347C111.006 89.4076 110.943 89.3926 110.879 89.3909C109.272 90.3807 107.791 91.5611 106.467 92.9063C106.252 93.1656 106.226 93.241 106.424 93.5565C107.428 95.0336 108.584 96.4026 109.871 97.6413C109.916 97.6721 109.969 97.6521 110.015 97.679C110.255 97.826 114.708 94.4113 114.708 93.9635C114.701 93.5696 111.57 89.8764 111.213 89.5501ZM110.053 97.1258C108.893 95.9164 107.824 94.6239 106.852 93.2587C108.105 92.0544 109.449 90.9482 110.872 89.9502C112.029 91.2184 113.115 92.5501 114.125 93.9389C112.845 95.0961 111.484 96.1611 110.053 97.1258Z" fill="#501200"/>
<path d="M116.953 96.4888C116.847 96.398 116.756 96.3073 116.605 96.3219C116.264 96.3565 111.956 99.5226 112.123 100.19C113.116 101.635 114.252 102.978 115.514 104.196C115.771 104.408 115.858 104.402 116.155 104.239C117.232 103.651 120.442 101.104 120.434 100.713C120.426 100.322 117.282 96.7851 116.953 96.4888ZM115.854 103.798C114.703 102.647 113.641 101.409 112.677 100.097C113.905 98.9334 115.215 97.8591 116.597 96.8828C117.751 98.0913 118.834 99.3647 119.842 100.697C118.588 101.825 117.256 102.861 115.854 103.799V103.798Z" fill="#501200"/>
<path d="M150.804 107.682C150.395 105.286 138.656 94.7607 137.686 94.0098C137.018 93.4866 136.548 93.6312 135.418 94.1013C135.206 94.1921 134.978 94.2906 134.751 94.3968C134.584 88.2415 133.557 85.12 132.089 82.1577C133.53 81.8923 135.206 81.536 135.206 81.536C137.917 80.9082 137.527 80.5065 136.95 77.502C136.685 76.1363 135.751 76.2955 134.758 76.4779C134.561 76.5079 131.795 76.9211 129.763 77.2627C128.211 74.9052 119.18 73.0601 114.428 79.9964C114.25 79.9964 109.49 80.989 109.18 81.1259C105.522 76.2478 102.205 71.122 99.255 65.7853C98.2639 63.9264 87.783 74.6259 68.2175 85.1684C68.1547 85.2137 68.1049 85.2746 68.0729 85.345C68.0409 85.4155 68.0279 85.493 68.0352 85.5701C68.0128 87.8783 74.8906 112.269 100.491 126.883C101.739 127.506 116.581 111.22 125.591 104.217C127.9 109.305 135.404 121.006 136.556 120.93C143.85 120.422 151.304 110.616 150.804 107.682ZM118.727 84.0989C118.538 83.8181 118.333 83.5303 118.129 83.2418L134.569 80.2465C134.63 80.6027 134.675 80.9066 134.713 81.1036C132.923 81.5222 118.804 84.0212 118.727 84.0982V84.0989ZM119.941 85.7447C119.636 85.3599 119.34 84.9679 119.054 84.5691C119.63 84.4552 121.465 84.129 123.687 83.7227C124.079 84.1228 124.373 84.6083 124.544 85.1407C122.891 85.2738 120.184 85.7055 119.941 85.744V85.7447ZM124.68 85.6609C124.68 85.6609 125.087 86.9612 124.082 87.4051C122.987 87.8883 121.708 87.559 120.381 86.2148C121.238 86.0848 123.368 85.7586 124.68 85.6601V85.6609ZM134.857 77.0011C135.949 76.8041 136.268 76.781 136.434 77.6005C136.65 78.4111 136.782 79.2418 136.829 80.0795C136.836 80.5727 136.26 80.7474 135.228 80.9897C135.1 80.2011 134.736 77.9644 134.546 77.0542C134.652 77.0303 134.758 77.0157 134.857 77.0003V77.0011ZM134.296 78.6169C134.356 78.9808 134.425 79.3601 134.486 79.7241L117.779 82.7648C117.477 82.347 117.148 81.9494 116.794 81.5745L134.296 78.6169ZM129.131 77.3673C124.922 78.0721 119.058 79.1231 115.236 79.8356C118.461 75.0299 126.421 74.7575 129.131 77.3673ZM134.012 77.1288C134.065 77.3635 134.126 77.7051 134.202 78.0913L116.313 81.1098C115.978 80.798 115.586 80.5535 115.159 80.3896C119.091 79.6471 132.764 77.3035 134.015 77.1296L134.012 77.1288ZM113.181 80.7681C112.846 81.0157 112.599 81.3637 112.476 81.7615C112.476 81.7615 111.096 81.9969 111.081 82.0046L109.981 81.4129C110.606 81.2775 111.736 81.0498 113.184 80.7689L113.181 80.7681ZM113.681 89.6934C113.277 89.3516 113.023 88.8638 112.977 88.3361C113.79 88.5529 114.646 88.5479 115.457 88.3215C115.886 88.8474 116.259 89.4165 116.571 90.0196C116.097 90.1888 115.59 90.2474 115.09 90.191C114.59 90.1346 114.109 89.9647 113.685 89.6941L113.681 89.6934ZM116.821 90.4974C117.011 90.8613 117.185 91.233 117.345 91.6046C116.588 91.8377 115.77 91.7699 115.062 91.4153C114.748 91.2215 114.502 90.9352 114.357 90.5959C115.176 90.7584 116.021 90.7249 116.825 90.4982L116.821 90.4974ZM112.461 87.4644C111.903 87.0081 112.196 86.1371 112.271 85.7501C112.438 85.7201 113.371 85.5454 113.515 85.5193C113.985 86.3002 114.554 87.0889 115.115 87.8545C114.672 87.991 114.204 88.027 113.746 87.9596C113.287 87.8922 112.849 87.7233 112.464 87.4651L112.461 87.4644ZM110.755 85.4247L111.524 84.4006C111.547 84.4159 112.821 84.2036 112.821 84.2036C112.941 84.486 113.075 84.7614 113.223 85.0299C112.432 85.3114 111.597 85.4455 110.758 85.4254L110.755 85.4247ZM110.261 83.3165L111.149 82.5047L112.385 82.3154C112.375 82.7863 112.455 83.2548 112.62 83.6958L111.498 83.9151L110.261 83.3165ZM109.284 81.6407L110.565 82.3231L109.61 83.1872C109.578 83.2165 109.553 83.2532 109.539 83.2942C109.525 83.3351 109.521 83.379 109.527 83.4219C109.534 83.4647 109.552 83.5051 109.578 83.5395C109.604 83.574 109.639 83.6015 109.678 83.6196C109.678 83.6196 110.929 84.2644 110.952 84.2867L110.072 85.447C109.083 85.4154 107.636 85.1669 107.494 85.1669C107.609 84.9345 107.679 84.6822 107.699 84.4236C107.734 83.8245 107.554 83.2324 107.191 82.7548C107.881 82.3673 108.579 81.9961 109.287 81.6414L109.284 81.6407ZM108.025 85.9025C106.688 86.9818 105.294 87.9866 103.847 88.9124C102.773 87.5617 101.795 86.1376 100.919 84.6506C102.196 83.5682 103.549 82.58 104.969 81.6938C105.334 82.0523 105.664 82.4462 105.954 82.8686C105.947 82.8763 103.821 84.2036 103.861 84.6283C103.864 84.6757 103.877 84.7221 103.899 84.764C103.921 84.8059 103.953 84.8423 103.991 84.8707C105.289 85.2461 106.607 85.5424 107.942 85.7578C107.982 85.8194 108.005 85.8648 108.028 85.9032L108.025 85.9025ZM106.721 83.0279C106.959 83.3074 107.108 83.6523 107.147 84.0176C107.186 84.3829 107.114 84.7516 106.941 85.0753C106.109 84.9522 105.286 84.7753 104.479 84.5444C104.745 84.2875 106.716 83.0364 106.724 83.0287L106.721 83.0279ZM125.057 102.879C125.133 103.122 125.238 103.402 125.364 103.714C114.912 112.331 101.322 126.602 100.689 126.379C75.7024 112.085 68.4837 87.4551 68.5591 85.5824C76.9122 80.9745 84.9436 75.8061 92.598 70.1125C95.6841 67.8904 98.3455 65.9723 98.7856 66.0408C101.734 71.3683 105.045 76.4869 108.695 81.3606C108.066 81.6684 107.216 82.13 106.405 82.604C106.07 82.1232 105.694 81.6717 105.283 81.2544C105.207 81.1904 105.115 81.1484 105.017 81.1329C104.704 81.0436 100.369 84.1059 100.369 84.5837C100.215 84.8145 103.349 89.4787 103.797 89.4895C104.206 89.5002 108.059 86.6011 108.407 86.2672C108.548 86.1317 108.638 86.0148 108.561 85.8347C109.618 86.0071 110.695 86.0094 111.753 85.8424C111.162 87.5498 112.322 88.0299 112.436 88.0907C112.422 88.5492 112.534 89.0027 112.76 89.4018C112.986 89.801 113.317 90.1304 113.718 90.3543C114.527 92.8418 117.122 92.2117 117.569 92.0986C118.193 93.7249 118.978 95.2846 119.913 96.7543C121.439 98.6111 123.601 99.8331 125.979 100.182C124.52 101.515 124.723 101.798 125.06 102.881L125.057 102.879ZM126.475 99.7396C122.557 99.0979 120.983 97.2198 120.325 96.4258C118.794 94.583 118.111 91.0598 116.177 88.4108C115.098 87.0702 114.153 85.627 113.356 84.102C113.279 83.9343 112.323 82 113.636 81.0836C115.46 79.8118 117.602 83.4373 118.868 85.2315C120.68 87.7706 122.715 88.667 124.35 87.8552C126.158 86.9566 124.9 84.2005 124.297 83.6011L131.54 82.2593C133.002 85.1584 134.087 88.3615 134.223 94.6422C131.462 96.0517 128.864 97.762 126.478 99.7419L126.475 99.7396Z" fill="#501200"/>
<path d="M25.0286 47.9403C25.0286 47.9403 26.7551 50.3801 29.5889 50.2154C32.4226 50.0508 34.6101 48.8089 35.6103 49.109C36.3136 49.7251 37.2286 50.0442 38.1625 49.9992C39.6936 49.9046 41.0093 49.3606 39.9552 47.2855C40.2785 46.9928 40.5219 46.6225 40.6621 46.2096C40.8024 45.7966 40.8351 45.3547 40.757 44.9257C40.757 44.9257 41.7918 44.0616 41.0701 42.222C41.0701 42.222 42.5143 40.0437 39.7352 38.558C38.1471 37.7117 34.734 38.1487 34.734 38.1487C34.734 38.1487 37.7262 31.2855 34.7024 30.7107C32.1387 30.2229 33.2321 36.7653 30.8653 38.0202C30.3421 38.2979 27.2653 38.8565 25.6049 39.8752L25.0286 47.9403Z" fill="white"/>
<path d="M41.374 42.1742C41.5492 41.8902 41.6667 41.5745 41.7198 41.2451C41.7728 40.9157 41.7605 40.579 41.6834 40.2544C41.6063 39.9298 41.4659 39.6235 41.2704 39.3531C41.0749 39.0828 40.828 38.8536 40.5438 38.6787C39.0119 37.5823 36.3189 37.8024 35.0994 37.8839C36.7652 33.9853 36.9045 30.6637 34.6978 30.396C33.5437 30.2552 32.6973 31.4493 32.4742 33.529C32.2841 35.3033 31.4739 37.8531 30.4414 38.0255C28.8795 38.274 27.3637 38.7564 25.9449 39.4566C26.0172 38.561 25.9541 38.5187 25.7503 38.4625C19.8735 36.8591 10.0096 37.0499 9.90953 37.0553C9.86792 37.0561 9.82709 37.0667 9.79034 37.0862C9.75359 37.1057 9.72193 37.1336 9.69794 37.1676C6.30328 42.0149 6.83417 46.139 7.8775 48.7473C8.83542 51.1417 10.4166 52.6621 10.9629 52.7721C12.4494 53.0691 24.3822 50.7301 25.177 50.0122C25.384 49.8268 25.254 49.826 25.2478 48.4926C25.7913 49.1552 26.4811 49.6826 27.2629 50.0335C28.0447 50.3844 28.8973 50.5491 29.7535 50.5146C32.6396 50.4123 33.7052 49.1889 35.5957 49.4375C37.6439 50.8224 40.0683 50.0661 40.4115 49.3297C40.5295 48.9929 40.5743 48.6347 40.543 48.2791C40.5117 47.9236 40.4049 47.5788 40.2299 47.2677C40.4576 47.1238 40.6561 46.9369 40.8139 46.7183C40.9828 46.4488 41.0943 46.1474 41.1416 45.8329C41.1889 45.5184 41.1708 45.1975 41.0886 44.8902C41.3569 44.4963 41.5234 44.0421 41.5732 43.5681C41.623 43.0942 41.5546 42.6152 41.374 42.1742ZM39.9498 49.0704C39.3281 50.1546 35.7049 49.6921 35.5457 48.4688C35.5049 48.1541 35.8173 47.8802 36.4036 47.7155C37.5206 47.9609 38.6833 47.8971 39.7667 47.5308C39.9099 47.7576 40.0007 48.0136 40.0324 48.2799C40.0641 48.5463 40.0359 48.8164 39.9498 49.0704ZM40.3722 46.4267C39.7667 47.5309 35.8511 47.8202 35.411 46.3913C35.301 46.0328 35.5288 45.6158 36.052 45.2272C37.5055 45.8526 39.1479 45.8756 40.6184 45.2911C40.652 45.6858 40.5662 46.0814 40.3722 46.4267ZM38.8065 45.2126C36.916 45.2195 35.765 44.7179 35.6419 44.1447C35.5928 43.9007 35.6235 43.6474 35.7293 43.4221C35.8351 43.1969 36.0106 43.0116 36.2297 42.8936C39.3735 43.7938 40.4884 43.0998 40.9577 42.6243C41.3702 44.1785 40.7246 45.1864 38.8065 45.2126ZM41.0778 41.6394C40.8585 42.0467 40.5213 42.3781 40.1103 42.5904C39.6994 42.8026 39.2339 42.8858 38.7749 42.829C37.163 42.7228 35.1748 42.3635 35.6088 40.9824C35.8519 40.2091 37.8562 40.3199 38.5325 40.4014C38.6007 40.4082 38.6689 40.3885 38.7228 40.3463C38.7768 40.3042 38.8124 40.2428 38.8224 40.1751C38.8323 40.1073 38.8157 40.0383 38.776 39.9825C38.7364 39.9266 38.6767 39.8882 38.6095 39.8752C38.2963 39.8328 35.5903 39.5051 35.1063 40.8154C34.9876 41.1437 34.9889 41.5034 35.1102 41.8307C35.2315 42.1581 35.4648 42.4319 35.7688 42.6035C34.4362 43.92 35.3741 44.7494 35.5757 44.9233C34.0115 46.2806 35.3179 47.2015 35.7226 47.4185C35.5785 47.4662 35.4466 47.5451 35.3364 47.6496C35.2263 47.7541 35.1405 47.8816 35.0852 48.0231C35.03 48.1645 35.0066 48.3164 35.0168 48.4679C35.0269 48.6194 35.0704 48.7668 35.144 48.8996C34.3194 48.9213 33.505 49.088 32.7381 49.3921C31.7171 49.7406 27.6746 51.2494 25.2563 47.6301C25.5987 42.0295 25.7033 40.8339 25.8864 40.0898C27.3364 39.3179 28.9063 38.7961 30.5299 38.5464C32.1456 38.2771 32.8735 34.7855 33.0028 33.5829C33.0735 32.9273 33.3982 30.7491 34.6455 30.9223C36.2766 31.1485 36.2982 33.8891 34.4377 38.0724C34.4192 38.1148 34.4119 38.1613 34.4167 38.2073C34.4215 38.2533 34.4382 38.2973 34.4651 38.3349C34.4921 38.3725 34.5283 38.4025 34.5703 38.4219C34.6123 38.4413 34.6586 38.4495 34.7047 38.4456C41.5279 37.5515 41.4409 40.7931 41.0778 41.6394Z" fill="#501200"/>
<path d="M27.65 44.2132C28.4024 44.0514 29.0994 43.6958 29.6719 43.1816C30.2444 42.6674 30.6726 42.0124 30.9139 41.2817C30.923 41.2471 30.939 41.2147 30.9609 41.1864C30.9828 41.1582 31.0102 41.1346 31.0414 41.1171C31.0726 41.0997 31.107 41.0887 31.1426 41.0848C31.1781 41.0809 31.2141 41.0843 31.2483 41.0946C31.2826 41.105 31.3144 41.1221 31.3418 41.145C31.3693 41.1679 31.3919 41.1961 31.4082 41.228C31.4245 41.2598 31.4343 41.2946 31.4369 41.3302C31.4394 41.3659 31.4348 41.4017 31.4232 41.4356C31.1597 42.2647 30.6795 43.0085 30.0325 43.5901C29.3854 44.1717 28.5948 44.5701 27.7424 44.7441C27.672 44.7563 27.5996 44.7401 27.5411 44.699C27.4827 44.6578 27.443 44.5952 27.4307 44.5248C27.4185 44.4544 27.4347 44.382 27.4758 44.3236C27.517 44.2651 27.5796 44.2254 27.65 44.2132Z" fill="#501200"/>
<path d="M121.543 54.9641L122.948 50.7292L125.108 54.8595L129.446 55.4727L126.282 57.8579L127.373 61.9466L123.472 59.7237L119.321 62.5336L120.768 57.8787L117.156 55.5881L121.543 54.9641Z" fill="#FFB949"/>
<path d="M119.275 62.833C119.232 62.8339 119.188 62.8244 119.149 62.8053C119.11 62.7861 119.076 62.7579 119.05 62.7229C118.801 62.4028 120.05 59.0097 120.429 58.0133C119.435 57.4555 117.563 56.2175 117.54 56.2006C117.102 55.8636 116.975 55.692 117.016 55.4943C117.076 55.1903 117.268 55.0742 120.627 54.8433C120.935 54.8226 121.243 54.801 121.418 54.7856C121.661 53.8539 122.572 50.4931 122.803 50.3369C122.839 50.31 122.881 50.2932 122.925 50.2882C122.969 50.2832 123.014 50.2902 123.055 50.3084C123.35 50.4777 125.252 54.5887 125.316 54.7187C125.524 54.7449 129.497 55.2011 129.586 55.2688C129.631 55.3032 129.665 55.3508 129.681 55.405C129.698 55.4592 129.698 55.5173 129.68 55.5712C128.699 56.4261 127.662 57.2139 126.575 57.9295C126.97 58.9674 127.669 62.0228 127.669 62.0551C127.669 62.1259 127.641 62.1938 127.591 62.2439C127.541 62.2939 127.473 62.3221 127.402 62.3221C127.311 62.3221 123.761 60.1739 123.508 59.9946C122.175 61.0515 120.759 62.0006 119.275 62.833ZM120.983 58.0287C120.829 58.3757 119.886 61.0648 119.598 62.1251C120.566 61.5457 123.325 59.4937 123.335 59.4837C123.389 59.4343 123.46 59.4081 123.533 59.4108C123.606 59.4136 123.675 59.445 123.726 59.4983C124.013 59.7091 126.052 60.9687 127.012 61.5357C126.122 57.9625 125.837 57.8248 126.113 57.6194C126.196 57.5578 127.786 56.4453 128.818 55.6551C128.187 55.5781 125.118 55.2788 124.954 55.1488C124.834 55.0542 123.399 51.9588 123.001 51.1771C122.66 52.2412 121.924 54.9957 121.784 55.178C121.197 55.4189 119.498 55.3665 117.706 55.6597C118.354 56.2021 120.826 57.6348 120.838 57.6417C120.905 57.6779 120.956 57.737 120.983 57.8081C121.01 57.8792 121.01 57.9575 120.983 58.0287Z" fill="#501200"/>
<path d="M56.0423 132.938L57.9451 130.063L59.2192 133.13L62.1438 134.152L59.6747 135.771L60.6188 139.068L57.3634 137.281L53.9041 138.704L55.209 135.52L52.8977 133.381L56.0423 132.938Z" fill="#FFB949"/>
<path d="M60.7481 139.498C60.5434 139.498 59.9925 139.175 57.3626 137.627C56.1231 138.124 53.9249 139.049 53.8564 139.037C53.796 139.024 53.7416 138.992 53.7024 138.944C53.6632 138.896 53.6415 138.837 53.641 138.775C53.641 138.725 54.4343 136.779 54.9144 135.576C52.6223 133.548 52.623 133.491 52.623 133.344C52.623 133.047 52.623 133.02 55.97 132.687C57.6766 129.805 57.7612 129.805 57.9451 129.805C58.1598 129.805 58.2421 129.805 59.4839 132.96C62.4616 133.874 62.45 133.955 62.4146 134.214C62.3939 134.36 62.3792 134.457 59.971 135.863C60.3057 136.965 60.6376 138.068 60.9666 139.171C60.9775 139.243 60.9611 139.316 60.9207 139.377C60.8803 139.437 60.8187 139.48 60.7481 139.498ZM57.3873 137.068C57.435 137.068 57.4811 137.08 57.5219 137.104C58.3583 137.597 59.584 138.312 60.278 138.704L59.4062 135.815C59.3 135.464 59.6717 135.507 61.6468 134.228C59.4555 133.415 59.14 133.53 59.0415 133.272C58.6276 132.222 58.1582 131.082 57.912 130.548C56.3955 132.829 56.4501 133.171 56.1585 133.202C55.2706 133.291 54.0619 133.421 53.4225 133.51C55.3606 135.33 55.5961 135.304 55.4783 135.599C55.1303 136.487 54.7736 137.372 54.4081 138.253C54.5527 138.192 57.2711 137.068 57.3873 137.068Z" fill="#501200"/>
<path d="M64.896 133.255L68.1198 132.815L69.4779 129.806L70.9028 132.768L74.0636 133.334L71.7838 135.19L73.1157 138.79L69.7233 137.061L66.2009 138.79L67.3804 135.426L64.896 133.255Z" fill="#FFB949"/>
<path d="M73.1942 139.068C72.9803 139.068 72.3848 138.751 69.7172 137.326C68.4515 137.942 66.2202 139.067 66.1525 139.06C66.0941 139.053 66.0398 139.026 65.9981 138.984C65.9564 138.942 65.9296 138.888 65.9217 138.83C65.9148 138.775 66.6534 136.772 67.1066 135.51C64.6137 133.49 64.6068 133.433 64.5906 133.302C64.5824 133.229 64.6034 133.156 64.6491 133.099C64.7322 132.995 64.7891 132.926 67.9576 132.609C69.1517 129.52 69.2386 129.511 69.4264 129.49C69.6572 129.468 69.7342 129.447 71.0629 132.547C74.3768 133.008 74.3753 133.085 74.3714 133.361C74.3668 133.509 74.3637 133.607 72.124 135.285C72.3963 136.017 73.3796 138.662 73.402 138.719C73.4173 138.755 73.4239 138.795 73.4212 138.834C73.4185 138.874 73.4066 138.912 73.3864 138.946C73.3661 138.98 73.3382 139.009 73.3049 139.03C73.2715 139.051 73.2336 139.064 73.1942 139.068ZM69.7226 136.766C69.7665 136.766 69.8096 136.777 69.848 136.797C70.7044 137.255 71.9524 137.916 72.671 138.285L71.5531 135.284C71.4353 134.966 71.73 135 73.5797 133.484C72.9957 133.371 71.8731 133.197 70.8413 133.054C70.5336 133.012 70.649 132.703 69.4687 130.298C68.3738 132.774 68.4931 133.09 68.1722 133.124C67.282 133.211 66.0756 133.343 65.4193 133.431C67.5783 135.273 67.7744 135.224 67.669 135.514C67.3475 136.422 67.0187 137.327 66.6827 138.229C66.8419 138.141 69.5964 136.766 69.7226 136.766Z" fill="#501200"/>
<path d="M80.1358 132.784L81.3599 129.701L82.7126 132.485L86.2819 132.784L83.829 135.206L84.6784 138.791L81.5338 136.825L78.1838 138.712L79.174 135.253L76.7527 133.114L80.1358 132.784Z" fill="#FFB949"/>
<path d="M84.8241 139.213C84.624 139.213 84.0962 138.854 81.5202 137.097C80.3091 137.799 78.2079 139.069 78.1348 139.061C78.0734 139.057 78.0154 139.032 77.9709 138.99C77.9257 138.948 77.8968 138.892 77.8893 138.83C77.8839 138.784 78.4887 136.64 78.8588 135.291C76.4736 133.294 76.2789 133.161 76.5059 132.892C76.5921 132.79 76.6506 132.722 79.9421 132.532C81.0432 129.387 81.1263 129.377 81.3271 129.355C81.551 129.33 81.6348 129.316 82.9259 132.257C86.6414 132.449 86.6391 132.516 86.6299 132.827C86.6299 132.958 86.6237 133.058 84.1362 135.313C84.4313 136.501 84.7306 137.688 85.0341 138.874C85.0444 138.91 85.0471 138.947 85.042 138.985C85.037 139.022 85.0243 139.058 85.0049 139.09C84.9853 139.122 84.959 139.15 84.9278 139.171C84.8966 139.192 84.8612 139.206 84.8241 139.213ZM84.3532 138.366L83.5784 135.282C83.5014 134.979 83.7892 135.005 85.8451 132.985C85.1995 132.918 83.9146 132.831 82.732 132.773C82.415 132.757 82.5289 132.465 81.3779 130.166C80.3476 132.705 80.4884 133.028 80.1468 133.046C79.0873 133.106 77.9255 133.184 77.2823 133.244C79.3597 135.069 79.4882 134.993 79.4143 135.261C79.151 136.24 78.8792 137.216 78.5987 138.19C79.1019 137.882 79.956 137.386 81.3971 136.551C81.6256 136.424 81.5879 136.535 84.3509 138.37L84.3532 138.366Z" fill="#501200"/>
<path d="M123.159 132.584C123.072 132.952 122.948 134.765 126.621 134.723C130.293 134.682 131.545 134.493 131.884 131.075C132.222 127.657 131.411 124.643 129.556 123.967C128.089 123.428 123.016 122.646 122.994 124.911C122.991 124.911 124.417 127.175 123.159 132.584Z" fill="#FF7449"/>
<path d="M115.878 139.263C115.395 139.22 112.921 138.744 115.704 133.602C115.704 133.602 111.55 134.435 111.332 133.067C111.114 131.699 113.605 131.463 113.605 131.463C113.605 131.463 111.097 131.4 111.034 130.362C110.971 129.324 113.125 128.977 113.125 128.977C113.125 128.977 111.066 128.773 111.159 127.704C111.253 126.635 113.345 126.165 113.345 126.165C113.345 126.165 111.632 125.787 112.009 124.718C112.386 123.648 115.374 123.083 117.78 123.271C120.185 123.46 122.473 123.943 122.99 124.913C123.865 126.558 123.783 131.25 122.803 133.074C122.803 133.074 118.479 134.633 118.094 135.018C117.119 135.991 117.298 139.388 115.878 139.263Z" fill="white"/>
<path d="M130.881 124.479C129.336 122.793 124.935 122.985 123.759 123.43C123.56 123.521 123.383 123.653 123.239 123.817C123.094 123.981 122.987 124.174 122.922 124.382C121.276 122.569 112.343 122.394 111.804 124.67C111.716 124.957 111.741 125.267 111.874 125.536C112.007 125.805 112.239 126.013 112.52 126.117C111.728 126.36 110.892 126.804 110.905 127.608C110.918 127.939 111.044 128.257 111.263 128.506C111.482 128.756 111.779 128.923 112.106 128.98C111.45 129.195 110.805 129.579 110.805 130.27C110.805 131.284 111.863 131.473 112.337 131.578C111.902 131.755 110.975 132.29 111.069 133.064C111.263 134.663 114.357 134.125 115.3 133.925C114.771 134.897 114.394 135.944 114.183 137.031C114.073 137.883 114.31 139.801 116.292 139.493C117.545 139.299 117.384 135.67 118.432 135.08C119.48 134.489 122.975 133.281 122.985 133.271C123.012 133.477 123.08 133.675 123.185 133.855C123.29 134.035 123.43 134.192 123.596 134.316C125.443 135.449 129.658 134.903 130.189 134.723C132.871 133.808 132.637 126.397 130.881 124.479ZM118.161 134.621C116.93 135.421 116.918 138.801 116.174 138.974C115.998 139.016 115.815 139.015 115.64 138.969C115.466 138.924 115.305 138.835 115.173 138.712C114.789 138.363 113.887 137.197 116.04 133.66C116.063 133.619 116.075 133.574 116.075 133.527C116.075 133.481 116.063 133.435 116.039 133.395C116.016 133.354 115.983 133.32 115.942 133.297C115.902 133.274 115.856 133.262 115.809 133.262C115.786 133.262 111.678 134.255 111.583 132.968C111.527 132.207 113.321 131.795 113.784 131.718C113.847 131.704 113.904 131.668 113.942 131.616C113.981 131.564 113.999 131.499 113.994 131.435C113.989 131.37 113.96 131.31 113.913 131.265C113.866 131.22 113.805 131.193 113.74 131.19C113.733 131.192 113.726 131.192 113.718 131.19C113.224 131.19 111.327 131.179 111.327 130.289C111.327 129.52 113.051 129.27 113.644 129.243C113.712 129.238 113.775 129.208 113.821 129.158C113.867 129.108 113.892 129.042 113.892 128.974C113.89 128.906 113.863 128.842 113.816 128.793C113.769 128.744 113.705 128.716 113.637 128.713C113.228 128.705 111.423 128.636 111.427 127.625C111.427 126.751 114.104 126.362 114.104 126.362C114.171 126.355 114.232 126.322 114.276 126.272C114.321 126.221 114.344 126.155 114.342 126.088C114.339 126.021 114.311 125.957 114.263 125.91C114.216 125.862 114.151 125.834 114.084 125.833C114.074 125.833 112.799 125.827 112.444 125.423C112.303 125.263 111.8 124.365 113.759 123.897C116.408 123.264 121.466 123.53 122.538 124.749C123.967 126.377 123.07 132.439 122.609 132.905C122.367 133.111 118.86 134.168 118.161 134.621ZM130.01 134.223C129.134 134.543 125.35 134.856 123.897 133.874C123.421 133.553 123.382 132.517 123.447 132.15C123.947 129.34 123.925 126.261 123.306 124.975C123.355 124.694 123.537 124.081 123.949 123.926C124.973 123.541 129.147 123.368 130.493 124.838C132.054 126.549 132.239 133.403 130.007 134.227L130.01 134.223Z" fill="#501200"/>
<path d="M129.464 44.0777C129.407 44.0772 129.353 44.0588 129.307 44.0252C129.262 43.9916 129.228 43.9445 129.211 43.8907C129.195 43.8366 129.197 43.7789 129.215 43.7256C129.234 43.6723 129.268 43.6262 129.314 43.5937C130.239 42.9358 131.09 42.1805 131.854 41.3408C131.901 41.2909 131.966 41.2614 132.035 41.2585C132.105 41.2557 132.172 41.2796 132.224 41.3255C132.275 41.3716 132.307 41.436 132.311 41.505C132.316 41.5739 132.294 41.642 132.249 41.6948C131.472 42.6511 130.529 43.4585 129.464 44.0777Z" fill="#501200"/>
<path d="M130.047 46.8698C129.982 46.869 129.919 46.844 129.871 46.7997C129.823 46.7554 129.793 46.6948 129.787 46.6298C129.781 46.5648 129.799 46.4999 129.837 46.4471C129.875 46.3944 129.932 46.3576 129.996 46.3436C131.134 46.0935 132.235 45.6911 133.266 45.1479C133.327 45.1197 133.396 45.1156 133.46 45.1363C133.523 45.157 133.577 45.201 133.609 45.2595C133.642 45.318 133.651 45.3866 133.635 45.4516C133.619 45.5165 133.579 45.573 133.523 45.6095C132.456 46.2483 131.276 46.6762 130.047 46.8698Z" fill="#501200"/>
<path d="M114.452 44.8408C113.435 43.9031 112.47 42.9104 111.562 41.867C111.539 41.8404 111.522 41.8095 111.512 41.7763C111.501 41.7431 111.498 41.7081 111.501 41.6734C111.504 41.6387 111.514 41.605 111.53 41.5742C111.546 41.5434 111.569 41.5161 111.595 41.4939C111.65 41.449 111.719 41.4274 111.789 41.4337C111.859 41.44 111.924 41.4739 111.969 41.5277C112.866 42.5516 113.816 43.5275 114.815 44.4515C115.061 44.6846 114.704 45.0778 114.452 44.8408Z" fill="#501200"/>
<path d="M113.055 47.5637C111.646 47.3664 110.307 46.825 109.157 45.9872C109.117 45.9523 109.089 45.9064 109.076 45.8554C109.063 45.8044 109.065 45.7506 109.083 45.701C109.095 45.6682 109.113 45.6381 109.137 45.6125C109.184 45.5607 109.25 45.5293 109.319 45.5251C109.389 45.521 109.458 45.5443 109.51 45.5902C110.136 46.1542 111.215 46.5904 113.115 47.0367C113.15 47.0406 113.183 47.0513 113.214 47.0682C113.244 47.0851 113.271 47.1078 113.293 47.1351C113.314 47.1623 113.331 47.1936 113.34 47.2271C113.35 47.2606 113.353 47.2956 113.349 47.3302C113.345 47.3648 113.334 47.3983 113.317 47.4288C113.3 47.4592 113.278 47.4861 113.25 47.5078C113.223 47.5295 113.192 47.5456 113.158 47.5552C113.125 47.5648 113.09 47.5677 113.055 47.5637Z" fill="#501200"/>
<path d="M112.879 68.5112C113.779 67.7574 114.622 66.9369 115.399 66.0567C115.444 66.0031 115.509 65.9697 115.579 65.9636C115.649 65.9576 115.718 65.9795 115.772 66.0246C115.826 66.0696 115.86 66.1342 115.866 66.2041C115.872 66.274 115.851 66.3436 115.806 66.3976C115.009 67.3034 114.144 68.1466 113.218 68.9197C113.178 68.9537 113.129 68.9748 113.076 68.9805C113.024 68.9861 112.971 68.9761 112.925 68.9515C112.878 68.927 112.84 68.8891 112.815 68.8427C112.79 68.7964 112.779 68.7436 112.784 68.6912C112.788 68.6565 112.798 68.6227 112.814 68.5918C112.83 68.5609 112.852 68.5335 112.879 68.5112Z" fill="#501200"/>
<path d="M115.789 70.8018C116.549 69.9897 117.177 69.0637 117.651 68.0573C117.681 67.9957 117.733 67.9481 117.797 67.9245C117.862 67.901 117.932 67.9034 117.995 67.9311C118.057 67.9585 118.107 68.0088 118.134 68.0716C118.16 68.1345 118.161 68.2051 118.137 68.2689C117.641 69.3357 116.976 70.3159 116.169 71.1719C116.132 71.2066 116.085 71.23 116.035 71.2391C115.985 71.2482 115.933 71.2428 115.886 71.2235C115.839 71.2041 115.798 71.1717 115.769 71.1299C115.74 71.0882 115.723 71.039 115.721 70.988C115.719 70.9195 115.743 70.8528 115.789 70.8018Z" fill="#501200"/>
<path d="M63.054 121.648C62.4724 120.508 62.0083 119.313 61.6691 118.079C61.6539 118.01 61.6666 117.938 61.7044 117.879C61.7422 117.82 61.802 117.778 61.8707 117.762C61.9392 117.748 62.0106 117.761 62.0696 117.799C62.1287 117.836 62.1707 117.896 62.1869 117.964C62.5219 119.157 62.9737 120.315 63.5357 121.42C63.5579 121.468 63.5656 121.521 63.5578 121.573C63.5499 121.625 63.5268 121.673 63.4915 121.712C63.4562 121.751 63.4101 121.779 63.3591 121.792C63.3081 121.805 63.2544 121.802 63.2048 121.785C63.1384 121.761 63.0841 121.711 63.054 121.648Z" fill="#501200"/>
<path d="M67.0773 119.722C66.8919 115.515 66.7318 113.637 66.7303 113.618C66.727 113.549 66.7503 113.482 66.7953 113.43C66.8403 113.379 66.9035 113.346 66.9719 113.34C67.0406 113.333 67.1091 113.354 67.1628 113.397C67.2164 113.441 67.2509 113.503 67.2589 113.572C67.2589 113.59 67.422 115.479 67.6082 119.698C67.6109 119.768 67.5858 119.837 67.5383 119.889C67.4907 119.941 67.4246 119.972 67.3543 119.976C67.2839 119.979 67.2153 119.954 67.1633 119.906C67.1114 119.858 67.0805 119.792 67.0773 119.722Z" fill="#501200"/>
<path d="M71.6169 120.814C72.6519 118.917 73.5155 116.933 74.1975 114.883C74.2187 114.816 74.2658 114.76 74.3282 114.727C74.3907 114.695 74.4635 114.689 74.5307 114.71C74.5978 114.731 74.6538 114.778 74.6862 114.841C74.7187 114.903 74.725 114.976 74.7038 115.043C74.0103 117.127 73.1325 119.145 72.0809 121.073C72.0651 121.106 72.0428 121.135 72.0153 121.158C71.9879 121.182 71.9558 121.2 71.9212 121.211C71.8866 121.222 71.8501 121.226 71.814 121.222C71.7779 121.218 71.743 121.207 71.7113 121.189C71.6796 121.172 71.6519 121.148 71.6298 121.119C71.6078 121.09 71.5918 121.057 71.583 121.022C71.5741 120.987 71.5726 120.95 71.5784 120.914C71.5842 120.878 71.5973 120.844 71.6169 120.814Z" fill="#501200"/>
<path d="M15.3072 65.6367C15.1056 65.4059 15.4895 65.0289 15.745 65.3359C18.6164 68.7813 21.5571 65.5898 21.7633 65.2104C21.1401 64.8838 20.6321 64.3738 20.3079 63.7493C19.9837 63.1247 19.859 62.4157 19.9506 61.7181C20.2822 59.3452 22.582 59.169 23.356 60.8325C23.7715 61.7281 23.76 63.2854 22.5774 65.0096C22.6658 65.045 24.5471 65.8337 25.9159 64.8734C27.6924 63.627 27.7709 60.3477 27.7709 60.3147C27.7719 60.2711 27.7836 60.2284 27.8049 60.1903C27.8262 60.1523 27.8566 60.1201 27.8933 60.0965C27.93 60.073 27.9719 60.0588 28.0154 60.0552C28.0588 60.0517 28.1025 60.0589 28.1425 60.0761C28.1908 60.0972 28.2318 60.1321 28.2601 60.1765C28.2885 60.2209 28.303 60.2728 28.3018 60.3254C28.3018 60.4701 28.2118 63.8917 26.2244 65.3051C25.6196 65.6379 24.9453 65.8244 24.2554 65.8496C23.5656 65.8749 22.8794 65.7382 22.2519 65.4505C21.9811 66.0453 18.6787 69.4576 15.3072 65.6367ZM21.7464 60.2631C19.9514 60.2631 20.0629 64.1102 22.0888 64.7827C23.4276 63.2531 23.3183 60.2631 21.7464 60.2631Z" fill="#501200"/>
<path d="M42.603 27.1466C40.9381 25.7907 39.537 24.14 38.4697 22.277C38.4406 22.2146 38.4369 22.1433 38.4594 22.0782C38.4819 22.0131 38.5288 21.9593 38.5902 21.9281C38.6516 21.897 38.7227 21.8909 38.7885 21.9112C38.8543 21.9315 38.9097 21.9766 38.9429 22.0369C39.9848 23.8305 41.3399 25.4228 42.9438 26.7381C42.9951 26.7841 43.0264 26.8483 43.0314 26.917C43.0363 26.9857 43.0144 27.0537 42.9703 27.1066C42.9261 27.1595 42.8632 27.1932 42.7947 27.2007C42.7262 27.2081 42.6575 27.1888 42.603 27.1466Z" fill="#501200"/>
<path d="M45.9876 24.5991C45.3025 22.7969 45.0116 20.8688 45.1343 18.9447C45.1376 18.91 45.1478 18.8763 45.1641 18.8455C45.1805 18.8147 45.2028 18.7874 45.2297 18.7653C45.2566 18.7431 45.2876 18.7264 45.3209 18.7162C45.3543 18.706 45.3893 18.7025 45.424 18.7058C45.4587 18.7091 45.4924 18.7193 45.5232 18.7356C45.554 18.752 45.5813 18.7743 45.6034 18.8012C45.6256 18.8281 45.6423 18.8591 45.6525 18.8924C45.6627 18.9258 45.6662 18.9608 45.6629 18.9955C45.5552 20.8364 45.8343 22.6795 46.4823 24.406C46.5079 24.4716 46.5064 24.5447 46.4782 24.6092C46.4499 24.6737 46.3971 24.7243 46.3315 24.7499C46.2659 24.7756 46.1928 24.7741 46.1283 24.7458C46.0638 24.7175 46.0132 24.6648 45.9876 24.5991Z" fill="#501200"/>
<path d="M97.1006 9.88947C91.4539 15.9772 84.727 20.9648 77.2612 24.5992C77.6652 24.8631 78.0022 25.2162 78.2469 25.6317C78.2469 25.6317 81.3114 23.3235 83.8259 29.9928C83.8259 29.9928 86.435 27.1413 87.803 31.2084L98.2963 31.8709C98.2963 31.8709 112.53 28.9648 124.189 12.3931C124.189 12.3931 106.708 9.31318 97.1006 9.88947Z" fill="#FFB949"/>
<path d="M48.7459 32.9911C48.7459 32.9911 51.3034 31.8793 64.5766 31.7747C64.5766 31.7747 63.614 24.0167 69.0854 25.9671C69.0854 25.9671 71.0974 22.5702 73.548 25.6524C73.548 25.6524 75.897 23.0103 78.2452 25.6317C78.2452 25.6317 81.3514 23.3665 83.8243 29.9927C83.8243 29.9927 86.4126 27.162 87.8014 31.2084C87.8014 31.2084 99.1072 31.7062 102.651 32.4325C102.651 32.4325 101.37 54.1754 101.236 62.3182C100.828 87.1172 103.304 96.9372 103.221 97.1188C102.809 98.0237 48.5058 97.6651 48.1996 97.6536C48.2003 97.6536 47.9864 61.5941 48.7459 32.9911Z" fill="white"/>
<path d="M56.2308 48.5572C56.2508 48.2848 56.1731 45.448 56.1062 44.1385C55.7453 44.6817 55.2298 45.5026 55.029 45.8943C54.9972 45.9571 54.9417 46.0048 54.8747 46.0267C54.8078 46.0486 54.7348 46.0431 54.672 46.0112C54.6091 45.9794 54.5615 45.9239 54.5396 45.8569C54.5176 45.79 54.5232 45.7171 54.555 45.6542C54.5673 45.6304 55.9284 43.1821 56.2854 43.1559C56.324 43.1523 56.3628 43.1573 56.3992 43.1707C56.4355 43.184 56.4684 43.2052 56.4955 43.2329C56.7132 43.4521 56.7609 48.5534 56.7563 48.6026C56.7434 48.6665 56.7074 48.7234 56.6552 48.7624C56.603 48.8015 56.5383 48.82 56.4733 48.8144C56.4084 48.8088 56.3478 48.7794 56.303 48.732C56.2583 48.6846 56.2326 48.6224 56.2308 48.5572Z" fill="#FF7449"/>
<path d="M54.5259 61.9844C54.5259 61.582 56.5071 59.3384 56.7633 58.9206C57.0473 58.459 57.0134 57.7426 56.3656 57.6303C56.1455 57.6086 55.9256 57.6739 55.753 57.8122C55.5805 57.9505 55.4689 58.1509 55.4423 58.3705C55.4408 58.4408 55.4116 58.5076 55.361 58.5563C55.3104 58.6051 55.2425 58.6318 55.1722 58.6305C54.6205 58.619 55.0075 57.3733 55.9262 57.1317C56.1884 57.068 56.464 57.0886 56.7138 57.1907C56.9636 57.2927 57.1748 57.471 57.3173 57.7001C57.4599 57.9292 57.5265 58.1974 57.5077 58.4665C57.4889 58.7357 57.3857 58.9921 57.2127 59.1991C56.9349 59.6516 55.3869 61.5697 55.223 61.7905C55.997 61.8582 56.7757 61.8636 57.5505 61.8082C57.62 61.806 57.6876 61.8311 57.7389 61.8782C57.7901 61.9253 57.8207 61.9906 57.8243 62.0601C57.8278 62.1296 57.8039 62.1976 57.7577 62.2497C57.7116 62.3017 57.6468 62.3336 57.5774 62.3384C57.0727 62.3637 54.522 62.5438 54.5259 61.9844Z" fill="#FF7449"/>
<path d="M62.3453 62.1158C62.2775 62.1115 62.2139 62.0812 62.1677 62.0314C62.1215 61.9815 62.0962 61.9158 62.0969 61.8478C62.0977 61.7799 62.1246 61.7148 62.1719 61.666C62.2193 61.6172 62.2836 61.5885 62.3515 61.5857C62.5138 61.5857 78.5915 61.7727 82.5325 61.7211C82.6004 61.724 82.6646 61.7527 82.712 61.8013C82.7595 61.8499 82.7866 61.9148 82.7879 61.9827C82.7889 62.0507 82.7637 62.1164 82.7176 62.1664C82.6715 62.2163 82.608 62.2467 82.5402 62.2512C79.2209 62.2997 64.4351 62.1489 62.3453 62.1158Z" fill="#501200"/>
<path d="M86.9243 50.867C86.8592 50.8634 86.7957 50.8455 86.7383 50.8147C86.6808 50.7839 86.6309 50.7408 86.5919 50.6885C86.2842 50.1668 86.5312 42.7858 86.6897 42.4488C86.7105 42.4067 86.7407 42.37 86.7779 42.3413C86.8151 42.3126 86.8583 42.2928 86.9043 42.2834C89.2003 41.9248 94.7077 42.2264 95.017 42.4742C95.2302 42.6434 95.1955 50.6046 94.9401 50.8516C94.4746 51.3078 87.3837 50.9577 86.9243 50.867ZM87.0451 50.3553C88.0561 50.5861 93.7052 50.74 94.5508 50.4592C94.6585 49.5982 94.7108 43.9022 94.6231 42.8997C92.1421 42.6196 89.6398 42.5809 87.1513 42.7842C86.9838 45.3043 86.9479 47.8315 87.0436 50.3553H87.0451Z" fill="#501200"/>
<path d="M90.4067 48.8665C90.4067 48.8665 89.9989 48.9573 89.0548 46.6706C89.0389 46.6396 89.0292 46.6057 89.0263 46.571C89.0234 46.5362 89.0274 46.5012 89.0381 46.468C89.0487 46.4347 89.0658 46.4039 89.0883 46.3773C89.1109 46.3507 89.1385 46.3288 89.1695 46.3128C89.2005 46.2969 89.2344 46.2872 89.2691 46.2843C89.3039 46.2814 89.3389 46.2854 89.3721 46.296C89.4053 46.3067 89.4361 46.3238 89.4628 46.3463C89.4894 46.3689 89.5113 46.3964 89.5273 46.4275C89.8612 47.0753 90.2382 47.7801 90.4559 48.154C90.9545 47.3923 92.2379 45.2041 92.5334 44.6386C92.5492 44.6075 92.5711 44.5798 92.5977 44.5572C92.6243 44.5346 92.6551 44.5174 92.6884 44.5068C92.7216 44.4961 92.7567 44.4921 92.7915 44.4951C92.8263 44.498 92.8601 44.5078 92.8911 44.5239C92.9535 44.5564 93.0006 44.6122 93.022 44.6792C93.0435 44.7462 93.0377 44.819 93.0058 44.8817C92.9812 44.9217 90.8976 48.8665 90.4067 48.8665Z" fill="#FF7449"/>
<path d="M86.2558 66.1413C86.1911 66.1378 86.1279 66.12 86.0709 66.0893C86.0138 66.0586 85.9643 66.0156 85.9257 65.9636C85.6264 65.455 85.8218 58.3741 85.9742 58.054C85.9944 58.0116 86.0243 57.9745 86.0614 57.9458C86.0986 57.9171 86.1419 57.8975 86.1881 57.8886C88.4848 57.53 93.9915 57.8339 94.3015 58.0794C94.4039 58.1617 94.5424 58.2733 94.4977 63.0098C94.4693 65.9767 94.4008 66.0297 94.2762 66.1259C93.5714 66.6645 87.1829 66.3244 86.2558 66.1413ZM86.3773 65.6296C87.3814 65.8605 93.0389 66.019 93.8853 65.7351C93.9907 64.8887 94.0084 59.4836 93.9099 58.5026C91.4276 58.2234 88.9241 58.1848 86.4343 58.3871C86.2791 60.7983 86.2601 63.2163 86.3773 65.6296Z" fill="#501200"/>
<path d="M62.5124 46.8212C62.442 46.8204 62.3748 46.7916 62.3256 46.7413C62.2764 46.6909 62.2492 46.6231 62.25 46.5527C62.2508 46.4823 62.2796 46.4151 62.3299 46.3659C62.3803 46.3167 62.4481 46.2895 62.5185 46.2903C62.6809 46.2903 78.7586 46.478 82.6995 46.4265C82.7674 46.4294 82.8316 46.4581 82.8791 46.5067C82.9265 46.5553 82.9537 46.6202 82.955 46.6881C82.9559 46.7561 82.9308 46.8218 82.8847 46.8718C82.8386 46.9217 82.7751 46.9521 82.7072 46.9566C82.1963 46.9628 62.6532 46.8212 62.5124 46.8212Z" fill="#501200"/>
<path d="M90.4628 62.1683L91.874 60.7279C91.9232 60.6776 91.9505 60.6098 91.9498 60.5394C91.9491 60.469 91.9204 60.4017 91.8701 60.3525C91.8198 60.3032 91.752 60.2759 91.6816 60.2766C91.6112 60.2773 91.5439 60.306 91.4946 60.3563C90.9337 60.9272 90.4744 61.3958 90.092 61.7874C89.7073 61.3958 89.2502 60.9272 88.6886 60.3563C88.6642 60.3314 88.6351 60.3115 88.603 60.2979C88.571 60.2842 88.5365 60.277 88.5016 60.2766C88.4668 60.2763 88.4322 60.2828 88.3998 60.2958C88.3675 60.3088 88.338 60.3281 88.3131 60.3525C88.2882 60.3769 88.2683 60.4059 88.2547 60.438C88.241 60.4701 88.2338 60.5045 88.2334 60.5394C88.2331 60.5743 88.2396 60.6089 88.2526 60.6412C88.2656 60.6736 88.2849 60.703 88.3093 60.7279L89.7211 62.1683C89.1907 62.6518 88.6996 63.1766 88.2523 63.7379C88.2292 63.8025 88.2322 63.8737 88.2606 63.9361C88.289 63.9986 88.3407 64.0476 88.4047 64.0726C88.4685 64.098 88.5396 64.0976 88.6032 64.0717C88.6667 64.0457 88.7177 63.9961 88.7455 63.9333C88.7986 63.8733 89.3857 63.2701 90.092 62.5484C90.7975 63.2709 91.3846 63.8741 91.4377 63.9333C91.4653 63.9962 91.5163 64.0459 91.5799 64.0719C91.6435 64.0979 91.7148 64.0982 91.7785 64.0726C91.8422 64.0473 91.8937 63.9983 91.9221 63.9359C91.9505 63.8735 91.9536 63.8026 91.9309 63.7379C91.4845 63.1761 90.9935 62.6512 90.4628 62.1683Z" fill="#FF7449"/>
<path d="M58.9038 48.2283C58.8997 48.3131 58.8631 48.3931 58.8017 48.4516C58.7402 48.5102 58.6586 48.5429 58.5737 48.5429C58.4888 48.5429 58.4072 48.5102 58.3458 48.4516C58.2843 48.3931 58.2477 48.3131 58.2437 48.2283C58.2477 48.1436 58.2843 48.0636 58.3458 48.005C58.4072 47.9465 58.4888 47.9138 58.5737 47.9138C58.6586 47.9138 58.7402 47.9465 58.8017 48.005C58.8631 48.0636 58.8997 48.1436 58.9038 48.2283Z" fill="#FF7449"/>
<path d="M59.2338 61.9232C59.2338 62.0106 59.1991 62.0945 59.1373 62.1563C59.0755 62.2181 58.9916 62.2529 58.9042 62.2529C58.8167 62.2529 58.7329 62.2181 58.671 62.1563C58.6092 62.0945 58.5745 62.0106 58.5745 61.9232C58.5745 61.8358 58.6092 61.7519 58.671 61.6901C58.7329 61.6282 58.8167 61.5935 58.9042 61.5935C58.9916 61.5935 59.0755 61.6282 59.1373 61.6901C59.1991 61.7519 59.2338 61.8358 59.2338 61.9232Z" fill="#FF7449"/>
<path d="M123.822 12.4598C119.421 18.9339 113.582 24.3014 106.761 28.142C104.058 29.6939 101.156 30.8697 98.1356 31.6367C98.1117 31.6413 89.3343 30.9912 88.0047 30.9404C87.6238 29.677 86.1004 27.4972 84.0076 29.5885C82.6996 26.26 80.4029 24.1841 78.347 25.3498C78.1801 25.1252 77.9822 24.9255 77.7592 24.7566C79.932 23.6471 90.5076 18.0134 97.1307 10.267C97.1729 10.213 97.1927 10.145 97.1861 10.0769C97.1786 10.0092 97.1456 9.94698 97.0939 9.9027C97.0422 9.85842 96.9756 9.83543 96.9076 9.83839C96.8394 9.84198 96.7752 9.87175 96.7283 9.92148C89.7367 18.0942 78.2862 23.9041 77.2129 24.438C76.6042 24.172 75.9259 24.1099 75.2791 24.2612C74.6323 24.4125 74.0518 24.769 73.6243 25.2775C73.1442 24.6142 70.966 22.7523 69.0178 25.6945C68.5573 25.454 68.0443 25.3317 67.5248 25.3386C67.0054 25.3454 66.4957 25.4812 66.0417 25.7337C64.2475 26.607 64.249 30.2117 64.3067 31.4728C63.8551 31.4582 49.19 31.9145 48.4221 32.7408C47.9174 33.284 47.8974 97.4348 47.8951 97.641C47.8943 97.6764 47.9008 97.7115 47.914 97.7443C47.9272 97.7771 47.947 97.8069 47.972 97.8318C47.9969 97.8573 48.0267 97.8773 48.0597 97.8907C48.0926 97.9041 48.128 97.9105 48.1636 97.9095C48.2882 97.9095 99.6644 98.3912 103.375 97.3709C103.499 97.3371 103.486 97.1517 103.465 97.0309C99.4444 74.5062 102.942 32.3315 102.915 32.2653C102.853 32.1014 102.82 32.0545 99.6129 31.7898C107.893 29.2884 117.309 22.7953 124.257 12.7622C124.283 12.7189 124.297 12.6691 124.296 12.6186C124.295 12.5681 124.279 12.5189 124.251 12.4768C124.224 12.4346 124.184 12.4012 124.138 12.3805C124.092 12.3598 124.041 12.3526 123.991 12.3598C123.924 12.3702 123.863 12.406 123.822 12.4598ZM87.6115 31.5182C88.1132 33.6195 87.6415 35.8108 86.1396 35.5876C85.5895 35.5053 85.1656 34.522 84.9432 33.3563C84.7255 32.4603 84.3476 31.611 83.8275 30.8496C85.4487 27.7281 87.223 29.8986 87.61 31.5182H87.6115ZM79.6342 25.5083C82.084 25.5852 83.6206 30.0155 83.6544 30.0479C83.499 30.2849 83.3712 30.5389 83.2736 30.805C82.7027 30.7896 81.8071 30.8103 81.2685 30.8265C81.3493 30.3833 81.437 29.9224 81.5385 29.4362C81.5529 29.3672 81.5393 29.2953 81.5007 29.2364C81.4621 29.1774 81.4017 29.1362 81.3327 29.1219C81.2637 29.1075 81.1919 29.1211 81.1329 29.1597C81.074 29.1983 81.0328 29.2587 81.0184 29.3277C80.6422 31.1397 80.0182 37.7659 78.5847 37.7643C76.2765 37.7643 76.1034 31.4667 76.6789 29.0699C77.216 26.8255 78.2931 25.4637 79.6342 25.5083ZM75.3824 24.8027C75.8403 24.664 76.33 24.6716 76.7833 24.8244C77.2367 24.9773 77.6311 25.2677 77.9115 25.6553C75.2786 27.8866 75.4802 34.4851 76.7874 36.9864C76.7674 37.0388 76.018 38.9392 75.0524 38.5791C73.1781 37.8936 72.3294 34.0396 72.4833 30.7657C72.5987 28.3159 73.1942 25.2952 75.3824 24.8004V24.8027ZM70.7506 24.735C71.219 24.5737 71.7293 24.5823 72.192 24.7592C72.6548 24.9362 73.0406 25.2703 73.2819 25.703C71.4877 28.2851 71.6262 33.9472 72.888 36.8672L72.8803 36.881C72.8749 36.8995 71.7839 39.6917 70.4136 38.3752C69.2825 37.2865 68.3877 34.0319 68.5008 31.5867C68.6239 29.0053 68.7901 25.4768 70.7506 24.7327V24.735ZM66.2741 26.2139C66.6557 25.9943 67.0871 25.876 67.5273 25.8701C67.9675 25.8641 68.4019 25.9708 68.7893 26.18C68.2349 27.9189 67.9592 29.7346 67.9722 31.5598C67.9257 33.5268 68.3052 35.4807 69.0848 37.2873C68.9578 37.4466 68.3261 38.1667 67.5998 37.8343C64.2882 36.3001 64.0382 27.2987 66.2741 26.2115V26.2139ZM102.93 96.9162C101.98 97.5679 50.3018 97.3548 48.429 97.3779C48.4598 94.8988 48.4291 36.9787 49.0815 33.2856C49.3893 32.4246 64.1036 32.026 64.3436 31.9983C64.7183 36.594 66.5472 38.0344 67.3774 38.3145C67.7183 38.441 68.09 38.4591 68.4416 38.3665C68.7932 38.2738 69.1076 38.0748 69.3418 37.7966C69.5549 38.176 71.4192 41.2475 73.205 37.4981C73.6313 38.2483 75.5017 40.8389 77.129 37.5258C77.3012 37.7589 77.5248 37.9492 77.7825 38.0818C78.0402 38.2145 78.325 38.2859 78.6148 38.2906C80.4952 38.276 81.1754 31.3566 81.1754 31.3566C82.1679 31.3259 83.212 31.3151 83.5382 31.3436C83.989 31.9711 84.2909 32.6931 84.4208 33.4548C84.5446 34.1096 84.9355 36.1578 86.3851 36.1678C88.4271 36.1816 88.4848 33.0624 88.1417 31.4743C90.8 31.5944 100.799 32.3976 102.39 32.5815C99.6121 69.3057 101.455 89.4613 102.93 96.9139V96.9162Z" fill="#501200"/>
</svg>
