<svg width="155" height="155" viewBox="0 0 155 155" fill="none" xmlns="http://www.w3.org/2000/svg">
<path d="M131.224 111.72L87.1614 88.4533L82.3933 41.0581C82.3011 40.3765 82.0739 39.7202 81.7252 39.1274C81.3765 38.5346 80.9131 38.0172 80.3623 37.6054C79.8114 37.1936 79.184 36.8957 78.5167 36.729C77.8494 36.5624 77.1556 36.5303 76.4758 36.6347C62.4024 38.7737 9.26503 46.2863 9.03113 46.2863C8.34949 46.3938 7.69608 46.636 7.10905 46.9987C6.52201 47.3614 6.01309 47.8375 5.612 48.399C5.21091 48.9605 4.92567 49.5963 4.77293 50.2693C4.6202 50.9422 4.60302 51.6388 4.7224 52.3185C7.30841 67.3506 14.0292 109.422 14.0292 109.422L14.087 113.501L47.2926 145.04L131.455 115.626L131.225 111.72H131.224Z" fill="#242BA8"/>
<path d="M105.947 103.275C104.74 102.643 86.9785 93.3552 85.8974 92.7613C85.4912 92.5381 85.0357 92.4735 84.5763 92.6466C83.5423 92.9344 28.2667 109.329 26.8402 109.766C26.0923 109.995 25.9146 110.852 26.4378 111.374C27.5296 112.351 41.3744 124.76 42.3508 125.564C42.7525 125.908 43.2664 126.015 43.7296 125.852C44.9284 125.427 104.501 105.309 105.831 104.94C106.503 104.754 106.727 103.665 105.946 103.274L105.947 103.275Z" fill="white"/>
<path d="M97.3297 119.533C95.0844 118.181 92.8438 116.822 90.6081 115.454C90.3885 115.314 90.1399 115.226 89.8812 115.196C89.6225 115.166 89.3603 115.196 89.1146 115.282C73.16 120.716 73.5078 120.291 73.1439 120.855C73.0732 120.96 73.0245 121.078 73.0007 121.202C72.9769 121.326 72.9784 121.453 73.0052 121.577C73.032 121.7 73.0836 121.817 73.1567 121.92C73.2299 122.023 73.3231 122.11 73.4309 122.176C75.7151 123.623 77.9939 125.078 80.2671 126.542C80.6149 126.767 81.0704 126.827 81.5313 126.657C84.0542 125.725 93.1848 122.438 97.1573 121.084C97.9006 120.831 97.9167 119.885 97.3297 119.533Z" fill="white"/>
<path d="M79.7503 43.701C79.6578 43.0195 79.4305 42.3633 79.0817 41.7706C78.733 41.1779 78.2696 40.6605 77.7188 40.2488C77.1679 39.837 76.5406 39.5391 75.8734 39.3724C75.2062 39.2056 74.5125 39.1734 73.8327 39.2777C62.6877 40.9627 12.9942 48.0105 12.8219 48.0105C12.1403 48.1182 11.4871 48.3605 10.9001 48.7233C10.3132 49.0861 9.80436 49.5621 9.4033 50.1236C9.00225 50.6851 8.71699 51.3208 8.56416 51.9937C8.41134 52.6665 8.394 53.3631 8.51317 54.0427C10.9307 68.1546 16.9583 105.861 16.9583 105.861L84.1159 86.9022C84.039 86.9022 79.7495 44.0149 79.7495 43.701H79.7503Z" fill="white"/>
<path d="M131.404 111.38L87.3981 88.0563C87.3535 88.0326 87.3046 88.018 87.2543 88.0132C87.204 88.0085 87.1532 88.0137 87.1049 88.0286C87.0566 88.0434 87.0117 88.0676 86.9728 88.0999C86.9339 88.1321 86.9017 88.1716 86.878 88.2163C86.8544 88.261 86.8398 88.3098 86.835 88.3601C86.8303 88.4105 86.8355 88.4612 86.8503 88.5095C86.8652 88.5578 86.8894 88.6027 86.9216 88.6416C86.9538 88.6806 86.9934 88.7128 87.0381 88.7364L130.245 111.637L47.8448 140.58L14.3014 108.979C14.2288 108.909 14.1316 108.87 14.0308 108.871C13.9299 108.872 13.8334 108.912 13.7621 108.984C13.6908 109.055 13.6503 109.151 13.6494 109.252C13.6486 109.353 13.6873 109.45 13.7574 109.523L47.3155 141.138L47.08 144.903C47.0769 144.953 47.0837 145.004 47.1001 145.052C47.1166 145.1 47.1422 145.144 47.1757 145.182C47.2092 145.22 47.2498 145.251 47.2952 145.273C47.3407 145.295 47.39 145.308 47.4405 145.311C47.491 145.314 47.5415 145.307 47.5894 145.291C47.6372 145.275 47.6813 145.249 47.7192 145.215C47.7571 145.182 47.7881 145.141 47.8103 145.096C47.8325 145.051 47.8455 145.001 47.8487 144.951L48.0756 141.314L131.225 112.107C131.624 112.107 131.758 111.569 131.405 111.382L131.404 111.38Z" fill="#3C58D3"/>
<path d="M101.373 100.632C101.342 100.535 101.275 100.454 101.184 100.407C101.094 100.359 100.989 100.35 100.891 100.38L93.7143 102.649L86.3687 98.3741L92.0462 96.5752C92.1435 96.5442 92.2244 96.4758 92.2712 96.3852C92.318 96.2945 92.3269 96.1889 92.2959 96.0917C92.2649 95.9944 92.1965 95.9135 92.1058 95.8667C92.0151 95.8198 91.9096 95.811 91.8123 95.842L85.4854 97.8579L79.2578 94.1547C79.1703 94.1063 79.0675 94.0939 78.971 94.12C78.8746 94.1461 78.7921 94.2088 78.741 94.2947C78.6899 94.3805 78.6742 94.4829 78.6973 94.5801C78.7204 94.6774 78.7804 94.7618 78.8646 94.8156L84.5013 98.1672L76.9264 100.544L71.2928 96.6953C71.2085 96.6377 71.1048 96.616 71.0045 96.6349C70.9043 96.6538 70.8156 96.7118 70.758 96.7961C70.7005 96.8803 70.6788 96.984 70.6977 97.0843C70.7166 97.1846 70.7746 97.2733 70.8588 97.3308L75.9916 100.838L67.9274 103.368L62.6946 99.2951C62.6137 99.2375 62.5137 99.2134 62.4155 99.2278C62.3173 99.2422 62.2284 99.294 62.1675 99.3724C62.1066 99.4508 62.0784 99.5497 62.0887 99.6484C62.099 99.7472 62.1471 99.8381 62.2229 99.9022L67.0387 103.651L58.579 106.349L53.2831 101.945C53.2044 101.882 53.1041 101.852 53.0037 101.862C52.9034 101.873 52.8111 101.922 52.7466 101.999C52.6822 102.077 52.6508 102.177 52.6591 102.277C52.6675 102.378 52.715 102.471 52.7914 102.537L57.7072 106.625L49.3452 109.264L44.2163 104.711C44.1401 104.643 44.04 104.608 43.9381 104.614C43.8363 104.62 43.7409 104.666 43.6731 104.743C43.6052 104.819 43.5704 104.919 43.5763 105.021C43.5823 105.123 43.6284 105.218 43.7046 105.286L48.4904 109.535L39.352 112.42L33.9915 107.643C33.9155 107.574 33.8156 107.539 33.7137 107.545C33.6118 107.551 33.5164 107.597 33.4483 107.673C33.3803 107.749 33.3452 107.848 33.3508 107.95C33.3564 108.052 33.4023 108.148 33.4783 108.216L38.5003 112.688L31.2639 114.973C31.1666 115.003 31.0854 115.071 31.0382 115.162C30.991 115.252 30.9817 115.358 31.0123 115.455C31.043 115.552 31.111 115.634 31.2015 115.681C31.2919 115.728 31.3974 115.737 31.4948 115.707L39.1812 113.295L44.6295 118.147L37.1823 120.488C36.6983 120.639 36.9222 121.372 37.4116 121.223L45.3135 118.757L50.8702 123.713C50.9427 123.783 51.0399 123.821 51.1408 123.821C51.2417 123.82 51.3382 123.779 51.4095 123.708C51.4808 123.637 51.5213 123.54 51.5221 123.439C51.523 123.338 51.4842 123.241 51.4142 123.169L46.1629 118.488L55.309 115.587L60.5964 120.281C60.6737 120.342 60.7713 120.371 60.8692 120.362C60.9672 120.353 61.058 120.307 61.1232 120.233C61.1884 120.16 61.2229 120.064 61.2198 119.966C61.2167 119.867 61.1762 119.774 61.1065 119.705L56.1638 115.317L64.9128 112.543C71.0189 117.565 70.5403 117.219 70.7334 117.219C71.0727 117.219 71.2489 116.805 71.0058 116.562L65.7807 112.267L74.5451 109.488C80.6358 114.117 80.1995 113.829 80.385 113.829C80.4655 113.829 80.544 113.803 80.6095 113.756C80.6749 113.71 80.724 113.643 80.7498 113.567C80.7755 113.491 80.7767 113.408 80.753 113.331C80.7294 113.254 80.6822 113.186 80.6181 113.138L75.4422 109.204L84.2759 106.402C90.5497 110.612 90.1519 110.382 90.3235 110.382C90.7021 110.382 90.8529 109.89 90.5389 109.678L85.2161 106.106L93.6051 103.474C100.547 107.514 99.9989 107.222 100.147 107.222C100.54 107.222 100.679 106.702 100.342 106.505L94.5991 103.162L101.125 101.115C101.222 101.084 101.303 101.017 101.35 100.926C101.398 100.836 101.407 100.73 101.377 100.633L101.373 100.632ZM45.4781 117.88L40.0307 113.025L49.159 110.128L54.6449 114.999L45.4789 117.88H45.4781ZM55.4998 114.73L50.0123 109.858L58.3966 107.197L64.2172 111.974L55.4998 114.73ZM59.2707 106.921L67.7727 104.223L73.828 108.936L65.0859 111.7L59.2707 106.921ZM74.7182 108.654L68.6652 103.943L76.8149 101.399L83.4926 105.88L74.7175 108.654L74.7182 108.654ZM84.4321 105.584L77.7543 101.103L85.3777 98.6881L92.7225 102.963L84.4329 105.584H84.4321Z" fill="#3C58D3"/>
<path d="M74.6945 50.4219L55.8516 52.8348L59.2985 71.6208L77.6822 68.4608L74.6945 50.4219Z" fill="white"/>
<path d="M54.5309 64.5545C53.0944 67.3705 51.017 69.0502 47.9817 67.1397C47.3477 66.7404 46.7752 66.2203 46.3159 65.7032C45.3964 64.6691 43.9607 62.0262 42.4096 62.0262C41.3178 62.0262 40.4499 63.2288 39.939 64.0367C38.6069 66.1433 37.5271 68.3994 36.722 70.7583L36.4351 70.816L37.5269 75.4694L56.1975 71.9078L54.761 64.4968L54.5309 64.5545Z" fill="white"/>
<path d="M49.4177 62.0847C52.4638 61.5769 51.7721 56.5072 48.786 57.0289C45.8553 57.5413 46.2601 62.611 49.4177 62.0847Z" fill="white"/>
<path d="M70.3291 63.5204C70.4438 63.2334 65.3887 59.8433 63.7222 58.6369C63.7222 58.6369 61.9987 66.9666 62.2857 67.0243C62.5726 67.1389 70.2137 63.7497 70.3284 63.5196L70.3291 63.5204Z" fill="#EE4532"/>
<path d="M41.2021 77.2507L44.4198 93.7385L69.6967 87.4192L67.4569 72.5972L41.2021 77.2507Z" fill="#EE4532"/>
<path d="M78.889 70.759L69.8691 72.3671L72.282 86.4428L80.3255 85.1209L78.889 70.759Z" fill="#242BA8"/>
<path d="M33.0449 56.2818L36.4342 70.816L36.7212 70.7583C37.5252 68.4031 38.5639 66.0703 39.9381 64.0367C40.4913 63.218 41.3169 62.0262 42.4087 62.0262C44.0176 62.0262 45.3925 64.6715 46.315 65.7032C46.8003 66.2577 47.3611 66.7412 47.9808 67.1397C51.0292 69.0871 53.0936 67.4267 54.5301 64.5545L54.7601 64.4968L52.7497 53.5242L33.0449 56.2818ZM49.4181 62.0839C46.3173 62.611 45.8557 57.5405 48.7864 57.0281C51.7725 56.5064 52.4073 61.5761 49.4181 62.0839Z" fill="#242BA8"/>
<path d="M20.1187 89.6598L22.5892 100.001L42.4663 95.2896L40.2835 85.0063L20.1187 89.6598Z" fill="#242BA8"/>
<path d="M37.5251 75.7972C37.4379 75.7971 37.3533 75.7673 37.2852 75.7128C37.2172 75.6583 37.1696 75.5822 37.1504 75.4971L32.6701 56.371C32.6577 56.3189 32.6563 56.2647 32.6661 56.212C32.6758 56.1593 32.6964 56.1093 32.7266 56.065C32.7568 56.0207 32.7959 55.9833 32.8415 55.955C32.887 55.9268 32.9379 55.9083 32.991 55.9009L52.7534 53.1433C52.8517 53.1292 52.9517 53.1538 53.0322 53.2119C53.1127 53.27 53.1675 53.3572 53.1851 53.4549L56.5743 71.837C56.593 71.9372 56.5712 72.0407 56.5136 72.1248C56.4561 72.2089 56.3675 72.2667 56.2673 72.2856L37.5251 75.7964V75.7972ZM33.5165 56.6049L37.8198 74.9662L55.7488 71.6008L52.4957 53.9566L33.5173 56.6049H33.5165Z" fill="#3C58D3"/>
<path d="M59.241 72.0056C59.1509 72.0055 59.0637 71.9738 58.9947 71.916C58.9256 71.8582 58.8791 71.778 58.8632 71.6893L55.4739 52.9033C55.4646 52.8519 55.4659 52.7993 55.4776 52.7484C55.4893 52.6976 55.5112 52.6497 55.542 52.6076C55.5728 52.5654 55.6118 52.5301 55.6568 52.5035C55.7017 52.477 55.7515 52.4598 55.8032 52.4532L74.6462 50.0403C74.7453 50.0272 74.8455 50.0534 74.9256 50.1132C75.0057 50.173 75.0592 50.2617 75.0748 50.3604L78.0047 68.3993C78.021 68.4994 77.9971 68.6019 77.9381 68.6845C77.8792 68.7671 77.79 68.823 77.69 68.8402L59.241 72.0056ZM56.3026 53.1656L59.5526 71.1777L77.1845 68.1469L74.3754 50.8512L56.3026 53.1656Z" fill="#3C58D3"/>
<path d="M35.8362 84.1323L30.7803 56.4995C30.7628 56.4019 30.7081 56.3149 30.6278 56.2568C30.5474 56.1987 30.4477 56.174 30.3495 56.1879L14.0917 58.4284C14.0398 58.4356 13.99 58.4533 13.9452 58.4804C13.9004 58.5075 13.8616 58.5435 13.8312 58.5862C13.8008 58.6288 13.7794 58.6772 13.7684 58.7284C13.7574 58.7796 13.7569 58.8325 13.767 58.8839L19.4545 87.6654C19.4718 87.7527 19.5188 87.8314 19.5876 87.8879C19.6563 87.9445 19.7426 87.9754 19.8316 87.9755L35.5392 84.577C35.6368 84.5559 35.7225 84.4975 35.7779 84.4144C35.8333 84.3312 35.8542 84.2298 35.8362 84.1315V84.1323Z" fill="#3C58D3"/>
<path d="M94.0801 60.4835C91.8442 52.8024 81.8964 18.0695 79.7182 10.39C79.455 9.46819 78.4879 8.74956 77.2891 9.09118L62.0078 13.4576C60.9175 13.7685 60.4274 14.901 60.709 15.8859C61.8 19.7345 73.9799 62.1316 75.0694 65.9748C75.361 67.0705 76.4751 67.6306 77.5069 67.3359C80.8477 66.3811 89.1758 63.9197 92.7205 62.9149C93.7692 62.6333 94.3709 61.5784 94.0793 60.4835H94.0801Z" fill="#3C58D3"/>
<path d="M89.1145 52.2608C89.3446 53.1226 88.8845 53.9843 88.0227 54.2144L77.5094 57.202C77.1065 57.3098 76.6782 57.2688 76.303 57.0866C75.9583 56.8573 75.6721 56.5703 75.5559 56.1679C74.8742 53.8104 73.5669 49.3416 72.9129 47.0334C72.8529 46.8334 72.8337 46.6234 72.8564 46.4158C72.8791 46.2083 72.9433 46.0074 73.0451 45.8251C73.147 45.6428 73.2844 45.4829 73.4492 45.3547C73.6141 45.2266 73.803 45.1328 74.0047 45.0791C76.5977 44.3597 81.9251 42.8124 84.518 42.0922C85.3775 41.8537 86.2415 42.3223 86.4716 43.184L89.1145 52.2608Z" fill="#242BA8"/>
<path d="M84.7488 37.5534C84.9788 38.4152 84.5164 39.2677 83.657 39.507C81.0641 40.2272 75.7366 41.7744 73.1437 42.4946C72.2843 42.7331 71.431 42.2623 71.1902 41.4021C70.5292 39.0392 69.2012 34.5766 68.5472 32.2683C68.4872 32.0683 68.468 31.8583 68.4907 31.6508C68.5134 31.4432 68.5776 31.2423 68.6794 31.06C68.7812 30.8778 68.9187 30.7178 69.0835 30.5896C69.2483 30.4615 69.4372 30.3678 69.639 30.314C72.2319 29.5946 77.5594 28.0473 80.1523 27.3271C81.0117 27.0886 81.8758 27.5572 82.1058 28.4189L84.7488 37.5534Z" fill="#FCCAC2"/>
<path d="M80.3254 22.7891C80.5485 23.5955 80.0954 24.5126 79.2913 24.7427C79.2913 24.7427 71.4279 27.0055 68.778 27.7873C67.9855 28.0212 67.0768 27.6234 66.8245 26.7532C66.1428 24.3957 64.8563 19.9215 64.1815 17.6187C63.9176 16.7169 64.4916 15.8736 65.2156 15.6651C67.8016 14.9219 73.1421 13.363 75.7289 12.6205C76.6414 12.3582 77.4716 12.9345 77.6825 13.6546C78.3565 15.9567 79.6745 20.4386 80.3254 22.7891Z" fill="white"/>
<path d="M93.0216 72.3678C92.6676 73.168 91.7012 73.5143 90.9534 73.1719C87.6818 71.6708 79.8253 68.0214 76.5338 66.5649C75.7336 66.211 75.385 65.2438 75.7867 64.4967C79.119 57.2004 94.2565 24.4363 97.5026 17.1007C97.8666 16.279 98.7976 16.0128 99.5708 16.3544C102.862 17.8101 110.699 21.5049 113.99 22.9614C114.694 23.273 115.141 24.1217 114.738 25.0296C111.501 32.3113 96.2677 65.033 93.0216 72.3671V72.3678Z" fill="white"/>
<path d="M94.9171 63.061C94.5617 63.8604 93.596 64.2097 92.8489 63.8081C90.3784 62.6593 85.3864 60.3473 82.9104 59.2693C82.0933 58.9138 81.8194 57.9751 82.1633 57.2011C83.1666 54.9467 85.124 50.7811 86.1273 48.5267C86.4828 47.7273 87.4484 47.378 88.1955 47.7796C90.6661 48.9284 95.6581 51.2405 98.1341 52.3184C98.9366 52.6677 99.2828 53.6395 98.8812 54.3866C98.8812 54.3866 95.9205 60.8066 94.9171 63.061Z" fill="white"/>
<path d="M101.237 49.043C100.889 49.8463 99.9154 50.1918 99.1683 49.7901C96.6977 48.6414 91.7058 46.3293 89.2298 45.2514C89.0418 45.1683 88.8726 45.0479 88.7325 44.8976C88.5923 44.7474 88.484 44.5702 88.4142 44.3769C88.3444 44.1836 88.3145 43.9782 88.3262 43.773C88.338 43.5679 88.3912 43.3672 88.4827 43.1832C89.5729 41.0273 91.4434 36.7632 92.4467 34.5088C92.8022 33.7094 93.7678 33.36 94.5149 33.7617C96.9855 34.9104 101.977 37.2225 104.453 38.3005C105.256 38.6498 105.602 39.6215 105.201 40.3686C104.166 42.6092 102.206 46.8002 101.237 49.043Z" fill="#FCCAC2"/>
<path d="M107.498 34.9681C107.415 35.1567 107.296 35.3271 107.147 35.4696C106.998 35.6121 106.822 35.7239 106.63 35.7986C106.438 35.8732 106.233 35.9093 106.027 35.9048C105.821 35.9003 105.618 35.8552 105.43 35.7722C105.43 35.7722 97.9672 32.3113 95.4912 31.2334C94.7949 30.9302 94.3378 30.0785 94.7441 29.1652C95.7474 26.9108 97.7048 22.7452 98.7081 20.4908C99.0205 19.7875 99.8676 19.3382 100.776 19.7437C103.264 20.8547 108.239 23.2045 110.715 24.2825C111.409 24.5841 111.865 25.4289 111.462 26.3507C110.502 28.5412 108.491 32.7661 107.498 34.9681Z" fill="#242BA8"/>
<path d="M90.7439 73.4682C90.7439 73.4682 78.404 67.7899 76.3112 66.7981C75.3756 66.3665 74.954 65.2139 75.3756 64.2306L97.0947 16.8269C97.6055 15.8043 98.7158 15.4796 99.6645 15.8867C101.319 16.6407 112.464 21.7542 114.092 22.4967C115.116 23.0076 115.438 24.1186 115.033 25.0666L93.313 72.4702C92.8952 73.4451 91.758 73.9029 90.7431 73.4682H90.7439ZM91.0517 72.7634C91.6256 73.0181 92.3412 72.7849 92.6097 72.1586L114.329 24.7549C114.57 24.1902 114.413 23.517 113.759 23.1907C112.144 22.4536 100.999 17.3409 99.3521 16.5899C98.7774 16.3437 98.111 16.5122 97.7879 17.1585L76.0781 64.5414C75.8226 65.1369 76.0719 65.8402 76.6359 66.1003C78.7279 67.0913 89.8783 72.2417 91.0509 72.7626L91.0517 72.7634Z" fill="#3C58D3"/>
<path d="M92.6976 64.1613C92.6976 64.1613 85.3058 60.8074 82.7483 59.6179C81.7211 59.1047 81.408 57.9875 81.8104 57.0496C82.3313 55.9201 85.2612 49.4855 85.779 48.3652C86.2122 47.4258 87.3648 47.0041 88.3481 47.4258C90.8179 48.5168 95.7445 50.7812 98.2974 51.9692C99.2353 52.4023 99.657 53.5549 99.2353 54.5375C98.7152 55.6654 95.7853 62.0993 95.2667 63.2219C94.8366 64.1536 93.6886 64.5853 92.6976 64.1613ZM93.0023 63.455C93.604 63.7166 94.308 63.4642 94.5681 62.8995C95.0859 61.7777 98.0158 55.3438 98.5321 54.2251C98.7868 53.6311 98.5382 52.9278 97.9735 52.6678C95.4221 51.4813 90.5017 49.2193 88.0403 48.1321C87.4402 47.8743 86.737 48.1236 86.4769 48.6884C85.9598 49.8079 83.0299 56.2425 82.5129 57.3628C82.2682 57.9344 82.4344 58.6015 83.0822 58.9254C85.6259 60.1088 90.5402 62.3855 93.0023 63.455Z" fill="#3C58D3"/>
<path d="M120.769 29.9132C117.826 27.9219 107.728 20.8941 107.728 20.8941C107.039 20.4347 106.048 20.5963 105.545 21.2965C100.87 27.8073 80.6146 57.6867 75.9019 64.2106C75.3972 64.9093 75.618 65.9295 76.3043 66.3935C79.2473 68.3847 86.4583 73.3413 89.3451 75.4125C90.0453 75.915 91.064 75.6965 91.528 75.0101C96.0206 68.3724 116.576 38.7022 121.171 32.096C121.6 31.382 121.47 30.3871 120.769 29.9132Z" fill="#3C58D3"/>
<path d="M95.0321 66.1633C94.5274 66.9204 93.3933 66.9743 92.7916 66.5657C90.5372 65.0346 86.0354 61.88 83.8294 60.3612C83.6553 60.245 83.5087 60.0924 83.3996 59.9138C83.2905 59.7352 83.2216 59.535 83.1978 59.3271C83.1439 58.9247 83.1954 58.4638 83.4278 58.1206C84.7935 56.1009 87.4211 52.2407 88.8283 50.308C89.3354 49.6109 90.3125 49.4016 91.0112 49.9056C93.2217 51.499 97.8105 54.5313 99.9733 56.1101C100.67 56.618 100.893 57.6036 100.376 58.293L95.0329 66.1641H95.0321V66.1633Z" fill="white"/>
<path d="M103.649 53.4673C103.132 54.1566 102.165 54.3736 101.466 53.8697C99.256 52.2762 94.6672 49.2439 92.5043 47.6651C91.808 47.1573 91.6003 46.1824 92.1019 45.4823C93.523 43.501 96.0952 39.6024 97.5025 37.6696C98.0095 36.9725 98.9867 36.7632 99.6853 37.2672C101.896 38.8607 106.485 41.8929 108.647 43.4718C109.344 43.9796 109.567 44.9652 109.05 45.6546L103.649 53.4673Z" fill="#242BA8"/>
<path d="M112.267 40.7134C112.15 40.884 112.001 41.0298 111.829 41.1425C111.656 41.2552 111.462 41.3324 111.259 41.3698C111.056 41.4073 110.848 41.4041 110.646 41.3605C110.444 41.3169 110.253 41.2337 110.084 41.1159C110.084 41.1159 103.328 36.4301 101.122 34.9113C100.363 34.3881 100.308 33.2417 100.719 32.7285C102.098 30.718 104.754 26.8778 106.12 24.8573C106.24 24.6874 106.394 24.5439 106.572 24.4354C106.75 24.3269 106.948 24.2558 107.154 24.2264C108.208 24.0756 107.714 24.1325 117.322 30.661C118.018 31.1335 118.173 32.1845 117.725 32.8439C116.308 34.9259 113.633 38.6945 112.267 40.7142L112.267 40.7134Z" fill="#EE4532"/>
<path d="M89.5163 77.366C89.3709 77.5161 89.1967 77.6354 89.0043 77.7168C88.8119 77.7983 88.605 77.8403 88.3961 77.8403C88.1871 77.8403 87.9803 77.7983 87.7878 77.7168C87.5954 77.6354 87.4213 77.5161 87.2758 77.366C84.7483 74.8385 78.5437 68.6917 76.0162 66.1634C75.8664 66.0177 75.7474 65.8436 75.6661 65.6512C75.5848 65.4587 75.543 65.252 75.543 65.0431C75.543 64.8342 75.5848 64.6275 75.6661 64.435C75.7474 64.2426 75.8664 64.0685 76.0162 63.9228L112.783 26.9832C113.414 26.35 114.392 26.3515 114.966 26.9832C114.966 26.9832 123.698 35.6576 126.226 38.1859C126.371 38.3282 126.486 38.498 126.565 38.6854C126.644 38.8728 126.684 39.0741 126.684 39.2773C126.684 39.4805 126.644 39.6818 126.565 39.8692C126.486 40.0566 126.371 40.2264 126.226 40.3687L89.5163 77.366Z" fill="white"/>
<path d="M94.5146 69.2657C94.369 69.4155 94.1948 69.5347 94.0024 69.616C93.81 69.6973 93.6032 69.7392 93.3943 69.7392C93.1854 69.7392 92.9786 69.6973 92.7862 69.616C92.5937 69.5347 92.4196 69.4155 92.274 69.2657C90.3782 67.3699 86.4572 63.4782 84.5183 61.5677C84.3732 61.4254 84.258 61.2555 84.1793 61.0681C84.1006 60.8807 84.0601 60.6795 84.0601 60.4763C84.0601 60.273 84.1006 60.0718 84.1793 59.8844C84.258 59.697 84.3732 59.5272 84.5183 59.3849C86.2418 57.6614 89.5018 54.3729 91.2399 52.6056C91.867 51.9685 92.8488 51.9739 93.4805 52.6056C95.3763 54.5014 99.2972 58.3931 101.236 60.3036C101.872 60.9306 101.868 61.9116 101.236 62.5441L94.5146 69.2657Z" fill="#FCCAC2"/>
<path d="M105.257 58.293C105.111 58.4428 104.937 58.562 104.745 58.6433C104.552 58.7246 104.346 58.7665 104.137 58.7665C103.928 58.7665 103.721 58.7246 103.529 58.6433C103.336 58.562 103.162 58.4428 103.016 58.293C101.121 56.3972 97.1996 52.5055 95.2607 50.595C94.6244 49.9679 94.629 48.9862 95.2607 48.3545C96.9841 46.631 100.244 43.3425 101.982 41.5752C102.609 40.9381 103.591 40.9435 104.223 41.5752C106.119 43.471 110.04 47.3627 111.979 49.2732C112.615 49.9002 112.61 50.882 111.979 51.5137L105.257 58.293Z" fill="#EE4532"/>
<path d="M116 47.2619C115.369 47.8944 114.391 47.8944 113.817 47.2619C113.817 47.2619 108.001 41.4752 106.062 39.5647C105.917 39.4224 105.801 39.2525 105.723 39.0651C105.644 38.8777 105.604 38.6765 105.604 38.4733C105.604 38.27 105.644 38.0688 105.723 37.8814C105.801 37.694 105.917 37.5242 106.062 37.3819C107.785 35.6584 111.06 32.326 112.783 30.6025C112.926 30.4574 113.096 30.3422 113.283 30.2635C113.47 30.1848 113.672 30.1443 113.875 30.1443C114.078 30.1443 114.279 30.1848 114.467 30.2635C114.654 30.3422 114.824 30.4574 114.966 30.6025C116.862 32.4984 120.783 36.3901 122.722 38.3005C123.31 38.8791 123.356 39.8394 122.722 40.4834C120.488 42.7499 118.248 45.0094 116 47.2619Z" fill="#242BA8"/>
<path d="M87.0042 77.6377C87.0042 77.6377 77.0334 67.7245 75.8015 66.4927C75.6157 66.3115 75.468 66.0949 75.3672 65.8557C75.2663 65.6166 75.2144 65.3596 75.2144 65.1001C75.2144 64.8405 75.2663 64.5836 75.3672 64.3444C75.468 64.1052 75.6157 63.8886 75.8015 63.7074C78.6114 60.8683 109.749 29.6169 112.567 26.7701C113.253 26.0153 114.485 25.9584 115.296 26.7686C116.563 28.0358 125.295 36.7109 126.555 37.9712C127.317 38.733 127.317 39.9371 126.555 40.6981C120.952 46.3009 95.4324 71.9363 89.7895 77.6362C89.6081 77.8216 89.3914 77.9691 89.1523 78.0697C88.9131 78.1704 88.6563 78.2224 88.3968 78.2225C88.1373 78.2227 87.8804 78.171 87.6412 78.0706C87.4019 77.9702 87.1851 77.823 87.0035 77.6377H87.0042ZM113.125 27.2995C110.295 30.1586 79.1577 61.4107 76.3463 64.2506C75.8616 64.7354 75.8616 65.4648 76.3447 65.9487C77.5758 67.1798 87.5474 77.0937 87.5474 77.0937C88.0137 77.56 88.7785 77.5592 89.244 77.0937C94.8861 71.3947 120.408 45.7577 126.011 40.1541C126.12 40.0474 126.207 39.9199 126.266 39.7792C126.326 39.6385 126.356 39.4873 126.356 39.3347C126.356 39.182 126.326 39.0308 126.266 38.8901C126.207 38.7494 126.12 38.6219 126.011 38.5152C124.751 37.2549 116.019 28.5805 114.752 27.3125C114.262 26.8224 113.54 26.8432 113.125 27.2995Z" fill="#3C58D3"/>
<path d="M148.688 75.9873L107.842 68.8625C106.406 68.6332 105.085 69.5527 104.798 70.9892C104.669 71.6568 104.554 72.3271 104.453 72.9996L144.15 82.3634C145.587 82.7081 146.446 84.0861 146.104 85.5234C145.238 89.1581 134.497 134.412 134.614 134.412C136.051 134.699 137.314 134.875 138.348 135.044C139.784 135.278 141.122 134.357 141.393 132.918C143.227 123.172 149.148 88.7396 150.814 78.9734C150.961 77.3615 149.916 76.2096 148.688 75.9857V75.9873Z" fill="#EE4532"/>
<path d="M144.151 82.3634C135.479 80.2514 104.947 73.202 103.822 72.8273C102.361 72.4626 100.893 73.5121 100.662 74.7808C98.3635 84.4324 90.4024 118.461 88.0803 128.093C87.721 129.582 88.7797 131.024 90.0338 131.253C98.0188 133.149 122.389 138.846 130.363 140.789C131.845 141.151 133.294 140.092 133.523 138.835C133.81 137.687 146.104 85.5234 146.104 85.5234C146.391 84.1446 145.532 82.6997 144.151 82.3634Z" fill="white"/>
<path d="M140.014 86.0404C141.163 86.2705 141.931 87.4238 141.68 88.568C141.415 89.7798 141.105 90.9231 140.876 92.0727L140.704 92.0149C133.523 87.9932 125.83 95.9328 121.631 100.689C119.152 103.497 115.551 107.381 111.864 108.043L111.52 108.215C109.37 103.558 107.088 100.397 101.409 98.4488C100.967 98.2972 99.9492 98.0464 99.743 98.0464C99.663 98.0464 99.7938 98.071 98.939 97.874C100.375 91.7272 101.957 85.6588 103.42 79.4904C103.693 78.3378 104.814 77.6723 106.063 77.9393C117.47 80.376 128.755 83.1674 140.015 86.0397L140.014 86.0404Z" fill="#FCCAC2"/>
<path d="M140.704 92.0726L140.876 92.1303C138.635 101.552 134.269 120.453 134.269 120.453C130.822 122.693 126.571 125.853 121.975 124.417C115.367 122.351 113.852 113.729 111.462 108.331L111.807 108.159C114.047 107.756 116.527 105.928 118.126 104.425C122.516 100.296 131.846 87.1845 140.703 92.0734L140.704 92.0726Z" fill="#242BA8"/>
<path d="M130.925 141.251C130.391 141.251 130.666 141.27 89.8875 131.627C88.4794 131.371 87.2153 129.738 87.65 127.999C89.8944 118.331 97.994 84.0815 100.23 74.6908C100.621 73.2573 102.141 72.0255 103.857 72.4533L144.181 81.9887C145.83 82.3842 146.813 83.9761 146.419 85.6126C145.591 89.0942 134.093 137.907 133.837 138.928C133.616 140.155 132.34 141.251 130.923 141.251L130.925 141.251ZM103.148 73.1304C102.157 73.1304 101.228 73.956 100.976 74.8816C98.7427 84.2592 90.6438 118.507 88.3979 128.18C88.0739 129.475 89.0334 130.69 90.0452 130.874L130.394 140.415C131.673 140.734 132.899 139.796 133.086 138.767C133.346 137.727 144.842 88.9173 145.672 85.4341C145.964 84.2161 145.232 83.0305 144.003 82.7373C103.178 73.0104 103.516 73.1304 103.148 73.1304Z" fill="#3C58D3"/>
<path d="M109.221 134.165C107.985 134.165 106.941 133.121 106.941 131.884C106.941 130.648 107.985 129.604 109.221 129.604C110.458 129.604 111.502 130.648 111.502 131.884C111.502 133.121 110.458 134.165 109.221 134.165ZM109.221 130.373C108.402 130.373 107.71 131.065 107.71 131.884C107.71 132.704 108.402 133.396 109.221 133.396C110.041 133.396 110.733 132.704 110.733 131.884C110.733 131.065 110.041 130.373 109.221 130.373Z" fill="#3C58D3"/>
<path d="M140.109 85.725C129.911 83.1236 118.801 80.4914 106.137 77.6777C104.618 77.373 103.418 78.1678 103.046 79.5112C101.433 85.3334 94.7711 113.99 92.9884 122.1C92.7145 123.472 93.597 124.809 94.9365 125.076C103.957 127.377 128.274 133.186 129.52 133.186C130.777 133.186 131.681 132.429 131.998 131.291C134.29 123.068 135.869 115.395 137.768 107.158C138.899 102.254 141.87 89.6352 142.056 88.7011C142.333 87.3177 141.415 85.985 140.108 85.725H140.109ZM141.303 88.5495L133.936 120.248C130.267 122.654 126.399 125.377 122.142 124.046C115.114 121.981 114.022 111.542 110.766 105.964C109.259 103.191 107.063 100.932 104.422 99.4406C102.791 98.4627 100.994 98.0295 99.4122 97.6548C100.863 91.4594 102.217 85.3895 103.789 79.7174C104.006 78.931 104.623 78.384 105.518 78.384C106.732 78.384 131.541 84.5662 139.94 86.4759C140.394 86.5733 140.792 86.8456 141.047 87.2339C141.302 87.6222 141.395 88.0953 141.304 88.551L141.303 88.5495Z" fill="#3C58D3"/>
<path d="M39.0626 21.7897C39.0369 21.7462 39.0029 21.7081 38.9625 21.6778C38.9221 21.6474 38.8761 21.6253 38.8272 21.6128C38.7782 21.6002 38.7273 21.5974 38.6772 21.6045C38.6272 21.6116 38.5791 21.6285 38.5356 21.6542C38.0308 21.9528 36.9506 22.5198 35.8734 23.0846C34.7185 21.041 33.5567 18.8951 33.429 18.4766C33.4244 18.0749 32.8796 17.9495 32.7003 18.3088C32.5295 18.6504 33.916 21.2241 35.184 23.4462C32.5711 24.8165 32.5757 24.8365 32.6588 25.1743C32.7357 25.4867 33.1628 25.586 33.3582 25.3097C33.6359 25.1312 34.6239 24.6088 35.5672 24.1133C36.4135 25.5798 37.1222 26.7532 37.1406 26.7824C37.1949 26.8678 37.2806 26.9284 37.3791 26.951C37.4777 26.9737 37.5813 26.9566 37.6673 26.9035C37.7534 26.8504 37.8151 26.7655 37.8391 26.6673C37.8631 26.569 37.8474 26.4652 37.7954 26.3785C37.2679 25.5115 36.7541 24.6363 36.2543 23.7532C37.333 23.1885 38.4102 22.6214 38.928 22.3152C38.9715 22.2895 39.0095 22.2554 39.0399 22.215C39.0702 22.1746 39.0923 22.1286 39.1049 22.0797C39.1175 22.0308 39.1203 21.9798 39.1131 21.9298C39.106 21.8798 39.0891 21.8316 39.0634 21.7881L39.0626 21.7897Z" fill="#EE4532"/>
<path d="M53.0091 26.2546C51.7319 26.3461 50.5793 26.4262 49.5899 26.4931C49.3852 25.2851 48.8297 22.1298 48.8558 21.6681C49.0097 21.2811 48.5212 20.9595 48.2265 21.2534C47.9256 21.5542 48.1103 22.3667 48.8181 26.5447C47.4663 26.6347 46.5061 26.6624 46.0783 26.7124C45.4089 26.7893 45.0703 27.458 46.1413 27.458C46.6192 27.458 47.4555 27.4118 48.9459 27.3118C49.1475 28.5359 49.3237 29.6946 49.3783 30.4017C49.3818 30.4524 49.3953 30.5018 49.418 30.5473C49.4407 30.5927 49.4722 30.6331 49.5106 30.6663C49.5491 30.6995 49.5937 30.7247 49.6419 30.7406C49.6902 30.7565 49.7411 30.7626 49.7917 30.7587C49.8423 30.7548 49.8917 30.7409 49.9369 30.7178C49.9821 30.6947 50.0223 30.6629 50.0552 30.6243C50.0881 30.5856 50.113 30.5407 50.1285 30.4924C50.1439 30.444 50.1497 30.3931 50.1454 30.3425C50.0892 29.6154 49.92 28.4905 49.7168 27.2587L53.0638 27.0217C53.567 26.9848 53.5223 26.223 53.0091 26.2538V26.2546Z" fill="#EE4532"/>
</svg>
